<?xml version="1.0" encoding="UTF-8"?>
<svg width="625px" height="153px" viewBox="0 0 625 153" version="1.1" xmlns="http://www.w3.org/2000/svg" xmlns:xlink="http://www.w3.org/1999/xlink">
    <title>Group 13 Copy 2</title>
    <defs>
        <circle id="path-1" cx="46.8" cy="46.02" r="46.02"></circle>
        <filter x="-12.5%" y="-7.1%" width="125.0%" height="125.0%" filterUnits="objectBoundingBox" id="filter-3">
            <feOffset dx="0" dy="5" in="SourceAlpha" result="shadowOffsetOuter1"></feOffset>
            <feGaussianBlur stdDeviation="3" in="shadowOffsetOuter1" result="shadowBlurOuter1"></feGaussianBlur>
            <feColorMatrix values="0 0 0 0 0   0 0 0 0 0   0 0 0 0 0  0 0 0 0.11166958 0" type="matrix" in="shadowBlurOuter1" result="shadowMatrixOuter1"></feColorMatrix>
            <feOffset dx="0" dy="1" in="SourceAlpha" result="shadowOffsetOuter2"></feOffset>
            <feColorMatrix values="0 0 0 0 0   0 0 0 0 0   0 0 0 0 0  0 0 0 0.173568619 0" type="matrix" in="shadowOffsetOuter2" result="shadowMatrixOuter2"></feColorMatrix>
            <feMerge>
                <feMergeNode in="shadowMatrixOuter1"></feMergeNode>
                <feMergeNode in="shadowMatrixOuter2"></feMergeNode>
            </feMerge>
        </filter>
        <linearGradient x1="50%" y1="0%" x2="50%" y2="100%" id="linearGradient-4">
            <stop stop-color="#E9CDBA" offset="0%"></stop>
            <stop stop-color="#F6E8DE" offset="100%"></stop>
        </linearGradient>
        <polygon id="path-5" points="0.225322222 18.4678904 14.0219622 18.4678904 14.0219622 5.45696821e-13 0.225322222 5.45696821e-13"></polygon>
        <linearGradient x1="50%" y1="0%" x2="50%" y2="100%" id="linearGradient-7">
            <stop stop-color="#F6E8DE" offset="0%"></stop>
            <stop stop-color="#E9CDBA" offset="100%"></stop>
        </linearGradient>
        <linearGradient x1="1.05824815%" y1="0%" x2="59.1216559%" y2="75.2690578%" id="linearGradient-8">
            <stop stop-color="#6A6A6A" offset="0%"></stop>
            <stop stop-color="#393939" offset="100%"></stop>
        </linearGradient>
        <linearGradient x1="50%" y1="0%" x2="50%" y2="100%" id="linearGradient-9">
            <stop stop-color="#15B694" offset="0%"></stop>
            <stop stop-color="#4769FF" offset="100%"></stop>
        </linearGradient>
        <circle id="path-10" cx="39.5" cy="39.5" r="39"></circle>
        <filter x="-14.7%" y="-8.3%" width="129.5%" height="129.5%" filterUnits="objectBoundingBox" id="filter-11">
            <feOffset dx="0" dy="5" in="SourceAlpha" result="shadowOffsetOuter1"></feOffset>
            <feGaussianBlur stdDeviation="3" in="shadowOffsetOuter1" result="shadowBlurOuter1"></feGaussianBlur>
            <feColorMatrix values="0 0 0 0 0   0 0 0 0 0   0 0 0 0 0  0 0 0 0.11166958 0" type="matrix" in="shadowBlurOuter1" result="shadowMatrixOuter1"></feColorMatrix>
            <feOffset dx="0" dy="1" in="SourceAlpha" result="shadowOffsetOuter2"></feOffset>
            <feColorMatrix values="0 0 0 0 0   0 0 0 0 0   0 0 0 0 0  0 0 0 0.173568619 0" type="matrix" in="shadowOffsetOuter2" result="shadowMatrixOuter2"></feColorMatrix>
            <feMerge>
                <feMergeNode in="shadowMatrixOuter1"></feMergeNode>
                <feMergeNode in="shadowMatrixOuter2"></feMergeNode>
            </feMerge>
        </filter>
        <circle id="path-12" cx="39.5" cy="39.5" r="31.5441176"></circle>
        <filter x="-1.6%" y="-1.6%" width="103.2%" height="103.2%" filterUnits="objectBoundingBox" id="filter-13">
            <feOffset dx="0" dy="-2" in="SourceAlpha" result="shadowOffsetInner1"></feOffset>
            <feComposite in="shadowOffsetInner1" in2="SourceAlpha" operator="arithmetic" k2="-1" k3="1" result="shadowInnerInner1"></feComposite>
            <feColorMatrix values="0 0 0 0 1   0 0 0 0 1   0 0 0 0 1  0 0 0 0.5 0" type="matrix" in="shadowInnerInner1"></feColorMatrix>
        </filter>
        <circle id="path-14" cx="39.5" cy="39.5" r="31.5441176"></circle>
        <filter x="-1.6%" y="-1.6%" width="103.2%" height="103.2%" filterUnits="objectBoundingBox" id="filter-15">
            <feOffset dx="0" dy="-2" in="SourceAlpha" result="shadowOffsetInner1"></feOffset>
            <feComposite in="shadowOffsetInner1" in2="SourceAlpha" operator="arithmetic" k2="-1" k3="1" result="shadowInnerInner1"></feComposite>
            <feColorMatrix values="0 0 0 0 1   0 0 0 0 1   0 0 0 0 1  0 0 0 0.5 0" type="matrix" in="shadowInnerInner1"></feColorMatrix>
        </filter>
        <linearGradient x1="50%" y1="0%" x2="50%" y2="100%" id="linearGradient-16">
            <stop stop-color="#15B694" offset="0%"></stop>
            <stop stop-color="#4769FF" offset="100%"></stop>
        </linearGradient>
        <linearGradient x1="50%" y1="0%" x2="50%" y2="100%" id="linearGradient-17">
            <stop stop-color="#15B694" offset="0%"></stop>
            <stop stop-color="#4769FF" offset="100%"></stop>
        </linearGradient>
        <linearGradient x1="100%" y1="46.5329106%" x2="-10.5929669%" y2="51.1902134%" id="linearGradient-18">
            <stop stop-color="#15B694" offset="0%"></stop>
            <stop stop-color="#4769FF" stop-opacity="0" offset="100%"></stop>
        </linearGradient>
        <circle id="path-19" cx="46.8" cy="46.02" r="46.02"></circle>
        <filter x="-12.5%" y="-7.1%" width="125.0%" height="125.0%" filterUnits="objectBoundingBox" id="filter-21">
            <feOffset dx="0" dy="5" in="SourceAlpha" result="shadowOffsetOuter1"></feOffset>
            <feGaussianBlur stdDeviation="3" in="shadowOffsetOuter1" result="shadowBlurOuter1"></feGaussianBlur>
            <feColorMatrix values="0 0 0 0 0   0 0 0 0 0   0 0 0 0 0  0 0 0 0.11166958 0" type="matrix" in="shadowBlurOuter1" result="shadowMatrixOuter1"></feColorMatrix>
            <feOffset dx="0" dy="1" in="SourceAlpha" result="shadowOffsetOuter2"></feOffset>
            <feColorMatrix values="0 0 0 0 0   0 0 0 0 0   0 0 0 0 0  0 0 0 0.173568619 0" type="matrix" in="shadowOffsetOuter2" result="shadowMatrixOuter2"></feColorMatrix>
            <feMerge>
                <feMergeNode in="shadowMatrixOuter1"></feMergeNode>
                <feMergeNode in="shadowMatrixOuter2"></feMergeNode>
            </feMerge>
        </filter>
        <linearGradient x1="50%" y1="0%" x2="50%" y2="100%" id="linearGradient-22">
            <stop stop-color="#E9CDBA" offset="0%"></stop>
            <stop stop-color="#F6E8DE" offset="100%"></stop>
        </linearGradient>
        <path d="M0.41411664,14.1849772 C1.47716082,15.1283257 2.9687224,15.6 4.88880136,15.6 C6.80888032,15.6 9.74708774,15.1283257 13.7034236,14.1849772 L13.7034236,0.105512679 L0.41411664,0.105512679 L0.41411664,14.1849772 Z" id="path-23"></path>
        <linearGradient x1="50%" y1="0%" x2="50%" y2="100%" id="linearGradient-25">
            <stop stop-color="#F6E8DE" offset="0%"></stop>
            <stop stop-color="#E9CDBA" offset="100%"></stop>
        </linearGradient>
        <linearGradient x1="50%" y1="0%" x2="50%" y2="100%" id="linearGradient-26">
            <stop stop-color="#6A6A6A" offset="0%"></stop>
            <stop stop-color="#393939" offset="100%"></stop>
        </linearGradient>
        <linearGradient x1="50%" y1="0%" x2="50%" y2="100%" id="linearGradient-27">
            <stop stop-color="#F6E8DE" offset="0%"></stop>
            <stop stop-color="#E9CDBA" offset="100%"></stop>
        </linearGradient>
        <linearGradient x1="50%" y1="0%" x2="50%" y2="100%" id="linearGradient-28">
            <stop stop-color="#15B694" offset="0%"></stop>
            <stop stop-color="#4769FF" offset="100%"></stop>
        </linearGradient>
        <linearGradient x1="50%" y1="0%" x2="50%" y2="100%" id="linearGradient-29">
            <stop stop-color="#F6F6F6" offset="0%"></stop>
            <stop stop-color="#E9E9E9" offset="100%"></stop>
        </linearGradient>
        <linearGradient x1="50%" y1="0%" x2="50%" y2="100%" id="linearGradient-30">
            <stop stop-color="#F6F6F6" offset="0%"></stop>
            <stop stop-color="#E9E9E9" offset="100%"></stop>
        </linearGradient>
        <circle id="path-31" cx="19.4419684" cy="19.4419684" r="19.4419684"></circle>
        <filter x="-28.3%" y="-18.0%" width="156.6%" height="156.6%" filterUnits="objectBoundingBox" id="filter-32">
            <feOffset dx="0" dy="4" in="SourceAlpha" result="shadowOffsetOuter1"></feOffset>
            <feGaussianBlur stdDeviation="3" in="shadowOffsetOuter1" result="shadowBlurOuter1"></feGaussianBlur>
            <feColorMatrix values="0 0 0 0 0   0 0 0 0 0   0 0 0 0 0  0 0 0 0.065586757 0" type="matrix" in="shadowBlurOuter1"></feColorMatrix>
        </filter>
    </defs>
    <g id="Web" stroke="none" stroke-width="1" fill="none" fill-rule="evenodd">
        <g id="Group-13-Copy-2" transform="translate(0.000000, 0.950000)">
            <path d="M171.880701,77 L171.880701,75.896 L166.296701,75.896 L166.296701,71.896 L171.400701,71.896 L171.400701,70.808 L166.296701,70.808 L166.296701,66.904 L171.880701,66.904 L171.880701,65.8 L164.952701,65.8 L164.952701,77 L171.880701,77 Z M177.944701,77 L177.944701,66.904 L181.288701,66.904 L181.288701,65.8 L173.256701,65.8 L173.256701,66.904 L176.600701,66.904 L176.600701,77 L177.944701,77 Z M184.280701,77 L184.280701,71.848 L190.088701,71.848 L190.088701,77 L191.432701,77 L191.432701,65.8 L190.088701,65.8 L190.088701,70.744 L184.280701,70.744 L184.280701,65.8 L182.936701,65.8 L182.936701,77 L184.280701,77 Z M202.120701,75.848 L202.120701,72.92 L205.176701,72.92 L205.176701,71.784 L202.120701,71.784 L202.120701,68.872 L200.920701,68.872 L200.920701,71.784 L197.864701,71.784 L197.864701,72.92 L200.920701,72.92 L200.920701,75.848 L202.120701,75.848 Z M212.952701,77 L212.952701,71.928 L217.608701,71.928 L217.608701,70.84 L212.952701,70.84 L212.952701,66.904 L218.424701,66.904 L218.424701,65.8 L211.608701,65.8 L211.608701,77 L212.952701,77 Z M223.304701,77.192 C224.243368,77.192 225.014034,76.9493333 225.616701,76.464 C226.219368,75.9786667 226.627368,75.368 226.840701,74.632 L226.840701,74.632 L225.512701,74.632 C225.342034,75.0693333 225.070034,75.416 224.696701,75.672 C224.323368,75.928 223.859368,76.056 223.304701,76.056 C222.878034,76.056 222.475368,75.9546667 222.096701,75.752 C221.718034,75.5493333 221.403368,75.248 221.152701,74.848 C220.902034,74.448 220.760701,73.944 220.728701,73.336 L220.728701,73.336 L227.048701,73.336 C227.048701,73.1866667 227.051368,73.0533333 227.056701,72.936 C227.062034,72.8186667 227.064701,72.7013333 227.064701,72.584 C227.064701,71.9333333 226.915368,71.3253333 226.616701,70.76 C226.318034,70.1946667 225.888701,69.7386667 225.328701,69.392 C224.768701,69.0453333 224.104701,68.872 223.336701,68.872 C222.558034,68.872 221.872701,69.0453333 221.280701,69.392 C220.688701,69.7386667 220.227368,70.224 219.896701,70.848 C219.566034,71.472 219.400701,72.2 219.400701,73.032 C219.400701,73.8746667 219.568701,74.6053333 219.904701,75.224 C220.240701,75.8426667 220.702034,76.3253333 221.288701,76.672 C221.875368,77.0186667 222.547368,77.192 223.304701,77.192 Z M225.736701,72.296 L220.744701,72.296 C220.819368,71.5493333 221.104701,70.9813333 221.600701,70.592 C222.096701,70.2026667 222.664701,70.008 223.304701,70.008 C223.976701,70.008 224.542034,70.2106667 225.000701,70.616 C225.459368,71.0213333 225.704701,71.5813333 225.736701,72.296 L225.736701,72.296 Z M232.408701,77.192 C233.347368,77.192 234.118034,76.9493333 234.720701,76.464 C235.323368,75.9786667 235.731368,75.368 235.944701,74.632 L235.944701,74.632 L234.616701,74.632 C234.446034,75.0693333 234.174034,75.416 233.800701,75.672 C233.427368,75.928 232.963368,76.056 232.408701,76.056 C231.982034,76.056 231.579368,75.9546667 231.200701,75.752 C230.822034,75.5493333 230.507368,75.248 230.256701,74.848 C230.006034,74.448 229.864701,73.944 229.832701,73.336 L229.832701,73.336 L236.152701,73.336 C236.152701,73.1866667 236.155368,73.0533333 236.160701,72.936 C236.166034,72.8186667 236.168701,72.7013333 236.168701,72.584 C236.168701,71.9333333 236.019368,71.3253333 235.720701,70.76 C235.422034,70.1946667 234.992701,69.7386667 234.432701,69.392 C233.872701,69.0453333 233.208701,68.872 232.440701,68.872 C231.662034,68.872 230.976701,69.0453333 230.384701,69.392 C229.792701,69.7386667 229.331368,70.224 229.000701,70.848 C228.670034,71.472 228.504701,72.2 228.504701,73.032 C228.504701,73.8746667 228.672701,74.6053333 229.008701,75.224 C229.344701,75.8426667 229.806034,76.3253333 230.392701,76.672 C230.979368,77.0186667 231.651368,77.192 232.408701,77.192 Z M234.840701,72.296 L229.848701,72.296 C229.923368,71.5493333 230.208701,70.9813333 230.704701,70.592 C231.200701,70.2026667 231.768701,70.008 232.408701,70.008 C233.080701,70.008 233.646034,70.2106667 234.104701,70.616 C234.563368,71.0213333 234.808701,71.5813333 234.840701,72.296 L234.840701,72.296 Z" id="ETH+Fee" fill="#000000" fill-rule="nonzero"></path>
            <path d="M406.808701,70.192 C407.779368,70.192 408.558034,70.016 409.144701,69.664 C409.731368,69.312 410.227368,68.8106667 410.632701,68.16 L410.632701,68.16 L410.744701,70 L411.976701,70 L411.976701,64.016 L407.368701,64.016 L407.368701,65.072 L410.600701,65.072 C410.515368,66.288 410.168701,67.2453333 409.560701,67.944 C408.952701,68.6426667 408.051368,68.992 406.856701,68.992 C406.078034,68.992 405.395368,68.808 404.808701,68.44 C404.222034,68.072 403.763368,67.5466667 403.432701,66.864 C403.102034,66.1813333 402.936701,65.3653333 402.936701,64.416 C402.936701,63.4666667 403.104701,62.6506667 403.440701,61.968 C403.776701,61.2853333 404.248701,60.76 404.856701,60.392 C405.464701,60.024 406.179368,59.84 407.000701,59.84 C407.875368,59.84 408.592701,60.0373333 409.152701,60.432 C409.712701,60.8266667 410.067368,61.36 410.216701,62.032 L410.216701,62.032 L411.768701,62.032 C411.523368,60.9653333 410.982034,60.128 410.144701,59.52 C409.307368,58.912 408.259368,58.608 407.000701,58.608 C405.891368,58.608 404.928701,58.8533333 404.112701,59.344 C403.296701,59.8346667 402.667368,60.5173333 402.224701,61.392 C401.782034,62.2666667 401.560701,63.2746667 401.560701,64.416 C401.560701,65.5573333 401.779368,66.5626667 402.216701,67.432 C402.654034,68.3013333 403.267368,68.9786667 404.056701,69.464 C404.846034,69.9493333 405.763368,70.192 406.808701,70.192 Z M417.592701,70.192 C418.531368,70.192 419.302034,69.9493333 419.904701,69.464 C420.507368,68.9786667 420.915368,68.368 421.128701,67.632 L421.128701,67.632 L419.800701,67.632 C419.630034,68.0693333 419.358034,68.416 418.984701,68.672 C418.611368,68.928 418.147368,69.056 417.592701,69.056 C417.166034,69.056 416.763368,68.9546667 416.384701,68.752 C416.006034,68.5493333 415.691368,68.248 415.440701,67.848 C415.190034,67.448 415.048701,66.944 415.016701,66.336 L415.016701,66.336 L421.336701,66.336 C421.336701,66.1866667 421.339368,66.0533333 421.344701,65.936 C421.350034,65.8186667 421.352701,65.7013333 421.352701,65.584 C421.352701,64.9333333 421.203368,64.3253333 420.904701,63.76 C420.606034,63.1946667 420.176701,62.7386667 419.616701,62.392 C419.056701,62.0453333 418.392701,61.872 417.624701,61.872 C416.846034,61.872 416.160701,62.0453333 415.568701,62.392 C414.976701,62.7386667 414.515368,63.224 414.184701,63.848 C413.854034,64.472 413.688701,65.2 413.688701,66.032 C413.688701,66.8746667 413.856701,67.6053333 414.192701,68.224 C414.528701,68.8426667 414.990034,69.3253333 415.576701,69.672 C416.163368,70.0186667 416.835368,70.192 417.592701,70.192 Z M420.024701,65.296 L415.032701,65.296 C415.107368,64.5493333 415.392701,63.9813333 415.888701,63.592 C416.384701,63.2026667 416.952701,63.008 417.592701,63.008 C418.264701,63.008 418.830034,63.2106667 419.288701,63.616 C419.747368,64.0213333 419.992701,64.5813333 420.024701,65.296 L420.024701,65.296 Z M427.208701,70 L427.208701,68.848 L426.376701,68.848 C425.864701,68.848 425.507368,68.76 425.304701,68.584 C425.102034,68.408 425.000701,68.0693333 425.000701,67.568 L425.000701,67.568 L425.000701,63.2 L427.336701,63.2 L427.336701,62.064 L425.000701,62.064 L425.000701,60.16 L423.832701,60.16 L423.656701,62.064 L422.280701,62.064 L422.280701,63.2 L423.656701,63.2 L423.656701,67.568 C423.656701,68.4853333 423.864701,69.12 424.280701,69.472 C424.696701,69.824 425.267368,70 425.992701,70 L425.992701,70 L427.208701,70 Z M432.088701,70.192 C433.027368,70.192 433.771368,69.96 434.320701,69.496 C434.870034,69.032 435.139368,68.4426667 435.128701,67.728 C435.128701,67.152 434.987368,66.712 434.704701,66.408 C434.422034,66.104 434.059368,65.8746667 433.616701,65.72 C433.174034,65.5653333 432.707368,65.4346667 432.216701,65.328 C431.640701,65.2 431.184701,65.0453333 430.848701,64.864 C430.512701,64.6826667 430.344701,64.432 430.344701,64.112 C430.344701,63.7813333 430.475368,63.5146667 430.736701,63.312 C430.998034,63.1093333 431.368701,63.008 431.848701,63.008 C432.339368,63.008 432.731368,63.1226667 433.024701,63.352 C433.318034,63.5813333 433.491368,63.8986667 433.544701,64.304 L433.544701,64.304 L434.872701,64.304 C434.787368,63.5253333 434.475368,62.9253333 433.936701,62.504 C433.398034,62.0826667 432.707368,61.872 431.864701,61.872 C430.979368,61.872 430.278034,62.0933333 429.760701,62.536 C429.243368,62.9786667 428.984701,63.5466667 428.984701,64.24 C428.984701,64.72 429.128701,65.1066667 429.416701,65.4 C429.704701,65.6933333 430.062034,65.92 430.488701,66.08 C430.915368,66.24 431.342034,66.3626667 431.768701,66.448 C432.398034,66.576 432.886034,66.72 433.232701,66.88 C433.579368,67.04 433.752701,67.36 433.752701,67.84 C433.752701,68.1706667 433.619368,68.456 433.352701,68.696 C433.086034,68.936 432.670034,69.056 432.104701,69.056 C431.496701,69.056 431.014034,68.904 430.656701,68.6 C430.299368,68.296 430.078034,67.936 429.992701,67.52 L429.992701,67.52 L428.616701,67.52 C428.723368,68.3413333 429.091368,68.992 429.720701,69.472 C430.350034,69.952 431.139368,70.192 432.088701,70.192 Z M442.712701,70 L442.712701,64.928 L447.368701,64.928 L447.368701,63.84 L442.712701,63.84 L442.712701,59.904 L448.184701,59.904 L448.184701,58.8 L441.368701,58.8 L441.368701,70 L442.712701,70 Z M453.064701,70.192 C454.003368,70.192 454.774034,69.9493333 455.376701,69.464 C455.979368,68.9786667 456.387368,68.368 456.600701,67.632 L456.600701,67.632 L455.272701,67.632 C455.102034,68.0693333 454.830034,68.416 454.456701,68.672 C454.083368,68.928 453.619368,69.056 453.064701,69.056 C452.638034,69.056 452.235368,68.9546667 451.856701,68.752 C451.478034,68.5493333 451.163368,68.248 450.912701,67.848 C450.662034,67.448 450.520701,66.944 450.488701,66.336 L450.488701,66.336 L456.808701,66.336 C456.808701,66.1866667 456.811368,66.0533333 456.816701,65.936 C456.822034,65.8186667 456.824701,65.7013333 456.824701,65.584 C456.824701,64.9333333 456.675368,64.3253333 456.376701,63.76 C456.078034,63.1946667 455.648701,62.7386667 455.088701,62.392 C454.528701,62.0453333 453.864701,61.872 453.096701,61.872 C452.318034,61.872 451.632701,62.0453333 451.040701,62.392 C450.448701,62.7386667 449.987368,63.224 449.656701,63.848 C449.326034,64.472 449.160701,65.2 449.160701,66.032 C449.160701,66.8746667 449.328701,67.6053333 449.664701,68.224 C450.000701,68.8426667 450.462034,69.3253333 451.048701,69.672 C451.635368,70.0186667 452.307368,70.192 453.064701,70.192 Z M455.496701,65.296 L450.504701,65.296 C450.579368,64.5493333 450.864701,63.9813333 451.360701,63.592 C451.856701,63.2026667 452.424701,63.008 453.064701,63.008 C453.736701,63.008 454.302034,63.2106667 454.760701,63.616 C455.219368,64.0213333 455.464701,64.5813333 455.496701,65.296 L455.496701,65.296 Z M462.168701,70.192 C463.107368,70.192 463.878034,69.9493333 464.480701,69.464 C465.083368,68.9786667 465.491368,68.368 465.704701,67.632 L465.704701,67.632 L464.376701,67.632 C464.206034,68.0693333 463.934034,68.416 463.560701,68.672 C463.187368,68.928 462.723368,69.056 462.168701,69.056 C461.742034,69.056 461.339368,68.9546667 460.960701,68.752 C460.582034,68.5493333 460.267368,68.248 460.016701,67.848 C459.766034,67.448 459.624701,66.944 459.592701,66.336 L459.592701,66.336 L465.912701,66.336 C465.912701,66.1866667 465.915368,66.0533333 465.920701,65.936 C465.926034,65.8186667 465.928701,65.7013333 465.928701,65.584 C465.928701,64.9333333 465.779368,64.3253333 465.480701,63.76 C465.182034,63.1946667 464.752701,62.7386667 464.192701,62.392 C463.632701,62.0453333 462.968701,61.872 462.200701,61.872 C461.422034,61.872 460.736701,62.0453333 460.144701,62.392 C459.552701,62.7386667 459.091368,63.224 458.760701,63.848 C458.430034,64.472 458.264701,65.2 458.264701,66.032 C458.264701,66.8746667 458.432701,67.6053333 458.768701,68.224 C459.104701,68.8426667 459.566034,69.3253333 460.152701,69.672 C460.739368,70.0186667 461.411368,70.192 462.168701,70.192 Z M464.600701,65.296 L459.608701,65.296 C459.683368,64.5493333 459.968701,63.9813333 460.464701,63.592 C460.960701,63.2026667 461.528701,63.008 462.168701,63.008 C462.840701,63.008 463.406034,63.2106667 463.864701,63.616 C464.323368,64.0213333 464.568701,64.5813333 464.600701,65.296 L464.600701,65.296 Z" id="GetsFee" fill="#000000" fill-rule="nonzero"></path>
            <path d="M422.304701,131.742 C423.083368,131.742 423.787368,131.59 424.416701,131.286 C425.046034,130.982 425.547368,130.51 425.920701,129.87 C426.294034,129.23 426.480701,128.414 426.480701,127.422 L426.480701,127.422 L426.480701,120.35 L425.136701,120.35 L425.136701,127.438 C425.136701,128.526 424.880701,129.315333 424.368701,129.806 C423.856701,130.296667 423.179368,130.542 422.336701,130.542 C421.494034,130.542 420.811368,130.296667 420.288701,129.806 C419.766034,129.315333 419.504701,128.526 419.504701,127.438 L419.504701,127.438 L419.504701,120.35 L418.160701,120.35 L418.160701,127.422 C418.160701,128.414 418.347368,129.23 418.720701,129.87 C419.094034,130.51 419.592701,130.982 420.216701,131.286 C420.840701,131.59 421.536701,131.742 422.304701,131.742 Z M432.320701,131.742 C433.163368,131.742 433.864701,131.592667 434.424701,131.294 C434.984701,130.995333 435.403368,130.608667 435.680701,130.134 C435.958034,129.659333 436.096701,129.155333 436.096701,128.622 C436.096701,127.992667 435.976701,127.475333 435.736701,127.07 C435.496701,126.664667 435.163368,126.334 434.736701,126.078 C434.310034,125.822 433.830034,125.598 433.296701,125.406 C432.656701,125.192667 432.091368,125.003333 431.600701,124.838 C431.110034,124.672667 430.728701,124.462 430.456701,124.206 C430.184701,123.95 430.048701,123.582 430.048701,123.102 C430.048701,122.536667 430.243368,122.094 430.632701,121.774 C431.022034,121.454 431.520701,121.299333 432.128701,121.31 C432.619368,121.31 433.027368,121.406 433.352701,121.598 C433.678034,121.79 433.920701,122.038 434.080701,122.342 C434.240701,122.646 434.320701,122.952667 434.320701,123.262 L434.320701,123.262 L435.728701,123.262 C435.718034,122.664667 435.566034,122.131333 435.272701,121.662 C434.979368,121.192667 434.568701,120.824667 434.040701,120.558 C433.512701,120.291333 432.891368,120.158 432.176701,120.158 C431.451368,120.158 430.824701,120.288667 430.296701,120.55 C429.768701,120.811333 429.360701,121.174 429.072701,121.638 C428.784701,122.102 428.646034,122.632667 428.656701,123.23 C428.656701,123.944667 428.864701,124.523333 429.280701,124.966 C429.696701,125.408667 430.336701,125.779333 431.200701,126.078 C431.659368,126.238 432.099368,126.382 432.520701,126.51 C432.942034,126.638 433.315368,126.787333 433.640701,126.958 C433.966034,127.128667 434.224701,127.35 434.416701,127.622 C434.608701,127.894 434.704701,128.254 434.704701,128.702 C434.704701,129.246 434.496701,129.699333 434.080701,130.062 C433.664701,130.424667 433.078034,130.606 432.320701,130.606 C431.744701,130.606 431.262034,130.496667 430.872701,130.278 C430.483368,130.059333 430.187368,129.766 429.984701,129.398 C429.782034,129.03 429.680701,128.627333 429.680701,128.19 L429.680701,128.19 L428.272701,128.19 C428.272701,128.894 428.438034,129.512667 428.768701,130.046 C429.099368,130.579333 429.568701,130.995333 430.176701,131.294 C430.784701,131.592667 431.499368,131.742 432.320701,131.742 Z M441.440701,131.55 C443.414034,131.55 444.867368,131.051333 445.800701,130.054 C446.734034,129.056667 447.200701,127.699333 447.200701,125.982 C447.200701,124.232667 446.734034,122.856667 445.800701,121.854 C444.867368,120.851333 443.414034,120.35 441.440701,120.35 L441.440701,120.35 L438.000701,120.35 L438.000701,131.55 L441.440701,131.55 Z M441.408701,130.43 L439.344701,130.43 L439.344701,121.47 L441.408701,121.47 C442.496701,121.47 443.363368,121.651333 444.008701,122.014 C444.654034,122.376667 445.115368,122.894 445.392701,123.566 C445.670034,124.238 445.808701,125.043333 445.808701,125.982 C445.808701,126.899333 445.670034,127.691333 445.392701,128.358 C445.115368,129.024667 444.654034,129.536667 444.008701,129.894 C443.363368,130.251333 442.496701,130.43 441.408701,130.43 L441.408701,130.43 Z M452.528701,131.55 L452.528701,121.454 L455.872701,121.454 L455.872701,120.35 L447.840701,120.35 L447.840701,121.454 L451.184701,121.454 L451.184701,131.55 L452.528701,131.55 Z" id="USDT" fill="#000000" fill-rule="nonzero"></path>
            <g id="Group-12" transform="translate(0.204701, 21.000000)">
                <g id="Group-10" transform="translate(20.280000, 26.703529)">
                    <mask id="mask-2" fill="white">
                        <use xlink:href="#path-1"></use>
                    </mask>
                    <g id="Mask">
                        <use fill="black" fill-opacity="1" filter="url(#filter-3)" xlink:href="#path-1"></use>
                        <use fill="#5A6476" fill-rule="evenodd" xlink:href="#path-1"></use>
                    </g>
                </g>
                <g id="Group-10" transform="translate(28.080000, 14.223529)">
                    <g id="Group" transform="translate(40.620000, 40.500000) scale(-1, 1) translate(-40.620000, -40.500000) translate(9.120000, 0.000000)">
                        <g id="Path-9" transform="translate(24.379791, 54.488567)">
                            <mask id="mask-6" fill="white">
                                <use xlink:href="#path-5"></use>
                            </mask>
                            <use id="Mask" fill="url(#linearGradient-4)" xlink:href="#path-5"></use>
                            <path d="M14.5167432,4.86503033 C5.46453837,7.77764025 0.322029968,9.23394522 -0.910782019,9.23394522 C-2.14359401,9.23394522 -2.76,7.77764025 -2.76,4.86503033 L12.7321564,0 L17.8322916,0 L14.5167432,4.86503033 Z" fill="#C39F87" opacity="0.532203311" mask="url(#mask-6)"></path>
                        </g>
                        <path d="M62.7249339,80.9436917 C58.8874357,75.0044665 52.8575609,73.396276 52.8575609,73.396276 L38.401753,68.0389986 L24.605113,68.0389986 L10.15602,73.396276 C10.15602,73.396276 4.12278783,75.0044665 0.281932174,80.9436917 L62.7249339,80.9436917" id="Fill-5" fill="#F2E0D3"></path>
                        <path d="M8.28483391,28.2438395 C7.96588174,25.7302725 7.6961713,24.8629465 7.63126174,18.904696 C7.60104522,16.0934404 8.15277652,11.8552934 11.6455826,11.4960525 C16.4847026,11.0002778 17.9776226,19.3635395 18.2630009,22.9828073 C18.6569348,27.9774865 17.4180574,33.3672186 16.4556052,38.2555804 C16.1086748,40.0215682 16.1467252,43.5468291 14.1613878,44.3973682 C12.4591904,45.1292795 12.7479261,45.3978708 11.8828383,44.1220621 C9.79006435,41.0444534 8.73136696,31.8026743 8.28483391,28.2438395" id="Fill-8" fill="#393939"></path>
                        <path d="M16.1870139,61.4730604 C16.1870139,61.4730604 18.1052035,62.6929125 20.7083009,62.3582925 C23.3113983,62.0236725 27.7979922,60.9660943 27.7979922,60.9660943 C38.1275661,57.4553821 41.5554626,57.6668978 43.6874061,52.2973099 C43.7545539,52.1327978 50.8666278,24.3839586 50.8666278,24.3839586 C52.1872017,9.9538908 37.0878939,6.95462123 34.805987,6.57859341 C32.5509391,6.06043602 18.170113,2.0629021 13.9241322,15.909903 C13.9241322,15.909903 7.64916783,31.9582334 10.8991226,51.9190438 C12.8150739,59.4093838 16.1870139,61.4730604 16.1870139,61.4730604 Z" id="Fill-9" fill="url(#linearGradient-7)"></path>
                        <path d="M31.451953,1.82228906 C35.7482948,1.24929428 40.7373783,0.161499495 44.9766443,1.54474471 C50.6237765,3.39354819 50.6036322,9.82854819 53.1574878,14.2222543 C55.8758557,18.9002195 57.5903635,22.8563456 57.354227,27.9517465 C57.1729278,31.8966812 55.6341235,29.9617047 55.0644861,34.0017656 C54.4310583,38.4950743 53.5715661,38.8431238 51.4373843,42.602283 L43.6874061,52.2973099 C44.9285217,47.3787317 43.9895713,46.4711169 45.1221313,42.6940517 C46.4829939,38.1615734 46.0845835,32.0936482 44.0634339,27.4380656 C42.2773017,23.3196656 41.035067,23.4069578 37.2289043,22.4098125 C32.3371852,21.1295273 28.1158252,20.6527778 23.034973,20.5699621 C18.3917009,20.4972186 13.338827,20.3618038 9.57071478,17.2606934 C6.10141043,14.4013151 4.81776783,8.07598993 6.15289043,3.72145341 C6.15289043,3.72145341 8.28483391,-1.07849703 14.2632287,0.2241708 C17.9261426,1.02658732 21.6506087,2.09983341 25.4176017,2.22181863 C27.5025417,2.28784732 29.4968322,2.08192732 31.451953,1.82228906" id="Fill-11" fill="url(#linearGradient-8)"></path>
                        <path d="M44.1708704,39.951063 C44.1708704,39.951063 46.7224878,34.3867465 50.739047,37.6825856 C50.739047,37.6825856 52.5643487,39.1094769 50.3126583,42.8294665 C50.3126583,42.8294665 47.0470357,48.1833865 43.1300791,45.2188099 L44.1708704,39.951063" id="Fill-12" fill="#E9CDBA"></path>
                        <path d="M44.5726383,26.978103 C44.5726383,26.978103 44.5524939,36.9372447 42.7215965,42.216183 L44.6666452,42.602283 C44.6666452,42.602283 45.6850539,35.7744682 49.1991235,35.6916525 L44.5726383,26.978103" id="Fill-13" fill="#393939"></path>
                    </g>
                    <g id="Group-9" transform="translate(0.000000, 69.311450)" fill="url(#linearGradient-9)" fill-rule="nonzero">
                        <path d="M51.8390348,0.15773043 L63.6610532,4.53714456 L63.6610532,4.53714456 L63.6769663,4.54150292 C63.9132205,4.60716588 66.7446264,5.42647782 69.7900122,7.78899436 C72.9835532,9.41609136 74.8423574,12.2965065 74.8423574,12.2965065 C76.2917635,14.9001582 79.9764706,23.5450017 83.823156,36.0377304 L83.823156,36.0377304 L70.4914778,36.0367304 L70.4917394,36.0377304 L0.687477786,36.0377304 C1.37740731,30.2342595 1.46771536,26.3423007 1.47186161,24.8266926 L1.47161841,24.5384616 C1.47029868,24.2589954 1.46617361,24.1161253 1.46617361,24.1161253 C2.53013225,16.694217 5.83595448,12.4536686 9.30386351,10.0311699 C13.0936491,5.91882362 17.564473,4.62473347 17.8640582,4.54150292 L17.8799778,4.53714456 L29.3444441,0.286113255 C34.300532,3.13887311 38.4202515,4.55588354 41.7036025,4.53714456 C44.9869535,4.51840557 48.3654309,3.05860086 51.8390348,0.15773043 L51.8390348,0.15773043 Z" id="Combined-Shape"></path>
                    </g>
                </g>
            </g>
            <line x1="120.804701" y1="94.05" x2="313.5" y2="94.05" id="Path-19" stroke="#C6C8CC" stroke-width="1.2" stroke-dasharray="5"></line>
            <line x1="341.304701" y1="83.089744" x2="513.304701" y2="83.089744" id="Path-19-Copy" stroke="#C6C8CC" stroke-width="1.2" stroke-dasharray="5"></line>
            <line x1="341.304701" y1="104.089744" x2="513.304701" y2="104.089744" id="Path-19-Copy-2" stroke="#C6C8CC" stroke-width="1.2" stroke-dasharray="5"></line>
            <g id="Group-8" transform="translate(274.304701, 54.550000)">
                <g id="Oval">
                    <use fill="black" fill-opacity="1" filter="url(#filter-11)" xlink:href="#path-10"></use>
                    <use fill="#FFFFFF" fill-rule="evenodd" xlink:href="#path-10"></use>
                </g>
                <g id="Oval-Copy-7" opacity="0.564429874">
                    <use fill="#FAFAFB" fill-rule="evenodd" xlink:href="#path-12"></use>
                    <use fill="black" fill-opacity="1" filter="url(#filter-13)" xlink:href="#path-12"></use>
                </g>
                <g id="Oval-Copy-7" opacity="0.564429874">
                    <use fill="#FAFAFB" fill-rule="evenodd" xlink:href="#path-14"></use>
                    <use fill="black" fill-opacity="1" filter="url(#filter-15)" xlink:href="#path-14"></use>
                </g>
                <g id="Group-6" transform="translate(3.636476, 3.941176)" fill="url(#linearGradient-16)" fill-rule="nonzero">
                    <path d="M35.5588235,2.60810981e-13 C55.1974195,2.60810981e-13 71.1176471,15.9202276 71.1176471,35.5588235 C71.1176471,55.1974195 55.1974195,71.1176471 35.5588235,71.1176471 C15.9202276,71.1176471 0,55.1974195 0,35.5588235 C0,15.9202276 15.9202276,2.60810981e-13 35.5588235,2.60810981e-13 Z M35.5588235,1.40363777 C16.6954353,1.40363777 1.40363777,16.6954353 1.40363777,35.5588235 C1.40363777,54.4222118 16.6954353,69.7140093 35.5588235,69.7140093 C54.4222118,69.7140093 69.7140093,54.4222118 69.7140093,35.5588235 C69.7140093,16.6954353 54.4222118,1.40363777 35.5588235,1.40363777 Z" id="Combined-Shape"></path>
                    <path d="M35.5588235,3.44117647 C53.2969102,3.44117647 67.6764706,17.8207369 67.6764706,35.5588235 C67.6764706,53.2969102 53.2969102,67.6764706 35.5588235,67.6764706 C17.8207369,67.6764706 3.44117647,53.2969102 3.44117647,35.5588235 C3.44117647,17.8207369 17.8207369,3.44117647 35.5588235,3.44117647 Z M35.5588235,3.9977004 C18.1280965,3.9977004 3.9977004,18.1280965 3.9977004,35.5588235 C3.9977004,52.9895505 18.1280965,67.1199467 35.5588235,67.1199467 C52.9895505,67.1199467 67.1199467,52.9895505 67.1199467,35.5588235 C67.1199467,18.1280965 52.9895505,3.9977004 35.5588235,3.9977004 Z" id="Combined-Shape-Copy"></path>
                </g>
                <g id="noun_Science_1788342" transform="translate(23.727941, 22.294118)" fill="url(#linearGradient-17)" fill-rule="nonzero">
                    <g id="Group">
                        <path d="M15.7720691,0 C16.8025964,0 17.7746867,0.456572721 18.630973,1.2329482 C19.0198049,0.986677498 19.4765077,0.83952106 19.9686253,0.83952106 C21.3542694,0.83952106 22.486559,1.97181486 22.486559,3.35745476 C22.486559,4.24043955 22.0246566,5.03217442 21.332506,5.48196131 C21.4984882,5.89221664 21.6437436,6.33450009 21.7915044,6.78027087 C23.0421914,6.52191829 24.2210628,6.36792566 25.2930059,6.36061526 C27.7804474,6.3436192 29.7743488,7.02939523 30.6829577,8.60314996 C31.242216,9.57181164 31.3005901,10.7358776 30.971471,11.9735091 C30.6423518,13.2111407 29.9290506,14.5326236 28.9125356,15.881552 C28.5828877,16.3189843 28.2039051,16.7649523 27.8109396,17.2060943 C28.2039051,17.6472363 28.5828877,18.0800691 28.9125356,18.5175181 C29.9290506,19.8664591 30.6423518,21.1879127 30.971471,22.425561 C31.3005901,23.6631674 31.242216,24.8403853 30.6829577,25.8090344 C30.6749003,25.822883 30.6648706,25.8224634 30.6567292,25.8350531 C30.7992737,26.1501725 30.8796713,26.4909328 30.8796713,26.8579636 C30.8796713,28.2435825 29.7473859,29.3758973 28.3617376,29.3758973 C27.3884975,29.3758973 26.5379185,28.8246377 26.1192029,28.0120166 C24.8334536,28.0928003 23.3741936,27.9708903 21.7915044,27.6448179 C21.6070112,28.2001062 21.4138269,28.7317259 21.2013637,29.2316197 C20.5408215,30.7858563 19.7484991,32.0658478 18.8408008,32.9691985 C17.9331025,33.8725492 16.8905017,34.4117647 15.7720691,34.4117647 C14.6536365,34.4117647 13.6110357,33.8725492 12.7033374,32.9691985 C11.7956391,32.0658478 11.0033167,30.7858563 10.3427746,29.2316197 C10.1303113,28.7317259 9.93712708,28.2001062 9.75263388,27.6448179 C9.07348421,27.7852766 8.41613146,27.8793634 7.78549818,27.9464244 C7.6678771,29.2245695 6.58836339,30.2283018 5.28067872,30.2283018 C3.89503043,30.2283018 2.76274502,29.096029 2.76274502,27.7103681 C2.76274502,27.6193448 2.76652192,27.5367146 2.77583828,27.4480833 C1.9513241,27.0835705 1.28043746,26.5350386 0.861159531,25.8088246 C0.301901697,24.8401755 0.243527601,23.6629576 0.572646715,22.4253512 C0.901765408,21.1877028 1.61506665,19.8662493 2.63158166,18.5173083 C2.96122954,18.0798592 3.34021213,17.6470264 3.73317765,17.2058845 C3.34021213,16.7647425 2.96122954,16.3187744 2.63158166,15.8813422 C1.61506665,14.5324138 0.901765408,13.2109308 0.572646715,11.9732993 C0.243527601,10.7356677 0.301901697,9.57160181 0.861159531,8.60294013 C1.76976849,7.02918541 3.76367403,6.34344295 6.25111135,6.36040543 C7.32305447,6.36770744 8.50192585,6.52170846 9.75261289,6.78006105 C9.938193,6.21991732 10.1288048,5.67041606 10.3427536,5.16700977 C11.0032957,3.61279422 11.7956181,2.34591686 12.7033164,1.44256618 C13.6110357,0.539215501 14.6536365,0 15.7720691,0 L15.7720691,0 Z M15.7720691,0.83952106 C14.920462,0.83952106 14.092813,1.23740914 13.2934781,2.03291672 C12.4941433,2.8284243 11.747001,4.01158036 11.1165146,5.49507555 C10.9231583,5.9500326 10.7492069,6.44258659 10.5788309,6.95075597 C12.2224792,7.35044017 13.9763627,7.95578501 15.7720691,8.74740657 C17.5723288,7.95377485 19.3311642,7.35043178 20.9784216,6.95075597 C20.8464231,6.55632165 20.7050957,6.17246266 20.558766,5.80981726 C20.3704833,5.8551065 20.1703579,5.87538845 19.9686253,5.87538845 C18.582977,5.87538845 17.4506916,4.74309465 17.4506916,3.35745476 C17.4506916,2.76800648 17.6593444,2.22695288 18.0014896,1.79686043 C17.2809954,1.16060377 16.532078,0.83952106 15.7720691,0.83952106 Z M19.9686253,1.67883229 C19.0365785,1.67883229 18.2900028,2.42541222 18.2900028,3.35745476 C18.2900028,4.2894889 19.0365827,5.03607722 19.9686253,5.03607722 C20.9006678,5.03607722 21.6472477,4.2894889 21.6472477,3.35745476 C21.6472477,2.42541222 20.900672,1.67883229 19.9686253,1.67883229 L19.9686253,1.67883229 Z M25.2930059,7.19992649 C24.3126736,7.20659901 23.2243681,7.34245832 22.0537891,7.58023939 C22.5292128,9.20339178 22.8773045,11.0314704 23.0898139,12.9833054 C24.6773921,14.1458019 26.0902634,15.3639152 27.2601416,16.5897041 C27.6142932,16.1892771 27.9468157,15.7771921 28.2437095,15.383211 C29.214012,14.0956111 29.8685698,12.8535228 30.1583882,11.7636813 C30.4482066,10.6738399 30.374322,9.7602496 29.9485604,9.02280557 C29.2565105,7.82413904 27.6235969,7.18401315 25.2930059,7.19992649 Z M6.25113233,7.19992649 C3.9205371,7.18402154 2.28762772,7.82413904 1.59557784,9.02280557 C1.16981624,9.7602496 1.09593167,10.6738399 1.38575003,11.7636813 C1.6755684,12.8535228 2.33012625,14.0956111 3.30042878,15.383211 C3.59732254,15.7771921 3.92984506,16.1892771 4.28399663,16.5897041 C5.45387479,15.3639152 6.86674614,14.1458019 8.45432432,12.9833054 C8.66764366,11.0301569 9.01405678,9.20405903 9.49034912,7.58023939 C8.31977014,7.34245832 7.23146464,7.2066116 6.25113233,7.19992649 Z M21.2407064,7.75072449 C19.8410458,8.08698614 18.3480832,8.58186083 16.8080939,9.21951914 C17.7190488,9.65465585 18.6315815,10.1324296 19.5489697,10.6620853 C20.4720945,11.1950521 21.3481928,11.7524975 22.1849315,12.3275935 C21.970605,10.6705456 21.6478437,9.13441718 21.2407064,7.75072449 Z M10.3165461,7.75072449 C9.90849817,9.13150057 9.58900176,10.6749142 9.37232098,12.3275935 C10.2064033,11.7546713 11.0753338,11.1931511 11.9951686,10.6620853 C12.9125567,10.1324296 13.8250895,9.65465585 14.7360443,9.21951914 C13.2006083,8.58374088 11.7126396,8.08689801 10.3165461,7.75072449 Z M15.7720691,9.66540323 C14.6643545,10.1659391 13.5370295,10.7354621 12.4148242,11.3833684 C11.2901513,12.0326973 10.231079,12.7325738 9.2411786,13.4423038 C9.12094726,14.6543699 9.05757926,15.9078686 9.05757926,17.2060943 C9.05757926,18.4996407 9.12178657,19.7633077 9.2411786,20.9698596 C10.231079,21.6796231 11.2901513,22.3663476 12.4148242,23.0156807 C13.5395684,23.6650558 14.6620548,24.2454815 15.7720691,24.7467601 C16.8796662,24.2450619 18.0075242,23.6633772 19.129314,23.0156807 C20.2539869,22.3663476 21.3130592,21.6796231 22.3029596,20.9698596 C22.4223517,19.7633077 22.486559,18.4996407 22.486559,17.2060943 C22.486559,15.9088884 22.4213655,14.6535474 22.3029596,13.4423038 C21.3130592,12.7325738 20.2539869,12.0326973 19.129314,11.3833684 C18.0071088,10.7354621 16.8797837,10.1659391 15.7720691,9.66540323 Z M23.2078421,14.0980157 C23.287329,15.1093857 23.3258702,16.1411552 23.3258702,17.2060943 C23.3258702,18.2670676 23.2869681,19.307226 23.2078421,20.3141477 C24.5334502,19.2995044 25.7027199,18.2508269 26.6962294,17.2060943 C25.7027199,16.161349 24.5334502,15.1127052 23.2078421,14.0980157 Z M8.34941041,14.0980157 C7.02041143,15.1146734 5.84348726,16.1591752 4.84790887,17.2060943 C5.84141836,18.2508269 7.01068801,19.2995044 8.33629617,20.3141477 C8.25716171,19.307226 8.21826803,18.2670676 8.21826803,17.2060943 C8.21826803,16.1402655 8.26956673,15.1103383 8.34941041,14.0980157 Z M15.7720691,14.6881564 C17.1577174,14.6881564 18.2900028,15.8204502 18.2900028,17.2060943 C18.2900028,18.5917552 17.1577174,19.724028 15.7720691,19.724028 C14.3864208,19.724028 13.2541354,18.5917552 13.2541354,17.2060943 C13.2541354,15.8204502 14.3864208,14.6881564 15.7720691,14.6881564 Z M15.7720691,15.5274676 C14.8400266,15.5274676 14.0934467,16.2740392 14.0934467,17.2060943 C14.0934467,18.1381494 14.8400266,18.8847167 15.7720691,18.8847167 C16.7041117,18.8847167 17.4506916,18.1381494 17.4506916,17.2060943 C17.4506916,16.2740392 16.7041117,15.5274676 15.7720691,15.5274676 Z M27.2601416,17.8224844 C26.0894913,19.0490958 24.6786888,20.2656775 23.0898139,21.4288789 C22.8766666,23.3843902 22.5311348,25.2066607 22.0537891,26.831945 C23.4618974,27.1183599 24.7481796,27.2341429 25.8700324,27.1860084 C25.8563138,27.0800873 25.8438039,26.9677036 25.8438039,26.8581734 C25.8438039,25.4725126 26.9760935,24.3402398 28.3617376,24.3402398 C29.0417476,24.3402398 29.6649529,24.6199822 30.1190455,25.0615019 C30.3930512,24.3858563 30.4053807,23.5641706 30.1583672,22.6353888 C29.8685489,21.5455432 29.213991,20.3034465 28.2436885,19.0158591 C27.9467947,18.6218864 27.6142722,18.2229198 27.2601206,17.8224844 L27.2601416,17.8224844 Z M4.28399663,17.8224844 C3.92984506,18.2229198 3.59732254,18.6218864 3.30042878,19.0158591 C2.33012625,20.3034465 1.6755684,21.5455432 1.38575003,22.6353888 C1.09593167,23.7252344 1.16981624,24.651918 1.59557784,25.3893788 C1.89726826,25.911934 2.37387534,26.3202589 3.01191555,26.6221172 C3.42078182,25.7814211 4.2868335,25.1926442 5.28067872,25.1926442 C6.46103568,25.1926442 7.45056264,26.0204989 7.71992699,27.1204582 C8.28465755,27.0591885 8.87781139,26.9698018 9.49034912,26.8450382 C9.01121571,25.2166905 8.66800456,23.3892582 8.45432432,21.4288789 C6.8654494,20.2656775 5.45464696,19.0490958 4.28399663,17.8224844 Z M22.1849315,22.0714556 C21.3478822,22.6468034 20.4724806,23.2037704 19.5489697,23.7369848 C18.6263484,24.2696537 17.6975372,24.7425636 16.7818654,25.179551 C18.3250818,25.8198615 19.8252667,26.3100612 21.2275921,26.6483456 C21.6363745,25.2646571 21.9687795,23.7276684 22.1849315,22.0714556 L22.1849315,22.0714556 Z M9.35920674,22.0714556 C9.57535876,23.7276684 9.90776377,25.2646571 10.3165461,26.6483456 C11.7158374,26.3095996 13.2104577,25.8324092 14.7491586,25.1926442 C13.8363656,24.7564962 12.9152635,24.2681849 11.9951686,23.7369848 C11.0716576,23.2037704 10.196256,22.6468034 9.35920674,22.0714556 L9.35920674,22.0714556 Z M28.3617376,25.179551 C27.4296909,25.179551 26.6831151,25.9261183 26.6831151,26.8581734 C26.6831151,27.7901866 27.4296951,28.5367959 28.3617376,28.5367959 C29.2937801,28.5367959 30.0403601,27.7901866 30.0403601,26.8581734 C30.0403601,25.9261183 29.2937843,25.179551 28.3617376,25.179551 L28.3617376,25.179551 Z M15.7589549,25.6516636 C13.9644487,26.4425465 12.2204733,27.0621261 10.5788309,27.4614284 C10.748334,27.9657705 10.9243082,28.4517317 11.1165146,28.9039946 C11.747001,30.3874772 12.4941433,31.5706542 13.2934781,32.3661534 C14.092813,33.1616526 14.920462,33.5726633 15.7720691,33.5726633 C16.6236763,33.5726633 17.4513253,33.1616526 18.2506601,32.3661534 C19.0499949,31.5706542 19.7971372,30.3874772 20.4276236,28.9039946 C20.6198301,28.4517317 20.7958043,27.9657705 20.9653074,27.4614284 C19.3163294,27.0613287 17.5613716,26.448044 15.7589549,25.6516636 L15.7589549,25.6516636 Z M5.28067872,26.0319555 C4.34863199,26.0319555 3.60205626,26.7785648 3.60205626,27.7105779 C3.60205626,28.6426331 4.34863619,29.3892004 5.28067872,29.3892004 C6.21272125,29.3892004 6.95930118,28.6426331 6.95930118,27.7105779 C6.95930118,26.7785648 6.21272545,26.0319555 5.28067872,26.0319555 Z" id="Shape"></path>
                    </g>
                </g>
            </g>
            <g id="arrow-(4)" transform="translate(178.500000, 77.580672)" fill="url(#linearGradient-18)" fill-rule="nonzero">
                <path d="M23.2324425,11.4824497 L27.6536384,15.9035774 C27.7942023,16.0442095 27.8644046,16.2283283 27.8644046,16.4125382 C27.8644046,16.5968391 27.7940657,16.7810944 27.6535247,16.9216583 L23.2323287,21.3427177 C22.9510872,21.6240957 22.4951024,21.6240957 22.2139975,21.3427177 C21.9328698,21.06159 21.9328698,20.6056279 22.2139975,20.324523 L25.3048434,17.2335186 L0.368843367,17.2337355 L0.368843367,15.7662645 L25.4788434,15.7655186 L22.2141113,12.5007354 C21.9329836,12.2194939 21.9329836,11.7635774 22.2141113,11.4824497 C22.4952389,11.2012082 22.951201,11.2012082 23.2324425,11.4824497 Z" id="Combined-Shape"></path>
                <path d="M255.363599,0.680258831 L259.784795,5.10138652 C259.925359,5.24201863 259.995561,5.42613747 259.995561,5.61034733 C259.995561,5.79464821 259.925222,5.97890358 259.784681,6.11946743 L255.363485,10.5405268 C255.082244,10.8219048 254.626259,10.8219048 254.345154,10.5405268 C254.064026,10.2593992 254.064026,9.80343709 254.345154,9.52233216 L257.436,6.43132773 L232.5,6.43154459 L232.5,4.96407369 L257.61,4.96332773 L254.345268,1.69854455 C254.06414,1.41730308 254.06414,0.961386517 254.345268,0.680258831 C254.626396,0.399017364 255.082358,0.399017364 255.363599,0.680258831 Z" id="Combined-Shape"></path>
                <path d="M255.363599,21.6802588 L259.784795,26.1013865 C259.925359,26.2420186 259.995561,26.4261375 259.995561,26.6103473 C259.995561,26.7946482 259.925222,26.9789036 259.784681,27.1194674 L255.363485,31.5405268 C255.082244,31.8219048 254.626259,31.8219048 254.345154,31.5405268 C254.064026,31.2593992 254.064026,30.8034371 254.345154,30.5223322 L257.436,27.4313277 L232.5,27.4315446 L232.5,25.9640737 L257.61,25.9633277 L254.345268,22.6985445 C254.06414,22.4173031 254.06414,21.9613865 254.345268,21.6802588 C254.626396,21.3990174 255.082358,21.3990174 255.363599,21.6802588 Z" id="Combined-Shape-Copy-2" transform="translate(246.247781, 26.610444) scale(-1, 1) translate(-246.247781, -26.610444) "></path>
            </g>
            <g id="Group-12-Copy" transform="translate(499.304701, 21.000000)">
                <g id="Group-10" transform="translate(20.280000, 26.703529)">
                    <mask id="mask-20" fill="white">
                        <use xlink:href="#path-19"></use>
                    </mask>
                    <g id="Mask">
                        <use fill="black" fill-opacity="1" filter="url(#filter-21)" xlink:href="#path-19"></use>
                        <use fill="#5A6476" fill-rule="evenodd" xlink:href="#path-19"></use>
                    </g>
                </g>
                <g id="Group-2" transform="translate(34.177108, 11.103529)">
                    <path d="M12.1391049,95.5885793 C9.03452966,91.7229519 5.19153978,88.7789953 0.686671685,88.8975728 C0.686671685,88.8975728 0.341718876,91.000707 -4.43378667e-14,95.5885793 L12.1391049,95.5885793" id="Fill-135" fill="#29303E"></path>
                    <g id="Fill-139" transform="translate(26.255047, 61.083726)">
                        <mask id="mask-24" fill="white">
                            <use xlink:href="#path-23"></use>
                        </mask>
                        <use id="Mask" fill="url(#linearGradient-22)" xlink:href="#path-23"></use>
                        <path d="M-3.24561707,6.63932899 C-3.24561707,6.63932899 -1.26645033,7.5599218 1.18055866,6.91744719 C3.62756765,6.27497258 7.78101507,4.70220337 7.78101507,4.70220337 C17.2057726,0.0582761795 20.5033059,-0.167021124 21.8712593,-5.56337663 C21.9154564,-5.72938517 25.2345492,-33.1218721 25.2345492,-33.1218721 C24.6934045,-47.0676674 9.89708495,-48.046471 7.66998338,-48.1186955 C5.45366158,-48.3310571 -8.78103167,-50.3544209 -11.1040732,-36.5951157 C-11.1040732,-36.5951157 -15.0915121,-20.4825856 -9.49034089,-1.82602854 C-6.72425055,5.09027528 -3.24561707,6.63932899 -3.24561707,6.63932899 Z" fill="#C39F87" opacity="0.532203311" mask="url(#mask-24)"></path>
                    </g>
                    <path d="M66.1199076,90.3517645 C64.326153,78.4713742 53.8816288,75.6901921 53.8816288,75.6901921 L39.958471,70.5320697 L31.1438488,75.8712924 L26.669164,70.5320697 L12.7513962,75.6901921 C12.7513962,75.6901921 2.30794989,78.4713742 0.514195281,90.3517645 L2.42329348,111.188579 L63.4853306,111.188579 L66.1199076,90.3517645 Z" id="Fill-138" fill="#F8F8FC"></path>
                    <path d="M23.0094303,66.1457791 C23.0094303,66.1457791 24.9885971,67.0663719 27.4356061,66.4238973 C29.8826151,65.7814227 34.0360625,64.2086535 34.0360625,64.2086535 C43.46082,59.5647263 46.7583533,59.339429 48.1263067,53.9430735 C48.1705038,53.7770649 51.4895966,26.384578 51.4895966,26.384578 C50.9484519,12.4387827 36.1521324,11.4599791 33.9250308,11.3877546 C31.708709,11.175393 17.4740157,9.15202921 15.1509742,22.9113344 C15.1509742,22.9113344 11.1635353,39.0238645 16.7647065,57.6804216 C19.5307969,64.5967254 23.0094303,66.1457791 23.0094303,66.1457791 Z" id="Fill-139" fill="url(#linearGradient-25)"></path>
                    <path d="M13.0596978,16.0521634 C11.846973,22.8100045 13.8832726,40.7001196 13.8832726,40.7001196 C13.8832726,40.7001196 14.4470548,22.7744312 19.2731602,18.9357533 C19.2731602,18.9357533 24.1089674,16.6622987 27.5229222,19.5070813 C27.5229222,19.5070813 43.6580899,13.2602016 45.8032652,29.6508499 L47.8816058,43.9297402 L48.1263067,53.9430735 C58.3369099,41.5064467 57.5909494,23.9914679 57.5909494,23.9914679 C57.5909494,23.9914679 59.389016,12.666236 51.2761571,11.1624573 C51.2761571,11.1624573 51.9833103,1.69889258 36.0540364,0.275962247 C36.0540364,0.275962247 38.3468946,3.32879461 39.193107,5.35862629 C39.193107,5.35862629 36.3526362,-1.4293982 21.1294375,0.275962247 C21.1294375,0.275962247 24.9627256,1.43155416 26.669164,4.12434202 C26.669164,4.12434202 23.3640849,5.69926719 13.7819427,0 C13.7819427,0 3.14985034,9.93140697 13.0596978,16.0521634" id="Fill-142" fill="url(#linearGradient-26)"></path>
                    <path d="M47.0440173,42.0917885 C47.0440173,42.0917885 48.7881849,36.4572 53.0332604,39.1036348 C53.0332604,39.1036348 54.9542164,40.2387452 53.2693375,44.0752672 C53.2693375,44.0752672 50.8212506,49.5934342 46.7076883,47.252067 L47.0440173,42.0917885" id="Fill-143" fill="url(#linearGradient-27)"></path>
                    <path d="M39.958471,70.5320697 L53.8816288,75.6901921 L53.8816288,75.6901921 L53.8979557,75.6946782 C54.1309979,75.7597202 56.8227038,76.5438721 59.6470533,78.8167401 C63.8533186,80.9352374 65.1950029,85.5730901 65.1950029,85.5730901 C65.5399557,86.2295784 66.8626342,89.9033258 68.6359072,95.5885793 L68.6359072,95.5885793 L65.457471,95.5880697 L63.4853306,111.188579 L39.958471,111.188579 L39.958471,70.5320697 Z" id="Combined-Shape" fill="#29303E"></path>
                    <path d="M21.9831957,72.2708474 L12.7513962,75.6901921 C12.7513962,75.6901921 2.30794989,78.4713742 0.514195281,90.3517645 L2.42329348,111.188579 L21.442051,111.188579 L21.9831957,72.2708474 Z" id="Fill-146" fill="#29303E"></path>
                    <path d="M32.8686128,83.5238548 L32.902892,109.016471 L26.8425024,109.016471 L28.5189735,83.5238548 L32.8686128,83.5238548 Z M36.0540364,75.7527148 L36.0540364,80.3384312 L32.8686128,83.5195429 L28.5189735,83.5195429 L26.669164,79.6377458 L26.669164,75.7527148 L36.0540364,75.7527148 Z" id="Combined-Shape" fill="url(#linearGradient-28)"></path>
                    <polyline id="Fill-149" fill="url(#linearGradient-29)" points="31.1438488 75.7808314 39.958471 67.5903582 47.2423652 72.1739186 37.6160258 81.6698226 31.1438488 75.7808314"></polyline>
                    <polyline id="Fill-150" fill="url(#linearGradient-30)" points="31.1438488 75.8039892 26.5247151 68.5739939 19.2731602 72.4115939 24.7115569 81.1583036 31.1438488 75.8039892"></polyline>
                </g>
                <g id="Group-11" transform="translate(0.000000, 53.223529)">
                    <g id="Oval">
                        <use fill="black" fill-opacity="1" filter="url(#filter-32)" xlink:href="#path-31"></use>
                        <use fill="#FFFFFF" fill-rule="evenodd" xlink:href="#path-31"></use>
                    </g>
                    <circle id="Oval" fill="#4769FF" opacity="0.281784784" cx="19.4419684" cy="19.4419684" r="16.848"></circle>
                    <path d="M19.9610828,25.4643445 C21.2092265,25.4643445 22.1737012,25.157982 22.8545069,24.5452569 C23.5353125,23.9325318 23.8757154,23.1552786 23.8757154,22.2134974 C23.8757154,21.4986515 23.6544535,20.8717429 23.2119298,20.3327718 C22.7694062,19.7938006 22.2077415,19.4562345 21.5269358,19.3200733 C22.1056206,19.1612187 22.5963681,18.8576928 22.9991781,18.4094957 C23.4019881,17.9612987 23.6033931,17.362757 23.6033931,16.6138708 C23.6033931,15.7174767 23.2771737,14.9827739 22.624735,14.4097624 C21.9722962,13.836751 21.0276783,13.5502453 19.7908813,13.5502453 L19.7908813,13.5502453 L15.0082215,13.5502453 L15.0082215,25.4643445 L19.9610828,25.4643445 Z M19.4674987,18.554167 L17.1867997,18.554167 L17.1867997,15.3033199 L19.4334584,15.3033199 C20.0802238,15.3033199 20.5652978,15.4479911 20.8886805,15.7373335 C21.2120632,16.0266759 21.3737545,16.4209758 21.3737545,16.9202333 C21.3737545,17.4421844 21.2092265,17.8449944 20.8801704,18.1286634 C20.5511143,18.4123324 20.0802238,18.554167 19.4674987,18.554167 L19.4674987,18.554167 Z M19.6206799,23.6942498 L17.1867997,23.6942498 L17.1867997,20.1881006 L19.5866396,20.1881006 C20.2220583,20.1881006 20.7269891,20.3469552 21.1014323,20.6646645 C21.4758754,20.9823738 21.6630969,21.4192242 21.6630969,21.9752155 C21.6630969,22.51986 21.4843855,22.9425268 21.1269625,23.243216 C20.7695395,23.5439052 20.2674453,23.6942498 19.6206799,23.6942498 L19.6206799,23.6942498 Z" id="B" fill="#4769FF" fill-rule="nonzero"></path>
                </g>
            </g>
            <path d="M51.6837009,13 C53.0037009,13 54.0237009,12.676 54.7437009,12.028 C55.4637009,11.38 55.8237009,10.558 55.8237009,9.562 C55.8237009,8.806 55.5897009,8.143 55.1217009,7.573 C54.6537009,7.003 54.0597009,6.646 53.3397009,6.502 C53.9517009,6.334 54.4707009,6.013 54.8967009,5.539 C55.3227009,5.065 55.5357009,4.432 55.5357009,3.64 C55.5357009,2.692 55.1907009,1.915 54.5007009,1.309 C53.8107009,0.703 52.8117009,0.4 51.5037009,0.4 L51.5037009,0.4 L46.4457009,0.4 L46.4457009,13 L51.6837009,13 Z M51.1617009,5.692 L48.7497009,5.692 L48.7497009,2.254 L51.1257009,2.254 C51.8097009,2.254 52.3227009,2.407 52.6647009,2.713 C53.0067009,3.019 53.1777009,3.436 53.1777009,3.964 C53.1777009,4.516 53.0037009,4.942 52.6557009,5.242 C52.3077009,5.542 51.8097009,5.692 51.1617009,5.692 L51.1617009,5.692 Z M51.3237009,11.128 L48.7497009,11.128 L48.7497009,7.42 L51.2877009,7.42 C51.9597009,7.42 52.4937009,7.588 52.8897009,7.924 C53.2857009,8.26 53.4837009,8.722 53.4837009,9.31 C53.4837009,9.886 53.2947009,10.333 52.9167009,10.651 C52.5387009,10.969 52.0077009,11.128 51.3237009,11.128 L51.3237009,11.128 Z M61.0977009,13.216 C61.7937009,13.216 62.4027009,13.06 62.9247009,12.748 C63.4467009,12.436 63.8457009,12.016 64.1217009,11.488 L64.1217009,11.488 L64.3017009,13 L66.3357009,13 L66.3357009,4.072 L64.0317009,4.072 L64.0317009,8.68 C64.0317009,9.496 63.8247009,10.132 63.4107009,10.588 C62.9967009,11.044 62.4717009,11.272 61.8357009,11.272 C61.1637009,11.272 60.6717009,11.068 60.3597009,10.66 C60.0477009,10.252 59.8917009,9.664 59.8917009,8.896 L59.8917009,8.896 L59.8917009,4.072 L57.6057009,4.072 L57.6057009,9.112 C57.6057009,10.456 57.9087009,11.476 58.5147009,12.172 C59.1207009,12.868 59.9817009,13.216 61.0977009,13.216 Z M72.2577009,16.96 L77.9277009,4.072 L75.4797009,4.072 L72.8697009,10.354 L70.3677009,4.072 L67.8657009,4.072 L71.3397009,12.406 L71.8797009,12.406 L69.8097009,16.96 L72.2577009,16.96 Z M83.0037009,13.216 C83.7237009,13.216 84.3687009,13.084 84.9387009,12.82 C85.5087009,12.556 85.9887009,12.193 86.3787009,11.731 C86.7687009,11.269 87.0477009,10.756 87.2157009,10.192 L87.2157009,10.192 L84.8757009,10.192 C84.7197009,10.528 84.4827009,10.801 84.1647009,11.011 C83.8467009,11.221 83.4537009,11.326 82.9857009,11.326 C82.3617009,11.326 81.8307009,11.128 81.3927009,10.732 C80.9547009,10.336 80.7117009,9.79 80.6637009,9.094 L80.6637009,9.094 L87.4497009,9.094 C87.4617009,8.938 87.4707009,8.788 87.4767009,8.644 C87.4827009,8.5 87.4857009,8.362 87.4857009,8.23 C87.4857009,7.414 87.2967009,6.673 86.9187009,6.007 C86.5407009,5.341 86.0157009,4.816 85.3437009,4.432 C84.6717009,4.048 83.8977009,3.856 83.0217009,3.856 C82.0857009,3.856 81.2727009,4.057 80.5827009,4.459 C79.8927009,4.861 79.3527009,5.422 78.9627009,6.142 C78.5727009,6.862 78.3777009,7.684 78.3777009,8.608 C78.3777009,9.52 78.5757009,10.324 78.9717009,11.02 C79.3677009,11.716 79.9137009,12.256 80.6097009,12.64 C81.3057009,13.024 82.1037009,13.216 83.0037009,13.216 Z M85.1457009,7.654 L80.6997009,7.654 C80.8197009,7.006 81.0957009,6.523 81.5277009,6.205 C81.9597009,5.887 82.4577009,5.728 83.0217009,5.728 C83.6097009,5.728 84.1017009,5.902 84.4977009,6.25 C84.8937009,6.598 85.1097009,7.066 85.1457009,7.654 L85.1457009,7.654 Z M91.7337009,13 L91.7337009,8.932 C91.7337009,8.248 91.8447009,7.714 92.0667009,7.33 C92.2887009,6.946 92.5977009,6.676 92.9937009,6.52 C93.3897009,6.364 93.8397009,6.286 94.3437009,6.286 L94.3437009,6.286 L94.9917009,6.286 L94.9917009,3.856 C94.2357009,3.856 93.5787009,4.027 93.0207009,4.369 C92.4627009,4.711 92.0217009,5.17 91.6977009,5.746 L91.6977009,5.746 L91.4817009,4.072 L89.4297009,4.072 L89.4297009,13 L91.7337009,13 Z" id="Buyer" fill-opacity="0.87" fill="#000000" fill-rule="nonzero"></path>
            <path d="M252.838701,13.216 C253.798701,13.216 254.608701,13.045 255.268701,12.703 C255.928701,12.361 256.426701,11.908 256.762701,11.344 C257.098701,10.78 257.266701,10.168 257.266701,9.508 C257.266701,8.764 257.110701,8.155 256.798701,7.681 C256.486701,7.207 256.072701,6.826 255.556701,6.538 C255.040701,6.25 254.470701,5.998 253.846701,5.782 C253.258701,5.59 252.736701,5.41 252.280701,5.242 C251.824701,5.074 251.464701,4.867 251.200701,4.621 C250.936701,4.375 250.804701,4.042 250.804701,3.622 C250.804701,3.13 250.975701,2.755 251.317701,2.497 C251.659701,2.239 252.082701,2.116 252.586701,2.128 C253.174701,2.128 253.633701,2.299 253.963701,2.641 C254.293701,2.983 254.464701,3.376 254.476701,3.82 L254.476701,3.82 L256.942701,3.82 C256.918701,3.076 256.723701,2.434 256.357701,1.894 C255.991701,1.354 255.487701,0.934 254.845701,0.634 C254.203701,0.334 253.462701,0.184 252.622701,0.184 C251.794701,0.184 251.062701,0.331 250.426701,0.625 C249.790701,0.919 249.289701,1.333 248.923701,1.867 C248.557701,2.401 248.380701,3.04 248.392701,3.784 C248.392701,4.66 248.647701,5.362 249.157701,5.89 C249.667701,6.418 250.408701,6.85 251.380701,7.186 C251.980701,7.39 252.544701,7.582 253.072701,7.762 C253.600701,7.942 254.023701,8.176 254.341701,8.464 C254.659701,8.752 254.818701,9.154 254.818701,9.67 C254.818701,10.162 254.638701,10.555 254.278701,10.849 C253.918701,11.143 253.432701,11.29 252.820701,11.29 C252.112701,11.29 251.557701,11.089 251.155701,10.687 C250.753701,10.285 250.540701,9.79 250.516701,9.202 L250.516701,9.202 L248.086701,9.202 C248.098701,10.054 248.308701,10.777 248.716701,11.371 C249.124701,11.965 249.682701,12.421 250.390701,12.739 C251.098701,13.057 251.914701,13.216 252.838701,13.216 Z M261.532701,13 L261.532701,8.392 C261.532701,7.576 261.721701,6.94 262.099701,6.484 C262.477701,6.028 262.972701,5.8 263.584701,5.8 C264.208701,5.8 264.670701,6.004 264.970701,6.412 C265.270701,6.82 265.420701,7.408 265.420701,8.176 L265.420701,8.176 L265.420701,13 L267.724701,13 L267.724701,8.392 C267.724701,7.576 267.913701,6.94 268.291701,6.484 C268.669701,6.028 269.170701,5.8 269.794701,5.8 C270.406701,5.8 270.859701,6.004 271.153701,6.412 C271.447701,6.82 271.594701,7.408 271.594701,8.176 L271.594701,8.176 L271.594701,13 L273.898701,13 L273.898701,7.96 C273.898701,6.616 273.586701,5.596 272.962701,4.9 C272.338701,4.204 271.444701,3.856 270.280701,3.856 C269.632701,3.856 269.035701,4 268.489701,4.288 C267.943701,4.576 267.508701,4.966 267.184701,5.458 C266.608701,4.39 265.630701,3.856 264.250701,3.856 C263.626701,3.856 263.077701,3.985 262.603701,4.243 C262.129701,4.501 261.748701,4.846 261.460701,5.278 L261.460701,5.278 L261.262701,4.072 L259.228701,4.072 L259.228701,13 L261.532701,13 Z M279.172701,13.216 C279.916701,13.216 280.525701,13.06 280.999701,12.748 C281.473701,12.436 281.842701,12.04 282.106701,11.56 L282.106701,11.56 L282.322701,13 L284.284701,13 L284.284701,7.51 C284.284701,6.346 283.918701,5.446 283.186701,4.81 C282.454701,4.174 281.452701,3.856 280.180701,3.856 C279.436701,3.856 278.764701,3.985 278.164701,4.243 C277.564701,4.501 277.075701,4.87 276.697701,5.35 C276.319701,5.83 276.100701,6.394 276.040701,7.042 L276.040701,7.042 L278.290701,7.042 C278.374701,6.61 278.590701,6.283 278.938701,6.061 C279.286701,5.839 279.694701,5.728 280.162701,5.728 C280.678701,5.728 281.110701,5.872 281.458701,6.16 C281.806701,6.448 281.980701,6.898 281.980701,7.51 L281.980701,7.51 L281.980701,7.726 L279.712701,7.726 C278.416701,7.726 277.444701,7.984 276.796701,8.5 C276.148701,9.016 275.824701,9.688 275.824701,10.516 C275.824701,11.008 275.944701,11.458 276.184701,11.866 C276.424701,12.274 276.790701,12.601 277.282701,12.847 C277.774701,13.093 278.404701,13.216 279.172701,13.216 Z M279.694701,11.416 C279.262701,11.416 278.914701,11.32 278.650701,11.128 C278.386701,10.936 278.254701,10.666 278.254701,10.318 C278.254701,9.994 278.386701,9.721 278.650701,9.499 C278.914701,9.277 279.352701,9.166 279.964701,9.166 L279.964701,9.166 L281.926701,9.166 C281.830701,9.802 281.599701,10.336 281.233701,10.768 C280.867701,11.2 280.354701,11.416 279.694701,11.416 Z M288.784701,13 L288.784701,8.932 C288.784701,8.248 288.895701,7.714 289.117701,7.33 C289.339701,6.946 289.648701,6.676 290.044701,6.52 C290.440701,6.364 290.890701,6.286 291.394701,6.286 L291.394701,6.286 L292.042701,6.286 L292.042701,3.856 C291.286701,3.856 290.629701,4.027 290.071701,4.369 C289.513701,4.711 289.072701,5.17 288.748701,5.746 L288.748701,5.746 L288.532701,4.072 L286.480701,4.072 L286.480701,13 L288.784701,13 Z M299.152701,13 L299.152701,11.038 L298.036701,11.038 C297.580701,11.038 297.259701,10.957 297.073701,10.795 C296.887701,10.633 296.794701,10.336 296.794701,9.904 L296.794701,9.904 L296.794701,5.998 L299.206701,5.998 L299.206701,4.072 L296.794701,4.072 L296.794701,1.678 L294.760701,1.678 L294.490701,4.072 L292.960701,4.072 L292.960701,5.998 L294.490701,5.998 L294.490701,9.886 C294.490701,11.05 294.772701,11.86 295.336701,12.316 C295.900701,12.772 296.650701,13 297.586701,13 L297.586701,13 L299.152701,13 Z M309.844701,13.216 C310.984701,13.216 311.944701,12.91 312.724701,12.298 C313.504701,11.686 314.002701,10.876 314.218701,9.868 L314.218701,9.868 L311.788701,9.868 C311.668701,10.312 311.431701,10.654 311.077701,10.894 C310.723701,11.134 310.306701,11.254 309.826701,11.254 C309.190701,11.254 308.650701,11.014 308.206701,10.534 C307.762701,10.054 307.540701,9.388 307.540701,8.536 C307.540701,7.684 307.762701,7.018 308.206701,6.538 C308.650701,6.058 309.190701,5.818 309.826701,5.818 C310.306701,5.818 310.723701,5.941 311.077701,6.187 C311.431701,6.433 311.668701,6.772 311.788701,7.204 L311.788701,7.204 L314.218701,7.204 C314.002701,6.16 313.504701,5.341 312.724701,4.747 C311.944701,4.153 310.984701,3.856 309.844701,3.856 C308.932701,3.856 308.128701,4.054 307.432701,4.45 C306.736701,4.846 306.187701,5.398 305.785701,6.106 C305.383701,6.814 305.182701,7.624 305.182701,8.536 C305.182701,9.448 305.383701,10.258 305.785701,10.966 C306.187701,11.674 306.736701,12.226 307.432701,12.622 C308.128701,13.018 308.932701,13.216 309.844701,13.216 Z M320.554701,13.216 C321.406701,13.216 322.180701,13.018 322.876701,12.622 C323.572701,12.226 324.121701,11.677 324.523701,10.975 C324.925701,10.273 325.126701,9.46 325.126701,8.536 C325.126701,7.612 324.925701,6.799 324.523701,6.097 C324.121701,5.395 323.575701,4.846 322.885701,4.45 C322.195701,4.054 321.424701,3.856 320.572701,3.856 C319.708701,3.856 318.931701,4.054 318.241701,4.45 C317.551701,4.846 317.002701,5.395 316.594701,6.097 C316.186701,6.799 315.982701,7.612 315.982701,8.536 C315.982701,9.46 316.183701,10.273 316.585701,10.975 C316.987701,11.677 317.533701,12.226 318.223701,12.622 C318.913701,13.018 319.690701,13.216 320.554701,13.216 Z M320.554701,11.218 C319.954701,11.218 319.435701,10.993 318.997701,10.543 C318.559701,10.093 318.340701,9.424 318.340701,8.536 C318.340701,7.648 318.559701,6.979 318.997701,6.529 C319.435701,6.079 319.960701,5.854 320.572701,5.854 C321.160701,5.854 321.676701,6.079 322.120701,6.529 C322.564701,6.979 322.786701,7.648 322.786701,8.536 C322.786701,9.424 322.564701,10.093 322.120701,10.543 C321.676701,10.993 321.154701,11.218 320.554701,11.218 Z M329.482701,13 L329.482701,8.392 C329.482701,7.576 329.689701,6.94 330.103701,6.484 C330.517701,6.028 331.048701,5.8 331.696701,5.8 C332.356701,5.8 332.842701,6.004 333.154701,6.412 C333.466701,6.82 333.622701,7.408 333.622701,8.176 L333.622701,8.176 L333.622701,13 L335.926701,13 L335.926701,7.96 C335.926701,6.616 335.620701,5.596 335.008701,4.9 C334.396701,4.204 333.538701,3.856 332.434701,3.856 C331.726701,3.856 331.111701,4.012 330.589701,4.324 C330.067701,4.636 329.668701,5.056 329.392701,5.584 L329.392701,5.584 L329.212701,4.072 L327.178701,4.072 L327.178701,13 L329.482701,13 Z M343.666701,13 L343.666701,11.038 L342.550701,11.038 C342.094701,11.038 341.773701,10.957 341.587701,10.795 C341.401701,10.633 341.308701,10.336 341.308701,9.904 L341.308701,9.904 L341.308701,5.998 L343.720701,5.998 L343.720701,4.072 L341.308701,4.072 L341.308701,1.678 L339.274701,1.678 L339.004701,4.072 L337.474701,4.072 L337.474701,5.998 L339.004701,5.998 L339.004701,9.886 C339.004701,11.05 339.286701,11.86 339.850701,12.316 C340.414701,12.772 341.164701,13 342.100701,13 L342.100701,13 L343.666701,13 Z M348.004701,13 L348.004701,8.932 C348.004701,8.248 348.115701,7.714 348.337701,7.33 C348.559701,6.946 348.868701,6.676 349.264701,6.52 C349.660701,6.364 350.110701,6.286 350.614701,6.286 L350.614701,6.286 L351.262701,6.286 L351.262701,3.856 C350.506701,3.856 349.849701,4.027 349.291701,4.369 C348.733701,4.711 348.292701,5.17 347.968701,5.746 L347.968701,5.746 L347.752701,4.072 L345.700701,4.072 L345.700701,13 L348.004701,13 Z M355.906701,13.216 C356.650701,13.216 357.259701,13.06 357.733701,12.748 C358.207701,12.436 358.576701,12.04 358.840701,11.56 L358.840701,11.56 L359.056701,13 L361.018701,13 L361.018701,7.51 C361.018701,6.346 360.652701,5.446 359.920701,4.81 C359.188701,4.174 358.186701,3.856 356.914701,3.856 C356.170701,3.856 355.498701,3.985 354.898701,4.243 C354.298701,4.501 353.809701,4.87 353.431701,5.35 C353.053701,5.83 352.834701,6.394 352.774701,7.042 L352.774701,7.042 L355.024701,7.042 C355.108701,6.61 355.324701,6.283 355.672701,6.061 C356.020701,5.839 356.428701,5.728 356.896701,5.728 C357.412701,5.728 357.844701,5.872 358.192701,6.16 C358.540701,6.448 358.714701,6.898 358.714701,7.51 L358.714701,7.51 L358.714701,7.726 L356.446701,7.726 C355.150701,7.726 354.178701,7.984 353.530701,8.5 C352.882701,9.016 352.558701,9.688 352.558701,10.516 C352.558701,11.008 352.678701,11.458 352.918701,11.866 C353.158701,12.274 353.524701,12.601 354.016701,12.847 C354.508701,13.093 355.138701,13.216 355.906701,13.216 Z M356.428701,11.416 C355.996701,11.416 355.648701,11.32 355.384701,11.128 C355.120701,10.936 354.988701,10.666 354.988701,10.318 C354.988701,9.994 355.120701,9.721 355.384701,9.499 C355.648701,9.277 356.086701,9.166 356.698701,9.166 L356.698701,9.166 L358.660701,9.166 C358.564701,9.802 358.333701,10.336 357.967701,10.768 C357.601701,11.2 357.088701,11.416 356.428701,11.416 Z M367.588701,13.216 C368.728701,13.216 369.688701,12.91 370.468701,12.298 C371.248701,11.686 371.746701,10.876 371.962701,9.868 L371.962701,9.868 L369.532701,9.868 C369.412701,10.312 369.175701,10.654 368.821701,10.894 C368.467701,11.134 368.050701,11.254 367.570701,11.254 C366.934701,11.254 366.394701,11.014 365.950701,10.534 C365.506701,10.054 365.284701,9.388 365.284701,8.536 C365.284701,7.684 365.506701,7.018 365.950701,6.538 C366.394701,6.058 366.934701,5.818 367.570701,5.818 C368.050701,5.818 368.467701,5.941 368.821701,6.187 C369.175701,6.433 369.412701,6.772 369.532701,7.204 L369.532701,7.204 L371.962701,7.204 C371.746701,6.16 371.248701,5.341 370.468701,4.747 C369.688701,4.153 368.728701,3.856 367.588701,3.856 C366.676701,3.856 365.872701,4.054 365.176701,4.45 C364.480701,4.846 363.931701,5.398 363.529701,6.106 C363.127701,6.814 362.926701,7.624 362.926701,8.536 C362.926701,9.448 363.127701,10.258 363.529701,10.966 C363.931701,11.674 364.480701,12.226 365.176701,12.622 C365.872701,13.018 366.676701,13.216 367.588701,13.216 Z M379.432701,13 L379.432701,11.038 L378.316701,11.038 C377.860701,11.038 377.539701,10.957 377.353701,10.795 C377.167701,10.633 377.074701,10.336 377.074701,9.904 L377.074701,9.904 L377.074701,5.998 L379.486701,5.998 L379.486701,4.072 L377.074701,4.072 L377.074701,1.678 L375.040701,1.678 L374.770701,4.072 L373.240701,4.072 L373.240701,5.998 L374.770701,5.998 L374.770701,9.886 C374.770701,11.05 375.052701,11.86 375.616701,12.316 C376.180701,12.772 376.930701,13 377.866701,13 L377.866701,13 L379.432701,13 Z" id="Smartcontract" fill-opacity="0.87" fill="#000000" fill-rule="nonzero"></path>
            <path d="M542.967701,13.216 C543.927701,13.216 544.737701,13.045 545.397701,12.703 C546.057701,12.361 546.555701,11.908 546.891701,11.344 C547.227701,10.78 547.395701,10.168 547.395701,9.508 C547.395701,8.764 547.239701,8.155 546.927701,7.681 C546.615701,7.207 546.201701,6.826 545.685701,6.538 C545.169701,6.25 544.599701,5.998 543.975701,5.782 C543.387701,5.59 542.865701,5.41 542.409701,5.242 C541.953701,5.074 541.593701,4.867 541.329701,4.621 C541.065701,4.375 540.933701,4.042 540.933701,3.622 C540.933701,3.13 541.104701,2.755 541.446701,2.497 C541.788701,2.239 542.211701,2.116 542.715701,2.128 C543.303701,2.128 543.762701,2.299 544.092701,2.641 C544.422701,2.983 544.593701,3.376 544.605701,3.82 L544.605701,3.82 L547.071701,3.82 C547.047701,3.076 546.852701,2.434 546.486701,1.894 C546.120701,1.354 545.616701,0.934 544.974701,0.634 C544.332701,0.334 543.591701,0.184 542.751701,0.184 C541.923701,0.184 541.191701,0.331 540.555701,0.625 C539.919701,0.919 539.418701,1.333 539.052701,1.867 C538.686701,2.401 538.509701,3.04 538.521701,3.784 C538.521701,4.66 538.776701,5.362 539.286701,5.89 C539.796701,6.418 540.537701,6.85 541.509701,7.186 C542.109701,7.39 542.673701,7.582 543.201701,7.762 C543.729701,7.942 544.152701,8.176 544.470701,8.464 C544.788701,8.752 544.947701,9.154 544.947701,9.67 C544.947701,10.162 544.767701,10.555 544.407701,10.849 C544.047701,11.143 543.561701,11.29 542.949701,11.29 C542.241701,11.29 541.686701,11.089 541.284701,10.687 C540.882701,10.285 540.669701,9.79 540.645701,9.202 L540.645701,9.202 L538.215701,9.202 C538.227701,10.054 538.437701,10.777 538.845701,11.371 C539.253701,11.965 539.811701,12.421 540.519701,12.739 C541.227701,13.057 542.043701,13.216 542.967701,13.216 Z M553.695701,13.216 C554.415701,13.216 555.060701,13.084 555.630701,12.82 C556.200701,12.556 556.680701,12.193 557.070701,11.731 C557.460701,11.269 557.739701,10.756 557.907701,10.192 L557.907701,10.192 L555.567701,10.192 C555.411701,10.528 555.174701,10.801 554.856701,11.011 C554.538701,11.221 554.145701,11.326 553.677701,11.326 C553.053701,11.326 552.522701,11.128 552.084701,10.732 C551.646701,10.336 551.403701,9.79 551.355701,9.094 L551.355701,9.094 L558.141701,9.094 C558.153701,8.938 558.162701,8.788 558.168701,8.644 C558.174701,8.5 558.177701,8.362 558.177701,8.23 C558.177701,7.414 557.988701,6.673 557.610701,6.007 C557.232701,5.341 556.707701,4.816 556.035701,4.432 C555.363701,4.048 554.589701,3.856 553.713701,3.856 C552.777701,3.856 551.964701,4.057 551.274701,4.459 C550.584701,4.861 550.044701,5.422 549.654701,6.142 C549.264701,6.862 549.069701,7.684 549.069701,8.608 C549.069701,9.52 549.267701,10.324 549.663701,11.02 C550.059701,11.716 550.605701,12.256 551.301701,12.64 C551.997701,13.024 552.795701,13.216 553.695701,13.216 Z M555.837701,7.654 L551.391701,7.654 C551.511701,7.006 551.787701,6.523 552.219701,6.205 C552.651701,5.887 553.149701,5.728 553.713701,5.728 C554.301701,5.728 554.793701,5.902 555.189701,6.25 C555.585701,6.598 555.801701,7.066 555.837701,7.654 L555.837701,7.654 Z M562.425701,13 L562.425701,0.04 L560.121701,0.04 L560.121701,13 L562.425701,13 Z M567.087701,13 L567.087701,0.04 L564.783701,0.04 L564.783701,13 L567.087701,13 Z M573.783701,13.216 C574.503701,13.216 575.148701,13.084 575.718701,12.82 C576.288701,12.556 576.768701,12.193 577.158701,11.731 C577.548701,11.269 577.827701,10.756 577.995701,10.192 L577.995701,10.192 L575.655701,10.192 C575.499701,10.528 575.262701,10.801 574.944701,11.011 C574.626701,11.221 574.233701,11.326 573.765701,11.326 C573.141701,11.326 572.610701,11.128 572.172701,10.732 C571.734701,10.336 571.491701,9.79 571.443701,9.094 L571.443701,9.094 L578.229701,9.094 C578.241701,8.938 578.250701,8.788 578.256701,8.644 C578.262701,8.5 578.265701,8.362 578.265701,8.23 C578.265701,7.414 578.076701,6.673 577.698701,6.007 C577.320701,5.341 576.795701,4.816 576.123701,4.432 C575.451701,4.048 574.677701,3.856 573.801701,3.856 C572.865701,3.856 572.052701,4.057 571.362701,4.459 C570.672701,4.861 570.132701,5.422 569.742701,6.142 C569.352701,6.862 569.157701,7.684 569.157701,8.608 C569.157701,9.52 569.355701,10.324 569.751701,11.02 C570.147701,11.716 570.693701,12.256 571.389701,12.64 C572.085701,13.024 572.883701,13.216 573.783701,13.216 Z M575.925701,7.654 L571.479701,7.654 C571.599701,7.006 571.875701,6.523 572.307701,6.205 C572.739701,5.887 573.237701,5.728 573.801701,5.728 C574.389701,5.728 574.881701,5.902 575.277701,6.25 C575.673701,6.598 575.889701,7.066 575.925701,7.654 L575.925701,7.654 Z M582.513701,13 L582.513701,8.932 C582.513701,8.248 582.624701,7.714 582.846701,7.33 C583.068701,6.946 583.377701,6.676 583.773701,6.52 C584.169701,6.364 584.619701,6.286 585.123701,6.286 L585.123701,6.286 L585.771701,6.286 L585.771701,3.856 C585.015701,3.856 584.358701,4.027 583.800701,4.369 C583.242701,4.711 582.801701,5.17 582.477701,5.746 L582.477701,5.746 L582.261701,4.072 L580.209701,4.072 L580.209701,13 L582.513701,13 Z" id="Seller" fill-opacity="0.87" fill="#000000" fill-rule="nonzero"></path>
        </g>
    </g>
</svg>