<svg id="Layer_1" data-name="Layer 1" xmlns="http://www.w3.org/2000/svg" xmlns:xlink="http://www.w3.org/1999/xlink" viewBox="0 0 253.9 116.3"><defs><style>.cls-1{fill:url(#linear-gradient);}.cls-2,.cls-3{fill:#fff;fill-rule:evenodd;}.cls-2{opacity:0.7;isolation:isolate;}.cls-4{fill:#ea3a65;}</style><linearGradient id="linear-gradient" x1="123.1" y1="716.33" x2="123.1" y2="717.33" gradientTransform="matrix(81.32, 0, 0, -81.32, -9959.43, 58344.76)" gradientUnits="userSpaceOnUse"><stop offset="0" stop-color="#f05d84"/><stop offset="1" stop-color="#ea3560"/></linearGradient></defs><path class="cls-1" d="M10.11,49.11A40.66,40.66,0,1,1,50.77,89.77,40.65,40.65,0,0,1,10.11,49.11Z"/><path class="cls-2" d="M31.25,66.59,51,49.31V32.44h-5.9a13.92,13.92,0,0,0-13.82,14V66.59Z"/><path class="cls-3" d="M70.28,31.22,51,49.11V66.59h5.69c7.53,0,13.62-6.51,13.62-14.64Z"/><path class="cls-4" d="M131.78,32.34h7.63v33.9h-7.63V51.86H119V66.24h-7.63V32.34H119v13h12.82Z"/><path class="cls-4" d="M169.64,40.51q-2.2,7.43-4.61,13.94t-5.25,12.62a28.58,28.58,0,0,1-2.05,3.74,11.28,11.28,0,0,1-2.26,2.54,7.86,7.86,0,0,1-2.77,1.47,12.52,12.52,0,0,1-3.6.47,14.9,14.9,0,0,1-3.16-.32,13.93,13.93,0,0,1-2.37-.71l1.27-5.82a12.73,12.73,0,0,0,2,.54,12.12,12.12,0,0,0,1.86.14,4.06,4.06,0,0,0,3-1.05,8.31,8.31,0,0,0,1.79-2.91q-2.49-4.89-5-11a138.68,138.68,0,0,1-4.7-13.67h7.73c.33,1.27.71,2.65,1.16,4.13s.9,3,1.4,4.5,1,3,1.49,4.43,1,2.74,1.45,3.91c.43-1.17.87-2.48,1.33-3.91s.91-2.91,1.35-4.43.87-3,1.28-4.5.78-2.86,1.1-4.13Z"/><path class="cls-4" d="M197.42,53.37a18.82,18.82,0,0,1-.73,5.43A12.41,12.41,0,0,1,194.54,63,9.79,9.79,0,0,1,191,65.75a11.44,11.44,0,0,1-4.85,1,12.73,12.73,0,0,1-2.83-.3,13.33,13.33,0,0,1-2.55-.83v9.69H173.5V41.39c.66-.2,1.41-.39,2.25-.56s1.74-.34,2.67-.47,1.88-.24,2.84-.32,1.88-.12,2.76-.12a16,16,0,0,1,5.68.95,11.81,11.81,0,0,1,4.2,2.69,11.51,11.51,0,0,1,2.62,4.24A16.31,16.31,0,0,1,197.42,53.37Zm-7.43.2a8.85,8.85,0,0,0-1.52-5.41,5.27,5.27,0,0,0-4.5-2c-.65,0-1.25,0-1.81.08a11.84,11.84,0,0,0-1.37.17V59.54a6.57,6.57,0,0,0,1.79.73,8.35,8.35,0,0,0,2.22.29Q190,60.56,190,53.57Z"/><path class="cls-4" d="M218.56,47c-.66-.16-1.42-.33-2.3-.51a14.19,14.19,0,0,0-2.84-.27,13.44,13.44,0,0,0-1.64.12,10.44,10.44,0,0,0-1.44.27V66.24h-7.29V41.88a42.92,42.92,0,0,1,4.62-1.3,26.55,26.55,0,0,1,6-.61c.39,0,.86,0,1.41.07s1.11.12,1.67.2,1.11.18,1.66.29a7.58,7.58,0,0,1,1.42.42Z"/><path class="cls-4" d="M239.2,47c-.65-.16-1.42-.33-2.3-.51a14.19,14.19,0,0,0-2.84-.27,13.58,13.58,0,0,0-1.64.12,10.75,10.75,0,0,0-1.44.27V66.24h-7.29V41.88a43.83,43.83,0,0,1,4.63-1.3,26.39,26.39,0,0,1,5.94-.61c.39,0,.86,0,1.42.07s1.11.12,1.66.2,1.11.18,1.66.29a7.58,7.58,0,0,1,1.42.42Z"/></svg>