<?xml version="1.0" encoding="UTF-8"?>
<svg width="1440px" height="750px" viewBox="0 0 1440 750" version="1.1" xmlns="http://www.w3.org/2000/svg" xmlns:xlink="http://www.w3.org/1999/xlink">
    <title>proswap-landing-v1 copy </title>
    <defs>
        <rect id="path-1" x="0" y="0" width="1440" height="750"></rect>
        <linearGradient x1="50%" y1="0%" x2="50%" y2="100%" id="linearGradient-3">
            <stop stop-color="#15B694" stop-opacity="0" offset="0%"></stop>
            <stop stop-color="#4769FF" offset="100%"></stop>
        </linearGradient>
        <linearGradient x1="37.120445%" y1="46.0175439%" x2="45.4814883%" y2="58.8081703%" id="linearGradient-4">
            <stop stop-color="#15B694" stop-opacity="0.302911932" offset="0%"></stop>
            <stop stop-color="#4769FF" offset="100%"></stop>
        </linearGradient>
        <linearGradient x1="50%" y1="31.2450917%" x2="93.0062084%" y2="62.7862822%" id="linearGradient-5">
            <stop stop-color="#4769FF" offset="0%"></stop>
            <stop stop-color="#15B694" offset="100%"></stop>
        </linearGradient>
    </defs>
    <g id="proswap-landing-v1-copy" stroke="none" stroke-width="1" fill="none" fill-rule="evenodd">
        <rect fill="#FFFFFF" x="0" y="0" width="1440" height="750"></rect>
        <g id="header-bg">
            <mask id="mask-2" fill="white">
                <use xlink:href="#path-1"></use>
            </mask>
            <use id="Mask" fill="#0D1633" fill-rule="nonzero" xlink:href="#path-1"></use>
            <rect id="Rectangle" fill="url(#linearGradient-3)" opacity="0.137207031" mask="url(#mask-2)" transform="translate(720.000000, 186.500000) scale(1, -1) translate(-720.000000, -186.500000) " x="0" y="0" width="1440" height="373"></rect>
            <path d="M137.465,817.413 L171.743925,783.131958 L207.235,818.627 L240.306815,785.553254 L275.191,820.441 L308.86348,786.760774 L345.568,823.47 L377.426367,791.603366 L411.809,825.99 L445.989259,791.801531 L480.571,826.387 L514.552243,792.408437 L551.549874,829.416425 L514.552241,866.430728 L480.57,832.446 L445.989291,867.031348 L411.809,832.848 L377.426367,867.235737 L345.568,835.369 L308.86345,872.072107 L275.191,838.391 L240.306815,873.279656 L207.236,840.205 L171.743924,875.707208 L137.465,841.419 L103.181036,875.707208 L67.892,840.415 L34.6180502,873.688396 L-0.057,838.997 L-33.9385836,872.883364 L-67.814,838.997 L-102.495186,873.688366 L-137.386,838.798 L-171.064363,872.474589 L-205.342,838.192 L-239.621028,872.474621 L-276.115,835.975 L-308.183955,868.034446 L-343.57,832.65 L-376.740615,865.823796 L-413.144007,829.416425 L-376.740584,793.015338 L-343.571,826.188 L-308.183948,790.792142 L-276.115,822.863 L-239.621028,786.364482 L-205.342,820.646 L-171.064363,786.364514 L-137.386,820.04 L-102.495186,785.150737 L-67.814,819.841 L-33.9385836,785.95574 L-0.057,819.841 L34.6180502,785.150707 L67.892,818.423 L103.181004,783.131958 L137.465,817.413 Z M207.235886,820.042089 L171.744,784.546 L137.465608,818.828312 L103.181,784.546 L67.8934404,819.837701 L34.618,786.565 L-0.0564209132,821.255896 L-33.938,787.37 L-67.814426,821.255897 L-102.495,786.565 L-137.386594,821.453932 L-171.063,787.779 L-205.342679,822.060868 L-239.621,787.779 L-276.116076,824.27781 L-308.183,792.206 L-343.570585,827.603254 L-376.74,794.429 L-411.729,829.416 L-376.74,864.409 L-343.570647,831.235911 L-308.183,866.62 L-276.116008,834.561362 L-239.621,871.059 L-205.342679,836.778235 L-171.063,871.059 L-137.386594,837.385171 L-102.495,872.273 L-67.814426,837.583206 L-33.938,871.468 L-0.0564209132,837.583207 L34.618,872.273 L67.8934404,839.001402 L103.181,874.292 L137.465608,840.004535 L171.744,874.292 L207.235855,838.790791 L240.307,871.864 L275.192002,836.976365 L308.863,870.657 L345.569149,833.954416 L377.426,865.821 L411.810013,831.434043 L445.989,865.616 L480.571043,831.031525 L514.552,865.016 L550.136,829.416 L514.551,793.823 L480.571011,827.801353 L445.989,793.216 L411.810045,827.405092 L377.426,793.018 L345.569119,824.884717 L308.863,788.175 L275.192002,821.856546 L240.307,786.967 L207.235886,820.042089 Z M1508.277,821.853 L1542.96456,787.163324 L1577.849,822.051 L1611.52123,788.377096 L1652.56238,829.416428 L1611.52123,870.462067 L1577.85,836.78 L1542.96459,871.669555 L1508.278,836.985 L1474.4079,870.864584 L1438.512,834.966 L1405.83875,867.638187 L1371.758,833.554 L1337.28215,868.034481 L1303.202,833.962 L1268.71916,868.443223 L1235.648,835.369 L1200.16253,870.864583 L1165.475,836.174 L1131.59339,870.059549 L1097.518,835.975 L1063.03669,870.462065 L1027.247,834.663 L994.480054,867.433834 L959.694,832.65 L925.917133,866.430668 L890.325,830.836 L857.354178,863.805016 L822.975665,829.416423 L857.354211,795.03412 L890.325,828.003 L925.917133,792.408435 L959.693,826.188 L994.480056,791.399012 L1027.247,824.175 L1063.03669,788.377038 L1097.518,822.863 L1131.59335,788.779586 L1165.475,822.658 L1200.16256,787.974552 L1235.648,823.47 L1268.71916,790.39588 L1303.201,824.875 L1337.28215,790.792109 L1371.759,825.284 L1405.83875,791.200916 L1438.512,823.872 L1474.4079,787.974519 L1508.277,821.853 Z M1577.84972,823.466583 L1542.964,788.578 L1508.27752,823.268452 L1474.407,789.389 L1438.51346,825.287166 L1405.839,792.615 L1371.75851,826.69917 L1337.281,792.206 L1303.20191,826.290365 L1268.719,791.81 L1235.64824,824.884713 L1200.162,789.389 L1165.47549,824.073391 L1131.593,790.194 L1097.51943,824.277842 L1063.037,789.791 L1027.24755,825.5907 L994.479,792.813 L959.693938,827.603223 L925.917,793.823 L890.326135,829.417614 L857.354,796.448 L824.389,829.416 L857.354,862.39 L890.326135,829.421489 L925.916,865.015 L959.693907,831.235912 L994.479,866.019 L1027.24758,833.248437 L1063.037,869.047 L1097.51943,834.561261 L1131.593,868.644 L1165.47549,834.759456 L1200.162,869.449 L1235.64824,833.95439 L1268.719,867.028 L1303.20185,832.548802 L1337.281,866.62 L1371.75858,832.139996 L1405.839,866.223 L1438.51346,833.551937 L1474.407,869.449 L1508.27748,835.570682 L1542.964,870.254 L1577.84975,835.366295 L1611.521,869.047 L1651.147,829.416 L1611.521,789.791 L1577.84972,823.466583 Z M552.358756,829.416419 L583.108842,798.662972 L613.865265,829.416419 L583.108842,860.176204 L552.358756,829.416419 Z M759.248654,829.416417 L788.791354,799.870488 L818.334055,829.416417 L788.791354,858.968691 L759.248654,829.416417 Z M583.109,800.077 L553.772,829.416 L583.109,858.761 L612.45,829.416 L583.109,800.077 Z M788.791,801.285 L760.662,829.416 L788.791,857.553 L816.92,829.416 L788.791,801.285 Z M624.141314,829.416455 L651.671767,801.889349 L679.20222,829.416455 L651.671767,856.943561 L624.141314,829.416455 Z M693.106717,829.416414 L720.23474,802.291785 L747.350047,829.416414 L720.23474,856.547401 L693.106717,829.416414 Z M651.671,803.302 L625.555,829.416 L651.671,855.529 L677.787,829.416 L651.671,803.302 Z M720.234,803.706 L694.521,829.416 L720.234,855.132 L745.936,829.416 L720.234,803.706 Z M1472.89,749.754 L1508.68628,713.960894 L1543.366,748.651 L1577.24285,714.765925 L1616.164,753.685 L1645.8058,724.042407 L1682.60541,760.846042 L1645.80583,797.65596 L1616.164,768.012 L1577.24288,806.932379 L1543.366,773.053 L1508.68624,807.737411 L1472.89,771.943 L1440.11707,804.715463 L1405.033,769.622 L1371.56043,803.099203 L1338.191,769.726 L1302.99748,804.913566 L1268.923,770.836 L1234.44085,805.322338 L1197.438,768.315 L1165.87793,799.879096 L1131.896,765.888 L1097.31507,800.479806 L1061.327,764.482 L1028.75834,797.055281 L993.266,761.553 L960.195482,794.634019 L926.417518,760.846039 L960.195482,727.064383 L993.266,760.138 L1028.75837,724.649344 L1061.327,757.215 L1097.31504,721.218562 L1131.897,755.804 L1165.87796,721.825532 L1197.437,753.383 L1234.44085,716.382253 L1268.923,750.862 L1302.99751,716.78474 L1338.191,751.976 L1371.5604,718.599101 L1405.033,752.075 L1440.11707,716.982873 L1472.89,749.754 Z M1543.36704,750.066055 L1508.685,715.375 L1472.89085,751.168205 L1440.117,718.397 L1405.03387,753.490516 L1371.56,720.013 L1338.19236,753.391405 L1302.998,718.199 L1268.92356,752.276708 L1234.44,717.795 L1197.43807,754.797054 L1165.878,723.239 L1131.89679,757.218383 L1097.315,722.633 L1061.32782,758.630319 L1028.758,726.062 L993.973,760.845 L1028.758,795.64 L1061.32779,763.067984 L1097.315,799.065 L1131.89682,764.473665 L1165.878,798.464 L1197.43806,766.901219 L1234.44,803.907 L1268.92353,769.421597 L1302.998,803.499 L1338.19236,768.313188 L1371.56,801.684 L1405.03387,768.207821 L1440.117,803.3 L1472.89085,770.530131 L1508.685,806.322 L1543.36704,771.638538 L1577.243,805.517 L1616.16521,766.59781 L1645.805,796.241 L1681.191,760.846 L1645.805,725.457 L1616.16521,755.100526 L1577.243,716.18 L1543.36704,750.066055 Z M-171.362,751.37 L-136.779821,716.78474 L-101.69,751.871 L-68.2168682,718.394746 L-33.938,752.682 L0.339765511,718.394746 L34.822,752.88 L68.9026869,718.797296 L104.698,754.596 L137.465576,721.825465 L172.45,756.813 L206.028529,723.237374 L242.319,759.537 L274.585131,727.275031 L308.165086,760.846005 L274.585163,794.429598 L242.319,762.16 L206.028529,798.460962 L172.45,764.885 L137.465608,799.879096 L104.697,767.108 L68.9026563,802.90101 L34.822,768.817 L0.339765511,803.30359 L-33.938,769.015 L-68.2168682,803.30359 L-101.69,769.826 L-136.779821,804.913597 L-171.362,770.328 L-205.342649,804.306661 L-240.735,768.922 L-273.899344,802.096039 L-308.486,767.504 L-342.462266,801.482941 L-375.229,768.712 L-411.018902,804.517364 L-454.685473,760.846021 L-411.018882,717.187247 L-375.229,752.986 L-342.462266,720.215395 L-308.487,754.193 L-273.899311,719.602264 L-240.735,752.781 L-205.34268,717.391644 L-171.362,751.37 Z M-101.690271,753.286099 L-136.779,718.199 L-171.361509,752.784499 L-205.342,718.805 L-240.735666,754.196473 L-273.899,721.017 L-308.48732,755.608345 L-342.461,721.63 L-375.229822,754.400824 L-411.019,718.601 L-453.27,760.846 L-411.019,803.102 L-375.229853,767.297482 L-342.462,800.068 L-308.48732,766.089991 L-273.899,800.681 L-240.735664,767.50812 L-205.343,802.893 L-171.361509,768.913838 L-136.779,803.498 L-101.690271,768.412238 L-68.217,801.888 L-33.9385513,767.600916 L0.34,801.889 L34.8224789,767.402817 L68.903,801.486 L104.698081,765.693697 L137.465,798.464 L172.449738,763.470533 L206.028,797.046 L242.216,760.849 L206.028,724.652 L172.449769,758.227772 L137.465,723.24 L104.698051,756.010863 L68.902,720.211 L34.8224789,754.29552 L0.34,719.808 L-33.9385513,754.097421 L-68.217,719.809 L-101.690271,753.286099 Z M310.379438,760.846038 L343.141793,728.073773 L375.916804,760.846038 L343.141793,793.624632 L310.379438,760.846038 Z M379.140366,760.846003 L411.710977,728.278162 L444.275258,760.846003 L411.710977,793.426504 L379.140366,760.846003 Z M960.195,728.479 L927.831,760.846 L960.195,793.219 L992.559,760.846 L960.195,728.479 Z M306.75,760.846 L274.585,728.688 L242.422,760.849 L274.585,793.014 L306.75,760.846 Z M343.142,729.488 L311.793,760.846 L343.142,792.209 L374.502,760.846 L343.142,729.488 Z M860.275592,760.846036 L891.632557,729.49198 L922.995856,760.846036 L891.632557,792.206428 L860.275592,760.846036 Z M411.71,729.692 L380.554,760.845 L411.71,792.011 L442.861,760.846 L411.71,729.692 Z M891.633,730.905 L861.689,760.846 L891.633,790.791 L921.581,760.846 L891.633,730.905 Z M450.520569,760.845997 L480.267677,731.10198 L510.008443,760.845997 L480.267677,790.6027 L450.520569,760.845997 Z M793.328899,760.845997 L823.069628,731.102018 L852.823041,760.845997 L823.069628,790.602662 L793.328899,760.845997 Z M823.07,732.515 L794.742,760.846 L823.07,789.187 L851.408,760.846 L823.07,732.515 Z M480.267,732.516 L451.934,760.846 L480.267,789.187 L508.594,760.846 L480.267,732.516 Z M726.177648,760.846032 L754.513006,732.513929 L782.848363,760.846032 L754.513006,789.184487 L726.177648,760.846032 Z M521.906964,760.845989 L548.830529,733.92584 L575.754095,760.845989 L548.830529,787.778856 L521.906964,760.845989 Z M754.513,733.927 L727.591,760.846 L754.512,787.769 L781.434,760.846 L754.513,733.927 Z M548.83,735.34 L523.32,760.846 L548.83,786.364 L574.34,760.846 L548.83,735.34 Z M660.444451,760.846028 L685.956352,735.337708 L711.461885,760.846028 L685.956352,786.360717 L660.444451,760.846028 Z M685.955,736.751 L661.859,760.846 L685.956,784.946 L710.048,760.846 L685.955,736.751 Z M593.900309,760.846024 L617.387131,737.350251 L640.88672,760.846024 L617.387131,784.348182 L593.900309,760.846024 Z M617.387,738.764 L595.313,760.846 L617.387,782.933 L639.472,760.846 L617.387,738.764 Z M1507.572,681.189 L1542.96456,645.793029 L1577.546,680.378 L1611.52126,646.399901 L1657.39823,692.281881 L1611.52126,738.163862 L1577.545,704.185 L1542.96459,738.764448 L1507.572,703.379 L1474.40787,736.5476 L1440.63,702.767 L1405.83875,737.556958 L1370.655,702.37 L1337.28205,735.742532 L1302.799,701.256 L1268.7192,735.340047 L1233.128,699.745 L1200.16256,732.720591 L1163.859,696.42 L1131.59335,728.689288 L1098.429,695.509 L1063.03672,730.906164 L1026.839,694.704 L994.480057,727.072994 L959.692747,692.281881 L994.48009,657.490735 L1026.839,689.865 L1063.03669,653.663823 L1098.429,689.053 L1131.59335,655.874475 L1163.859,688.143 L1200.16256,651.843172 L1233.128,684.818 L1268.7192,649.223715 L1302.799,683.307 L1337.28205,648.821231 L1370.655,682.192 L1405.83875,647.006805 L1440.63,681.796 L1474.4079,648.01613 L1507.572,681.189 Z M1577.54631,681.792851 L1542.964,647.207 L1507.57164,682.604111 L1474.407,649.43 L1440.63109,683.210919 L1405.839,648.421 L1370.65645,683.607243 L1337.282,650.235 L1302.7994,684.721939 L1268.718,650.638 L1233.12813,686.232961 L1200.162,653.257 L1163.85937,689.55831 L1131.593,657.289 L1098.42971,690.468684 L1063.037,655.078 L1026.83882,691.279944 L994.479,658.905 L961.106,692.281 L994.479,725.658 L1026.83885,693.290045 L1063.036,729.491 L1098.42968,694.095048 L1131.593,727.274 L1163.85937,695.005453 L1200.162,731.305 L1233.12813,698.330802 L1268.718,733.925 L1302.7994,699.841824 L1337.282,734.328 L1370.65645,700.95652 L1405.839,736.142 L1440.63109,701.352843 L1474.407,735.132 L1507.57161,701.965939 L1542.964,737.35 L1577.54635,702.770943 L1611.521,736.749 L1655.984,692.282 L1611.521,647.814 L1577.54631,681.792851 Z M-274.809,684.212 L-239.621028,649.025615 L-204.631,684.013 L-171.064395,650.431202 L-137.181,684.316 L-102.495218,649.626202 L-66.507,685.623 L-33.9385177,653.056953 L0.34,687.339 L34.6181168,653.056949 L71.825,690.262 L103.181037,658.908971 L136.556626,692.281881 L103.181037,725.654792 L71.825,694.302 L34.6181143,731.513068 L0.34,697.224 L-33.9385194,731.513068 L-66.507,698.94 L-102.495187,734.937529 L-137.182,700.252 L-171.064395,734.126238 L-204.631,700.556 L-239.62109,735.544402 L-274.81,700.346 L-308.183885,733.723753 L-342.362,699.547 L-376.740588,733.928114 L-418.388568,692.281881 L-376.740588,650.635649 L-342.362,685.016 L-308.183918,650.840042 L-274.809,684.212 Z M-204.630514,685.427927 L-239.621,650.439 L-274.809584,685.625991 L-308.183,652.253 L-342.363228,686.431058 L-376.741,652.05 L-416.973,692.282 L-376.741,732.513 L-342.363228,698.132705 L-308.184,732.309 L-274.809554,698.931484 L-239.62,734.129 L-204.630579,699.142094 L-171.063,732.712 L-137.18223,698.838723 L-102.495,733.522 L-66.5079666,697.52577 L-33.938,730.098 L0.339797443,695.810393 L34.618,730.098 L71.825228,692.887597 L103.18,724.241 L135.141,692.282 L103.18,660.322 L71.8252574,691.676137 L34.618,654.471 L0.339797443,688.753305 L-33.939,654.471 L-66.5080002,687.037959 L-102.495,651.04 L-137.182263,685.731329 L-171.063,651.845 L-204.630514,685.427927 Z M825.594876,692.281881 L857.354244,660.512709 L889.113611,692.281881 L857.354244,724.051054 L825.594876,692.281881 Z M857.354,661.927 L827.008,692.282 L857.354,722.636 L887.7,692.282 L857.354,661.927 Z M209.959129,692.281881 L240.306815,661.930879 L270.6545,692.281881 L240.306815,722.632883 L209.959129,692.281881 Z M896.368127,692.281881 L925.917171,662.735952 L955.459872,692.281881 L925.917171,721.827811 L896.368127,692.281881 Z M279.927619,692.28192 L308.863473,663.336555 L337.805675,692.28192 L308.863473,721.220938 L279.927619,692.28192 Z M142.808032,692.28192 L171.743925,663.336516 L200.679819,692.28192 L171.743925,721.220976 L142.808032,692.28192 Z M240.306,663.345 L211.372,692.282 L240.306,721.218 L269.24,692.282 L240.306,663.345 Z M760.462307,692.281881 L788.791315,663.943427 L817.126673,692.281881 L788.791315,720.620336 L760.462307,692.281881 Z M925.916,664.15 L897.782,692.282 L925.916,720.414 L954.046,692.282 L925.916,664.15 Z M171.744,664.751 L144.221,692.281 L171.744,719.806 L199.266,692.281 L171.744,664.751 Z M308.863,664.751 L281.341,692.281 L308.863,719.806 L336.391,692.282 L308.863,664.751 Z M788.791,665.358 L761.875,692.282 L788.791,719.205 L815.713,692.282 L788.791,665.358 Z M352.725773,692.281836 L377.426402,667.578508 L402.12703,692.281836 L377.426402,716.991539 L352.725773,692.281836 Z M377.426,668.993 L354.139,692.282 L377.426,715.576 L400.713,692.282 L377.426,668.993 Z M491.257019,692.28193 L514.552229,668.984174 L537.841053,692.28193 L514.552229,715.573299 L491.257019,692.28193 Z M560.624954,692.281932 L583.108828,669.789207 L605.599094,692.281932 L583.108828,714.768263 L560.624954,692.281932 Z M697.74444,692.281932 L720.234757,669.789156 L742.712289,692.281932 L720.234757,714.768313 L697.74444,692.281932 Z M514.551,670.398 L492.671,692.281 L514.551,714.159 L536.427,692.281 L514.551,670.398 Z M424.712684,692.281828 L445.989291,671.009301 L467.265898,692.281828 L445.989291,713.560761 L424.712684,692.281828 Z M583.109,671.203 L562.038,692.281 L583.109,713.354 L604.184,692.281 L583.109,671.203 Z M720.234,671.203 L699.159,692.281 L720.234,713.353 L741.298,692.281 L720.234,671.203 Z M445.989,672.422 L426.127,692.282 L445.989,712.146 L465.851,692.282 L445.989,672.422 Z M633.014325,692.281942 L651.671828,673.6224 L670.322896,692.281942 L651.671828,710.935048 L633.014325,692.281942 Z M651.671,675.037 L634.428,692.282 L651.671,709.521 L668.909,692.281 L651.671,675.037 Z M-457.707116,623.717738 L-411.018905,577.024424 L-373.823,614.235 L-342.462266,582.870274 L-309.694,615.64 L-273.899346,579.848328 L-238.611,615.139 L-205.342679,581.867077 L-168.946,618.266 L-136.779756,586.102832 L-102.198,620.687 L-68.2168685,586.703446 L-33.536,621.393 L0.339765131,587.50848 L34.524,621.697 L68.9026857,587.310288 L105.299857,623.717752 L68.9026562,660.112615 L34.524,625.731 L0.339733109,659.914484 L-33.536,626.029 L-68.2168363,660.719518 L-102.197,626.74 L-136.77979,661.326391 L-168.946,629.156 L-205.342682,665.562175 L-238.612,632.283 L-273.899346,667.574668 L-309.694,631.782 L-342.462231,664.552687 L-373.823,633.193 L-411.018886,670.398495 L-457.707116,623.717738 Z M1542.16,612.922 L1577.24291,577.83571 L1616.159,616.755 L1645.80584,587.112225 L1682.4073,623.717691 L1645.80576,660.32323 L1616.159,630.667 L1577.24294,669.599758 L1542.159,634.506 L1508.68621,667.983409 L1473.695,632.989 L1440.11707,666.565309 L1406.55,632.989 L1371.56043,667.983409 L1336.675,633.094 L1302.99752,666.775886 L1265.994,629.763 L1234.44088,661.326425 L1199.858,626.74 L1165.87796,660.719454 L1131.897,626.74 L1097.31507,661.326391 L1061.928,625.936 L1028.7584,659.109417 L993.364258,623.717722 L1028.75837,588.31974 L1061.928,621.492 L1097.31507,586.102798 L1131.896,620.687 L1165.87796,586.703478 L1199.859,620.687 L1234.44085,586.102798 L1265.994,617.659 L1302.99755,580.653332 L1336.674,614.334 L1371.5604,579.439556 L1406.55,614.433 L1440.11707,580.857687 L1473.695,614.433 L1508.68625,579.439555 L1542.16,612.922 Z M-411.019,578.439 L-456.292,623.717 L-411.019,668.983 L-373.824295,631.779237 L-342.462,663.138 L-309.694771,630.367355 L-273.898,666.16 L-238.611715,630.86889 L-205.342,664.147 L-168.946731,627.741643 L-136.779,659.911 L-102.19807,625.326601 L-68.217,659.304 L-33.5360772,624.614358 L0.34,658.5 L34.5252998,624.317211 L68.903,658.697 L103.886,623.717 L68.902,588.724 L34.5252996,623.112042 L0.34,588.922 L-33.5360772,622.808638 L-68.217,588.118 L-102.198038,622.102621 L-136.78,587.517 L-168.946735,619.68129 L-205.342,583.281 L-238.611748,616.554073 L-273.898,581.262 L-309.694771,617.055641 L-342.462,584.284 L-373.82429,615.650016 L-411.019,578.439 Z M1616.15895,618.170298 L1577.243,579.25 L1542.15958,614.337164 L1508.685,580.854 L1473.69583,615.848087 L1440.117,582.272 L1406.55088,615.848152 L1371.56,580.854 L1336.67531,615.74907 L1302.997,582.068 L1265.99476,619.074451 L1234.441,587.517 L1199.8591,622.102621 L1165.878,588.118 L1131.89682,622.102621 L1097.314,587.517 L1061.92837,622.907655 L1028.757,589.734 L994.777,623.717 L1028.757,657.694 L1061.92837,624.521534 L1097.314,659.911 L1131.89679,625.326601 L1165.878,659.305 L1199.85913,625.326601 L1234.44,659.911 L1265.99476,628.348481 L1302.997,665.361 L1336.67528,631.68015 L1371.56,666.568 L1406.55088,631.574844 L1440.117,665.15 L1473.69583,631.574909 L1508.686,666.568 L1542.15965,633.092026 L1577.242,668.185 L1616.15897,629.252568 L1645.806,658.908 L1680.993,623.717 L1645.805,588.526 L1616.15895,618.170298 Z M856.442843,623.717754 L891.632593,588.517839 L926.822342,623.717754 L891.632593,658.90503 L856.442843,623.717754 Z M891.632,589.932 L857.856,623.717 L891.632,657.491 L925.408,623.717 L891.632,589.932 Z M929.042886,623.717727 L960.195446,592.555425 L991.354342,623.717727 L960.195446,654.873692 L929.042886,623.717727 Z M960.195,593.97 L930.456,623.717 L960.195,653.459 L989.94,623.717 L960.195,593.97 Z M793.533233,623.717767 L823.069665,594.165417 L852.612442,623.717767 L823.069665,653.257427 L793.533233,623.717767 Z M823.07,595.58 L794.946,623.717 L823.07,651.843 L851.198,623.717 L823.07,595.58 Z M110.74011,623.717733 L137.465618,596.989303 L164.184767,623.717733 L137.465618,650.439802 L110.74011,623.717733 Z M137.465,598.404 L112.154,623.717 L137.465,649.026 L162.771,623.717 L137.465,598.404 Z M730.617278,623.717691 L754.513006,599.819352 L778.408733,623.717691 L754.513006,647.61603 L730.617278,623.717691 Z M754.513,601.234 L732.03,623.718 L754.513,646.201 L776.995,623.718 L754.513,601.234 Z M526.346555,623.717791 L548.830529,601.224966 L571.314504,623.717791 L548.830529,646.197829 L526.346555,623.717791 Z M184.343142,623.717795 L206.028518,602.030049 L227.707493,623.717795 L206.028518,645.392739 L184.343142,623.717795 Z M548.83,602.639 L527.76,623.717 L548.83,644.784 L569.9,623.717 L548.83,602.639 Z M597.119952,623.717803 L617.387171,603.441952 L637.660805,623.717803 L617.387171,643.98082 L597.119952,623.717803 Z M206.028,603.444 L185.757,623.717 L206.027,643.979 L226.293,623.717 L206.028,603.444 Z M255.327168,623.717691 L274.585163,604.457591 L293.843159,623.717691 L274.585163,642.977791 L255.327168,623.717691 Z M617.387,604.856 L598.533,623.717 L617.387,642.567 L636.246,623.717 L617.387,604.856 Z M274.585,605.872 L256.74,623.718 L274.585,641.563 L292.429,623.718 L274.585,605.872 Z M462.823871,623.717691 L480.26764,606.272015 L497.711409,623.717691 L480.26764,641.163366 L462.823871,623.717691 Z M480.267,607.686 L464.237,623.717 L480.267,639.748 L496.297,623.717 L480.267,607.686 Z M669.917957,623.717834 L685.956451,607.677587 L701.98199,623.717834 L685.956451,639.745124 L669.917957,623.717834 Z M685.955,609.092 L671.332,623.717 L685.955,638.331 L700.568,623.717 L685.955,609.092 Z M329.530962,623.717776 L343.141776,610.098942 L356.759122,623.717776 L343.141776,637.330078 L329.530962,623.717776 Z M399.307378,623.717878 L411.711036,611.306298 L424.108127,623.717878 L411.711036,636.116324 L399.307378,623.717878 Z M343.142,611.513 L330.944,623.717 L343.142,635.916 L355.344,623.717 L343.142,611.513 Z M411.71,612.721 L400.721,623.718 L411.71,634.702 L422.694,623.717 L411.71,612.721 Z M1507.373,544.655 L1542.96456,509.060972 L1577.447,543.547 L1611.52121,509.469731 L1657.20013,555.141066 L1611.52123,600.824965 L1577.446,566.741 L1542.96456,601.233705 L1507.373,565.632 L1474.4079,598.608024 L1437.503,561.7 L1405.83872,593.362879 L1372.972,560.486 L1337.28212,596.186725 L1299.771,558.672 L1268.7192,589.734098 L1234.13625,555.14105 L1268.71919,520.560652 L1299.772,551.61 L1337.28211,514.10801 L1372.971,549.795 L1405.83875,516.925577 L1437.503,548.588 L1474.4079,511.680398 L1507.373,544.655 Z M1577.44724,544.961713 L1542.964,510.475 L1507.3735,546.070218 L1474.407,513.095 L1437.50419,550.002435 L1405.839,518.339 L1372.97222,551.209991 L1337.281,515.521 L1299.77154,553.024353 L1268.719,521.974 L1235.549,555.141 L1268.718,588.319 L1299.77153,557.257748 L1337.281,594.772 L1372.97219,559.072144 L1405.839,591.948 L1437.50419,560.285987 L1474.407,597.193 L1507.37353,564.218174 L1542.964,599.818 L1577.44724,565.326645 L1611.521,599.41 L1655.785,555.141 L1611.521,510.883 L1577.44724,544.961713 Z M-343.571,549.089 L-308.183949,513.699242 L-273.293,548.587 L-239.621058,514.912986 L-203.12,551.411 L-171.064396,519.346836 L-135.267743,555.141084 L-171.064364,590.941617 L-203.12,558.876 L-239.621058,595.375437 L-273.292,561.7 L-308.183948,596.595435 L-343.571,561.199 L-376.740615,594.37227 L-415.967539,555.141058 L-376.740591,515.922435 L-343.571,549.089 Z M-273.292539,550.002438 L-308.183,515.113 L-343.570583,550.504035 L-376.741,517.336 L-414.552,555.141 L-376.74,592.957 L-343.570585,559.784323 L-308.183,595.18 L-273.29257,560.285953 L-239.62,593.96 L-203.119723,557.462135 L-171.063,589.526 L-136.681,555.141 L-171.063,520.761 L-203.119723,552.826288 L-239.62,516.327 L-273.292539,550.002438 Z M-69.1283009,555.141051 L-33.9385513,519.953775 L1.25119823,555.141051 L-33.9385513,590.340967 L-69.1283009,555.141051 Z M-33.939,521.367 L-67.714,555.141 L-33.938,588.926 L-0.163,555.141 L-33.939,521.367 Z M960.900133,555.141082 L994.480089,521.563781 L1028.0474,555.141082 L994.480089,588.724708 L960.900133,555.141082 Z M823.97872,555.141048 L857.354244,521.768203 L890.729767,555.141048 L857.354244,588.526546 L823.97872,555.141048 Z M-135.06586,555.141081 L-102.495215,522.573205 L-69.9308985,555.141081 L-102.495215,587.715286 L-135.06586,555.141081 Z M893.544628,555.141046 L925.917168,522.77763 L958.283377,555.141046 L925.917168,587.517124 L893.544628,555.141046 Z M994.479,522.978 L962.314,555.141 L994.48,587.31 L1026.633,555.141 L994.479,522.978 Z M857.354,523.181 L825.392,555.141 L857.354,587.111 L889.316,555.141 L857.354,523.181 Z M-102.495,523.987 L-133.651,555.141 L-102.495,586.3 L-71.344,555.141 L-102.495,523.987 Z M925.916,524.191 L894.959,555.141 L925.916,586.102 L956.869,555.141 L925.916,524.191 Z M1169.60422,555.141042 L1200.16257,524.592024 L1230.70825,555.141042 L1200.16257,585.702738 L1169.60422,555.141042 Z M1101.04767,555.141042 L1131.59334,524.592024 L1162.1517,555.141042 L1131.59334,585.702738 L1101.04767,555.141042 Z M4.27049801,555.141078 L34.6181093,524.79015 L64.9720602,555.141078 L34.6181093,585.498346 L4.27049801,555.141078 Z M1032.88714,555.141078 L1063.03672,524.994542 L1093.1863,555.141078 L1063.03672,585.293955 L1032.88714,555.141078 Z M1200.161,526.005 L1171.018,555.141 L1200.162,584.287 L1229.294,555.141 L1200.161,526.005 Z M1131.593,526.005 L1102.461,555.141 L1131.593,584.287 L1160.737,555.14 L1131.593,526.005 Z M34.618,526.204 L5.684,555.141 L34.618,584.083 L63.557,555.141 L34.618,526.204 Z M1063.036,526.408 L1034.301,555.141 L1063.036,583.879 L1091.772,555.141 L1063.036,526.408 Z M75.254423,555.141075 L103.180995,527.21145 L131.113921,555.141075 L103.180995,583.077053 L75.254423,555.141075 Z M103.181,528.625 L76.668,555.141 L103.181,581.662 L129.699,555.141 L103.181,528.625 Z M767.917219,555.141061 L788.791354,534.271054 L809.665489,555.141061 L788.791354,576.017477 L767.917219,555.141061 Z M494.080518,555.14106 L514.552236,534.673518 L535.017541,555.14106 L514.552236,575.615015 L494.080518,555.14106 Z M700.76602,555.140998 L720.234774,535.682969 L739.690676,555.140998 L720.234774,574.611879 L700.76602,555.140998 Z M788.79,535.684 L769.331,555.141 L788.791,574.602 L808.25,555.141 L788.79,535.684 Z M564.048964,555.141055 L583.108878,536.085489 L602.168792,555.141055 L583.108878,574.203053 L564.048964,555.141055 Z M514.551,536.087 L495.495,555.141 L514.551,574.2 L533.603,555.141 L514.551,536.087 Z M720.234,537.096 L702.18,555.141 L720.234,573.197 L738.277,555.141 L720.234,537.096 Z M583.108,537.499 L565.463,555.141 L583.108,572.788 L600.754,555.141 L583.108,537.499 Z M154.504555,555.141049 L171.743859,537.89986 L188.98962,555.141049 L171.743859,572.388694 L154.504555,555.141049 Z M171.744,539.313 L155.918,555.141 L171.743,570.974 L187.574,555.141 L171.744,539.313 Z M637.453977,555.140953 L651.671767,540.928125 L665.889558,555.140953 L651.671767,569.366814 L637.453977,555.140953 Z M651.671,542.341 L638.867,555.141 L651.671,567.952 L664.475,555.141 L651.671,542.341 Z M434.390573,555.141014 L445.989291,543.547624 L457.588009,555.141014 L445.989291,566.741 L434.390573,555.141014 Z M445.989,544.961 L435.805,555.141 L445.989,565.326 L456.173,555.141 L445.989,544.961 Z M231.327105,555.141115 L240.306947,546.167014 L249.280067,555.141115 L240.306947,564.115216 L231.327105,555.141115 Z M240.306,547.58 L232.741,555.141 L240.306,562.701 L247.866,555.14 L240.306,547.58 Z M371.072516,555.140921 L377.426402,548.786341 L383.780287,555.140921 L377.426402,561.502469 L371.072516,555.140921 Z M377.426,550.201 L372.486,555.14 L377.426,560.087 L382.366,555.141 L377.426,550.201 Z M304.527992,555.141115 L308.863512,550.805121 L313.199033,555.141115 L308.863512,559.477109 L304.527992,555.141115 Z M308.863,552.219 L305.942,555.141 L308.863,558.062 L311.785,555.141 L308.863,552.219 Z M1611.422,473.874 L1645.8058,439.487392 L1692.89019,486.576924 L1645.80583,533.666425 L1611.422,499.285 L1577.24291,533.468294 L1541.652,497.873 L1508.68624,530.842614 L1470.673,492.832 L1440.117,523.380582 L1406.049,489.296 L1371.5604,523.78933 L1335.869,488.089 L1302.99755,520.965485 L1268.61271,486.576892 L1302.99751,452.194655 L1335.869,485.059 L1371.5604,449.370836 L1406.048,483.85 L1440.11707,449.767002 L1470.673,480.327 L1508.68621,442.311206 L1541.652,475.28 L1577.24294,439.685522 L1611.422,473.874 Z M1691.476,486.576 L1645.805,440.902 L1611.42216,475.289084 L1577.242,441.1 L1541.65188,476.694766 L1508.686,443.725 L1470.67415,481.741715 L1440.117,451.181 L1406.04944,485.265291 L1371.56,450.784 L1335.87037,486.472745 L1302.998,453.608 L1270.027,486.577 L1302.997,519.55 L1335.87036,486.674783 L1371.56,522.374 L1406.04937,487.882301 L1440.117,521.965 L1470.67419,491.418426 L1508.685,529.427 L1541.65188,496.459082 L1577.242,532.053 L1611.42216,497.871021 L1645.805,532.251 L1691.476,486.576 Z M-453.676195,486.576924 L-411.018879,443.921243 L-373.823,481.132 L-342.462266,449.767066 L-308.078,484.154 L-273.899377,449.971421 L-238.612,485.262 L-205.342712,451.983975 L-172.47,484.86 L-136.77979,449.160134 L-99.977,485.971 L-68.2169001,454.207143 L-35.8506216,486.576959 L-68.2169001,518.940444 L-99.977,487.181 L-136.77979,523.987462 L-172.47,488.293 L-205.342712,521.163614 L-238.612,487.891 L-273.899377,523.182427 L-308.079,488.999 L-342.462228,523.380488 L-373.824,492.027 L-411.018908,529.232576 L-453.676195,486.576924 Z M-411.019,445.335 L-452.261,486.576 L-411.019,527.817 L-373.82433,490.613332 L-342.462,521.966 L-308.078623,487.585154 L-273.899,521.767 L-238.712,486.577 L-273.899,451.386 L-308.078655,485.568726 L-342.462,451.181 L-373.82429,482.546809 L-411.019,445.335 Z M-100.787,486.577 L-136.779,450.574 L-172.46986,486.274711 L-205.342,453.398 L-238.511,486.577 L-205.342,519.749 L-172.469858,486.879202 L-136.779,522.572 L-100.787,486.577 Z M722.747305,486.576924 L754.513006,454.814086 L786.278706,486.576924 L754.513006,518.339763 L722.747305,486.576924 Z M791.917107,486.57696 L823.069667,455.414659 L854.228563,486.57696 L823.069667,517.732925 L791.917107,486.57696 Z M-68.217,455.621 L-99.169,486.576 L-68.217,517.526 L-37.264,486.576 L-68.217,455.621 Z M754.513,456.227 L724.161,486.577 L754.513,516.926 L784.864,486.577 L754.513,456.227 Z M1067.37616,486.576962 L1097.31499,456.622172 L1127.26651,486.576962 L1097.31499,516.525409 L1067.37616,486.576962 Z M930.448373,486.576887 L960.19552,456.832832 L989.936323,486.576887 L960.19552,516.327284 L930.448373,486.576887 Z M823.07,456.829 L793.33,486.576 L823.07,516.318 L852.814,486.576 L823.07,456.829 Z M-0.0137364961,457.991402 L0.339797443,457.637907 L29.2819604,486.576885 L0.339797443,515.522212 L-28.6023655,486.576885 L-0.0137364961,457.991402 Z M1097.315,458.036 L1068.789,486.576 L1097.315,515.11 L1125.852,486.576 L1097.315,458.036 Z M960.195,458.247 L931.862,486.577 L960.195,514.912 L988.522,486.577 L960.195,458.247 Z M1000.82549,486.576884 L1028.75841,458.647259 L1056.68498,486.576884 L1028.75841,514.512862 L1000.82549,486.576884 Z M0.34,459.051 L-27.188,486.577 L0.34,514.108 L27.868,486.577 L0.34,459.051 Z M1028.757,460.061 L1002.239,486.577 L1028.757,513.098 L1055.271,486.577 L1028.757,460.061 Z M1140.37243,486.576924 L1165.87796,461.062235 L1191.38349,486.576924 L1165.87796,512.091614 L1140.37243,486.576924 Z M866.925681,486.57697 L891.632638,461.867312 L916.333221,486.57697 L891.632638,511.280252 L866.925681,486.57697 Z M1165.878,462.476 L1141.786,486.576 L1165.878,510.676 L1189.969,486.576 L1165.878,462.476 Z M1210.34074,486.576971 L1234.44089,462.474184 L1258.53467,486.576971 L1234.44089,510.673379 L1210.34074,486.576971 Z M45.2050529,486.576972 L68.9027345,462.8767 L92.5940338,486.576972 L68.9027345,510.270861 L45.2050529,486.576972 Z M891.632,463.282 L868.34,486.576 L891.632,509.866 L914.919,486.576 L891.632,463.282 Z M1234.44,463.888 L1211.755,486.576 L1234.44,509.259 L1257.121,486.576 L1234.44,463.888 Z M68.902,464.291 L46.619,486.576 L68.902,508.857 L91.18,486.576 L68.902,464.291 Z M529.770615,486.576984 L548.830589,467.514927 L567.884132,486.576984 L548.830589,505.63261 L529.770615,486.576984 Z M548.83,468.929 L531.185,486.576 L548.83,504.217 L566.47,486.576 L548.83,468.929 Z M600.147856,486.57699 L617.387161,469.329345 L634.632921,486.57699 L617.387161,503.818179 L600.147856,486.57699 Z M464.031291,486.576924 L480.26764,470.338801 L496.503989,486.576924 L480.26764,502.815048 L464.031291,486.576924 Z M617.387,470.744 L601.561,486.576 L617.387,502.404 L633.218,486.576 L617.387,470.744 Z M480.267,471.753 L465.444,486.577 L480.267,501.4 L495.09,486.577 L480.267,471.753 Z M671.336045,486.576924 L685.956308,471.955063 L700.576572,486.576924 L685.956308,501.198786 L671.336045,486.576924 Z M685.956,473.369 L672.749,486.577 L685.956,499.784 L699.162,486.576 L685.956,473.369 Z M127.681065,486.577045 L137.465697,476.791343 L147.243655,486.577045 L137.465697,496.356071 L127.681065,486.577045 Z M137.465,478.206 L129.095,486.576 L137.465,494.942 L145.83,486.576 L137.465,478.206 Z M404.947836,486.576924 L411.711304,479.819633 L418.460941,486.576924 L411.711304,493.334216 L404.947836,486.576924 Z M274.584982,479.819452 L281.341716,486.576924 L274.584982,493.334397 L267.835164,486.576924 L274.584982,479.819452 Z M336.794361,486.576924 L343.141667,480.221956 L349.49594,486.576924 L343.141667,492.931892 L336.794361,486.576924 Z M411.71,481.234 L406.362,486.577 L411.71,491.919 L417.047,486.577 L411.71,481.234 Z M274.585,481.234 L269.248,486.577 L274.585,491.919 L279.928,486.577 L274.585,481.234 Z M343.142,481.636 L338.207,486.577 L343.142,491.517 L348.082,486.577 L343.142,481.636 Z M203.499772,486.576924 L206.029068,484.055956 L208.54976,486.576924 L206.029068,489.097892 L203.499772,486.576924 Z M206.027,485.469 L204.916,486.577 L206.027,487.684 L207.135,486.577 L206.027,485.469 Z M1507.07,409.836 L1542.96459,373.938954 L1577.645,408.629 L1611.52123,374.750238 L1654.77908,418.006515 L1611.52123,461.269094 L1577.645,427.383 L1542.96459,462.074128 L1507.07,426.176 L1474.40793,458.847768 L1439.014,423.456 L1405.83872,456.63082 L1369.343,420.125 L1337.28209,452.190747 L1303.10162,418.006541 L1337.28209,383.822335 L1369.344,415.887 L1405.83875,379.388484 L1439.014,412.561 L1474.4079,377.165283 L1507.07,409.836 Z M1577.64535,410.044113 L1542.964,375.353 L1507.07009,411.251667 L1474.407,378.579 L1439.015,413.976334 L1405.839,380.803 L1369.34374,417.301779 L1337.282,385.237 L1304.515,418.007 L1337.281,450.776 L1369.34377,418.711273 L1405.839,455.216 L1439.01498,422.042972 L1474.407,457.433 L1507.07009,424.761415 L1542.964,460.659 L1577.64539,425.968937 L1611.521,459.854 L1653.365,418.007 L1611.521,376.164 L1577.64535,410.044113 Z M-340.754528,418.006575 L-308.183883,385.43237 L-275.619567,418.006575 L-308.183883,450.574451 L-340.754528,418.006575 Z M757.23632,418.006541 L788.791319,386.441759 L820.352652,418.006541 L788.791319,449.571323 L757.23632,418.006541 Z M-202.421295,418.006541 L-171.064366,386.646185 L-139.701102,418.006541 L-171.064366,449.366897 L-202.421295,418.006541 Z M-133.654109,418.006505 L-102.495213,386.85054 L-71.3426529,418.006505 L-102.495213,449.168806 L-133.654109,418.006505 Z M-308.184,386.847 L-339.339,418.006 L-308.184,449.159 L-277.033,418.006 L-308.184,386.847 Z M-64.4906058,418.006504 L-33.9385513,387.45745 L-3.38649689,418.006504 L-33.9385513,448.561898 L-64.4906058,418.006504 Z M788.791,387.856 L758.649,418.006 L788.791,448.156 L818.939,418.006 L788.791,387.856 Z M-171.063,388.06 L-201.007,418.006 L-171.063,447.952 L-141.115,418.006 L-171.063,388.06 Z M-102.495,388.265 L-132.24,418.007 L-102.495,447.754 L-72.756,418.007 L-102.495,388.265 Z M-33.938,388.871 L-63.076,418.007 L-33.938,447.147 L-4.801,418.007 L-33.938,388.871 Z M-266.544593,418.006541 L-239.621028,391.080033 L-212.697462,418.006541 L-239.621028,444.933049 L-266.544593,418.006541 Z M831.842431,418.006541 L857.354244,392.49194 L882.866056,418.006541 L857.354244,443.521142 L831.842431,418.006541 Z M-239.621,392.494 L-265.13,418.006 L-239.621,443.518 L-214.111,418.006 L-239.621,392.494 Z M857.354,393.906 L833.256,418.006 L857.354,442.106 L881.452,418.006 L857.354,393.906 Z M1245.22599,418.006493 L1268.7192,394.51072 L1292.2124,418.006493 L1268.7192,441.508651 L1245.22599,418.006493 Z M1268.719,395.925 L1246.639,418.007 L1268.719,440.093 L1290.798,418.007 L1268.719,395.925 Z M1110.32311,418.006488 L1131.59331,396.73396 L1152.87632,418.006488 L1131.59331,439.285421 L1110.32311,418.006488 Z M1131.593,398.147 L1111.736,418.007 L1131.593,437.87 L1151.461,418.006 L1131.593,398.147 Z M1181.50506,418.006602 L1200.16256,399.34706 L1218.81363,418.006602 L1200.16256,436.659708 L1181.50506,418.006602 Z M16.5738891,418.006541 L34.6180831,399.95393 L52.6687214,418.006541 L34.6180831,436.059152 L16.5738891,418.006541 Z M702.184082,418.006541 L720.234657,399.953993 L738.285232,418.006541 L720.234657,436.059089 L702.184082,418.006541 Z M1200.162,400.761 L1182.919,418.006 L1200.162,435.245 L1217.399,418.007 L1200.162,400.761 Z M720.234,401.368 L703.597,418.006 L720.234,434.644 L736.871,418.006 L720.234,401.368 Z M34.618,401.368 L17.987,418.006 L34.618,434.644 L51.255,418.006 L34.618,401.368 Z M978.639666,418.006541 L994.480167,402.177272 L1010.30771,418.006541 L994.480167,433.83581 L978.639666,418.006541 Z M994.479,403.59 L980.054,418.006 L994.479,432.422 L1008.894,418.006 L994.479,403.59 Z M1048.81901,418.00646 L1063.03672,403.787197 L1077.25443,418.00646 L1063.03672,432.23224 L1048.81901,418.00646 Z M363.815502,418.006456 L377.426402,404.394069 L391.037301,418.006456 L377.426402,431.625375 L363.815502,418.006456 Z M1063.036,405.201 L1050.232,418.007 L1063.036,430.817 L1075.84,418.007 L1063.036,405.201 Z M913.104723,418.006541 L925.917224,405.199194 L938.723171,418.006541 L925.917224,430.813888 L913.104723,418.006541 Z M377.426,405.808 L365.229,418.007 L377.426,430.21 L389.623,418.007 L377.426,405.808 Z M925.916,406.612 L914.519,418.006 L925.916,429.4 L937.309,418.006 L925.916,406.612 Z M644.110427,418.006701 L651.671767,410.437703 L659.233107,418.006701 L651.671767,425.568867 L644.110427,418.006701 Z M439.839745,418.00634 L445.989291,411.856122 L452.138837,418.00634 L445.989291,424.163555 L439.839745,418.00634 Z M651.672,411.852 L645.523,418.006 L651.671,424.154 L657.819,418.006 L651.672,411.852 Z M445.989,413.27 L441.253,418.007 L445.989,422.748 L450.725,418.007 L445.989,413.27 Z M578.370884,418.006541 L583.108607,413.268301 L587.853607,418.006541 L583.108607,422.744782 L578.370884,418.006541 Z M510.619133,418.006541 L514.55218,414.073064 L518.485228,418.006541 L514.55218,421.940018 L510.619133,418.006541 Z M583.109,414.681 L579.784,418.006 L583.109,421.331 L586.438,418.006 L583.109,414.681 Z M100.060031,418.006541 L103.180583,414.877646 L106.309136,418.006541 L103.180583,421.135436 L100.060031,418.006541 Z M514.552,415.487 L512.032,418.006 L514.552,420.526 L517.071,418.006 L514.552,415.487 Z M306.752432,418.006541 L308.861961,415.887487 L310.990077,418.006541 L308.861961,420.125595 L306.752432,418.006541 Z M103.181,416.293 L101.472,418.006 L103.181,419.72 L104.895,418.006 L103.181,416.293 Z M308.865,417.301 L308.163,418.006 L308.865,418.711 L309.572,418.006 L308.865,417.301 Z M-454.283026,349.442376 L-411.018909,306.179827 L-372.406,344.802 L-342.462303,314.849398 L-307.873066,349.442415 L-342.462331,384.022817 L-372.405,354.075 L-411.018884,392.698656 L-454.283026,349.442376 Z M1611.02,341.167 L1645.80583,306.384216 L1688.85929,349.442376 L1645.80577,392.494298 L1611.02,357.704 L1577.24294,391.484903 L1542.556,356.8 L1508.68631,390.686125 L1473.794,355.796 L1440.1171,389.472315 L1404.526,353.877 L1371.56047,386.846665 L1335.263,350.552 L1302.99751,382.815295 L1269.62828,349.442417 L1302.99748,316.05692 L1335.263,348.326 L1371.56047,312.025587 L1404.526,345 L1440.11713,309.406161 L1473.795,343.087 L1508.68625,308.19864 L1542.556,342.071 L1577.24294,307.387413 L1611.02,341.167 Z M-411.019,307.594 L-452.868,349.441 L-411.018,391.284 L-372.406314,352.661269 L-342.461,382.609 L-309.287,349.441 L-342.461,316.264 L-372.406278,346.217276 L-411.019,307.594 Z M1687.445,349.441 L1645.805,307.798 L1611.01968,342.582138 L1577.242,308.802 L1542.55587,343.486254 L1508.685,309.613 L1473.79484,344.501836 L1440.116,310.82 L1404.52607,346.415406 L1371.56,313.44 L1335.565,349.439 L1371.56,385.432 L1404.5261,352.463135 L1440.117,388.057 L1473.79487,354.382897 L1508.685,389.271 L1542.5558,355.385997 L1577.242,390.07 L1611.01972,356.290146 L1645.806,391.079 L1687.445,349.441 Z M1302.997,317.471 L1271.041,349.441 L1302.998,381.4 L1334.961,349.439 L1302.997,317.471 Z M1205.49868,349.442389 L1234.44089,320.497024 L1263.37674,349.442389 L1234.44089,378.381407 L1205.49868,349.442389 Z M1234.44,321.911 L1206.913,349.441 L1234.44,376.966 L1261.963,349.441 L1234.44,321.911 Z M-163.901454,349.442392 L-136.77979,322.311404 L-109.658125,349.442392 L-136.77979,376.567021 L-163.901454,349.442392 Z M-300.222456,349.442393 L-273.899334,323.122757 L-247.582574,349.442393 L-273.899334,375.755665 L-300.222456,349.442393 Z M-136.779,323.726 L-162.487,349.441 L-136.779,375.152 L-111.071,349.441 L-136.779,323.726 Z M-93.3262841,349.442395 L-68.2168552,324.330222 L-43.1137977,349.442395 L-68.2168552,374.548197 L-93.3262841,349.442395 Z M-273.899,324.536 L-298.807,349.441 L-273.899,374.342 L-248.996,349.441 L-273.899,324.536 Z M-68.217,325.744 L-91.912,349.441 L-68.217,373.134 L-44.527,349.441 L-68.217,325.744 Z M-227.826603,349.442401 L-205.342729,326.949676 L-182.852463,349.442401 L-205.342729,371.928732 L-227.826603,349.442401 Z M-205.342,328.364 L-226.412,349.442 L-205.342,370.515 L-184.267,349.441 L-205.342,328.364 Z M-15.4878139,349.442423 L0.339797443,333.606599 L16.1674088,349.442423 L0.339797443,365.271764 L-15.4878139,349.442423 Z M0.34,335.02 L-14.074,349.441 L0.34,363.858 L14.753,349.441 L0.34,335.02 Z M1152.47139,349.442437 L1165.87787,336.027955 L1179.29089,349.442437 L1165.87787,362.850381 L1152.47139,349.442437 Z M1165.878,337.442 L1153.885,349.442 L1165.878,361.436 L1177.876,349.441 L1165.878,337.442 Z M1089.14676,349.44235 L1097.31507,341.273152 L1105.48337,349.44235 L1097.31507,357.611549 L1089.14676,349.44235 Z M814.907883,349.44235 L823.069556,341.273005 L831.238009,349.44235 L823.069556,357.611696 L814.907883,349.44235 Z M823.07,342.687 L816.321,349.442 L823.069,356.197 L829.824,349.442 L823.07,342.687 Z M1097.315,342.687 L1090.56,349.442 L1097.315,356.196 L1104.069,349.442 L1097.315,342.687 Z M748.759323,349.442567 L754.513223,343.688039 L760.260062,349.442567 L754.513223,355.190035 L748.759323,349.442567 Z M1023.20901,349.442577 L1028.7586,343.892385 L1034.30109,349.442576 L1028.7586,354.985671 L1023.20901,349.442577 Z M955.055261,349.442597 L960.195482,344.294635 L965.335703,349.442597 L960.195482,354.58338 L955.055261,349.442597 Z M407.375422,349.44235 L411.710942,345.106356 L416.046463,349.44235 L411.710942,353.778345 L407.375422,349.44235 Z M754.512,345.102 L750.173,349.442 L754.512,353.776 L758.846,349.441 L754.512,345.102 Z M1028.757,345.307 L1024.623,349.441 L1028.758,353.571 L1032.887,349.441 L1028.757,345.307 Z M887.699545,349.443029 L891.632593,345.502002 L895.56564,349.443029 L891.632593,353.368956 L887.699545,349.443029 Z M960.195,345.709 L956.468,349.441 L960.195,353.168 L963.922,349.441 L960.195,345.709 Z M339.822646,349.443185 L343.141024,346.108716 L346.475131,349.443187 L343.141026,352.761927 L339.822646,349.443185 Z M411.711,346.521 L408.789,349.442 L411.711,352.363 L414.632,349.442 L411.711,346.521 Z M66.3813926,349.44235 L68.9026869,346.92078 L71.4239812,349.44235 L68.9026869,351.96392 L66.3813926,349.44235 Z M891.632,346.918 L889.113,349.441 L891.632,351.956 L894.151,349.441 L891.632,346.918 Z M343.142,347.524 L341.235,349.441 L343.142,351.349 L345.059,349.441 L343.142,347.524 Z M684.640616,349.444168 L685.958126,348.126515 L687.262182,349.444159 L685.958117,350.748367 L684.640616,349.444168 Z M68.903,348.335 L67.795,349.442 L68.903,350.549 L70.01,349.442 L68.903,348.335 Z M1508.581,276.43 L1542.96463,242.049523 L1577.645,276.739 L1611.52117,242.854584 L1649.54077,280.865716 L1611.52123,318.889409 L1577.645,285.003 L1542.96459,319.694443 L1508.581,285.307 L1474.40796,319.490028 L1438.606,283.696 L1405.83872,316.468143 L1370.25282,280.865712 L1405.83878,245.275854 L1438.606,278.046 L1474.40793,242.247683 L1508.581,276.43 Z M1577.64539,278.154682 L1542.964,243.464 L1508.58089,277.84499 L1474.407,243.662 L1438.60628,279.461221 L1405.838,246.69 L1371.666,280.866 L1405.839,315.053 L1438.60625,282.282744 L1474.407,318.075 L1508.58092,283.89272 L1542.964,318.279 L1577.64539,283.589252 L1611.521,317.474 L1648.126,280.866 L1611.521,244.269 L1577.64539,278.154682 Z M-340.5439,280.865705 L-308.183952,248.50222 L-275.817673,280.865705 L-308.183952,313.241852 L-340.5439,280.865705 Z M-308.183,249.916 L-339.13,280.866 L-308.183,311.827 L-277.231,280.866 L-308.183,249.916 Z M1308.34615,280.865697 L1337.28209,251.93295 L1366.21802,280.865697 L1337.28209,309.81114 L1308.34615,280.865697 Z M1240.99696,280.865694 L1268.71916,253.140465 L1296.44771,280.865694 L1268.71916,308.603632 L1240.99696,280.865694 Z M1337.282,253.346 L1309.759,280.866 L1337.282,308.396 L1364.804,280.866 L1337.282,253.346 Z M1268.719,254.554 L1242.41,280.866 L1268.719,307.188 L1295.034,280.866 L1268.719,254.554 Z M-127.80901,280.865686 L-102.49516,255.56181 L-77.1940498,280.865686 L-102.49516,306.182302 L-127.80901,280.865686 Z M-263.721088,280.865681 L-239.620981,256.76932 L-215.527253,280.865681 L-239.620981,304.974801 L-263.721088,280.865681 Z M-102.495,256.975 L-126.394,280.866 L-102.495,304.767 L-78.607,280.866 L-102.495,256.975 Z M-239.621,258.183 L-262.307,280.866 L-239.621,303.56 L-216.94,280.866 L-239.621,258.183 Z M1180.89819,280.865775 L1200.16256,261.605733 L1219.42049,280.865775 L1200.16256,300.125816 L1180.89819,280.865775 Z M-189.312984,280.865712 L-171.06433,262.615064 L-152.815677,280.865712 L-171.06433,299.122802 L-189.312984,280.865712 Z M1200.162,263.02 L1182.312,280.865 L1200.162,298.711 L1218.006,280.866 L1200.162,263.02 Z M-171.064,264.029 L-187.899,280.866 L-171.064,297.708 L-154.229,280.866 L-171.064,264.029 Z M-49.7660904,280.86563 L-33.9385513,265.036361 L-18.1110123,280.86563 L-33.9385513,296.707863 L-49.7660904,280.86563 Z M-33.938,266.451 L-48.352,280.866 L-33.938,295.293 L-19.524,280.866 L-33.938,266.451 Z M1125.64842,280.865357 L1131.59321,274.919919 L1137.54502,280.865357 L1131.59321,286.824851 L1125.64842,280.865357 Z M1131.593,276.333 L1127.062,280.865 L1131.593,285.408 L1136.131,280.866 L1131.593,276.333 Z M31.4971407,280.864872 L34.6172431,277.744428 L37.7533437,280.864869 L34.6172408,284.001315 L31.4971407,280.864872 Z M1061.12403,280.863975 L1063.03672,278.951077 L1064.94941,280.863975 L1063.03672,282.796493 L1061.12403,280.863975 Z M34.618,279.157 L32.909,280.866 L34.618,282.585 L36.337,280.866 L34.618,279.157 Z M376.316839,280.860335 L377.426402,279.767723 L378.535964,280.860335 L377.426402,281.987091 L376.316839,280.860335 Z M1063.036,280.365 L1062.534,280.867 L1063.036,281.374 L1063.538,280.867 L1063.036,280.365 Z M-452.258198,212.301584 L-411.018964,171.057842 L-373.613,208.466 L-342.462266,177.312343 L-307.476849,212.301584 L-342.462266,247.290825 L-373.613,216.136 L-411.018964,253.545325 L-452.258198,212.301584 Z M-411.018,172.472 L-450.844,212.301 L-411.019,252.13 L-373.613706,214.721689 L-342.462,245.876 L-308.89,212.302 L-342.462,178.727 L-373.613706,209.881479 L-411.018,172.472 Z M-302.439106,212.301584 L-273.899337,183.765046 L-245.365918,212.301584 L-273.899337,240.838122 L-302.439106,212.301584 Z M-273.899,185.179 L-301.024,212.301 L-273.899,239.424 L-246.779,212.301 L-273.899,185.179 Z M-160.471089,212.301584 L-136.77979,188.601312 L-113.08849,212.301584 L-136.77979,236.001856 L-160.471089,212.301584 Z M-136.78,190.016 L-159.057,212.302 L-136.78,234.587 L-114.502,212.302 L-136.78,190.016 Z M1417.83749,212.301584 L1440.11703,190.019609 L1462.40936,212.301584 L1440.11703,234.583559 L1417.83749,212.301584 Z M1440.117,191.433 L1419.251,212.301 L1440.117,233.169 L1460.994,212.301 L1440.117,191.433 Z M-86.465616,212.301584 L-68.2169001,194.050873 L-49.9681842,212.301584 L-68.2169001,230.552294 L-86.465616,212.301584 Z M-222.377649,212.301584 L-205.342746,195.258359 L-188.301383,212.301584 L-205.342746,229.344809 L-222.377649,212.301584 Z M-68.216,195.465 L-85.051,212.301 L-68.216,229.137 L-51.381,212.301 L-68.216,195.465 Z M-205.342,196.673 L-220.964,212.302 L-205.342,227.93 L-189.715,212.302 L-205.342,196.673 Z M1358.35201,212.301496 L1371.56035,199.091717 L1384.77523,212.301496 L1371.56035,225.517818 L1358.35201,212.301496 Z M1371.56,200.506 L1359.765,212.302 L1371.56,224.103 L1383.36,212.302 L1371.56,200.506 Z M-5.0050025,212.301584 L0.339797443,206.9562 L5.68459738,212.301584 L0.339797443,217.646968 L-5.0050025,212.301584 Z M1297.65275,212.301584 L1302.99731,206.956436 L1308.34901,212.301584 L1302.99731,217.646732 L1297.65275,212.301584 Z M1302.997,208.37 L1299.066,212.301 L1302.998,216.233 L1306.934,212.301 L1302.997,208.37 Z M0.34,208.369 L-3.591,212.301 L0.34,216.233 L4.27,212.301 L0.34,208.369 Z M1230.91027,212.301584 L1234.44085,208.770624 L1237.97142,212.301584 L1234.44085,215.832544 L1230.91027,212.301584 Z M1234.44,210.185 L1232.324,212.301 L1234.44,214.418 L1236.557,212.301 L1234.44,210.185 Z M-330.463508,143.737444 L-308.183968,121.449073 L-285.898033,143.737444 L-308.183968,166.019419 L-330.463508,143.737444 Z M-308.183,122.863 L-329.049,143.736 L-308.183,164.605 L-287.312,143.736 L-308.183,122.863 Z M-121.753244,143.737393 L-102.495249,124.477293 L-83.2372535,143.737393 L-102.495249,162.997493 L-121.753244,143.737393 Z M-102.495,125.891 L-120.339,143.736 L-102.495,161.582 L-84.65,143.736 L-102.495,125.891 Z M-253.436428,143.737477 L-239.620944,129.920483 L-225.811986,143.737477 L-239.620944,157.547944 L-253.436428,143.737477 Z M-184.470809,143.737393 L-171.064416,130.322998 L-157.651487,143.737393 L-171.064416,157.151789 L-184.470809,143.737393 Z M-239.621,131.335 L-252.021,143.736 L-239.621,156.134 L-227.225,143.736 L-239.621,131.335 Z M-171.063,131.737 L-183.057,143.737 L-171.063,155.737 L-159.065,143.737 L-171.063,131.737 Z M1463.40954,143.7375 L1474.40808,132.744381 L1485.39338,143.7375 L1474.40808,154.724 L1463.40954,143.7375 Z M1474.408,134.158 L1464.824,143.737 L1474.407,153.31 L1483.979,143.736 L1474.408,134.158 Z M-40.6951042,143.737755 L-33.9383701,136.973366 L-27.1885521,143.737755 L-33.9383703,150.488311 L-40.6951042,143.737755 Z M1400.09151,143.737828 L1405.83857,137.983082 L1411.59268,143.737828 L1405.83857,149.478451 L1400.09151,143.737828 Z M-33.938,138.389 L-39.281,143.736 L-33.939,149.074 L-28.602,143.737 L-33.938,138.389 Z M1405.839,139.397 L1401.505,143.737 L1405.838,148.065 L1410.178,143.737 L1405.839,139.397 Z M1335.96821,143.737393 L1337.28209,142.423375 L1338.59596,143.737393 L1337.28209,145.051411 L1335.96821,143.737393 Z M-286.705414,75.16701 L-273.899286,62.3594825 L-261.099712,75.16701 L-273.899286,87.9745376 L-286.705414,75.16701 Z M-273.899,63.774 L-285.291,75.166 L-273.899,86.559 L-262.513,75.167 L-273.899,63.774 Z M-147.164682,75.1671231 L-136.77979,64.774451 L-126.394897,75.1671231 L-136.77979,85.5531502 L-147.164682,75.1671231 Z M-136.78,66.189 L-145.751,75.166 L-136.78,84.138 L-127.808,75.166 L-136.78,66.189 Z M-210.687479,75.16701 L-205.342679,69.8216259 L-199.997879,75.16701 L-205.342679,80.5123941 L-210.687479,75.16701 Z M-205.342,71.236 L-209.273,75.167 L-205.342,79.097 L-201.412,75.167 L-205.342,71.236 Z M-71.945253,75.1673717 L-68.2169001,71.4309704 L-64.4885472,75.1673717 L-68.2169001,78.8961321 L-71.945253,75.1673717 Z M1436.99568,75.1674624 L1440.11623,72.0385672 L1443.25278,75.1674636 L1440.11623,78.2883565 L1436.99568,75.1674624 Z M-68.216,72.847 L-70.531,75.166 L-68.216,77.481 L-65.902,75.167 L-68.216,72.847 Z M1440.118,73.452 L1438.408,75.166 L1440.117,76.875 L1441.836,75.166 L1440.118,73.452 Z M1370.04842,75.16701 L1371.56043,73.6548298 L1373.07245,75.16701 L1371.56043,76.6791902 L1370.04842,75.16701 Z M-317.763976,6.59662679 L-308.184041,-2.98435533 L-298.59742,6.59662679 L-308.184041,16.1776089 L-317.763976,6.59662679 Z M-308.183,-1.57 L-316.35,6.597 L-308.184,14.763 L-300.012,6.596 L-308.183,-1.57 Z M-242.954297,6.59662679 L-239.620611,3.27043937 L-236.294787,6.59662679 L-239.620611,9.92281421 L-242.954297,6.59662679 Z M-173.380614,6.59594887 L-171.065008,4.28008992 L-168.740497,6.59594757 L-171.06501,8.92071366 L-173.380614,6.59594887 Z M-104.416834,6.59572145 L-102.494346,4.68283245 L-100.581663,6.59572377 L-102.494343,8.51842245 L-104.416834,6.59572145 Z M-239.621,4.684 L-241.538,6.596 L-239.621,8.509 L-237.708,6.596 L-239.621,4.684 Z M-171.063,5.693 L-171.967,6.597 L-171.063,7.505 L-170.155,6.597 L-171.063,5.693 Z M-102.496,6.095 L-103,6.597 L-102.496,7.102 L-101.994,6.597 L-102.496,6.095 Z M-138.497226,-61.9748459 L-136.77979,-63.681933 L-135.062353,-61.9748459 L-136.77979,-60.2572213 L-138.497226,-61.9748459 Z M1440.11531,-63.2895923 L1441.43101,-61.9737564 L1440.11531,-60.6579206 L1438.81305,-61.9737564 L1440.11531,-63.2895923 Z M-136.779,-62.272 L-137.081,-61.972 L-136.78,-61.671 L-136.478,-61.973 L-136.779,-62.272 Z M1466.23956,-130.537947 L1474.40801,-138.707292 L1482.56969,-130.537947 L1474.40801,-122.368602 L1466.23956,-130.537947 Z M1474.407,-137.292 L1467.653,-130.537 L1474.407,-123.783 L1481.156,-130.537 L1474.407,-137.292 Z M-310.656667,-133.007793 C-309.339677,-134.324928 -307.233722,-134.37272 -305.859483,-133.150615 L-305.709878,-133.0096 L-305.56987,-132.860927 C-304.447679,-131.598543 -304.390996,-129.71723 -305.430071,-128.386005 L-305.565665,-128.222552 L-305.711685,-128.067588 L-308.184175,-125.602047 L-313.126502,-130.537688 L-310.656667,-133.007793 Z M-306.416506,-132.302016 C-307.350214,-133.234462 -308.837714,-133.274475 -309.818954,-132.422441 L-309.949522,-132.300725 L-311.711,-130.538 L-308.183,-127.014 L-306.429059,-128.764088 L-306.305229,-128.895441 C-305.480432,-129.832078 -305.482498,-131.232987 -306.291743,-132.168036 L-306.416506,-132.302016 Z M1268.71784,-132.057677 L1270.23876,-130.53659 L1268.71784,-129.027119 L1267.20853,-130.536595 L1268.71784,-132.057677 Z M1336.17523,-130.535259 L1337.28209,-131.659263 L1338.38894,-130.535259 L1337.28209,-129.428284 L1336.17523,-130.535259 Z" id="Combined-Shape" fill="url(#linearGradient-4)" fill-rule="nonzero" opacity="0.295503162" mask="url(#mask-2)"></path>
            <polygon id="Path-2" fill="url(#linearGradient-5)" mask="url(#mask-2)" transform="translate(968.917820, 461.408417) scale(1, -1) translate(-968.917820, -461.408417) " points="497.711409 172.816833 1440.12423 750 1440.12423 172.816833"></polygon>
        </g>
        <g id="Group-34" transform="translate(6.000000, 622.500000)" opacity="0.104585193">
            <g id="Group-21-Copy" transform="translate(47.000000, 127.500000) rotate(90.000000) translate(-47.000000, -127.500000) translate(-80.000000, 81.000000)"></g>
        </g>
        <g id="Group-34-Copy" transform="translate(208.000000, 622.500000)" opacity="0.104585193">
            <g id="Group-21-Copy" transform="translate(47.000000, 127.500000) rotate(90.000000) translate(-47.000000, -127.500000) translate(-80.000000, 81.000000)"></g>
        </g>
        <g id="Group-34-Copy-2" transform="translate(411.142624, 622.500000)" opacity="0.104585193">
            <g id="Group-21-Copy" transform="translate(47.000000, 127.500000) rotate(90.000000) translate(-47.000000, -127.500000) translate(-80.000000, 81.000000)"></g>
        </g>
        <g id="Group-33" transform="translate(122.142624, 657.000000)"></g>
        <g id="Group-33-Copy" transform="translate(139.500000, 657.000000)"></g>
        <g id="Group-33-Copy-2" transform="translate(156.857376, 657.000000)"></g>
    </g>
</svg>