<?xml version="1.0" encoding="UTF-8"?>
<svg width="11px" height="14px" viewBox="0 0 11 14" version="1.1" xmlns="http://www.w3.org/2000/svg" xmlns:xlink="http://www.w3.org/1999/xlink">
    <title>9B290FA3-65BD-4609-880E-10934DCB9D3E</title>
    <g id="Web" stroke="none" stroke-width="1" fill="none" fill-rule="evenodd" opacity="0.500926298">
        <g id="New---Affiliate" transform="translate(-1244.000000, -92.000000)" fill="#FFFFFF" fill-rule="nonzero">
            <g id="Group-16" transform="translate(0.000000, 66.000000)">
                <g id="Group-8-Copy-3" transform="translate(1118.000000, 12.500000)">
                    <g id="Group-17" transform="translate(126.593972, 13.590531)">
                        <path d="M10.1859444,5.45742642 C10.3981293,4.03713216 9.31671191,3.27356524 7.83782131,2.764236 L8.31811921,0.840376083 L7.14661927,0.548568426 L6.67870238,2.42183696 C6.37109826,2.34520277 6.05495551,2.27241095 5.74073395,2.2011134 L6.21035856,0.315463846 L5.04003268,0.0236561891 L4.56112231,1.94676898 L2.19891051,1.3616594 L1.88725054,2.61267533 C1.88725054,2.61267533 2.75626954,2.81183886 2.73791149,2.82421987 C3.21223235,2.94269335 3.29825904,3.25648798 3.28374337,3.50538902 L1.96943485,8.77585796 C1.91137217,8.91994733 1.76429428,9.13597466 1.432782,9.05336342 C1.44452261,9.07044068 0.581480656,8.83989768 0.581480656,8.83989768 L6.4659389e-13,10.1824904 L2.35879635,10.7780598 L1.87401567,12.7243336 L3.04380788,13.0161413 L3.52410578,11.0907871 C3.84430438,11.1774542 4.15382969,11.2575038 4.4571645,11.3328572 L3.97878779,13.2492459 L5.15007427,13.5410535 L5.63485495,11.5985153 C7.63214708,11.9763497 9.13409197,11.8239352 9.76541688,10.0188689 C10.2747461,8.56463362 9.74044138,7.72571329 8.68954958,7.17838715 C9.45482423,7.0012106 10.0311817,6.49807186 10.1849838,5.45817355 M7.50908408,9.21004726 C7.14619233,10.6642826 4.69827404,9.87840847 3.90396805,9.68095267 L4.54714031,7.10282028 C5.34101937,7.30091648 7.88670496,7.6932665 7.50951101,9.2098338 M7.87240276,5.43682697 C7.54217127,6.76031452 5.50389372,6.08789746 4.84236341,5.92288845 L5.42469793,3.58394441 C6.0864417,3.74916689 8.21586912,4.05677101 7.87154889,5.43672024" id="Shape"></path>
                    </g>
                </g>
            </g>
        </g>
    </g>
</svg>