<?xml version="1.0" encoding="UTF-8"?>
<svg width="22px" height="19px" viewBox="0 0 22 19" version="1.1" xmlns="http://www.w3.org/2000/svg" xmlns:xlink="http://www.w3.org/1999/xlink">
    <title>197E5E1F-823A-4B50-A596-F470F1E588E9</title>
    <g id="Web" stroke="none" stroke-width="1" fill="none" fill-rule="evenodd">
        <g id="New-pages---my-profile" transform="translate(-100.000000, -88.000000)" fill="#FFFFFF" fill-rule="nonzero">
            <g id="Group-16" transform="translate(0.000000, 66.000000)">
                <g id="briefcase" transform="translate(100.000000, 22.000000)">
                    <path d="M13.5616741,12.8096897 C13.5616741,13.0195804 13.4848683,13.2013951 13.3316384,13.3545402 C13.1782388,13.5081094 12.9965089,13.5847455 12.7866183,13.5847455 L8.91193304,13.5847455 C8.70191518,13.5847455 8.52035491,13.5081094 8.36695536,13.3545402 C8.21359821,13.2014375 8.13691964,13.0196228 8.13691964,12.8096897 L8.13691964,10.8724107 L0,10.8724107 L0,16.6845446 C0,17.2172232 0.189618304,17.6732232 0.569066964,18.0525871 C0.948430804,18.4319933 1.40460045,18.6216964 1.93740625,18.6216964 L19.7611875,18.6216964 C20.2938661,18.6216964 20.7499933,18.4319933 21.1293996,18.0525871 C21.508933,17.6732232 21.6984665,17.2172232 21.6984665,16.6845446 L21.6984665,10.8724107 L13.5616741,10.8724107 L13.5616741,12.8096897 L13.5616741,12.8096897 Z" id="Path"></path>
                    <rect id="Rectangle" x="9.29922768" y="10.8724107" width="3.10005357" height="1.54989955"></rect>
                    <path d="M21.1293571,3.69202232 C20.7499933,3.31257366 20.2938237,3.12295536 19.7611451,3.12295536 L15.4988259,3.12295536 L15.4988259,1.1855067 C15.4988259,0.862591518 15.3858862,0.588194196 15.1597946,0.362145089 C14.9339576,0.136223214 14.6593482,0.02315625 14.3365603,0.02315625 L7.36203348,0.02315625 C7.03920313,0.02315625 6.76476339,0.136223214 6.53867188,0.362145089 C6.31258036,0.588066964 6.19964063,0.862549107 6.19964063,1.1855067 L6.19964063,3.12295536 L1.93740625,3.12295536 C1.40464286,3.12295536 0.948473214,3.31257366 0.569066964,3.69202232 C0.189618304,4.07142857 0,4.52734375 0,5.06014955 L0,9.70989062 L21.6984241,9.70989062 L21.6984241,5.06014955 C21.6984241,4.52734375 21.508933,4.07142857 21.1293571,3.69202232 Z M13.9490536,3.12295536 L7.74949777,3.12295536 L7.74949777,1.57297098 L13.9490536,1.57297098 L13.9490536,3.12295536 Z" id="Shape"></path>
                </g>
            </g>
        </g>
    </g>
</svg>