<?xml version="1.0" encoding="UTF-8"?>
<svg width="19px" height="18px" viewBox="0 0 19 18" version="1.1" xmlns="http://www.w3.org/2000/svg" xmlns:xlink="http://www.w3.org/1999/xlink">
    <title>F403D7A0-8080-4E26-A001-4D0987A78860</title>
    <g id="Web" stroke="none" stroke-width="1" fill="none" fill-rule="evenodd">
        <g id="New-pages---quick-buy-step-1" transform="translate(-948.000000, -323.000000)" fill-rule="nonzero">
            <g id="Group-11" transform="translate(919.000000, 118.000000)">
                <g id="Group-2-Copy-4" transform="translate(21.000000, 172.103193)">
                    <g id="Group-9" transform="translate(0.000000, 23.000000)">
                        <g id="Group-13" transform="translate(6.000000, 7.500000)">
                            <g id="BTC_Logo" transform="translate(2.916940, 2.916940)">
                                <path d="M16.9086277,10.6601602 C15.7629609,15.257762 11.1049344,18.0560112 6.5059593,16.9086277 C1.90698422,15.7612443 -0.889977467,11.1055352 0.257491793,6.50750425 C1.40496105,1.90947331 6.06067016,-0.890063298 10.6586153,0.257491793 C15.2565604,1.40504688 18.056097,6.06101349 16.9086277,10.6601602 L16.9086277,10.6601602 Z" id="Path" fill="#F7931A"></path>
                                <path d="M12.3681891,7.36023124 C12.5388204,6.21808348 11.6691847,5.60405138 10.479916,5.19446777 L10.8661537,3.64737125 L9.92407703,3.41271039 L9.54779569,4.91912321 C9.3004319,4.85749684 9.04620167,4.79896038 8.79351639,4.74162554 L9.17117102,3.22525637 L8.23003852,2.99059551 L7.84491663,4.53709122 L5.94531384,4.06656789 L5.69468849,5.07258832 C5.69468849,5.07258832 6.39352122,5.23274822 6.37875836,5.24270457 C6.76018953,5.33797653 6.829369,5.59031849 6.81769603,5.79047544 L5.76077805,10.0287904 C5.71408621,10.1446617 5.59581165,10.3183828 5.32922181,10.2519499 C5.33866318,10.2656828 4.64463696,10.0802887 4.64463696,10.0802887 L4.17703187,11.1599518 L6.07388807,11.6388865 L5.6840455,13.2040075 L6.62474885,13.4386683 L7.01098654,11.8903702 C7.26847833,11.9600646 7.51738707,12.0244376 7.76131763,12.085034 L7.37662489,13.6261224 L8.31852987,13.8607832 L8.70837244,12.2986663 C10.3145204,12.6025067 11.5223286,12.4799406 12.0300166,11.0283735 C12.4396002,9.8589316 12.0099322,9.1843031 11.1648441,8.7441638 C11.7802495,8.60168501 12.2437348,8.19707957 12.3674166,7.36083206 M10.2155577,10.3779492 C9.9237337,11.5473911 7.95520895,10.9154204 7.31645764,10.7566338 L7.83367282,8.68339574 C8.4720808,8.84269733 10.5192264,9.1582106 10.2159011,10.3777776 M10.5077251,7.34366594 C10.2421652,8.40796535 8.6030583,7.86723258 8.07108025,7.73453848 L8.53937199,5.85364676 C9.0715217,5.98651253 10.783928,6.23387631 10.5070384,7.34358011" id="Shape" fill="#FFFFFF"></path>
                            </g>
                        </g>
                    </g>
                </g>
            </g>
        </g>
    </g>
</svg>