<?xml version="1.0" encoding="UTF-8"?>
<svg width="14px" height="12px" viewBox="0 0 14 12" version="1.1" xmlns="http://www.w3.org/2000/svg" xmlns:xlink="http://www.w3.org/1999/xlink">
    <title>1B2F020B-65CC-4FDE-93F4-870C51D894A3</title>
    <g id="Web" stroke="none" stroke-width="1" fill="none" fill-rule="evenodd" opacity="0.500926298">
        <g id="New---Affiliate" transform="translate(-1262.000000, -93.000000)" fill="#FFFFFF" fill-rule="nonzero">
            <g id="Group-16" transform="translate(0.000000, 66.000000)">
                <g id="Group-8-Copy-3" transform="translate(1118.000000, 12.500000)">
                    <g id="Group-17" transform="translate(126.593972, 13.590531)">
                        <path d="M26.6534292,8.24966281 L30.5358589,12.0925168 L28.6823119,12.0925168 L25.7266557,9.16766958 C24.83819,8.29201388 23.4112402,8.29201388 22.5227745,9.16766958 L19.5661164,12.0925168 L17.7113169,12.0925168 L21.5937466,8.24966281 C22.9906699,6.86726735 25.255504,6.86726735 26.6534292,8.24966281 Z M19.5899119,1.4721929 L22.5205202,4.37349507 C23.4089859,5.24915076 24.8359357,5.24915076 25.7244014,4.37349507 L28.6572639,1.4721929 L30.510811,1.4721929 L26.6534292,5.29150184 C25.256506,6.6738973 22.9916718,6.6738973 21.5937466,5.29150184 L17.7348619,1.4721929 L19.5899119,1.4721929 Z" id="Combined-Shape"></path>
                    </g>
                </g>
            </g>
        </g>
    </g>
</svg>