<?xml version="1.0" encoding="UTF-8"?>
<svg width="24px" height="24px" viewBox="0 0 24 24" version="1.1" xmlns="http://www.w3.org/2000/svg" xmlns:xlink="http://www.w3.org/1999/xlink">
    <title>B2759934-809F-4D02-9CD2-BB029D017ED1</title>
    <g id="Web" stroke="none" stroke-width="1" fill="none" fill-rule="evenodd">
        <g id="New-pages---my-profile" transform="translate(-1231.000000, -117.000000)" fill="#FFFFFF">
            <g id="Group-14" transform="translate(1069.000000, 49.709794)">
                <g id="Group-17" transform="translate(85.500000, 56.459794)">
                    <g id="Group-16" transform="translate(76.626449, 11.000000)">
                        <path d="M11.6596506,0 C18.0990978,0 23.3193012,5.22020339 23.3193012,11.6596506 C23.3193012,18.0990978 18.0990978,23.3193012 11.6596506,23.3193012 C5.22020339,23.3193012 0,18.0990978 0,11.6596506 C0,5.22020339 5.22020339,0 11.6596506,0 Z M16.7559478,10.3066716 L16.846906,10.2053591 C17.2410582,9.71540371 17.2107388,8.9968799 16.7559478,8.54208892 L16.7559478,8.54208892 L12.4658661,4.25200724 L12.3645536,4.16104905 C11.8745983,3.76689687 11.1560745,3.79721626 10.7012835,4.25200724 L10.7012835,4.25200724 L6.4112018,8.54208892 L6.32024361,8.64340145 C5.92609143,9.1333568 5.95641082,9.85188061 6.4112018,10.3066716 L6.4112018,10.3066716 L7.528,11.423 L6.4112018,12.5407083 L6.32024361,12.6420209 C5.92609143,13.1319762 5.95641082,13.8505 6.4112018,14.305291 L6.4112018,14.305291 L10.7012835,18.5953727 L10.802596,18.6863309 C11.2925514,19.0804831 12.0110752,19.0501637 12.4658661,18.5953727 L12.4658661,18.5953727 L16.7559478,14.305291 L16.846906,14.2039785 C17.2410582,13.7140231 17.2107388,12.9954993 16.7559478,12.5407083 L16.7559478,12.5407083 L15.6387448,11.4235502 L16.7559478,10.3066716 Z M12.4658661,8.25062667 L12.3645536,8.15966848 C11.8745983,7.7655163 11.1560745,7.79583569 10.7012835,8.25062667 L10.7012835,8.25062667 L8.61874477,10.3321696 L9.15574477,10.8691696 L11.2383304,8.78767357 L11.3149233,8.72510892 C11.5044381,8.5999796 11.7619802,8.62083449 11.9288192,8.78767357 L11.9288192,8.78767357 L16.2189009,13.0777552 L16.2814656,13.1543482 C16.4065949,13.343863 16.38574,13.601405 16.2189009,13.7682441 L16.2189009,13.7682441 L11.9288192,18.0583258 L11.8522263,18.1208905 C11.6627115,18.2460198 11.4051695,18.2251649 11.2383304,18.0583258 L11.2383304,18.0583258 L6.9482487,13.7682441 L6.88568405,13.6916512 C6.76055474,13.5021364 6.78140962,13.2445943 6.9482487,13.0777552 L6.9482487,13.0777552 L8.065,11.96 L10.7012835,14.5967533 L10.802596,14.6877115 C11.2925514,15.0818636 12.0110752,15.0515442 12.4658661,14.5967533 L12.4658661,14.5967533 L14.5497448,12.5125502 L14.0127448,11.9755502 L11.9288192,14.0597064 L11.8522263,14.122271 C11.6627115,14.2474003 11.4051695,14.2265454 11.2383304,14.0597064 L11.2383304,14.0597064 L6.9482487,9.76962469 L6.88568405,9.69303175 C6.76055474,9.50351693 6.78140962,9.2459749 6.9482487,9.07913582 L6.9482487,9.07913582 L11.2383304,4.78905414 L11.3149233,4.72648949 C11.5044381,4.60136018 11.7619802,4.62221506 11.9288192,4.78905414 L11.9288192,4.78905414 L16.2189009,9.07913582 L16.2814656,9.15572876 C16.4065949,9.34524357 16.38574,9.60278561 16.2189009,9.76962469 L16.2189009,9.76962469 L15.1017448,10.8865502 L12.4658661,8.25062667 Z" id="Combined-Shape"></path>
                    </g>
                </g>
            </g>
        </g>
    </g>
</svg>