<?xml version="1.0" encoding="UTF-8"?>
<svg width="737px" height="514px" viewBox="0 0 737 514" version="1.1" xmlns="http://www.w3.org/2000/svg" xmlns:xlink="http://www.w3.org/1999/xlink">
    <title>custodial</title>
    <defs>
        <linearGradient x1="50%" y1="0%" x2="50%" y2="100%" id="linearGradient-1">
            <stop stop-color="#FFFFFF" stop-opacity="0" offset="0%"></stop>
            <stop stop-color="#FFFFFF" offset="100%"></stop>
        </linearGradient>
        <linearGradient x1="71.9040705%" y1="50%" x2="1.98637962%" y2="49.8980304%" id="linearGradient-2">
            <stop stop-color="#FFFFFF" stop-opacity="0" offset="0%"></stop>
            <stop stop-color="#FFFFFF" offset="100%"></stop>
        </linearGradient>
        <linearGradient x1="71.9040705%" y1="50%" x2="1.98637962%" y2="49.8974384%" id="linearGradient-3">
            <stop stop-color="#FFFFFF" stop-opacity="0" offset="0%"></stop>
            <stop stop-color="#FFFFFF" offset="100%"></stop>
        </linearGradient>
        <linearGradient x1="9.30449273%" y1="61.0002075%" x2="100%" y2="0%" id="linearGradient-4">
            <stop stop-color="#FFFFFF" stop-opacity="0" offset="0%"></stop>
            <stop stop-color="#FFFFFF" offset="100%"></stop>
        </linearGradient>
        <linearGradient x1="18.67651%" y1="-2.62964905%" x2="75.7670384%" y2="105.525929%" id="linearGradient-5">
            <stop stop-color="#15234F" offset="0%"></stop>
            <stop stop-color="#15234F" offset="27.9402836%"></stop>
            <stop stop-color="#0D1633" offset="100%"></stop>
            <stop stop-color="#0D1633" offset="100%"></stop>
        </linearGradient>
        <linearGradient x1="50%" y1="0%" x2="50%" y2="100%" id="linearGradient-6">
            <stop stop-color="#15B694" offset="0%"></stop>
            <stop stop-color="#4769FF" offset="100%"></stop>
        </linearGradient>
        <path d="M232.990774,51.9771463 C232.548427,48.8001947 230.262611,46.1869131 227.172625,45.3279873 L128.138486,17.786533 C126.726627,17.3935745 125.235317,17.3935745 123.822384,17.786533 L24.7882443,45.3279873 C21.6982589,46.1869131 19.4124428,48.799121 18.970096,51.9771463 C18.3956894,56.1075055 5.29170338,153.69865 38.9025418,202.247281 C72.4736549,250.737934 121.99824,263.164442 124.089724,263.670135 C124.711372,263.820447 125.34483,263.894529 125.980435,263.894529 C126.61604,263.894529 127.249498,263.819373 127.871145,263.670135 C129.963703,263.164442 179.488288,250.737934 213.058328,202.247281 C246.669166,153.699723 233.56518,56.1085792 232.990774,51.9771463 Z" id="path-7"></path>
        <filter x="-0.2%" y="-0.2%" width="100.5%" height="100.4%" filterUnits="objectBoundingBox" id="filter-8">
            <feOffset dx="0" dy="1" in="SourceAlpha" result="shadowOffsetInner1"></feOffset>
            <feComposite in="shadowOffsetInner1" in2="SourceAlpha" operator="arithmetic" k2="-1" k3="1" result="shadowInnerInner1"></feComposite>
            <feColorMatrix values="0 0 0 0 0   0 0 0 0 0   0 0 0 0 0  0 0 0 0.5 0" type="matrix" in="shadowInnerInner1"></feColorMatrix>
        </filter>
        <linearGradient x1="50%" y1="0%" x2="50%" y2="100%" id="linearGradient-9">
            <stop stop-color="#15B694" offset="0%"></stop>
            <stop stop-color="#4769FF" offset="100%"></stop>
        </linearGradient>
        <filter x="-13.8%" y="-12.3%" width="127.6%" height="124.6%" filterUnits="objectBoundingBox" id="filter-10">
            <feGaussianBlur stdDeviation="9" in="SourceGraphic"></feGaussianBlur>
        </filter>
        <filter x="-7.7%" y="-6.8%" width="115.3%" height="113.7%" filterUnits="objectBoundingBox" id="filter-11">
            <feGaussianBlur stdDeviation="5" in="SourceGraphic"></feGaussianBlur>
        </filter>
        <filter x="-3.1%" y="-2.7%" width="106.1%" height="105.5%" filterUnits="objectBoundingBox" id="filter-12">
            <feGaussianBlur stdDeviation="2" in="SourceGraphic"></feGaussianBlur>
        </filter>
        <path d="M192.132281,85.8505378 C191.85883,83.8866041 190.44578,82.2711209 188.535607,81.7401486 L127.314503,64.7145223 C126.441717,64.4716025 125.519816,64.4716025 124.646367,64.7145223 L63.4252625,81.7401486 C61.5150897,82.2711209 60.1020397,83.8859404 59.828589,85.8505378 C59.4735013,88.4038508 51.3728554,148.732922 72.1504646,178.744803 C92.9035163,208.720843 123.518715,216.402685 124.811632,216.715295 C125.195923,216.808215 125.587515,216.854011 125.980435,216.854011 C126.373354,216.854011 126.764946,216.807551 127.149238,216.715295 C128.442819,216.402685 159.058017,208.720843 179.810405,178.744803 C200.588014,148.733585 192.487368,88.4045145 192.132281,85.8505378 Z" id="path-13"></path>
        <filter x="-0.4%" y="-0.3%" width="100.7%" height="101.3%" filterUnits="objectBoundingBox" id="filter-14">
            <feOffset dx="0" dy="1" in="SourceAlpha" result="shadowOffsetOuter1"></feOffset>
            <feColorMatrix values="0 0 0 0 0.278431373   0 0 0 0 0.413646647   0 0 0 0 1  0 0 0 0.314057037 0" type="matrix" in="shadowOffsetOuter1"></feColorMatrix>
        </filter>
        <filter x="-0.4%" y="-0.3%" width="100.7%" height="101.3%" filterUnits="objectBoundingBox" id="filter-15">
            <feOffset dx="0" dy="1" in="SourceAlpha" result="shadowOffsetInner1"></feOffset>
            <feComposite in="shadowOffsetInner1" in2="SourceAlpha" operator="arithmetic" k2="-1" k3="1" result="shadowInnerInner1"></feComposite>
            <feColorMatrix values="0 0 0 0 0.0834752207   0 0 0 0 0.712437726   0 0 0 0 0.581827669  0 0 0 0 0" type="matrix" in="shadowInnerInner1"></feColorMatrix>
        </filter>
        <path d="M188.240996,89.0765751 C187.98363,87.2281669 186.653701,85.7077121 184.855891,85.2079735 L127.236028,69.1838547 C126.414583,68.9552242 125.546912,68.9552242 124.724841,69.1838547 L67.1049785,85.2079735 C65.3071688,85.7077121 63.9772394,87.2275422 63.719874,89.0765751 C63.3856738,91.4796932 55.7615365,148.259995 75.3169334,176.506471 C94.8492174,204.719215 123.663522,211.949184 124.880385,212.243405 C125.242071,212.330859 125.610628,212.373962 125.980435,212.373962 C126.350241,212.373962 126.718799,212.330235 127.080484,212.243405 C128.297973,211.949184 157.112277,204.719215 176.643936,176.506471 C196.199333,148.26062 188.575196,91.4803179 188.240996,89.0765751 Z" id="path-16"></path>
        <filter x="-0.4%" y="-0.3%" width="100.8%" height="101.4%" filterUnits="objectBoundingBox" id="filter-17">
            <feOffset dx="0" dy="1" in="SourceAlpha" result="shadowOffsetOuter1"></feOffset>
            <feColorMatrix values="0 0 0 0 0.0834752207   0 0 0 0 0.712437726   0 0 0 0 0.581827669  0 0 0 0.181189904 0" type="matrix" in="shadowOffsetOuter1"></feColorMatrix>
        </filter>
        <filter x="-0.4%" y="-0.3%" width="100.8%" height="101.4%" filterUnits="objectBoundingBox" id="filter-18">
            <feOffset dx="0" dy="1" in="SourceAlpha" result="shadowOffsetInner1"></feOffset>
            <feComposite in="shadowOffsetInner1" in2="SourceAlpha" operator="arithmetic" k2="-1" k3="1" result="shadowInnerInner1"></feComposite>
            <feColorMatrix values="0 0 0 0 0   0 0 0 0 0   0 0 0 0 0  0 0 0 0 0" type="matrix" in="shadowInnerInner1"></feColorMatrix>
        </filter>
        <linearGradient x1="50%" y1="0%" x2="50%" y2="100%" id="linearGradient-19">
            <stop stop-color="#15B694" offset="0%"></stop>
            <stop stop-color="#4769FF" offset="100%"></stop>
        </linearGradient>
        <path d="M33.4355273,25.8227273 L8.775,25.8227273 L8.775,17.6090909 C8.775,10.7202727 12.8480182,5.90909091 18.6235636,5.90909091 C24.0322727,5.90909091 28.4522727,10.3094727 28.4522727,15.7181818 C28.4522727,17.3498 29.7848909,18.6727273 31.4167455,18.6727273 C33.0486,18.6727273 34.3762545,17.3498 34.3762545,15.7181818 C34.3762545,7.0512 27.3274182,-3.19744231e-14 18.6604364,-3.19744231e-14 C14.3215091,-3.19744231e-14 10.3009636,1.75594545 7.40881818,4.94425455 C4.4616,8.1926 2.86590909,12.5721818 2.86590909,17.6090909 L2.86590909,26.0699636 C1.21136364,26.6547273 0.0295454545,28.2256 0.0295454545,30.0772727 L0.0295454545,47.5681818 C0.0295454545,49.9178727 2.01310909,51.8227273 4.3628,51.8227273 L33.4355273,51.8227273 C35.7852182,51.8227273 37.6113636,49.9178727 37.6113636,47.5681818 L37.6113636,30.0772727 C37.6113636,27.7275818 35.7852182,25.8227273 33.4355273,25.8227273 Z M19.2537091,44.2727273 C16.6026028,44.2727273 14.4537091,42.1234735 14.4537091,39.4727273 C14.4537091,36.821621 16.6029628,34.6727273 19.2537091,34.6727273 C21.9048154,34.6727273 24.0537091,36.821981 24.0537091,39.4727273 C24.0540691,42.1238336 21.9048154,44.2727273 19.2537091,44.2727273 Z" id="path-20"></path>
        <filter x="-9.3%" y="-6.8%" width="118.6%" height="113.5%" filterUnits="objectBoundingBox" id="filter-21">
            <feGaussianBlur stdDeviation="3.5" in="SourceAlpha" result="shadowBlurInner1"></feGaussianBlur>
            <feOffset dx="0" dy="0" in="shadowBlurInner1" result="shadowOffsetInner1"></feOffset>
            <feComposite in="shadowOffsetInner1" in2="SourceAlpha" operator="arithmetic" k2="-1" k3="1" result="shadowInnerInner1"></feComposite>
            <feColorMatrix values="0 0 0 0 1   0 0 0 0 1   0 0 0 0 1  0 0 0 0.18244646 0" type="matrix" in="shadowInnerInner1"></feColorMatrix>
        </filter>
        <filter x="-71.8%" y="-52.1%" width="243.7%" height="204.2%" filterUnits="objectBoundingBox" id="filter-22">
            <feGaussianBlur stdDeviation="9" in="SourceGraphic"></feGaussianBlur>
        </filter>
        <filter x="-31.9%" y="-23.2%" width="163.9%" height="146.3%" filterUnits="objectBoundingBox" id="filter-23">
            <feGaussianBlur stdDeviation="4" in="SourceGraphic"></feGaussianBlur>
        </filter>
        <filter x="-167.6%" y="-121.6%" width="435.3%" height="343.1%" filterUnits="objectBoundingBox" id="filter-24">
            <feGaussianBlur stdDeviation="21" in="SourceGraphic"></feGaussianBlur>
        </filter>
        <linearGradient x1="0%" y1="50%" x2="100%" y2="49.9271504%" id="linearGradient-25">
            <stop stop-color="#15B694" offset="0%"></stop>
            <stop stop-color="#4769FF" stop-opacity="0" offset="100%"></stop>
        </linearGradient>
        <linearGradient x1="0%" y1="50%" x2="100%" y2="35.2558278%" id="linearGradient-26">
            <stop stop-color="#4769FF" stop-opacity="0" offset="0%"></stop>
            <stop stop-color="#15B694" offset="100%"></stop>
        </linearGradient>
    </defs>
    <g id="Web" stroke="none" stroke-width="1" fill="none" fill-rule="evenodd">
        <g id="proswap-landing-v1" transform="translate(-578.000000, -2747.000000)">
            <g id="Group-14" transform="translate(0.000000, 2706.000000)">
                <g id="custodial" transform="translate(578.000000, 41.189959)">
                    <g id="Group-28">
                        <g id="Group-23" opacity="0.155203683" fill-rule="nonzero">
                            <polygon id="Line-2" fill="url(#linearGradient-1)" points="340 0 340 133 339 133 339 0"></polygon>
                            <polygon id="Line-2-Copy" fill="url(#linearGradient-1)" points="384.5 0 384.5 133 383.5 133 383.5 0"></polygon>
                            <polygon id="Line-2-Copy-3" fill="url(#linearGradient-1)" transform="translate(339.500000, 446.500000) scale(1, -1) translate(-339.500000, -446.500000) " points="340 380 340 513 339 513 339 380"></polygon>
                            <polygon id="Line-2-Copy-2" fill="url(#linearGradient-1)" transform="translate(384.000000, 446.500000) scale(1, -1) translate(-384.000000, -446.500000) " points="384.5 380 384.5 513 383.5 513 383.5 380"></polygon>
                            <g id="Group-21" transform="translate(482.500000, 211.500000)">
                                <polygon id="Path-4" fill="url(#linearGradient-2)" points="73.0481448 -0.5 152.232652 -0.5 177.488 24.755 253.610033 24.7552516 253.610033 25.7552516 177.07369 25.7552516 151.818 0.5 73.461 0.5 48.2071068 25.7552516 0.5 25.7552516 0.5 24.7552516 47.792 24.755"></polygon>
                                <polygon id="Path-5" fill="url(#linearGradient-3)" points="77.7664797 20.2757623 147.039063 20.2757623 172.37 45.607 253.610033 45.6071151 253.610033 46.6071151 171.956203 46.6071151 146.624 21.275 78.181 21.275 52.8493403 46.6071151 0.5 46.6071151 0.5 45.6071151 52.434 45.607"></polygon>
                                <polygon id="Path-4-Copy" fill="url(#linearGradient-2)" transform="translate(126.055016, 79.627626) scale(1, -1) translate(-126.055016, -79.627626) " points="151.232652 66.5 176.488 91.755 252.610033 91.7552516 252.610033 92.7552516 176.07369 92.7552516 150.817 67.499 72.462 67.499 47.2071068 92.7552516 -0.5 92.7552516 -0.5 91.7552516 46.792 91.755 72.0481448 66.5"></polygon>
                                <polygon id="Path-5-Copy" fill="url(#linearGradient-3)" transform="translate(127.055016, 58.813813) scale(1, -1) translate(-127.055016, -58.813813) " points="147.039063 45.6481365 172.37 70.979 253.610033 70.9794893 253.610033 71.9794893 171.956203 71.9794893 146.625 46.648 78.18 46.648 52.8493403 71.9794893 0.5 71.9794893 0.5 70.9794893 52.434 70.979 77.7664797 45.6481365"></polygon>
                            </g>
                            <g id="Group-21-Copy" transform="translate(127.000000, 258.000000) scale(-1, 1) translate(-127.000000, -258.000000) translate(0.000000, 211.500000)">
                                <polygon id="Path-4" fill="url(#linearGradient-2)" points="73.0481448 -0.5 152.232652 -0.5 177.488 24.755 253.610033 24.7552516 253.610033 25.7552516 177.07369 25.7552516 151.818 0.5 73.461 0.5 48.2071068 25.7552516 0.5 25.7552516 0.5 24.7552516 47.792 24.755"></polygon>
                                <polygon id="Path-5" fill="url(#linearGradient-3)" points="77.7664797 20.2757623 147.039063 20.2757623 172.37 45.607 253.610033 45.6071151 253.610033 46.6071151 171.956203 46.6071151 146.624 21.275 78.181 21.275 52.8493403 46.6071151 0.5 46.6071151 0.5 45.6071151 52.434 45.607"></polygon>
                                <polygon id="Path-4-Copy" fill="url(#linearGradient-2)" transform="translate(126.055016, 79.627626) scale(1, -1) translate(-126.055016, -79.627626) " points="151.232652 66.5 176.488 91.755 252.610033 91.7552516 252.610033 92.7552516 176.07369 92.7552516 150.817 67.499 72.462 67.499 47.2071068 92.7552516 -0.5 92.7552516 -0.5 91.7552516 46.792 91.755 72.0481448 66.5"></polygon>
                                <polygon id="Path-5-Copy" fill="url(#linearGradient-3)" transform="translate(127.055016, 58.813813) scale(1, -1) translate(-127.055016, -58.813813) " points="147.039063 45.6481365 172.37 70.979 253.610033 70.9794893 253.610033 71.9794893 171.956203 71.9794893 146.625 46.648 78.18 46.648 52.8493403 71.9794893 0.5 71.9794893 0.5 70.9794893 52.434 70.979 77.7664797 45.6481365"></polygon>
                            </g>
                            <g id="Group-22" transform="translate(151.032708, 335.000000)" fill="url(#linearGradient-4)">
                                <polygon id="Path-7" points="143.613738 10.6464466 144.320845 11.3535534 1.35355339 154.320845 0.646446609 153.613738"></polygon>
                                <polygon id="Path-7-Copy-2" points="142.613738 -0.353553391 143.320845 0.353553391 0.353553391 143.320845 -0.353553391 142.613738"></polygon>
                                <polygon id="Path-7-Copy-3" points="167.613738 -0.353553391 168.320845 0.353553391 25.3535534 143.320845 24.6464466 142.613738"></polygon>
                            </g>
                            <g id="Group-22-Copy" transform="translate(520.000000, 99.000000) scale(-1, -1) translate(-520.000000, -99.000000) translate(436.000000, 22.000000)" fill="url(#linearGradient-4)">
                                <polygon id="Path-7" points="143.613738 10.6464466 144.320845 11.3535534 1.35355339 154.320845 0.646446609 153.613738"></polygon>
                                <polygon id="Path-7-Copy-2" points="142.613738 -0.353553391 143.320845 0.353553391 0.353553391 143.320845 -0.353553391 142.613738"></polygon>
                                <polygon id="Path-7-Copy-3" points="167.613738 -0.353553391 168.320845 0.353553391 25.3535534 143.320845 24.6464466 142.613738"></polygon>
                            </g>
                        </g>
                        <g id="Group-27" transform="translate(154.000000, 76.500000)">
                            <g id="shield-(1)" transform="translate(85.000000, 38.500000)" fill-rule="nonzero">
                                <path d="M248.183296,39.381913 C247.678148,35.7539217 245.067809,32.7696261 241.53913,31.7887565 L128.44487,0.337173913 C126.832565,-0.111573913 125.12953,-0.111573913 123.516,0.337173913 L10.4217391,31.7887565 C6.89306087,32.7696261 4.28272174,35.7526957 3.77757391,39.381913 C3.12161739,44.0986696 -11.8427739,155.54507 26.5398783,210.98627 C64.8771652,266.361261 121.432878,280.551991 123.821296,281.129478 C124.5312,281.30113 125.254591,281.38573 125.980435,281.38573 C126.706278,281.38573 127.42967,281.299904 128.139574,281.129478 C130.529217,280.551991 187.08493,266.361261 225.420991,210.98627 C263.803643,155.546296 248.839252,44.0998957 248.183296,39.381913 Z" id="Shape" fill="url(#linearGradient-5)"></path>
                                <path d="M248.016043,39.5205726 C247.511586,35.8975467 244.90482,32.9173355 241.380971,31.9378084 L128.441497,0.529271975 C126.831399,0.0811383271 125.130695,0.0811383271 123.519373,0.529271975 L10.5798984,31.9378084 C7.05604966,32.9173355 4.44928316,35.8963223 3.94482671,39.5205726 C3.28976796,44.2308735 -11.6541423,155.524743 26.6759775,210.890063 C64.9607941,266.189265 121.439102,280.360574 123.824251,280.93727 C124.533183,281.108688 125.255585,281.193172 125.980435,281.193172 C126.705285,281.193172 127.427686,281.107463 128.136619,280.93727 C130.522992,280.360574 187.0013,266.189265 225.284892,210.890063 C263.615012,155.525967 248.671102,44.2320979 248.016043,39.5205726 Z" id="Shape" stroke="url(#linearGradient-6)" opacity="0.249325707"></path>
                                <g id="Shape-Copy">
                                    <use fill="#0D1633" xlink:href="#path-7"></use>
                                    <use fill="black" fill-opacity="1" filter="url(#filter-8)" xlink:href="#path-7"></use>
                                </g>
                                <path d="M221.316918,61.6552582 C220.922828,58.8248831 218.886373,56.4966867 216.133477,55.731462 L127.903062,31.1945299 C126.645224,30.8444396 125.316602,30.8444396 124.057808,31.1945299 L35.8273924,55.731462 C33.0744963,56.4966867 31.0380419,58.8239265 30.6439512,61.6552582 C30.1322071,65.3350327 18.4577468,152.27987 48.4019483,195.532287 C78.3107582,238.733051 122.432661,249.80394 124.295984,250.254466 C124.849815,250.388381 125.414168,250.454381 125.980435,250.454381 C126.546701,250.454381 127.111054,250.387424 127.664886,250.254466 C129.529165,249.80394 173.651068,238.733051 203.558921,195.532287 C233.503123,152.280827 221.828662,65.3359893 221.316918,61.6552582 Z" id="Shape-Copy-2" fill="#192754"></path>
                                <path d="M124.057808,31.1945299 C125.211703,30.8736138 126.424272,30.8468708 127.587209,31.1143009 L127.903062,31.1945299 L216.133477,55.731462 C218.800345,56.4727735 220.79485,58.6808971 221.275189,61.3914141 L221.335567,61.7905324 L221.518189,63.1896193 L221.627037,64.0723022 L221.820749,65.7234061 L221.966488,67.0333079 L222.122549,68.5034328 L222.2864,70.1276869 L222.455507,71.8999762 C222.569434,73.1294933 222.685176,74.4536379 222.799354,75.8642846 L222.969027,78.0441158 C225.064726,106.077572 226.017072,163.093692 203.558921,195.532287 C182.324345,226.204829 153.924467,240.680702 138.571119,246.658396 L137.305162,247.143495 C136.89383,247.298566 136.493302,247.447066 136.10403,247.589168 L134.970432,247.996445 C134.604124,248.12592 134.249523,248.249168 133.907081,248.366361 L132.916686,248.699947 L132.001959,248.998236 L131.165609,249.26226 L130.410348,249.493052 L129.435427,249.779188 L128.44464,250.054026 L127.664886,250.254466 C127.111054,250.387424 126.546701,250.454381 125.980435,250.454381 C125.414168,250.454381 124.849815,250.388381 124.295984,250.254466 L123.873158,250.148049 L123.302855,249.996359 L122.525701,249.779188 L121.550846,249.493052 L120.795626,249.26226 L119.959316,248.998236 L119.044625,248.699947 L118.054265,248.366361 C117.883049,248.307765 117.708794,248.247655 117.531555,248.186009 L116.432773,247.797541 C115.865933,247.593924 115.273258,247.376102 114.656273,247.143495 L113.390341,246.658396 C98.0372787,240.680702 69.6372033,226.204829 48.4019483,195.532287 C25.9437972,163.092974 26.8961433,106.076675 28.9918429,78.0435777 L29.1615157,75.8637764 L29.3335334,73.8137307 C29.3622576,73.483208 29.390974,73.1583456 29.4196298,72.8392706 L29.5904143,70.9952845 L29.7572099,69.2962889 L29.917483,67.7483779 L30.0687002,66.3576452 L30.2083278,65.1301849 L30.3338325,64.072091 L30.5323388,62.4883781 L30.6439512,61.6552582 C31.0257266,58.9124057 32.9488218,56.6426315 35.5714356,55.8077457 L35.8273924,55.731462 L124.057808,31.1945299 Z M127.366792,33.1212926 C126.550442,32.8940803 125.692897,32.8713591 124.86751,33.0532111 L124.593673,33.1214053 L36.3630254,57.6584018 C34.3778564,58.2102209 32.9091137,59.8887283 32.6248869,61.9307457 L32.4145936,63.5383268 L32.3058144,64.4242186 L32.0784322,66.3818267 L31.9270331,67.7647017 L31.7441954,69.5241437 L31.5657612,71.3463285 L31.3924479,73.2294971 C31.3071911,74.1860342 31.2241237,75.1647804 31.1436493,76.1647463 L30.9862774,78.1926778 C30.1318802,89.6215112 29.7685452,101.62374 30.1012116,113.698954 C30.1571837,115.730646 30.2319149,117.74212 30.3257322,119.732505 L30.4259235,121.715827 C30.4614494,122.374569 30.499108,123.030936 30.5389116,123.684895 L30.664769,125.639514 C32.6054089,154.200364 38.722016,178.036641 50.0463222,194.393852 C62.9820899,213.078482 79.4888307,227.117678 97.8274405,237.170955 C104.3378,240.739952 110.650061,243.559131 116.543212,245.710436 C118.422962,246.396642 120.154859,246.975501 121.719253,247.454196 L122.592023,247.716078 L123.392947,247.946652 L124.068509,248.132043 L124.613953,248.273142 C124.667153,248.286392 124.717855,248.298839 124.766031,248.310487 C125.162379,248.406322 125.568804,248.454381 125.980435,248.454381 C126.389302,248.454381 126.796954,248.406004 127.195085,248.310427 L127.6956,248.184055 L128.32841,248.013525 L129.088406,247.79804 L129.663205,247.629015 C131.375713,247.118554 133.303403,246.482426 135.41821,245.710431 C141.311404,243.559162 147.62375,240.739972 154.134146,237.170955 C172.472639,227.117743 188.979156,213.078536 201.914553,194.393844 C208.60619,184.728432 213.479433,172.451489 216.747162,158.131339 L217.117095,156.469979 C219.233615,146.726195 220.626493,136.066675 221.360643,124.664715 L221.480057,122.702853 L221.586637,120.726639 C221.703523,118.41276 221.794357,116.069975 221.859658,113.699671 C222.192324,101.624462 221.82899,89.6222075 220.974592,78.1932139 L220.817221,76.1652648 L220.652935,74.1938972 C220.625018,73.8701486 220.596842,73.5488307 220.568423,73.2299802 L220.39511,71.3467777 L220.216676,69.5245472 L220.033837,67.7650451 L219.882438,66.3821264 L219.767266,65.3727319 L219.600208,63.9736009 L219.45608,62.829569 L219.336028,61.9310699 C219.062264,59.9648894 217.689788,58.3349826 215.816008,57.7242452 L215.597612,57.6583373 L127.366792,33.1212926 Z" id="Shape-Copy-2" fill="url(#linearGradient-9)"></path>
                                <path d="M124.057808,31.1945299 C125.211703,30.8736138 126.424272,30.8468708 127.587209,31.1143009 L127.903062,31.1945299 L216.133477,55.731462 C218.800345,56.4727735 220.79485,58.6808971 221.275189,61.3914141 L221.335567,61.7905324 L221.518189,63.1896193 L221.627037,64.0723022 L221.820749,65.7234061 L221.966488,67.0333079 L222.122549,68.5034328 L222.2864,70.1276869 L222.455507,71.8999762 C222.569434,73.1294933 222.685176,74.4536379 222.799354,75.8642846 L222.969027,78.0441158 C225.064726,106.077572 226.017072,163.093692 203.558921,195.532287 C182.324345,226.204829 153.924467,240.680702 138.571119,246.658396 L137.305162,247.143495 C136.89383,247.298566 136.493302,247.447066 136.10403,247.589168 L134.970432,247.996445 C134.604124,248.12592 134.249523,248.249168 133.907081,248.366361 L132.916686,248.699947 L132.001959,248.998236 L131.165609,249.26226 L130.410348,249.493052 L129.435427,249.779188 L128.44464,250.054026 L127.664886,250.254466 C127.111054,250.387424 126.546701,250.454381 125.980435,250.454381 C125.414168,250.454381 124.849815,250.388381 124.295984,250.254466 L123.873158,250.148049 L123.302855,249.996359 L122.525701,249.779188 L121.550846,249.493052 L120.795626,249.26226 L119.959316,248.998236 L119.044625,248.699947 L118.054265,248.366361 C117.883049,248.307765 117.708794,248.247655 117.531555,248.186009 L116.432773,247.797541 C115.865933,247.593924 115.273258,247.376102 114.656273,247.143495 L113.390341,246.658396 C98.0372787,240.680702 69.6372033,226.204829 48.4019483,195.532287 C25.9437972,163.092974 26.8961433,106.076675 28.9918429,78.0435777 L29.1615157,75.8637764 L29.3335334,73.8137307 C29.3622576,73.483208 29.390974,73.1583456 29.4196298,72.8392706 L29.5904143,70.9952845 L29.7572099,69.2962889 L29.917483,67.7483779 L30.0687002,66.3576452 L30.2083278,65.1301849 L30.3338325,64.072091 L30.5323388,62.4883781 L30.6439512,61.6552582 C31.0257266,58.9124057 32.9488218,56.6426315 35.5714356,55.8077457 L35.8273924,55.731462 L124.057808,31.1945299 Z M127.366792,33.1212926 C126.550442,32.8940803 125.692897,32.8713591 124.86751,33.0532111 L124.593673,33.1214053 L36.3630254,57.6584018 C34.3778564,58.2102209 32.9091137,59.8887283 32.6248869,61.9307457 L32.4145936,63.5383268 L32.3058144,64.4242186 L32.0784322,66.3818267 L31.9270331,67.7647017 L31.7441954,69.5241437 L31.5657612,71.3463285 L31.3924479,73.2294971 C31.3071911,74.1860342 31.2241237,75.1647804 31.1436493,76.1647463 L30.9862774,78.1926778 C30.1318802,89.6215112 29.7685452,101.62374 30.1012116,113.698954 C30.1571837,115.730646 30.2319149,117.74212 30.3257322,119.732505 L30.4259235,121.715827 C30.4614494,122.374569 30.499108,123.030936 30.5389116,123.684895 L30.664769,125.639514 C32.6054089,154.200364 38.722016,178.036641 50.0463222,194.393852 C62.9820899,213.078482 79.4888307,227.117678 97.8274405,237.170955 C104.3378,240.739952 110.650061,243.559131 116.543212,245.710436 C118.422962,246.396642 120.154859,246.975501 121.719253,247.454196 L122.592023,247.716078 L123.392947,247.946652 L124.068509,248.132043 L124.613953,248.273142 C124.667153,248.286392 124.717855,248.298839 124.766031,248.310487 C125.162379,248.406322 125.568804,248.454381 125.980435,248.454381 C126.389302,248.454381 126.796954,248.406004 127.195085,248.310427 L127.6956,248.184055 L128.32841,248.013525 L129.088406,247.79804 L129.663205,247.629015 C131.375713,247.118554 133.303403,246.482426 135.41821,245.710431 C141.311404,243.559162 147.62375,240.739972 154.134146,237.170955 C172.472639,227.117743 188.979156,213.078536 201.914553,194.393844 C208.60619,184.728432 213.479433,172.451489 216.747162,158.131339 L217.117095,156.469979 C219.233615,146.726195 220.626493,136.066675 221.360643,124.664715 L221.480057,122.702853 L221.586637,120.726639 C221.703523,118.41276 221.794357,116.069975 221.859658,113.699671 C222.192324,101.624462 221.82899,89.6222075 220.974592,78.1932139 L220.817221,76.1652648 L220.652935,74.1938972 C220.625018,73.8701486 220.596842,73.5488307 220.568423,73.2299802 L220.39511,71.3467777 L220.216676,69.5245472 L220.033837,67.7650451 L219.882438,66.3821264 L219.767266,65.3727319 L219.600208,63.9736009 L219.45608,62.829569 L219.336028,61.9310699 C219.062264,59.9648894 217.689788,58.3349826 215.816008,57.7242452 L215.597612,57.6583373 L127.366792,33.1212926 Z" id="Shape-Copy-2" fill="url(#linearGradient-9)" filter="url(#filter-10)"></path>
                                <path d="M124.057808,31.1945299 C125.211703,30.8736138 126.424272,30.8468708 127.587209,31.1143009 L127.903062,31.1945299 L216.133477,55.731462 C218.800345,56.4727735 220.79485,58.6808971 221.275189,61.3914141 L221.335567,61.7905324 L221.518189,63.1896193 L221.627037,64.0723022 L221.820749,65.7234061 L221.966488,67.0333079 L222.122549,68.5034328 L222.2864,70.1276869 L222.455507,71.8999762 C222.569434,73.1294933 222.685176,74.4536379 222.799354,75.8642846 L222.969027,78.0441158 C225.064726,106.077572 226.017072,163.093692 203.558921,195.532287 C182.324345,226.204829 153.924467,240.680702 138.571119,246.658396 L137.305162,247.143495 C136.89383,247.298566 136.493302,247.447066 136.10403,247.589168 L134.970432,247.996445 C134.604124,248.12592 134.249523,248.249168 133.907081,248.366361 L132.916686,248.699947 L132.001959,248.998236 L131.165609,249.26226 L130.410348,249.493052 L129.435427,249.779188 L128.44464,250.054026 L127.664886,250.254466 C127.111054,250.387424 126.546701,250.454381 125.980435,250.454381 C125.414168,250.454381 124.849815,250.388381 124.295984,250.254466 L123.873158,250.148049 L123.302855,249.996359 L122.525701,249.779188 L121.550846,249.493052 L120.795626,249.26226 L119.959316,248.998236 L119.044625,248.699947 L118.054265,248.366361 C117.883049,248.307765 117.708794,248.247655 117.531555,248.186009 L116.432773,247.797541 C115.865933,247.593924 115.273258,247.376102 114.656273,247.143495 L113.390341,246.658396 C98.0372787,240.680702 69.6372033,226.204829 48.4019483,195.532287 C25.9437972,163.092974 26.8961433,106.076675 28.9918429,78.0435777 L29.1615157,75.8637764 L29.3335334,73.8137307 C29.3622576,73.483208 29.390974,73.1583456 29.4196298,72.8392706 L29.5904143,70.9952845 L29.7572099,69.2962889 L29.917483,67.7483779 L30.0687002,66.3576452 L30.2083278,65.1301849 L30.3338325,64.072091 L30.5323388,62.4883781 L30.6439512,61.6552582 C31.0257266,58.9124057 32.9488218,56.6426315 35.5714356,55.8077457 L35.8273924,55.731462 L124.057808,31.1945299 Z M127.366792,33.1212926 C126.550442,32.8940803 125.692897,32.8713591 124.86751,33.0532111 L124.593673,33.1214053 L36.3630254,57.6584018 C34.3778564,58.2102209 32.9091137,59.8887283 32.6248869,61.9307457 L32.4145936,63.5383268 L32.3058144,64.4242186 L32.0784322,66.3818267 L31.9270331,67.7647017 L31.7441954,69.5241437 L31.5657612,71.3463285 L31.3924479,73.2294971 C31.3071911,74.1860342 31.2241237,75.1647804 31.1436493,76.1647463 L30.9862774,78.1926778 C30.1318802,89.6215112 29.7685452,101.62374 30.1012116,113.698954 C30.1571837,115.730646 30.2319149,117.74212 30.3257322,119.732505 L30.4259235,121.715827 C30.4614494,122.374569 30.499108,123.030936 30.5389116,123.684895 L30.664769,125.639514 C32.6054089,154.200364 38.722016,178.036641 50.0463222,194.393852 C62.9820899,213.078482 79.4888307,227.117678 97.8274405,237.170955 C104.3378,240.739952 110.650061,243.559131 116.543212,245.710436 C118.422962,246.396642 120.154859,246.975501 121.719253,247.454196 L122.592023,247.716078 L123.392947,247.946652 L124.068509,248.132043 L124.613953,248.273142 C124.667153,248.286392 124.717855,248.298839 124.766031,248.310487 C125.162379,248.406322 125.568804,248.454381 125.980435,248.454381 C126.389302,248.454381 126.796954,248.406004 127.195085,248.310427 L127.6956,248.184055 L128.32841,248.013525 L129.088406,247.79804 L129.663205,247.629015 C131.375713,247.118554 133.303403,246.482426 135.41821,245.710431 C141.311404,243.559162 147.62375,240.739972 154.134146,237.170955 C172.472639,227.117743 188.979156,213.078536 201.914553,194.393844 C208.60619,184.728432 213.479433,172.451489 216.747162,158.131339 L217.117095,156.469979 C219.233615,146.726195 220.626493,136.066675 221.360643,124.664715 L221.480057,122.702853 L221.586637,120.726639 C221.703523,118.41276 221.794357,116.069975 221.859658,113.699671 C222.192324,101.624462 221.82899,89.6222075 220.974592,78.1932139 L220.817221,76.1652648 L220.652935,74.1938972 C220.625018,73.8701486 220.596842,73.5488307 220.568423,73.2299802 L220.39511,71.3467777 L220.216676,69.5245472 L220.033837,67.7650451 L219.882438,66.3821264 L219.767266,65.3727319 L219.600208,63.9736009 L219.45608,62.829569 L219.336028,61.9310699 C219.062264,59.9648894 217.689788,58.3349826 215.816008,57.7242452 L215.597612,57.6583373 L127.366792,33.1212926 Z" id="Shape-Copy-2" fill="url(#linearGradient-9)" filter="url(#filter-11)"></path>
                                <path d="M124.057808,31.1945299 C125.211703,30.8736138 126.424272,30.8468708 127.587209,31.1143009 L127.903062,31.1945299 L216.133477,55.731462 C218.800345,56.4727735 220.79485,58.6808971 221.275189,61.3914141 L221.335567,61.7905324 L221.518189,63.1896193 L221.627037,64.0723022 L221.820749,65.7234061 L221.966488,67.0333079 L222.122549,68.5034328 L222.2864,70.1276869 L222.455507,71.8999762 C222.569434,73.1294933 222.685176,74.4536379 222.799354,75.8642846 L222.969027,78.0441158 C225.064726,106.077572 226.017072,163.093692 203.558921,195.532287 C182.324345,226.204829 153.924467,240.680702 138.571119,246.658396 L137.305162,247.143495 C136.89383,247.298566 136.493302,247.447066 136.10403,247.589168 L134.970432,247.996445 C134.604124,248.12592 134.249523,248.249168 133.907081,248.366361 L132.916686,248.699947 L132.001959,248.998236 L131.165609,249.26226 L130.410348,249.493052 L129.435427,249.779188 L128.44464,250.054026 L127.664886,250.254466 C127.111054,250.387424 126.546701,250.454381 125.980435,250.454381 C125.414168,250.454381 124.849815,250.388381 124.295984,250.254466 L123.873158,250.148049 L123.302855,249.996359 L122.525701,249.779188 L121.550846,249.493052 L120.795626,249.26226 L119.959316,248.998236 L119.044625,248.699947 L118.054265,248.366361 C117.883049,248.307765 117.708794,248.247655 117.531555,248.186009 L116.432773,247.797541 C115.865933,247.593924 115.273258,247.376102 114.656273,247.143495 L113.390341,246.658396 C98.0372787,240.680702 69.6372033,226.204829 48.4019483,195.532287 C25.9437972,163.092974 26.8961433,106.076675 28.9918429,78.0435777 L29.1615157,75.8637764 L29.3335334,73.8137307 C29.3622576,73.483208 29.390974,73.1583456 29.4196298,72.8392706 L29.5904143,70.9952845 L29.7572099,69.2962889 L29.917483,67.7483779 L30.0687002,66.3576452 L30.2083278,65.1301849 L30.3338325,64.072091 L30.5323388,62.4883781 L30.6439512,61.6552582 C31.0257266,58.9124057 32.9488218,56.6426315 35.5714356,55.8077457 L35.8273924,55.731462 L124.057808,31.1945299 Z M127.366792,33.1212926 C126.550442,32.8940803 125.692897,32.8713591 124.86751,33.0532111 L124.593673,33.1214053 L36.3630254,57.6584018 C34.3778564,58.2102209 32.9091137,59.8887283 32.6248869,61.9307457 L32.4145936,63.5383268 L32.3058144,64.4242186 L32.0784322,66.3818267 L31.9270331,67.7647017 L31.7441954,69.5241437 L31.5657612,71.3463285 L31.3924479,73.2294971 C31.3071911,74.1860342 31.2241237,75.1647804 31.1436493,76.1647463 L30.9862774,78.1926778 C30.1318802,89.6215112 29.7685452,101.62374 30.1012116,113.698954 C30.1571837,115.730646 30.2319149,117.74212 30.3257322,119.732505 L30.4259235,121.715827 C30.4614494,122.374569 30.499108,123.030936 30.5389116,123.684895 L30.664769,125.639514 C32.6054089,154.200364 38.722016,178.036641 50.0463222,194.393852 C62.9820899,213.078482 79.4888307,227.117678 97.8274405,237.170955 C104.3378,240.739952 110.650061,243.559131 116.543212,245.710436 C118.422962,246.396642 120.154859,246.975501 121.719253,247.454196 L122.592023,247.716078 L123.392947,247.946652 L124.068509,248.132043 L124.613953,248.273142 C124.667153,248.286392 124.717855,248.298839 124.766031,248.310487 C125.162379,248.406322 125.568804,248.454381 125.980435,248.454381 C126.389302,248.454381 126.796954,248.406004 127.195085,248.310427 L127.6956,248.184055 L128.32841,248.013525 L129.088406,247.79804 L129.663205,247.629015 C131.375713,247.118554 133.303403,246.482426 135.41821,245.710431 C141.311404,243.559162 147.62375,240.739972 154.134146,237.170955 C172.472639,227.117743 188.979156,213.078536 201.914553,194.393844 C208.60619,184.728432 213.479433,172.451489 216.747162,158.131339 L217.117095,156.469979 C219.233615,146.726195 220.626493,136.066675 221.360643,124.664715 L221.480057,122.702853 L221.586637,120.726639 C221.703523,118.41276 221.794357,116.069975 221.859658,113.699671 C222.192324,101.624462 221.82899,89.6222075 220.974592,78.1932139 L220.817221,76.1652648 L220.652935,74.1938972 C220.625018,73.8701486 220.596842,73.5488307 220.568423,73.2299802 L220.39511,71.3467777 L220.216676,69.5245472 L220.033837,67.7650451 L219.882438,66.3821264 L219.767266,65.3727319 L219.600208,63.9736009 L219.45608,62.829569 L219.336028,61.9310699 C219.062264,59.9648894 217.689788,58.3349826 215.816008,57.7242452 L215.597612,57.6583373 L127.366792,33.1212926 Z" id="Shape-Copy-2" fill="#FFFFFF" opacity="0.204915365" filter="url(#filter-12)"></path>
                                <g id="Shape-Copy-3">
                                    <use fill="black" fill-opacity="1" filter="url(#filter-14)" xlink:href="#path-13"></use>
                                    <use fill="#0D1633" xlink:href="#path-13"></use>
                                    <use fill="black" fill-opacity="1" filter="url(#filter-15)" xlink:href="#path-13"></use>
                                </g>
                                <g id="Shape-Copy-4">
                                    <use fill="black" fill-opacity="1" filter="url(#filter-17)" xlink:href="#path-16"></use>
                                    <use fill="#101B3C" xlink:href="#path-16"></use>
                                    <use fill="black" fill-opacity="1" filter="url(#filter-18)" xlink:href="#path-16"></use>
                                </g>
                                <g id="privacy" transform="translate(106.980435, 114.693172)">
                                    <path d="M33.4355273,25.8227273 L8.775,25.8227273 L8.775,17.6090909 C8.775,10.7202727 12.8480182,5.90909091 18.6235636,5.90909091 C24.0322727,5.90909091 28.4522727,10.3094727 28.4522727,15.7181818 C28.4522727,17.3498 29.7848909,18.6727273 31.4167455,18.6727273 C33.0486,18.6727273 34.3762545,17.3498 34.3762545,15.7181818 C34.3762545,7.0512 27.3274182,0 18.6604364,0 C14.3215091,0 10.3009636,1.75594545 7.40881818,4.94425455 C4.4616,8.1926 2.86590909,12.5721818 2.86590909,17.6090909 L2.86590909,26.0699636 C1.21136364,26.6547273 0.0295454545,28.2256 0.0295454545,30.0772727 L0.0295454545,47.5681818 C0.0295454545,49.9178727 2.01310909,51.8227273 4.3628,51.8227273 L33.4355273,51.8227273 C35.7852182,51.8227273 37.6113636,49.9178727 37.6113636,47.5681818 L37.6113636,30.0772727 C37.6113636,27.7275818 35.7852182,25.8227273 33.4355273,25.8227273 Z M19.2537091,44.2727273 C16.6026028,44.2727273 14.4537091,42.1234735 14.4537091,39.4727273 C14.4537091,36.821621 16.6029628,34.6727273 19.2537091,34.6727273 C21.9048154,34.6727273 24.0537091,36.821981 24.0537091,39.4727273 C24.0540691,42.1238336 21.9048154,44.2727273 19.2537091,44.2727273 Z" id="Shape" fill="url(#linearGradient-19)"></path>
                                    <g id="Shape">
                                        <use fill="url(#linearGradient-19)" xlink:href="#path-20"></use>
                                        <use fill="black" fill-opacity="1" filter="url(#filter-21)" xlink:href="#path-20"></use>
                                    </g>
                                    <path d="M33.4355273,25.8227273 L8.775,25.8227273 L8.775,17.6090909 C8.775,10.7202727 12.8480182,5.90909091 18.6235636,5.90909091 C24.0322727,5.90909091 28.4522727,10.3094727 28.4522727,15.7181818 C28.4522727,17.3498 29.7848909,18.6727273 31.4167455,18.6727273 C33.0486,18.6727273 34.3762545,17.3498 34.3762545,15.7181818 C34.3762545,7.0512 27.3274182,-3.19744231e-14 18.6604364,-3.19744231e-14 C14.3215091,-3.19744231e-14 10.3009636,1.75594545 7.40881818,4.94425455 C4.4616,8.1926 2.86590909,12.5721818 2.86590909,17.6090909 L2.86590909,26.0699636 C1.21136364,26.6547273 0.0295454545,28.2256 0.0295454545,30.0772727 L0.0295454545,47.5681818 C0.0295454545,49.9178727 2.01310909,51.8227273 4.3628,51.8227273 L33.4355273,51.8227273 C35.7852182,51.8227273 37.6113636,49.9178727 37.6113636,47.5681818 L37.6113636,30.0772727 C37.6113636,27.7275818 35.7852182,25.8227273 33.4355273,25.8227273 Z M19.2537091,44.2727273 C16.6026028,44.2727273 14.4537091,42.1234735 14.4537091,39.4727273 C14.4537091,36.821621 16.6029628,34.6727273 19.2537091,34.6727273 C21.9048154,34.6727273 24.0537091,36.821981 24.0537091,39.4727273 C24.0540691,42.1238336 21.9048154,44.2727273 19.2537091,44.2727273 Z" id="Shape" fill="url(#linearGradient-19)" opacity="0.469959077" filter="url(#filter-22)"></path>
                                    <path d="M33.4355273,25.8227273 L8.775,25.8227273 L8.775,17.6090909 C8.775,10.7202727 12.8480182,5.90909091 18.6235636,5.90909091 C24.0322727,5.90909091 28.4522727,10.3094727 28.4522727,15.7181818 C28.4522727,17.3498 29.7848909,18.6727273 31.4167455,18.6727273 C33.0486,18.6727273 34.3762545,17.3498 34.3762545,15.7181818 C34.3762545,7.0512 27.3274182,-3.19744231e-14 18.6604364,-3.19744231e-14 C14.3215091,-3.19744231e-14 10.3009636,1.75594545 7.40881818,4.94425455 C4.4616,8.1926 2.86590909,12.5721818 2.86590909,17.6090909 L2.86590909,26.0699636 C1.21136364,26.6547273 0.0295454545,28.2256 0.0295454545,30.0772727 L0.0295454545,47.5681818 C0.0295454545,49.9178727 2.01310909,51.8227273 4.3628,51.8227273 L33.4355273,51.8227273 C35.7852182,51.8227273 37.6113636,49.9178727 37.6113636,47.5681818 L37.6113636,30.0772727 C37.6113636,27.7275818 35.7852182,25.8227273 33.4355273,25.8227273 Z M19.2537091,44.2727273 C16.6026028,44.2727273 14.4537091,42.1234735 14.4537091,39.4727273 C14.4537091,36.821621 16.6029628,34.6727273 19.2537091,34.6727273 C21.9048154,34.6727273 24.0537091,36.821981 24.0537091,39.4727273 C24.0540691,42.1238336 21.9048154,44.2727273 19.2537091,44.2727273 Z" id="Shape" fill="url(#linearGradient-19)" opacity="0.244698661" filter="url(#filter-23)"></path>
                                    <path d="M33.4355273,25.8227273 L8.775,25.8227273 L8.775,17.6090909 C8.775,10.7202727 12.8480182,5.90909091 18.6235636,5.90909091 C24.0322727,5.90909091 28.4522727,10.3094727 28.4522727,15.7181818 C28.4522727,17.3498 29.7848909,18.6727273 31.4167455,18.6727273 C33.0486,18.6727273 34.3762545,17.3498 34.3762545,15.7181818 C34.3762545,7.0512 27.3274182,-3.19744231e-14 18.6604364,-3.19744231e-14 C14.3215091,-3.19744231e-14 10.3009636,1.75594545 7.40881818,4.94425455 C4.4616,8.1926 2.86590909,12.5721818 2.86590909,17.6090909 L2.86590909,26.0699636 C1.21136364,26.6547273 0.0295454545,28.2256 0.0295454545,30.0772727 L0.0295454545,47.5681818 C0.0295454545,49.9178727 2.01310909,51.8227273 4.3628,51.8227273 L33.4355273,51.8227273 C35.7852182,51.8227273 37.6113636,49.9178727 37.6113636,47.5681818 L37.6113636,30.0772727 C37.6113636,27.7275818 35.7852182,25.8227273 33.4355273,25.8227273 Z M19.2537091,44.2727273 C16.6026028,44.2727273 14.4537091,42.1234735 14.4537091,39.4727273 C14.4537091,36.821621 16.6029628,34.6727273 19.2537091,34.6727273 C21.9048154,34.6727273 24.0537091,36.821981 24.0537091,39.4727273 C24.0540691,42.1238336 21.9048154,44.2727273 19.2537091,44.2727273 Z" id="Shape" fill="url(#linearGradient-19)" opacity="0.175664993" filter="url(#filter-24)"></path>
                                </g>
                            </g>
                            <g id="Group-25" opacity="0.353259859"></g>
                        </g>
                    </g>
                    <g id="Group-24" transform="translate(154.000000, 76.500000)" fill-rule="nonzero">
                        <polygon id="Path-6" fill="url(#linearGradient-25)" points="74.0152781 180.607115 74.0152781 181.607115 47.81708 181.607115 47.81708 180.607115"></polygon>
                        <polygon id="Path-6-Copy" fill="url(#linearGradient-25)" points="26.1981981 226.5 26.1981981 227.5 0 227.5 0 226.5"></polygon>
                        <polygon id="Path-6-Copy-2" fill="url(#linearGradient-25)" transform="translate(416.599099, 227.500000) scale(-1, 1) translate(-416.599099, -227.500000) " points="429.698198 227 429.698198 228 403.5 228 403.5 227"></polygon>
                        <polygon id="Path-6-Copy-3" fill="url(#linearGradient-25)" transform="translate(339.599099, 55.000000) scale(-1, 1) rotate(45.000000) translate(-339.599099, -55.000000) " points="352.698198 54.5 352.698198 55.5 326.5 55.5 326.5 54.5"></polygon>
                        <polygon id="Path-6-Copy-4" fill="url(#linearGradient-25)" transform="translate(78.737538, 319.500000) scale(1, -1) rotate(45.000000) translate(-78.737538, -319.500000) " points="91.8366373 319 91.8366373 320 65.6384392 320 65.6384392 319"></polygon>
                        <polygon id="Path-6-Copy-5" fill="url(#linearGradient-25)" transform="translate(185.599099, 349.000000) scale(1, -1) rotate(90.000000) translate(-185.599099, -349.000000) " points="198.698198 348.5 198.698198 349.5 172.5 349.5 172.5 348.5"></polygon>
                        <polygon id="Path-6-Copy-6" fill="url(#linearGradient-25)" transform="translate(230.000000, 13.500000) rotate(90.000000) translate(-230.000000, -13.500000) " points="243.099099 13 243.099099 14 216.900901 14 216.900901 13"></polygon>
                        <polygon id="Path-8" fill="url(#linearGradient-26)" points="393.454357 168.087885 394.161463 168.794992 381.34934 181.607115 369.265625 181.607115 369.265625 180.607115 380.934 180.607"></polygon>
                    </g>
                </g>
            </g>
        </g>
    </g>
</svg>