<?xml version="1.0" encoding="UTF-8"?>
<svg width="30px" height="39px" viewBox="0 0 30 39" version="1.1" xmlns="http://www.w3.org/2000/svg" xmlns:xlink="http://www.w3.org/1999/xlink">
    <title>6E877A9A-8DBB-463E-B412-702D43E94B88</title>
    <defs>
        <linearGradient x1="79.5899248%" y1="0%" x2="50%" y2="100%" id="linearGradient-1">
            <stop stop-color="#15B694" offset="0%"></stop>
            <stop stop-color="#4769FF" offset="100%"></stop>
        </linearGradient>
    </defs>
    <g id="Web" stroke="none" stroke-width="1" fill="none" fill-rule="evenodd" opacity="0.899999976">
        <g id="New-pages---no-contracts" transform="translate(-705.000000, -408.000000)" fill="url(#linearGradient-1)" fill-rule="nonzero">
            <g id="Group-7" transform="translate(99.000000, 207.709794)">
                <g id="Group-5-Copy" transform="translate(1.000000, 0.000000)">
                    <path d="M633.342501,200.5 C634.205501,200.5 634.909501,201.203 634.909501,202.065 L634.909501,202.065 L634.909501,225.216 C634.909501,225.824 634.642501,226.613 634.277501,227.096 L634.277501,227.096 L625.805501,238.324 C625.707501,238.453 625.608501,238.546 625.511501,238.621 C625.076501,239.002 624.469501,239.262 623.924501,239.262 L623.924501,239.262 L606.656501,239.262 C605.791501,239.262 605.089501,238.559 605.0905,237.698 L605.0905,237.698 L605.0905,202.065 C605.0905,201.203 605.792501,200.5 606.656501,200.5 L606.656501,200.5 Z M633.341501,202.065 L606.656501,202.065 L606.656501,237.696 L623.924501,237.696 L623.924501,226.784 C623.924501,225.921 624.625501,225.219 625.490501,225.219 L625.490501,225.219 L633.341501,225.219 C633.341489,225.219 633.341478,225.215795 633.341466,225.209461 L633.341466,202.074539 L633.341466,202.074539 L633.341501,202.065 Z M632.553501,226.785 L625.491501,226.785 L625.491501,236.144 L631.181501,228.6 L632.553501,226.785 Z M614.970797,212.687119 C615.198527,212.45936 615.567783,212.45936 615.795533,212.68711 L615.795533,212.68711 L619.904,216.796 L624.013373,212.687119 C624.215793,212.484672 624.530037,212.462185 624.757329,212.619626 L624.757329,212.619626 L624.8381,212.6871 C625.065858,212.91483 625.065858,213.284087 624.838109,213.511836 L624.838109,213.511836 L620.729,217.62 L624.8381,221.729676 C625.040552,221.932102 625.063046,222.246353 624.905577,222.473655 L624.905577,222.473655 L624.838091,222.55443 C624.72735,222.665142 624.579219,222.725199 624.425736,222.725199 C624.272242,222.725199 624.124086,222.665135 624.013363,222.554412 L624.013363,222.554412 L619.904,218.445 L615.795534,222.55443 C615.706941,222.643 615.594419,222.69915 615.474371,222.718067 L615.474371,222.718067 L615.383179,222.725199 C615.229685,222.725199 615.08153,222.665135 614.970815,222.554421 C614.743057,222.326692 614.743057,221.957435 614.970806,221.729686 L614.970806,221.729686 L619.08,217.62 L614.970815,213.511845 C614.768369,213.309425 614.745882,212.995181 614.903323,212.767889 L614.903323,212.767889 Z" id="Combined-Shape"></path>
                </g>
            </g>
        </g>
    </g>
</svg>