<?xml version="1.0" encoding="UTF-8"?>
<svg width="31px" height="30px" viewBox="0 0 31 30" version="1.1" xmlns="http://www.w3.org/2000/svg" xmlns:xlink="http://www.w3.org/1999/xlink">
    <title>0719BE30-5838-4438-BBE7-D5F76EEEADB9</title>
    <defs>
        <radialGradient cx="14.6628132%" cy="14.5489587%" fx="14.6628132%" fy="14.5489587%" r="99.8273172%" id="radialGradient-1">
            <stop stop-color="#FFFFFF" stop-opacity="0.1" offset="0%"></stop>
            <stop stop-color="#FFFFFF" stop-opacity="0" offset="100%"></stop>
        </radialGradient>
    </defs>
    <g id="Web" stroke="none" stroke-width="1" fill="none" fill-rule="evenodd">
        <g id="New-pages---2fa" transform="translate(-1002.000000, -132.000000)" fill-rule="nonzero">
            <g id="Group-14" transform="translate(983.000000, 49.500000)">
                <g id="google-authenticator-2" transform="translate(19.500000, 82.500000)">
                    <circle id="Oval" fill="#616161" cx="15" cy="15" r="15"></circle>
                    <path d="M15,24.5451249 C9.727639,24.5451249 5.4548751,20.272361 5.4548751,15 C5.4548751,9.727639 9.727639,5.4548751 15,5.4548751 C17.6349718,5.4548751 20.0209508,6.52336825 21.7493956,8.25060435 L25.6063658,4.39363417 C22.8916197,1.67888799 19.1410153,0 15,0 C6.71555197,0 0,6.71555197 0,15 C0,23.284448 6.71555197,30 15,30 C19.142224,30 22.8916197,28.321112 25.6075745,25.6075745 L21.7506044,21.7506044 C20.0209508,23.4766317 17.6349718,24.5451249 15,24.5451249 Z" id="Path" fill="#9E9E9E"></path>
                    <path d="M24.5451249,15 L19.7719581,15 C19.7719581,12.3650282 17.6349718,10.2268332 14.9987913,10.2268332 C12.3626108,10.2268332 10.2268332,12.3638195 10.2268332,15 C10.2268332,16.2836422 10.7344883,17.4476229 11.5600322,18.3070105 L11.5564061,18.3106366 L17.4657534,24.2199839 L17.4669621,24.2211926 C21.5427075,23.1333602 24.5451249,19.4178082 24.5451249,15 L24.5451249,15 Z" id="Path" fill="#424242"></path>
                    <path d="M29.9987913,15 L24.5439162,15 C24.5439162,19.4178082 21.5402901,23.1333602 17.4669621,24.2211926 L21.6792909,28.4335214 C26.6107977,25.9762288 29.9987913,20.8839645 29.9987913,15 Z" id="Path" fill="#616161"></path>
                    <path d="M15,29.8283642 C6.74456084,29.8283642 0.0483481064,23.1587429 0.00120870266,14.9141821 C0.00120870266,14.943191 0,14.9709911 0,15 C0,23.284448 6.71555197,30 15,30 C23.284448,30 30,23.284448 30,15 C30,14.9709911 29.9987913,14.943191 29.9987913,14.9141821 C29.9516519,23.1587429 23.2542305,29.8283642 15,29.8283642 L15,29.8283642 Z" id="Path" fill-opacity="0.1" fill="#212121"></path>
                    <path d="M17.4681708,24.2211926 L17.6011281,24.3541499 C21.6067687,23.2228042 24.5451249,19.5410959 24.5451249,15.1704271 L24.5451249,15 C24.5451249,19.4178082 21.5414988,23.1333602 17.4681708,24.2211926 L17.4681708,24.2211926 Z" id="Path" fill-opacity="0.05" fill="#FFFFFF"></path>
                    <g id="Group" transform="translate(13.627579, 13.627579)">
                        <path d="M13.6450443,0.00846091861 L1.37187752,0.00846091861 C0.618855761,0.00846091861 0.00846091861,0.618855761 0.00846091861,1.37187752 C0.00846091861,2.12489927 0.618855761,2.73529412 1.37187752,2.73529412 L13.6438356,2.73529412 C14.3968574,2.73529412 15.007254,2.12489927 15.007254,1.37187752 C15.0084609,0.618855761 14.3980661,0.00846091861 13.6450443,0.00846091861 Z" id="Path" fill="#9E9E9E"></path>
                        <path d="M13.6450443,0.00846091861 L1.37187752,0.00846091861 C0.618855761,0.00846091861 0.00846091861,0.618855761 0.00846091861,1.37187752 C0.00846091861,2.12489927 0.618855761,2.73529412 1.37187752,2.73529412 L13.6438356,2.73529412 C14.3968574,2.73529412 15.007254,2.12489927 15.007254,1.37187752 C15.0084609,0.618855761 14.3980661,0.00846091861 13.6450443,0.00846091861 Z" id="Path" fill="#BDBDBD" opacity="0.5"></path>
                    </g>
                    <g id="Group">
                        <g transform="translate(1.704271, 1.704271)" fill="#BDBDBD" id="Oval">
                            <circle cx="1.02256245" cy="13.2957293" r="1.02256245"></circle>
                            <circle cx="13.2957293" cy="1.02256245" r="1.02256245"></circle>
                            <circle cx="13.2957293" cy="25.5676873" r="1.02256245"></circle>
                            <circle cx="4.60273973" cy="4.61724416" r="1.02256245"></circle>
                            <circle cx="4.60273973" cy="21.9887188" r="1.02256245"></circle>
                        </g>
                        <circle id="Oval" fill="#757575" cx="23.6929895" cy="23.6929895" r="1.02256245"></circle>
                        <path d="M15,13.8070105 L27.2719581,13.8070105 C27.995971,13.8070105 28.5882353,14.3726833 28.6305399,15.0858179 C28.6317486,15.056809 28.6353747,15.0290089 28.6353747,15 C28.6353747,14.2469782 28.0249799,13.6365834 27.2719581,13.6365834 L15,13.6365834 C14.2469782,13.6365834 13.6365834,14.2469782 13.6365834,15 C13.6365834,15.0290089 13.6377921,15.056809 13.6414182,15.0858179 C13.6837228,14.3726833 14.2747784,13.8070105 15,13.8070105 Z" id="Path" fill-opacity="0.2" fill="#FFFFFF"></path>
                        <path d="M28.6305399,15.0846092 C28.5858179,15.7965351 27.9947623,16.3634166 27.2719581,16.3634166 L15,16.3634166 C14.2759871,16.3634166 13.6837228,15.7977438 13.6414182,15.0846092 C13.6377921,15.113618 13.6365834,15.1414182 13.6365834,15.1692184 C13.6365834,15.9222401 14.2469782,16.532635 15,16.532635 L27.2719581,16.532635 C28.0249799,16.532635 28.6353747,15.9222401 28.6353747,15.1692184 C28.6353747,15.1414182 28.634166,15.113618 28.6305399,15.0846092 Z" id="Path" fill-opacity="0.2" fill="#212121"></path>
                        <path d="M15,5.62530218 C17.6349718,5.62530218 20.0209508,6.69379533 21.7493956,8.42103143 L25.6897663,4.47824335 C25.6607575,4.44923449 25.6329573,4.42022562 25.6051571,4.39242546 L21.7493956,8.24939565 C20.0209508,6.52215955 17.6349718,5.4536664 15,5.4536664 C9.727639,5.4536664 5.4548751,9.7264303 5.4548751,14.9987913 C5.4548751,15.0278002 5.4560838,15.0556003 5.4560838,15.0846092 C5.5020145,9.85213537 9.75664786,5.62530218 15,5.62530218 L15,5.62530218 Z" id="Path" fill-opacity="0.1" fill="#212121"></path>
                        <circle id="Oval" fill="url(#radialGradient-1)" cx="15" cy="15" r="15"></circle>
                    </g>
                </g>
            </g>
        </g>
    </g>
</svg>