<?xml version="1.0" encoding="UTF-8"?>
<svg width="19px" height="13px" viewBox="0 0 19 13" version="1.1" xmlns="http://www.w3.org/2000/svg" xmlns:xlink="http://www.w3.org/1999/xlink">
    <title>icon-eye-on</title>
    <g id="Web" stroke="none" stroke-width="1" fill="none" fill-rule="evenodd">
        <g id="New-pages---sign-up" transform="translate(-1313.000000, -232.000000)" fill="#5A6476" fill-rule="nonzero">
            <g id="Group-14" transform="translate(1008.000000, 55.000000)">
                <g id="Group-2-Copy-4" transform="translate(18.500000, 156.290206)">
                    <g id="Group-9" transform="translate(0.000000, 20.000000)">
                        <g id="icon-eye-on" transform="translate(287.000000, 0.671228)">
                            <path d="M8.98724681,0.0255446808 C13.0764255,0.0255446808 16.561034,2.56645532 17.9744936,6.15320426 C16.561034,9.73991489 13.0764255,12.2808638 8.98724681,12.2808638 C4.90212766,12.2808638 1.41345957,9.73991489 -3.51718654e-13,6.15320426 C1.41345957,2.56645532 4.90212766,0.0255446808 8.98724681,0.0255446808 Z M8.98724681,2.06808511 C6.73226809,2.06808511 4.90212766,3.89818723 4.90212766,6.15316596 C4.90212766,8.40814468 6.73226809,10.2382851 8.98724681,10.2382851 C11.2422255,10.2382851 13.072366,8.40818298 13.072366,6.15320426 C13.072366,3.89822553 11.2422255,2.06808511 8.98724681,2.06808511 Z M8.98724681,3.70214043 C10.3393915,3.70214043 11.4383106,4.80102128 11.4383106,6.15320426 C11.4383106,7.50538723 10.3394298,8.60426809 8.98724681,8.60426809 C7.63506383,8.60426809 6.53618298,7.50538723 6.53618298,6.15320426 C6.53618298,4.80102128 7.63506383,3.70214043 8.98724681,3.70214043 Z" id="Combined-Shape"></path>
                        </g>
                    </g>
                </g>
            </g>
        </g>
    </g>
</svg>