<?xml version="1.0" encoding="UTF-8"?>
<svg width="25px" height="25px" viewBox="0 0 25 25" version="1.1" xmlns="http://www.w3.org/2000/svg" xmlns:xlink="http://www.w3.org/1999/xlink">
    <title>icon-buy</title>
    <g id="Web" stroke="none" stroke-width="1" fill="none" fill-rule="evenodd">
        <g id="My-positions" transform="translate(-531.000000, -277.000000)" fill="#15B694">
            <g id="Group-7" transform="translate(99.000000, 142.709794)">
                <g id="Group-16-Copy" transform="translate(1.000000, 118.500000)">
                    <g id="icon-buy" transform="translate(431.000000, 15.790206)">
                        <path d="M3.50694478,0.50694478 L21.5095711,0.50694478 C23.1664254,0.50694478 24.5095711,1.85009053 24.5095711,3.50694478 L24.5095711,21.5095711 C24.5095711,23.1664254 23.1664254,24.5095711 21.5095711,24.5095711 L3.50694478,24.5095711 C1.85009053,24.5095711 0.50694478,23.1664254 0.50694478,21.5095711 L0.50694478,3.50694478 C0.50694478,1.85009053 1.85009053,0.50694478 3.50694478,0.50694478 Z" id="Rectangle" opacity="0.281784784" transform="translate(12.508258, 12.508258) rotate(450.000000) translate(-12.508258, -12.508258) "></path>
                        <g id="next-(10)" transform="translate(8.476000, 7.394823)" fill-rule="nonzero">
                            <path d="M8.49327389,4.69330198 L5.16481111,1.36476427 C5.06979781,1.26975097 4.94316336,1.21759856 4.80813658,1.21759856 C4.67295993,1.21759856 4.54640041,1.2698259 4.45138711,1.36476427 L4.14918787,1.66703844 C4.0542495,1.76190188 4.00194722,1.88861126 4.00194722,2.02371298 C4.00194722,2.15873977 4.0542495,2.28972025 4.14918787,2.38458368 L6.09096599,4.33063291 L-0.0781546828,4.33063291 C-0.356300874,4.33063291 -0.57607533,4.54838421 -0.57607533,4.82660534 L-0.57607533,5.25394039 C-0.57607533,5.53216152 -0.356300874,5.77186779 -0.0781546828,5.77186779 L6.11299589,5.77186779 L4.1492628,7.7287821 C4.05432443,7.8237954 4.00202216,7.94705793 4.00202216,8.08215964 C4.00202216,8.2171115 4.05432443,8.34217238 4.1492628,8.43711075 L4.45146204,8.73841082 C4.54647534,8.83342412 4.67303486,8.88520187 4.80821151,8.88520187 C4.9432383,8.88520187 5.06987274,8.83274973 5.16488604,8.73773643 L8.49334882,5.40927365 C8.58858692,5.31396063 8.64096412,5.18672673 8.64059146,5.05147514 C8.64088919,4.91577397 8.58858692,4.78846514 8.49327389,4.69330198 Z" id="Path" transform="translate(4.032258, 5.051400) rotate(90.000000) translate(-4.032258, -5.051400) "></path>
                        </g>
                    </g>
                </g>
            </g>
        </g>
    </g>
</svg>