<?xml version="1.0" encoding="UTF-8"?>
<svg width="19px" height="15px" viewBox="0 0 19 15" version="1.1" xmlns="http://www.w3.org/2000/svg" xmlns:xlink="http://www.w3.org/1999/xlink">
    <title>42C71725-82C3-4530-98B9-A3B738C351D4</title>
    <g id="Web" stroke="none" stroke-width="1" fill="none" fill-rule="evenodd">
        <g id="New-pages---email-not-verified" transform="translate(-250.000000, -25.000000)" fill="#DF6262" fill-rule="nonzero">
            <g id="Group-7" transform="translate(236.000000, 16.000000)">
                <g id="icon-mail" transform="translate(14.000000, 9.000000)">
                    <path d="M5.96637931,9.12155172 C6.101,9.2182069 6.22551724,9.30851724 6.3377931,9.39082759 C6.74068966,9.68755172 7.06734483,9.91903448 7.31827586,10.084931 C7.56896552,10.2512069 7.90282759,10.4206897 8.31982759,10.5937241 C8.73682759,10.767 9.12534483,10.8533103 9.4857931,10.8533103 L9.4857931,10.8533103 L9.50689655,10.8533103 C9.86731034,10.8533103 10.2558276,10.7669655 10.6728621,10.5937241 C11.0896207,10.4206897 11.4234828,10.2512069 11.6744138,10.084931 C11.9253793,9.91903448 12.2522069,9.68751724 12.6548966,9.39082759 C12.7731034,9.30534483 12.8982414,9.21544828 13.0273448,9.123 L13.0273448,9.123 L18.4083448,14.5042069 C18.0938621,14.7825517 17.723931,14.9235172 17.297,14.9235172 L17.297,14.9235172 L1.69586207,14.9235172 C1.26896552,14.9235172 0.898793103,14.7825517 0.584344828,14.5042069 L0.584344828,14.5042069 Z M18.992931,4.81224138 L18.992931,12.9995172 L14.2520345,8.25841379 C15.2624828,7.55272414 16.4894483,6.71155172 17.933069,5.73444828 C18.3357241,5.45882759 18.6889655,5.15158621 18.992931,4.81224138 L18.992931,4.81224138 Z M-1.81632487e-13,4.81224138 C0.310862069,5.15855172 0.667931034,5.466 1.07058621,5.73444828 C2.57144828,6.75437931 3.79396552,7.59410345 4.7427931,8.25651724 L4.7427931,8.25651724 L-1.81632487e-13,12.9993103 Z M17.297,0.000448275872 C17.7562759,0.000448275872 18.1538276,0.166517241 18.4895517,0.498482759 C18.8248966,0.830862069 18.992931,1.22993103 18.992931,1.69631034 C18.992931,2.25451724 18.8196207,2.788 18.473931,3.29658621 C18.1276207,3.80517241 17.6967241,4.23989655 17.1809655,4.60013793 C15.466069,5.79037931 14.172,6.68896552 13.2933103,7.29948276 C12.8104138,7.6347931 12.4512414,7.88448276 12.2207586,8.04486207 C12.1865862,8.06889655 12.1332069,8.10686207 12.0622759,8.15775862 C11.9858966,8.21241379 11.8892414,8.28206897 11.7702414,8.36817241 C11.5405862,8.53427586 11.3498276,8.66848276 11.1978966,8.77103448 C11.0456897,8.87337931 10.8621034,8.9882069 10.6466552,9.11544828 C10.431,9.24272414 10.227931,9.33806897 10.0372069,9.40162069 C9.84637931,9.46513793 9.66972414,9.497 9.50727586,9.497 L9.50727586,9.497 L9.48617241,9.497 C9.32368966,9.497 9.14706897,9.46513793 8.95627586,9.40162069 C8.76551724,9.33806897 8.56227586,9.24251724 8.3467931,9.11544828 C8.13113793,8.9882069 7.94731034,8.87362069 7.79558621,8.77103448 C7.64365517,8.66848276 7.45289655,8.53424138 7.22327586,8.36817241 C7.10403448,8.28206897 7.00737931,8.21244828 6.931,8.15758621 C6.86010345,8.10689655 6.80668966,8.06868966 6.77272414,8.04486207 C6.47686207,7.8367931 6.11851724,7.58606897 5.703,7.29655172 C5.21551724,6.95655172 4.64824138,6.56255172 3.99593103,6.11051724 C2.78755172,5.27334483 2.06327586,4.76982759 1.82310345,4.60013793 C1.385,4.30341379 0.971586207,3.89548276 0.583068966,3.37613793 C0.194551724,2.85658621 0.000206896552,2.37434483 0.000206896552,1.92927586 C0.000206896552,1.37827586 0.146655172,0.918827586 0.440034483,0.551448276 C0.733172414,0.184241379 1.15162069,0.000448275872 1.69589655,0.000448275872 L1.69589655,0.000448275872 Z" id="Combined-Shape"></path>
                </g>
            </g>
        </g>
    </g>
</svg>