<?xml version="1.0" encoding="UTF-8"?>
<svg width="20px" height="19px" viewBox="0 0 20 19" version="1.1" xmlns="http://www.w3.org/2000/svg" xmlns:xlink="http://www.w3.org/1999/xlink">
    <title>9B96B61D-F94D-4647-9E1A-CED6C75094BE</title>
    <g id="Web" stroke="none" stroke-width="1" fill="none" fill-rule="evenodd">
        <g id="New---Affiliate" transform="translate(-829.000000, -89.000000)" fill="#FFFFFF">
            <g id="Group-16" transform="translate(0.000000, 66.000000)">
                <g id="Group-12" transform="translate(761.000000, 23.000000)">
                    <path d="M78.29,0 C83.5367051,0 87.79,4.25329488 87.79,9.5 C87.79,14.7467051 83.5367051,19 78.29,19 C73.0432949,19 68.79,14.7467051 68.79,9.5 C68.79,4.25329488 73.0432949,0 78.29,0 Z M78.8511103,3.37985973 C78.4522933,3.06976073 77.8756264,3.09795155 77.5091457,3.46443218 L77.5091457,3.46443218 L74.0136914,6.95988648 L73.929119,7.05566096 C73.61902,7.45447796 73.6472108,8.03114493 74.0136914,8.39762556 L74.0136914,8.39762556 L74.923,9.307 L74.0136914,10.2178644 L73.929119,10.3136389 C73.61902,10.7124559 73.6472108,11.2891229 74.0136914,11.6556035 L74.0136914,11.6556035 L77.5091457,15.1510578 L77.6049202,15.2356303 C78.0037372,15.5457293 78.5804042,15.5175384 78.9468848,15.1510578 L78.9468848,15.1510578 L82.4423391,11.6556035 L82.5269116,11.559829 C82.8370106,11.161012 82.8088198,10.5843451 82.4423391,10.2178644 L82.4423391,10.2178644 L81.5319259,9.30766667 L82.4423391,8.39762556 L82.5269116,8.30185108 C82.8370106,7.90303409 82.8088198,7.32636711 82.4423391,6.95988648 L82.4423391,6.95988648 L78.9468848,3.46443218 Z M78.0091246,3.85102878 C78.1635366,3.74907646 78.3733756,3.76606851 78.5093121,3.90200494 L78.5093121,3.90200494 L82.0047664,7.39745925 L82.0557425,7.45986531 C82.1576948,7.61427738 82.1407028,7.82411637 82.0047664,7.9600528 L82.0047664,7.9600528 L81.0939259,8.86966667 L78.9468848,6.72241013 L78.8511103,6.63783767 C78.4522933,6.32773868 77.8756264,6.35592949 77.5091457,6.72241013 L77.5091457,6.72241013 L75.8119259,8.41864461 L76.2499259,8.85564461 L77.9467185,7.15998289 L78.0091246,7.10900673 C78.1635366,7.00705441 78.3733756,7.02404646 78.5093121,7.15998289 L78.5093121,7.15998289 L82.0047664,10.6554372 L82.0557425,10.7178433 C82.1576948,10.8722553 82.1407028,11.0820943 82.0047664,11.2180307 L82.0047664,11.2180307 L78.5093121,14.713485 L78.446906,14.7644612 C78.2924939,14.8664135 78.0826549,14.8494215 77.9467185,14.713485 L77.9467185,14.713485 L74.4512642,11.2180307 L74.400288,11.1556247 C74.2983357,11.0012126 74.3153278,10.7913736 74.4512642,10.6554372 L74.4512642,10.6554372 L75.36,9.744 L77.5091457,11.8930799 L77.6049202,11.9776523 C78.0037372,12.2877513 78.5804042,12.2595605 78.9468848,11.8930799 L78.9468848,11.8930799 L80.6439259,10.1946667 L80.2069259,9.75766667 L78.5093121,11.4555071 L78.446906,11.5064833 C78.2924939,11.6084356 78.0826549,11.5914435 77.9467185,11.4555071 L77.9467185,11.4555071 L74.4512642,7.9600528 L74.400288,7.89764674 C74.2983357,7.74323467 74.3153278,7.53339568 74.4512642,7.39745925 L74.4512642,7.39745925 L77.9467185,3.90200494 Z" id="Combined-Shape"></path>
                </g>
            </g>
        </g>
    </g>
</svg>