<?xml version="1.0" encoding="UTF-8"?>
<svg width="14px" height="3px" viewBox="0 0 14 3" version="1.1" xmlns="http://www.w3.org/2000/svg" xmlns:xlink="http://www.w3.org/1999/xlink">
    <title>icon-expired</title>
    <g id="Web" stroke="none" stroke-width="1" fill="none" fill-rule="evenodd">
        <g id="New---My-positions-[expired]" transform="translate(-129.000000, -560.000000)" fill="#E47E7E">
            <path d="M131,560.046671 C131.802652,560.046671 132.453329,560.697348 132.453329,561.5 C132.453329,562.302652 131.802652,562.953329 131,562.953329 C130.197348,562.953329 129.546671,562.302652 129.546671,561.5 C129.546671,560.697348 130.197348,560.046671 131,560.046671 Z M136,560.046671 C136.802652,560.046671 137.453329,560.697348 137.453329,561.5 C137.453329,562.302652 136.802652,562.953329 136,562.953329 C135.197348,562.953329 134.546671,562.302652 134.546671,561.5 C134.546671,560.697348 135.197348,560.046671 136,560.046671 Z M141,560.046671 C141.802652,560.046671 142.453329,560.697348 142.453329,561.5 C142.453329,562.302652 141.802652,562.953329 141,562.953329 C140.197348,562.953329 139.546671,562.302652 139.546671,561.5 C139.546671,560.697348 140.197348,560.046671 141,560.046671 Z" id="icon-expired"></path>
        </g>
    </g>
</svg>