<?xml version="1.0" encoding="UTF-8"?>
<svg width="22px" height="19px" viewBox="0 0 22 19" version="1.1" xmlns="http://www.w3.org/2000/svg" xmlns:xlink="http://www.w3.org/1999/xlink">
    <title>bag</title>
    <g id="Web" stroke="none" stroke-width="1" fill="none" fill-rule="evenodd">
        <g id="My-positions" transform="translate(-123.000000, -162.000000)" fill="#A4ABB7" fill-rule="nonzero">
            <g id="Group-7" transform="translate(99.000000, 142.709794)">
                <g id="Group-5-Copy" transform="translate(1.000000, 0.000000)">
                    <g id="bag" transform="translate(34.270833, 29.290206) scale(-1, 1) translate(-34.270833, -29.290206) translate(23.770833, 20.790206)">
                        <path d="M18.6417313,2.56854907 L14.4049977,2.56854907 L14.4049977,1.72117056 C14.4049977,0.786528037 13.6449626,0.026453271 12.7102804,0.026453271 L7.62616822,0.026453271 C6.6915257,0.026453271 5.93145093,0.786488318 5.93145093,1.72117056 L5.93145093,2.56850935 L1.69471729,2.56850935 C0.760035047,2.56854907 0,3.32858411 0,4.26322664 L0,6.80528271 C0,7.73996495 0.760035047,8.5 1.69471729,8.5 L8.47354673,8.5 L8.47354673,8.07631075 C8.47354673,7.84212383 8.66304907,7.6526215 8.89723598,7.6526215 L11.4392921,7.6526215 C11.673479,7.6526215 11.8629813,7.84212383 11.8629813,8.07631075 L11.8629813,8.5 L18.6418107,8.5 C19.5764136,8.5 20.3364486,7.73996495 20.3364486,6.80528271 L20.3364486,4.26322664 C20.3364486,3.32858411 19.5764136,2.56854907 18.6417313,2.56854907 Z M12.7102804,2.56854907 L7.62616822,2.56854907 L7.62616822,1.72117056 L12.7102804,1.72117056 L12.7102804,2.56854907 Z" id="Shape"></path>
                        <path d="M20.1014276,8.9571729 C19.9570467,8.88559813 19.7845047,8.90216121 19.6570444,8.99895794 C19.3558505,9.2269486 19.0049673,9.34733879 18.6416916,9.34733879 L11.8629416,9.34733879 L11.8629416,10.6183668 C11.8629416,10.8525537 11.6734393,11.0420561 11.4392523,11.0420561 L8.89719626,11.0420561 C8.66300935,11.0420561 8.47350701,10.8525537 8.47350701,10.6183668 L8.47350701,9.34733879 L1.69471729,9.34733879 C1.33144159,9.34733879 0.980598131,9.2269486 0.679364486,8.99895794 C0.551507009,8.9013271 0.379401869,8.88476402 0.234981308,8.9571729 C0.0910373832,9.02878738 0,9.17563084 0,9.33661449 L0,15.2788294 C0,16.213472 0.760035047,16.9735467 1.69471729,16.9735467 L18.641771,16.9735467 C19.5764136,16.9735467 20.3364883,16.2135117 20.3364883,15.2788294 L20.3364883,9.33661449 C20.3364883,9.17563084 20.2454112,9.02878738 20.1014276,8.9571729 Z" id="Path"></path>
                    </g>
                </g>
            </g>
        </g>
    </g>
</svg>