<?xml version="1.0" encoding="UTF-8"?>
<svg width="24px" height="19px" viewBox="0 0 24 19" version="1.1" xmlns="http://www.w3.org/2000/svg" xmlns:xlink="http://www.w3.org/1999/xlink">
    <title>305AD9CC-2BDE-4689-9136-979D5B8EFE8B</title>
    <g id="Web" stroke="none" stroke-width="1" fill="none" fill-rule="evenodd" opacity="0.5">
        <g id="New---Affiliate" transform="translate(-123.000000, -227.000000)" fill="#5A6476" fill-rule="nonzero">
            <g id="Group-7" transform="translate(100.000000, 207.709794)">
                <g id="megaphone-(4)" transform="translate(23.865169, 19.886980)">
                    <path d="M7.13413483,11.9410765 L8.15325408,15.7302494 C8.30851033,16.2146749 8.21032476,16.7446169 7.89195941,17.1413606 C7.57664516,17.5583617 7.08201595,17.8008496 6.55922653,17.7946473 C5.82446031,17.7957978 5.18092715,17.302419 4.99130845,16.5925618 L4.99130845,16.5925618 L3.71084451,11.9410765 L7.13413483,11.9410765 Z M19.0764117,0.024909025 L19.0764117,15.1291816 L9.40760855,11.2616303 L9.40760855,3.89246031 L19.0764117,0.024909025 Z M8.62367452,4.10148605 L8.62367452,11.1571426 L3.86765132,11.1571426 C2.90635303,11.1575426 2.11896774,10.3933657 2.0907075,9.43241754 L2.0907075,9.43241754 L2.0907075,5.72167307 C2.0907075,4.78093222 2.92691047,4.10148605 3.86765132,4.10148605 L3.86765132,4.10148605 L8.62367452,4.10148605 Z M20.0694715,5.14676477 C21.3683422,5.14676477 22.4213237,6.19974628 22.4213237,7.49866691 C22.4213237,8.79753751 21.3683922,9.85051903 20.0694715,9.85051903 L20.0694715,9.85051903 L19.8603958,9.85051903 L19.8603958,5.14676477 Z M1.33283291,5.53880681 C1.33283291,5.59107575 1.30672345,5.66945415 1.30672345,5.72172309 L1.30672345,5.72172309 L1.30672345,9.35403914 C0.512885828,9.05683146 -0.00960347952,8.29400507 0.000150054369,7.44639797 C0.00210076115,6.59448931 0.533643349,5.83361363 1.33283291,5.53880681 Z" id="Combined-Shape"></path>
                </g>
            </g>
        </g>
    </g>
</svg>