<?xml version="1.0" encoding="UTF-8"?>
<svg width="18px" height="16px" viewBox="0 0 18 16" version="1.1" xmlns="http://www.w3.org/2000/svg" xmlns:xlink="http://www.w3.org/1999/xlink">
    <title>348D0D0F-A99F-42FC-B619-7BBCA8D2CB01</title>
    <g id="Web" stroke="none" stroke-width="1" fill="none" fill-rule="evenodd" opacity="0.7">
        <g id="New-pages---2fa" transform="translate(-1241.000000, -954.000000)" fill="#FFFFFF" fill-rule="nonzero">
            <g id="Group-4" transform="translate(0.000000, 801.000000)">
                <g id="Group-8" transform="translate(100.000000, 35.000000)">
                    <g id="Group-18-Copy" transform="translate(1141.000000, 0.500000)">
                        <g id="Group-17" transform="translate(0.000000, 38.500000)">
                            <g id="icon-telegram" transform="translate(0.000000, 79.498438)">
                                <path d="M6.9058,9.70044167 L6.61466667,13.795375 C7.0312,13.795375 7.2116,13.6164417 7.42793333,13.401575 L9.3808,11.5352417 L13.4273333,14.4986417 C14.1694667,14.9122417 14.6923333,14.6944417 14.8925333,13.8159083 L17.5486667,1.369775 L17.5494,1.36904167 C17.7848,0.271975 17.1526667,-0.157025 16.4296,0.112108333 L0.816933333,6.08950833 C-0.2486,6.50310833 -0.232466667,7.09710833 0.6358,7.36624167 L4.62733333,8.607775 L13.8988667,2.806375 C14.3352,2.51744167 14.7319333,2.67730833 14.4056,2.96624167 L6.9058,9.70044167 Z" id="Path"></path>
                            </g>
                        </g>
                    </g>
                </g>
            </g>
        </g>
    </g>
</svg>