<?xml version="1.0" encoding="UTF-8"?>
<svg width="21px" height="21px" viewBox="0 0 21 21" version="1.1" xmlns="http://www.w3.org/2000/svg" xmlns:xlink="http://www.w3.org/1999/xlink">
    <title>icon-usdc</title>
    <g id="Web" stroke="none" stroke-width="1" fill="none" fill-rule="evenodd">
        <g id="icon-usdc" fill-rule="nonzero">
            <circle id="Oval" fill="#FFFFFF" cx="10.4697379" cy="10.1899999" r="9.96973787"></circle>
            <g id="usd-coin-usdc-logo" transform="translate(3.469738, 3.190000)">
                <path d="M6.9815899,13.9631798 C10.8505776,13.9631798 13.9631798,10.8505776 13.9631798,6.9815899 C13.9631798,3.11260223 10.8505776,0 6.9815899,0 C3.11260223,0 0,3.11260223 0,6.9815899 C0,10.8505776 3.11260223,13.9631798 6.9815899,13.9631798 Z" id="Path" fill="#2775CA"></path>
                <path d="M8.90152712,8.08698503 C8.90152712,7.06885978 8.29063801,6.71978028 7.06885978,6.57435376 C6.19616104,6.45797066 6.02162129,6.22527427 6.02162129,5.81796831 C6.02162129,5.41066236 6.31254414,5.14892255 6.89432003,5.14892255 C7.41793927,5.14892255 7.70886212,5.3234623 7.85428864,5.75981167 C7.88340187,5.84708154 7.97067174,5.90523819 8.05794162,5.90523819 L8.5233344,5.90523819 C8.6397175,5.90523819 8.72698738,5.81796831 8.72698738,5.70165502 L8.72698738,5.67254179 C8.61060427,5.03253945 8.08698503,4.53803344 7.41793927,4.47987679 L7.41793927,3.7817178 C7.41793927,3.6653347 7.3306694,3.57806482 7.18524288,3.54895159 L6.74889351,3.54895159 C6.63251041,3.54895159 6.54524053,3.63622147 6.5161273,3.7817178 L6.5161273,4.45076356 C5.64342856,4.56714667 5.09076591,5.14892255 5.09076591,5.87619477 C5.09076591,6.83616338 5.67254179,7.21428629 6.89432003,7.35978263 C7.70886212,7.50520914 7.97067174,7.67974889 7.97067174,8.14521149 C7.97067174,8.61067409 7.56336579,8.93064035 7.01070313,8.93064035 C6.25431768,8.93064035 5.99250806,8.61060427 5.90523819,8.1742549 C5.87619477,8.05794162 5.7889249,7.99971516 5.70165502,7.99971516 L5.2070792,7.99971516 C5.09076591,7.99971516 5.00349603,8.08698503 5.00349603,8.20336813 L5.00349603,8.23248136 C5.11980932,8.95968377 5.58527192,9.48330301 6.54524053,9.62879934 L6.54524053,10.3269583 C6.54524053,10.4432716 6.63251041,10.5305415 6.77793692,10.5596547 L7.21428629,10.5596547 C7.3306694,10.5596547 7.41793927,10.4723849 7.4470525,10.3269583 L7.4470525,9.62879934 C8.31975124,9.48330301 8.90152712,8.87241389 8.90152712,8.08698503 L8.90152712,8.08698503 Z" id="Path" fill="#FFFFFF"></path>
                <path d="M5.49800205,11.1414306 C3.22898533,10.3269583 2.06536374,7.796132 2.90901906,5.55615869 C3.34536843,4.33438046 4.30533704,3.40352508 5.49800205,2.96717571 C5.61438515,2.90901906 5.67254179,2.82174919 5.67254179,2.67625286 L5.67254179,2.26901672 C5.67254179,2.15263361 5.61438515,2.06536374 5.49800205,2.03632033 C5.46888882,2.03632033 5.41073217,2.03632033 5.38161894,2.06536374 C2.61809621,2.93806248 1.10539513,5.87619477 1.97809387,8.6397175 C2.50171311,10.2687319 3.75260457,11.5196233 5.38161894,12.0432426 C5.49800205,12.1013992 5.61438515,12.0432426 5.64342856,11.9268595 C5.67254179,11.8978161 5.67254179,11.8687028 5.67254179,11.8105462 L5.67254179,11.4032402 C5.67254179,11.3159704 5.58527192,11.1996571 5.49800205,11.1414306 Z M8.58156086,2.06536374 C8.46517776,2.0072071 8.34879465,2.06536374 8.31975124,2.18174684 C8.29063801,2.21086007 8.29063801,2.23990349 8.29063801,2.29812995 L8.29063801,2.70536609 C8.29063801,2.82174919 8.37790788,2.93806248 8.46517776,2.99628894 C10.7341945,3.81076122 11.8978161,6.34158756 11.0541607,8.58156086 C10.6178114,9.80333909 9.65784276,10.7341945 8.46517776,11.1705438 C8.34879465,11.2287005 8.29063801,11.3159704 8.29063801,11.4614667 L8.29063801,11.8687028 C8.29063801,11.9850859 8.34879465,12.0723558 8.46517776,12.1013992 C8.49429099,12.1013992 8.55244763,12.1013992 8.58156086,12.0723558 C11.3450836,11.1996571 12.8577847,8.26152478 11.9850859,5.49800205 C11.4614667,3.83987445 10.181462,2.58898298 8.58156086,2.06536374 Z" id="Shape" fill="#FFFFFF"></path>
            </g>
        </g>
    </g>
</svg>