<?xml version="1.0" encoding="UTF-8"?>
<svg width="36px" height="36px" viewBox="0 0 36 36" version="1.1" xmlns="http://www.w3.org/2000/svg" xmlns:xlink="http://www.w3.org/1999/xlink">
    <title>icon-login</title>
    <defs>
        <linearGradient x1="100%" y1="0%" x2="50%" y2="100%" id="linearGradient-1">
            <stop stop-color="#15B694" offset="0%"></stop>
            <stop stop-color="#4769FF" offset="100%"></stop>
        </linearGradient>
    </defs>
    <g id="Web" stroke="none" stroke-width="1" fill="none" fill-rule="evenodd">
        <g id="My-positions-[sign-in]" transform="translate(-692.000000, -287.000000)" fill="url(#linearGradient-1)" fill-rule="nonzero">
            <g id="Group-2" transform="translate(543.500000, 287.209794)">
                <g id="icon-login" transform="translate(149.000000, 0.000000)">
                    <path d="M31.1744501,1.70530257e-13 C33.2700305,1.70530257e-13 34.9761914,1.70623218 34.9761914,3.80174134 L34.9761914,3.80174134 L34.9761914,31.1744501 C34.9761914,33.2699593 33.2699593,34.9761914 31.1744501,34.9761914 L31.1744501,34.9761914 L14.4466599,34.9761914 C12.3511507,34.9761914 10.6449185,33.2699593 10.6449185,31.1744501 L10.6449185,31.1744501 L10.6449185,22.0502138 C10.6449185,21.630499 10.9855804,21.2898371 11.4052953,21.2898371 C11.8250102,21.2898371 12.1656721,21.630499 12.1656721,22.0502138 L12.1656721,22.0502138 L12.1656721,31.1744501 C12.1656721,32.4320978 13.1890835,33.4555092 14.4467312,33.4555092 L14.4467312,33.4555092 L31.1745927,33.4555092 C32.4322403,33.4555092 33.4556517,32.4320978 33.4556517,31.1744501 L33.4556517,31.1744501 L33.4556517,3.80174134 C33.4556517,2.54409369 32.4322403,1.52068228 31.1745927,1.52068228 L31.1745927,1.52068228 L14.4468024,1.52068228 C13.1891548,1.52068228 12.1657434,2.54409369 12.1657434,3.80174134 L12.1657434,3.80174134 L12.1657434,12.9259776 C12.1657434,13.3456925 11.8250815,13.6863544 11.4053666,13.6863544 C10.9856517,13.6863544 10.6449185,13.3456925 10.6449185,12.9259776 L10.6449185,12.9259776 L10.6449185,3.80174134 C10.6449185,1.70623218 12.351222,1.70530257e-13 14.4467312,1.70530257e-13 L14.4467312,1.70530257e-13 Z M19.9912016,12.3907128 C20.2877393,12.0941752 20.7698269,12.0941752 21.0663646,12.3907128 L21.0663646,12.3907128 L25.6061399,16.9284067 C25.7572721,17.067391 25.8520265,17.2667393 25.8520265,17.4880957 C25.8520265,17.503037 25.8515948,17.5178782 25.8507431,17.5326073 C25.8493452,17.539511 25.8488616,17.5465417 25.848281,17.5535659 C25.8469472,17.5804181 25.8432642,17.6068221 25.8382618,17.6327581 C25.8356295,17.6428907 25.8335215,17.6529179 25.8312098,17.6629072 C25.8262267,17.6866289 25.8194516,17.710168 25.8116007,17.7332107 C25.8082258,17.7425088 25.8047861,17.7521339 25.8011466,17.7617001 C25.7927863,17.7835644 25.783619,17.8043787 25.7735716,17.824681 C25.7681055,17.8364822 25.761523,17.8490903 25.7545633,17.8615431 C25.7467214,17.8744783 25.7393876,17.8866166 25.7317306,17.8985276 C25.7033361,17.9443588 25.6686266,17.9879116 25.6284827,18.0280652 L25.6284827,18.0280652 L21.0663646,22.5901833 C20.9188086,22.7361711 20.7242057,22.8106619 20.5295316,22.8106619 C20.3348574,22.8106619 20.1402546,22.7360998 19.9912016,22.5886151 C19.694664,22.2920774 19.694664,21.8099898 19.9912016,21.5134521 L19.9912016,21.5134521 L23.255,18.248 L0.760376782,18.2484725 C0.375638153,18.2484725 0.0573259646,17.9622219 0.00694572914,17.5912261 L9.30810984e-13,17.4880957 C9.30810984e-13,17.0683809 0.340661914,16.7277902 0.760376782,16.7277902 L0.760376782,16.7277902 L23.252,16.727 L19.9912016,13.4658758 C19.7216219,13.1962961 19.6971147,12.7733693 19.9176799,12.4759083 Z" id="Combined-Shape"></path>
                </g>
            </g>
        </g>
    </g>
</svg>