<?xml version="1.0" encoding="UTF-8"?>
<svg width="18px" height="15px" viewBox="0 0 18 15" version="1.1" xmlns="http://www.w3.org/2000/svg" xmlns:xlink="http://www.w3.org/1999/xlink">
    <title>8D108EAD-1862-4DF0-A765-B9F51D2FE84D</title>
    <g id="Web" stroke="none" stroke-width="1" fill="none" fill-rule="evenodd" opacity="0.7">
        <g id="New-pages---2fa" transform="translate(-1241.000000, -900.000000)" fill="#FFFFFF" fill-rule="nonzero">
            <g id="Group-4" transform="translate(0.000000, 801.000000)">
                <g id="Group-8" transform="translate(100.000000, 35.000000)">
                    <g id="Group-18-Copy" transform="translate(1141.000000, 0.500000)">
                        <g id="Group-17" transform="translate(0.000000, 38.500000)">
                            <g id="icon-twitter" transform="translate(0.000000, 25.267187)">
                                <path d="M17.6,1.6929 C16.9455,1.98 16.2481,2.1703 15.521,2.2627 C16.269,1.8161 16.8399,1.1143 17.1083,0.2684 C16.4109,0.6842 15.6409,0.9779 14.8203,1.1418 C14.1581,0.4367 13.2143,0 12.1847,0 C10.1871,0 8.5789,1.6214 8.5789,3.6091 C8.5789,3.8951 8.6031,4.1701 8.6625,4.4319 C5.6628,4.2856 3.0085,2.8479 1.2254,0.6578 C0.9141,1.1979 0.7315,1.8161 0.7315,2.4816 C0.7315,3.7312 1.375,4.8389 2.3342,5.4802 C1.7545,5.4692 1.1858,5.3009 0.704,5.0358 C0.704,5.0468 0.704,5.0611 0.704,5.0754 C0.704,6.8288 1.9547,8.2852 3.5948,8.6207 C3.3011,8.701 2.981,8.7395 2.6488,8.7395 C2.4178,8.7395 2.1846,8.7263 1.9657,8.6779 C2.4332,10.1068 3.7598,11.1573 5.3372,11.1914 C4.1096,12.1517 2.5509,12.7303 0.8635,12.7303 C0.5676,12.7303 0.2838,12.7171 -1.95399252e-15,12.6808 C1.5983,13.7115 3.4925,14.3 5.5352,14.3 C12.1748,14.3 15.8048,8.8 15.8048,4.0326 C15.8048,3.8731 15.7993,3.7191 15.7916,3.5662 C16.5077,3.058 17.1094,2.4233 17.6,1.6929 Z" id="Path"></path>
                            </g>
                        </g>
                    </g>
                </g>
            </g>
        </g>
    </g>
</svg>