<?xml version="1.0" encoding="UTF-8"?>
<svg width="19px" height="17px" viewBox="0 0 19 17" version="1.1" xmlns="http://www.w3.org/2000/svg" xmlns:xlink="http://www.w3.org/1999/xlink">
    <title>icon-eye-off</title>
    <g id="Web" stroke="none" stroke-width="1" fill="none" fill-rule="evenodd">
        <g id="New-pages---sign-up" transform="translate(-1313.000000, -240.000000)" fill="#5A6476" fill-rule="nonzero">
            <g id="Group-14" transform="translate(1008.000000, 55.000000)">
                <g id="Group-2-Copy-4" transform="translate(18.500000, 156.290206)">
                    <g id="Group-9" transform="translate(0.000000, 20.000000)">
                        <g id="icon-eye-off" transform="translate(287.000000, 9.377778)">
                            <path d="M1.85845693,0.00202951017 L16.3382461,14.4858395 L15.2966862,15.5233021 L12.9153815,13.1379384 L12.5681821,12.7907389 C11.4612566,13.2359675 10.2522429,13.4810405 8.98602006,13.4810405 C4.90145852,13.4810405 1.41326664,10.9404384 -8.13571432e-13,7.3542173 C0.637189608,5.73267696 1.70325684,4.33166397 3.05115793,3.27785039 L3.05115793,3.27785039 L2.67945123,2.90614369 L0.81689699,1.04358945 L1.85845693,0.00202951017 Z M5.33443346,5.5570286 C5.06485324,6.10434537 4.90145852,6.70887136 4.90145852,7.3542173 C4.90145852,9.60888822 6.73134914,11.4387788 8.98602006,11.4387788 C9.63140429,11.4387788 10.235892,11.2753841 10.7791497,11.0058039 L10.7791497,11.0058039 L9.51702416,9.74367833 C9.34547312,9.78043927 9.16982475,9.80494656 8.98602006,9.80494656 C7.63402165,9.80494656 6.5352908,8.7062157 6.5352908,7.3542173 C6.5352908,7.1704126 6.55979809,6.99480253 6.59655903,6.81915417 L6.59655903,6.81915417 Z M8.98605835,1.22743243 C13.0746789,1.22743243 16.5588118,3.76803453 17.9761374,7.35425559 C17.3757088,8.87370773 16.4035734,10.2052579 15.1700524,11.2345642 L15.1700524,11.2345642 L12.7805914,8.84510313 C12.9643961,8.38356188 13.0705816,7.88116238 13.0705816,7.35425559 C13.0705816,5.09958467 11.240691,3.26969406 8.98602006,3.26969406 C8.45911327,3.26969406 7.95671377,3.37997687 7.49521082,3.55968425 L7.49521082,3.55968425 L5.73068575,1.7992565 C6.74773839,1.43164711 7.84237193,1.22743243 8.98605835,1.22743243 Z M8.98602006,4.90348804 C10.3380185,4.90348804 11.4367493,6.00221889 11.4367493,7.3542173 L11.4367493,7.3542173 L11.4244957,7.48900741 L8.85122995,4.91574168 Z" id="Combined-Shape"></path>
                        </g>
                    </g>
                </g>
            </g>
        </g>
    </g>
</svg>