<?xml version="1.0" encoding="UTF-8"?>
<svg width="82px" height="13px" viewBox="0 0 82 13" version="1.1" xmlns="http://www.w3.org/2000/svg" xmlns:xlink="http://www.w3.org/1999/xlink">
    <title>icon-exmarkets</title>
    <g id="Web" stroke="none" stroke-width="1" fill="none" fill-rule="evenodd">
        <g id="New-pages---Create-contract" transform="translate(-886.000000, -92.000000)">
            <g id="icon-exmarkets" transform="translate(885.994100, 92.000000)">
                <path d="M18.9370785,3.16544628 C19.9352154,4.97080707 20.4593494,6.99975386 20.4604959,9.06266529 C20.0639632,9.4548516 19.6417073,9.82014622 19.1965413,10.1561157 L15.6122479,6.33830579 L18.9370785,3.16544628 Z M12.7136777,6.22710744 L9.18127686,9.11826446 C8.44814945,7.53785688 8.06022477,5.81936315 8.04334711,4.07727273 C8.04334711,4.02026474 8.06603678,3.9656004 8.1063595,3.92530165 C8.36582231,3.66954545 8.64011157,3.4286157 8.91810744,3.18397934 L12.7136777,6.22710744 Z M74.0062066,9.12197107 L75.299814,7.59855372 C76.0587261,8.23437869 77.0155992,8.58566909 78.0056405,8.59192562 C78.2497845,8.6054847 78.4930697,8.55298633 78.7098967,8.43995455 C78.8691598,8.34710327 78.9633079,8.17314957 78.9539461,7.98903426 C78.9445843,7.80491894 78.8332772,7.64141212 78.6654174,7.56519421 C78.312125,7.39461405 77.9384159,7.27004434 77.5534339,7.19453306 C77.2717314,7.12781405 77.027095,7.06850826 76.8121116,7.01290909 C76.5971281,6.95730992 76.3821446,6.8868843 76.1486281,6.80163223 C75.9442159,6.72844675 75.7459117,6.63920988 75.5555702,6.5347562 C75.38659,6.43798679 75.2265724,6.32634662 75.0774174,6.20116116 C74.9323419,6.08074989 74.8072402,5.93813403 74.7067562,5.77860744 C74.6079528,5.61200356 74.5330865,5.4323244 74.4843595,5.24485537 C74.4245455,5.02760693 74.3958424,4.80297383 74.3991074,4.57766529 C74.3790142,3.84016417 74.7021324,3.13505451 75.2738678,2.66876033 C75.9438026,2.14673398 76.7793925,1.88355606 77.6275661,1.92743802 C78.8648624,1.88384392 80.0790523,2.2702366 81.063595,3.02088843 L79.9034256,4.64067769 C79.2278058,4.13494301 78.4119003,3.8513187 77.5682603,3.82892975 C77.3501279,3.81578335 77.133103,3.86874775 76.9455496,3.98090083 C76.8115221,4.07005361 76.7308641,4.22024435 76.7305661,4.38121488 C76.7307042,4.57445873 76.8437354,4.74980203 77.0196818,4.82971488 C77.390434,4.99093244 77.7784588,5.10908101 78.1761446,5.18184298 C78.6180602,5.27438423 79.0528315,5.39825069 79.4771653,5.55250413 C79.8185891,5.67715933 80.1425027,5.84534524 80.4408843,6.05289669 C80.7148483,6.23968699 80.9347453,6.49538123 81.0784215,6.79421901 C81.2252284,7.10963694 81.2975177,7.45459613 81.2896983,7.80241736 C81.3199128,8.56964274 80.977499,9.30417545 80.3704587,9.77433471 C79.6555919,10.2838159 78.7897252,10.5371765 77.9129752,10.4934174 C77.1843668,10.4980113 76.4601584,10.3802334 75.7705537,10.1449959 C75.1205567,9.92405351 74.5208609,9.57633072 74.0062066,9.12197107 L74.0062066,9.12197107 Z M66.6189298,4.02908678 L66.6189298,2.00157025 L73.9950868,2.00157025 L73.9950868,4.02908678 L71.4671777,4.02908678 L71.4671777,10.3303264 L69.1394256,10.3303264 L69.1394256,4.02908678 L66.6189298,4.02908678 Z M59.0796818,10.3303264 L59.0796818,2.00157025 L65.8405413,2.00157025 L65.8405413,3.96607438 L61.3926074,3.96607438 L61.3926074,5.22632231 L65.4291074,5.22632231 L65.4291074,7.04256198 L61.3814876,7.04256198 L61.3814876,8.3621157 L65.8961405,8.3621157 L65.8961405,10.3229132 L59.0796818,10.3303264 Z M50.3135455,10.3303264 L50.3135455,2.00157025 L52.6338843,2.00157025 L52.6338843,5.382 L55.5287479,2.00157025 L58.2901736,2.00157025 L55.1061942,5.58586364 L58.3976653,10.3303264 L55.5991736,10.3303264 L53.4901116,7.24271901 L52.6338843,8.17678512 L52.6338843,10.3303264 L50.3135455,10.3303264 Z M21.7170372,10.3303264 L21.7170372,2.00157025 L24.1782273,2.00157025 L26.1835041,5.22632231 L28.188781,2.00157025 L30.6573843,2.00157025 L30.6573843,10.3303264 L28.3296322,10.3303264 L28.3296322,5.55991736 L26.1835041,8.81802893 L26.1390248,8.81802893 L23.9966033,5.55991736 L23.9966033,10.3303264 L21.7170372,10.3303264 Z M44.0085992,6.00471074 L44.0085992,4.02908678 L45.5320165,4.02908678 C45.8607493,4.00990194 46.1869345,4.09697129 46.462376,4.27742975 C46.6918154,4.45219785 46.817332,4.73112383 46.7959711,5.01875207 C46.8104454,5.30431389 46.6879128,5.57966805 46.4660826,5.76007438 C46.1996671,5.95248658 45.8748772,6.04678041 45.546843,6.02695041 L44.0085992,6.00471074 Z M41.6808471,10.3303264 L41.6808471,2.00157025 L45.6469215,2.00157025 C46.8651612,2.00157025 47.7757521,2.30180579 48.3786942,2.90227686 C48.8888288,3.43419452 49.15702,4.15294699 49.1200165,4.88902066 C49.1375396,5.44208133 48.9777927,5.98625967 48.6641033,6.44209091 C48.3454555,6.8795821 47.9081098,7.21659554 47.4038554,7.41322314 L49.4091322,10.3266198 L46.7255455,10.3266198 L45.0279174,7.7838843 L44.0085992,7.7838843 L44.0085992,10.3155 L41.6808471,10.3303264 Z M0.0296528926,2.00527686 L6.73491322,2.00527686 L6.73491322,3.95124793 L2.31663223,3.95124793 L2.31663223,5.1892562 L6.30123967,5.1892562 L6.30123967,6.99808264 L2.31663223,6.99808264 L2.31663223,8.30651653 L6.79421901,8.30651653 L6.79421901,10.267314 L0.0296528926,10.267314 L0.0296528926,2.00527686 Z M35.2128099,7.04256198 L36.1617025,4.67403719 L37.0846488,7.04256198 L35.2128099,7.04256198 Z M31.461719,10.3303264 L35.0460124,1.94597107 L37.2699793,1.94597107 L40.8468595,10.3303264 L38.3486033,10.3303264 L37.7333058,8.84768182 L34.5122603,8.84768182 L33.9117893,10.3303264 L31.461719,10.3303264 Z" id="Shape" fill="#FFFFFF"></path>
                <path d="M10.5082438,11.1531942 C10.8804682,11.6535496 11.2893187,12.125586 11.7314256,12.5654138 C14.0917745,12.5660986 16.4043907,11.900579 18.4033264,10.6453884 L14.4038926,7.43916942 L10.5082438,11.1531942 Z" id="Path" fill="#F85371"></path>
                <path d="M17.9696529,1.57901653 C17.5878167,1.05246041 17.165198,0.556719985 16.7056983,0.0963719008 C14.7660973,0.10007356 12.8538767,0.554336974 11.1198347,1.42333884 L14.1740826,4.68145041 L17.9696529,1.57901653 Z" id="Path" fill="#00CE7D"></path>
            </g>
        </g>
    </g>
</svg>