<?xml version="1.0" encoding="UTF-8"?>
<svg width="22px" height="21px" viewBox="0 0 22 21" version="1.1" xmlns="http://www.w3.org/2000/svg" xmlns:xlink="http://www.w3.org/1999/xlink">
    <title>icon-usdt</title>
    <g id="Web" stroke="none" stroke-width="1" fill="none" fill-rule="evenodd">
        <g id="icon-usdt" transform="translate(0.500000, 0.000000)" fill-rule="nonzero">
            <circle id="Oval" fill="#FFFFFF" cx="10.4697379" cy="10.1899999" r="9.96973787"></circle>
            <path d="M11.623172,10.5815049 L11.623172,10.5799991 C11.558423,10.5845165 11.224138,10.6040917 10.4802784,10.6040917 C9.88549189,10.6040917 9.46838844,10.5875281 9.32082115,10.5799991 L9.32082115,10.5815049 C7.03352824,10.4806171 5.32746973,10.0830889 5.32746973,9.60575389 C5.32746973,9.12992468 7.03503403,8.7308907 9.32082115,8.63000286 L9.32082115,10.1854825 C9.46989423,10.196023 9.89904398,10.2216214 10.4908189,10.2216214 C11.2015511,10.2216214 11.5569173,10.1915057 11.623172,10.1854825 L11.623172,8.63150865 C13.9059475,8.73390227 15.6074886,9.13143047 15.6074886,9.60725967 C15.6074886,10.0830889 13.9044417,10.4806171 11.623172,10.5830107 M11.623172,8.47038927 L11.623172,7.07904058 L14.8079149,7.07904058 L14.8079149,4.95738442 L6.13758401,4.95738442 L6.13758401,7.07904058 L9.32232694,7.07904058 L9.32232694,8.47038927 C6.7338763,8.58934657 4.78839741,9.1013147 4.78839741,9.71567645 C4.78839741,10.3300382 6.73538209,10.8420063 9.32232694,10.9624694 L9.32232694,15.4226153 L11.6246777,15.4226153 L11.6246777,10.9624694 C14.208611,10.8435121 16.1510783,10.331544 16.1510783,9.71718224 C16.1510783,9.10432628 14.208611,8.59085236 11.6246777,8.47189506" id="Shape" fill="#26A17B"></path>
        </g>
    </g>
</svg>