<?xml version="1.0" encoding="UTF-8"?>
<svg width="26px" height="26px" viewBox="0 0 26 26" version="1.1" xmlns="http://www.w3.org/2000/svg" xmlns:xlink="http://www.w3.org/1999/xlink">
    <title>F7ED33E2-974E-485D-B3D0-D61A9199AC59</title>
    <defs>
        <linearGradient x1="95.6796634%" y1="-34.3261719%" x2="-3.31180971%" y2="117.089844%" id="linearGradient-1">
            <stop stop-color="#15B694" offset="0%"></stop>
            <stop stop-color="#4769FF" offset="100%"></stop>
        </linearGradient>
    </defs>
    <g id="Web" stroke="none" stroke-width="1" fill="none" fill-rule="evenodd">
        <g id="New---Affiliate" transform="translate(-541.000000, -306.000000)" fill="url(#linearGradient-1)">
            <g id="invitation" transform="translate(541.500000, 306.033198)">
                <path d="M10.550953,0.685501002 C11.6477072,-0.227472745 13.2365187,-0.227472745 14.3332728,0.679572601 L14.3332728,0.679572601 L16.1947907,2.23281365 L20.8367287,2.23281365 C21.1687191,2.23281365 21.4532824,2.48180649 21.4532824,2.80786854 L21.4532824,2.80786854 L21.4532824,6.58425995 L24.6427621,9.24611198 C24.7791153,9.3587516 24.8502561,9.52474683 24.8383993,9.70259885 L24.8383993,9.70259885 L24.8265425,9.70259885 L24.8265425,22.9762886 C24.8265425,24.6065989 23.5163659,25.9464175 21.8801273,25.9464175 L21.8801273,25.9464175 L2.99817021,25.9464175 C1.36785995,25.9464175 0.0517549403,24.6125273 0.0517549403,22.9762886 L0.0517549403,22.9762886 L0.0517549403,9.70259885 L0.0398981384,9.70259885 C0.0339697375,9.53067523 0.11103895,9.3587516 0.241463771,9.24611198 L0.241463771,9.24611198 L3.37165947,6.64354396 L3.37165947,2.80786854 C3.37165947,2.47587809 3.66215112,2.23281365 3.98821317,2.23281365 L3.98821317,2.23281365 L8.68943513,2.23281365 Z M23.646824,10.8823506 L14.2087764,17.9312194 C13.1594495,18.7078399 11.7247764,18.7078399 10.6754495,17.9312194 L10.6754495,17.9312194 L1.23740192,10.8823506 L1.23740192,22.9762886 C1.23150673,23.9544747 2.01998406,24.7548089 2.99817021,24.7607373 L2.99817021,24.7607373 L21.8860557,24.7607373 C22.8642418,24.7548089 23.6527191,23.9544747 23.646824,22.9703602 L23.646824,22.9703602 L23.646824,10.8823506 Z M20.2676022,3.41849384 L4.55733967,3.41849384 L4.55733967,11.9020356 L11.3750008,16.9767468 C12.0093397,17.4450905 12.8748862,17.4450905 13.5151535,16.9767468 L13.5151535,16.9767468 L20.2676022,11.9494628 L20.2676022,3.41849384 Z M16.1177215,11.1254151 C16.4437836,11.1254151 16.7105616,11.3921931 16.7105616,11.7182552 C16.7105616,12.0443172 16.4437836,12.3110953 16.1177215,12.3110953 L16.1177215,12.3110953 L8.76650434,12.3110953 C8.44044229,12.3110953 8.17366425,12.0443172 8.17366425,11.7182552 C8.17366425,11.3921931 8.44044229,11.1254151 8.76650434,11.1254151 L8.76650434,11.1254151 Z M21.4532824,8.1256442 L21.4532824,11.0661311 L23.3207287,9.67888525 L21.4532824,8.1256442 Z M3.37165947,8.17899981 L1.56349718,9.67295685 L3.37165947,11.0187039 L3.37165947,8.17899981 Z M11.9678409,8.16121461 C12.2939029,8.16121461 12.560681,8.42799265 12.560681,8.7540547 C12.560681,9.08011675 12.2939029,9.3468948 11.9678409,9.3468948 L11.9678409,9.3468948 L8.76650434,9.3468948 C8.44044229,9.3468948 8.17366425,9.08011675 8.17366425,8.7540547 C8.17366425,8.42799265 8.44044229,8.16121461 8.76650434,8.16121461 L8.76650434,8.16121461 Z M13.5803659,1.59847475 C12.9223134,1.05306186 11.9678409,1.04713346 11.3097884,1.59254635 L11.3097884,1.59254635 L10.5450246,2.23281365 L14.3332728,2.23281365 Z" id="Combined-Shape"></path>
            </g>
        </g>
    </g>
</svg>