<?xml version="1.0" encoding="UTF-8"?>
<svg width="16px" height="19px" viewBox="0 0 16 19" version="1.1" xmlns="http://www.w3.org/2000/svg" xmlns:xlink="http://www.w3.org/1999/xlink">
    <title>6D44017D-13FB-4FB4-8020-34D41C66A876</title>
    <g id="Web" stroke="none" stroke-width="1" fill="none" fill-rule="evenodd">
        <g id="New---Affiliate" transform="translate(-1177.000000, -388.000000)" fill="#5A6476" fill-rule="nonzero">
            <g id="Group-2-Copy-3" transform="translate(541.500000, 354.242993)">
                <g id="Group-6" transform="translate(620.000000, 23.000000)">
                    <g id="copy" transform="translate(15.500000, 11.000000)">
                        <path d="M11.075133,17.4297872 L1.99720746,17.4297872 C0.89547874,17.4297872 -9.67547555e-16,16.5343085 -9.67547555e-16,15.4325798 L-9.67547555e-16,5.62832446 C-9.67547555e-16,4.52659574 0.89547874,3.63125001 1.99720746,3.63125001 L2.36023935,3.63125001 C2.66090424,3.63125001 2.9049202,3.87526597 2.9049202,4.17593086 C2.9049202,4.47659574 2.66090424,4.72061171 2.36023935,4.72061171 L1.99720746,4.72061171 C1.49680851,4.72061171 1.0893617,5.12792551 1.0893617,5.62832446 L1.0893617,15.4325798 C1.0893617,15.9329787 1.49680851,16.3404255 1.99720746,16.3404255 L11.075133,16.3404255 C11.5755319,16.3404255 11.9829787,15.9329787 11.9829787,15.4325798 L11.9829787,15.0695479 C11.9829787,14.768883 12.2269947,14.524867 12.5276596,14.524867 C12.8283245,14.524867 13.0723404,14.768883 13.0723404,15.0695479 L13.0723404,15.4325798 C13.0723404,16.5343085 12.1768617,17.4297872 11.075133,17.4297872 Z" id="Path"></path>
                        <path d="M13.9801862,13.0723404 L6.35465426,13.0723404 C5.25292555,13.0723404 4.35744681,12.1768617 4.35744681,11.075133 L4.35744681,1.99720746 C4.35744681,0.89547874 5.25292555,9.67547555e-16 6.35465426,9.67547555e-16 L13.9801862,9.67547555e-16 C15.0819149,9.67547555e-16 15.9772606,0.89547874 15.9772606,1.99720746 L15.9772606,11.075133 C15.9772606,12.1768617 15.0819149,13.0723404 13.9801862,13.0723404 Z M6.35465426,1.0893617 C5.85425532,1.0893617 5.44680851,1.49680851 5.44680851,1.99720746 L5.44680851,11.075133 C5.44680851,11.5755319 5.85425532,11.9829787 6.35465426,11.9829787 L13.9801862,11.9829787 C14.4805851,11.9829787 14.8878989,11.5755319 14.8878989,11.075133 L14.8878989,1.99720746 C14.8878989,1.49680851 14.4805851,1.0893617 13.9801862,1.0893617 L6.35465426,1.0893617 Z" id="Shape"></path>
                    </g>
                </g>
            </g>
        </g>
    </g>
</svg>