<?xml version="1.0" encoding="UTF-8"?>
<svg width="16px" height="17px" viewBox="0 0 16 17" version="1.1" xmlns="http://www.w3.org/2000/svg" xmlns:xlink="http://www.w3.org/1999/xlink">
    <title>67649836-122F-45E8-BD2B-35ED7A39AE6C</title>
    <g id="Web" stroke="none" stroke-width="1" fill="none" fill-rule="evenodd">
        <g id="New-pages---security-verification" transform="translate(-1122.000000, -167.000000)" fill="#5A6476" fill-rule="nonzero">
            <g id="Group-14" transform="translate(837.000000, 49.500000)">
                <g id="Group-12-Copy" transform="translate(17.500000, 82.696699)">
                    <g id="Group-6" transform="translate(253.000000, 23.000000)">
                        <g id="redo" transform="translate(14.574428, 12.074428)">
                            <path d="M15.5452999,0.0376106772 C15.3603909,-0.0383362695 15.1470622,0.00326524271 15.0056896,0.145242481 L13.2225085,1.92854453 C11.7523063,0.714602711 9.86596791,0 7.9255718,0 C3.55523622,0 0,3.55523622 0,7.9255718 C0,12.2959074 3.55523622,15.8511436 7.9255718,15.8511436 C10.0410813,15.8511436 12.0310606,15.0262485 13.5282313,13.5282313 C13.7865476,13.2700358 13.7865476,12.8526904 13.5282313,12.5943741 C13.2700358,12.3361786 12.8526904,12.3361786 12.5943741,12.5943741 C11.3468124,13.8426613 9.68831495,14.5301747 7.9255718,14.5301747 C4.28374642,14.5301747 1.32096895,11.5673972 1.32096895,7.9255718 C1.32096895,4.28374642 4.28374642,1.32096895 7.9255718,1.32096895 C9.51731337,1.32096895 11.062737,1.8935944 12.2839349,2.86639258 L10.7127522,4.43830086 C10.5707749,4.5802781 10.5291734,4.79300212 10.6051204,4.97791116 C10.681672,5.16282023 10.8619855,5.28375486 11.062737,5.28375486 L15.3557954,5.28375486 C15.6292286,5.28375486 15.8511436,5.0618398 15.8511436,4.78840662 L15.8511436,0.495348238 C15.8511436,0.294596755 15.7303299,0.114283216 15.5452999,0.0376106772 Z" id="Path"></path>
                        </g>
                    </g>
                </g>
            </g>
        </g>
    </g>
</svg>