<?xml version="1.0" encoding="UTF-8"?>
<svg width="15px" height="15px" viewBox="0 0 15 15" version="1.1" xmlns="http://www.w3.org/2000/svg" xmlns:xlink="http://www.w3.org/1999/xlink">
    <title>icon-pending</title>
    <g id="Web" stroke="none" stroke-width="1" fill="none" fill-rule="evenodd">
        <g id="My-positions" transform="translate(-130.000000, -281.000000)" fill="#D16605" fill-rule="nonzero">
            <g id="Group-7" transform="translate(99.000000, 142.709794)">
                <g id="Group-16-Copy" transform="translate(1.000000, 118.500000)">
                    <g id="Group-2" transform="translate(22.250000, 14.000000)">
                        <path d="M15.24986,6.50004667 C11.3839933,6.50004667 8.25004667,9.63408667 8.25004667,13.4998133 C8.25004667,17.36554 11.3839933,20.4999533 15.2498133,20.4999533 C19.1156333,20.4999533 22.2498133,17.36568 22.2498133,13.4998133 C22.2498133,9.63394667 19.11568,6.50004667 15.24986,6.50004667 Z M15.7332333,14.3557733 C15.73286,14.37416 15.7301067,14.3925467 15.72754,14.41098 C15.72572,14.4247933 15.72488,14.4389333 15.7217533,14.4525133 C15.7186267,14.4666533 15.71326,14.4806067 15.7086867,14.4947467 C15.7032267,14.5118267 15.69814,14.52886 15.691,14.54496 C15.6896467,14.54776 15.68918,14.5507467 15.6879667,14.5535467 C15.67742,14.57604 15.6651933,14.5971333 15.6518,14.6171067 C15.65096,14.61832 15.64984,14.6195333 15.649,14.6207467 C15.63374,14.6431467 15.6163333,14.6634933 15.59804,14.68258 C15.5929533,14.6878067 15.5877733,14.69252 15.5824067,14.6974667 C15.5663067,14.71282 15.5493667,14.7268667 15.5313533,14.7397 C15.5258,14.7437133 15.52048,14.7479133 15.5146467,14.7517867 C15.4915467,14.7669067 15.4673267,14.7802067 15.4421267,14.7911267 C15.4366667,14.7935533 15.4309733,14.795 15.42542,14.7971933 C15.40414,14.8054067 15.38258,14.81222 15.36032,14.8174 C15.35234,14.8193133 15.3444533,14.82104 15.3363333,14.8224867 C15.3077733,14.8277133 15.27884,14.8313067 15.2495333,14.8313067 C15.2436067,14.8313067 15.23754,14.8294867 15.2316133,14.8292533 C15.20352,14.82818 15.1757067,14.8259867 15.1489667,14.8202933 C15.1406133,14.8184733 15.1324,14.8148333 15.1240467,14.8125467 C15.0991267,14.80578 15.0747667,14.7982667 15.0515267,14.78786 C15.0488667,14.7865067 15.0460667,14.7862733 15.0434067,14.78506 L12.3593733,13.51904 C12.1175467,13.4050333 12.0139467,13.1164933 12.1279533,12.8746667 C12.24196,12.63298 12.5305,12.52924 12.7723267,12.6432467 L14.76574,13.5833 L14.76574,9.405 C14.76574,9.13764667 14.9825067,8.92088 15.24986,8.92088 C15.5172133,8.92088 15.73398,9.13764667 15.73398,9.405 L15.73398,14.3470467 L15.7340733,14.3470467 C15.7340733,14.34994 15.7332333,14.3528333 15.7332333,14.3557733 Z" id="icon-pending"></path>
                    </g>
                </g>
            </g>
        </g>
    </g>
</svg>