<?xml version="1.0" encoding="UTF-8"?>
<svg width="18px" height="16px" viewBox="0 0 18 16" version="1.1" xmlns="http://www.w3.org/2000/svg" xmlns:xlink="http://www.w3.org/1999/xlink">
    <title>55B4FE61-E008-44E6-A1B7-D7BB9CD98B20</title>
    <g id="Web" stroke="none" stroke-width="1" fill="none" fill-rule="evenodd" opacity="0.7">
        <g id="New-pages---2fa" transform="translate(-1241.000000, -927.000000)" fill="#FFFFFF" fill-rule="nonzero">
            <g id="Group-4" transform="translate(0.000000, 801.000000)">
                <g id="Group-8" transform="translate(100.000000, 35.000000)">
                    <g id="Group-18-Copy" transform="translate(1141.000000, 0.500000)">
                        <g id="Group-17" transform="translate(0.000000, 38.500000)">
                            <g id="icon-discord" transform="translate(0.000000, 52.417188)">
                                <path d="M16.6591219,6.05199375 C15.9585938,3.645125 15.1685875,2.40150625 15.1558344,2.37919687 C15.1108031,2.32423125 13.9944406,0.98828125 11.3038063,0.0001375 L10.9482656,0.9681375 C12.2282875,1.43825 13.1364063,2.0117625 13.6358406,2.382325 C12.1447906,1.93706562 10.3710063,1.66436875 8.8,1.66436875 C7.22899375,1.66436875 5.45520938,1.93706563 3.96415938,2.382325 C4.46355938,2.01179687 5.37167813,1.43825 6.6517,0.9681375 L6.29615938,0.0001375 C3.60559375,0.98828125 2.48923125,2.32423125 2.4442,2.37919687 C2.43144688,2.40150625 1.64140625,3.645125 0.9409125,6.05199375 C0.2657875,8.37148125 0.009315625,11.6436031 3.90798505e-15,11.7748125 C0.06015625,11.8688625 1.44375,14.2311125 5.21444688,14.2311125 L6.17020938,12.8471062 C5.09942813,12.5627906 4.0783875,12.1042969 3.14373125,11.4821437 L3.71514688,10.6236969 C5.22300625,11.6273437 6.98132188,12.1578875 8.8,12.1578875 C10.6186781,12.1578875 12.3769938,11.6273437 13.8848531,10.6236969 L14.4562688,11.4821438 C13.5216469,12.1042969 12.5005719,12.5627906 11.4297906,12.8471062 L12.3855531,14.2311125 C16.15625,14.2311125 17.5398438,11.8688625 17.6,11.7748125 C17.5906844,11.6436031 17.3342125,8.37148125 16.6591219,6.05199375 L16.6591219,6.05199375 Z M6.41581875,8.7498125 L5.38456875,8.7498125 L5.38456875,7.0310625 L6.41581875,7.0310625 L6.41581875,8.7498125 Z M12.2154313,8.7498125 L11.1841813,8.7498125 L11.1841813,7.0310625 L12.2154313,7.0310625 L12.2154313,8.7498125 Z" id="Shape"></path>
                            </g>
                        </g>
                    </g>
                </g>
            </g>
        </g>
    </g>
</svg>