<?xml version="1.0" encoding="UTF-8"?>
<svg width="21px" height="23px" viewBox="0 0 21 23" version="1.1" xmlns="http://www.w3.org/2000/svg" xmlns:xlink="http://www.w3.org/1999/xlink">
    <title>uniswap</title>
    <g id="Web" stroke="none" stroke-width="1" fill="none" fill-rule="evenodd">
        <g id="New-pages---fee-upd" transform="translate(-1043.000000, -88.000000)" fill="#FFFFFF">
            <g id="Group-16" transform="translate(0.000000, 66.000000)">
                <g id="Group-14-Copy" transform="translate(993.500000, 12.500000)">
                    <g id="Group" transform="translate(49.494100, 9.500000)">
                        <path d="M6.36666067,2.37882867 C6.07831733,2.33437733 6.066158,2.329164 6.20184267,2.30843333 C6.46188067,2.26868933 7.075904,2.322862 7.49902733,2.42285067 C8.48683133,2.656224 9.38567133,3.25405533 10.3451393,4.315812 L10.6000407,4.597884 L10.9646827,4.53961733 C12.500868,4.29425333 14.0636413,4.48926267 15.3707467,5.08940933 C15.7303133,5.25451867 16.29734,5.58318867 16.36818,5.66764467 C16.39072,5.69455467 16.43212,5.86782133 16.46018,6.05271067 C16.55724,6.692356 16.5086333,7.18265467 16.3119067,7.54886067 C16.2047267,7.74813267 16.1987467,7.81129067 16.2708133,7.981828 C16.3283133,8.11792667 16.4885467,8.21865133 16.6472467,8.21843667 C16.9720067,8.217992 17.3216067,7.69610667 17.48368,6.96993533 L17.54808,6.6815 L17.6755,6.82500467 C18.3747,7.61237133 18.92394,8.68614933 19.01824,9.45047 L19.0427733,9.64975733 L18.92532,9.468594 C18.7230733,9.156852 18.5197533,8.94463867 18.2595467,8.77347267 C17.7903467,8.46495067 17.2943133,8.35996333 15.9807067,8.29114733 C14.794198,8.22901667 14.12269,8.128292 13.4568553,7.91249067 C12.3239827,7.54538 11.7528927,7.05646133 10.407178,5.30165333 C9.80946933,4.52222933 9.440028,4.09099467 9.072534,3.74371 C8.237496,2.95459533 7.41697867,2.54074867 6.36666067,2.37882867 Z" id="Path" fill-rule="nonzero"></path>
                        <path d="M16.6357467,4.11910067 C16.6656467,3.59681667 16.7367933,3.25232267 16.88016,2.93771333 C16.9368933,2.81319133 16.9899467,2.71127067 16.9982267,2.71127067 C17.0063533,2.71127067 16.9816667,2.80317867 16.9433333,2.91551067 C16.83922,3.220828 16.8220467,3.63844667 16.8938067,4.12432933 C16.9848867,4.74082133 17.0367133,4.82977 17.6923667,5.495712 C17.9998,5.80808267 18.3575267,6.20202667 18.4870933,6.37116867 L18.72292,6.67870933 L18.4870933,6.45892133 C18.1988267,6.19014333 17.5358133,5.66597333 17.38938,5.59103933 C17.2910933,5.540792 17.2765267,5.541666 17.21596,5.60158867 C17.1601467,5.656804 17.14834,5.73977267 17.1406733,6.13203 C17.12856,6.74338533 17.0446867,7.13578067 16.84244,7.52813 C16.73296,7.74034333 16.7156333,7.69504867 16.8146867,7.45552667 C16.8885933,7.27667867 16.8961067,7.19806467 16.8956467,6.606244 C16.89442,5.41712867 16.7524333,5.131254 15.9195267,4.641538 C15.70854,4.517476 15.36078,4.33856667 15.1468647,4.24392933 C14.932934,4.149292 14.76301,4.06686 14.7691893,4.060696 C14.792772,4.037374 15.60504,4.27301667 15.9321,4.39802933 C16.4184733,4.58396133 16.4986667,4.60806533 16.5577,4.58563267 C16.5974133,4.57059067 16.61658,4.45598933 16.6357467,4.11910067 Z" id="Path" fill-rule="nonzero"></path>
                        <path d="M6.92675667,6.153328 C6.34139133,5.35234533 5.97920267,4.12425267 6.05761733,3.2062 L6.08185933,2.922104 L6.215106,2.94626933 C6.46533067,2.99162533 6.89676467,3.15123 7.09878133,3.27319133 C7.65317333,3.607826 7.893186,4.048414 8.137354,5.17976867 C8.208884,5.51115267 8.302724,5.88616 8.34590267,6.01312 C8.41540867,6.21746733 8.678084,6.694794 8.89164667,7.004788 C9.04547067,7.22805667 8.94328933,7.33385667 8.60325733,7.30334333 C8.08396333,7.25676067 7.38054667,6.77425133 6.92675667,6.153328 Z" id="Path" fill-rule="nonzero"></path>
                        <path d="M15.92566,12.1146827 C13.1901013,11.0199593 12.2266313,10.069722 12.2266313,8.46640733 C12.2266313,8.230458 12.234804,8.03741133 12.2447553,8.03741133 C12.254722,8.03741133 12.360568,8.115274 12.4799533,8.21046333 C13.0346827,8.65267667 13.6558667,8.84155267 15.3755,9.09090333 C16.3875,9.23764333 16.95698,9.35617 17.4823,9.529314 C19.1519467,10.0796887 20.1849533,11.196584 20.43136,12.7178653 C20.5029667,13.15991 20.4609533,13.9888607 20.34488,14.4257533 C20.25334,14.77083 19.97366,15.3928267 19.8994467,15.4167467 C19.8789,15.42334 19.8588133,15.3449867 19.8534467,15.2384047 C19.8253867,14.6671613 19.5349733,14.1110367 19.04722,13.6944453 C18.4926133,13.220814 17.7475667,12.843706 15.92566,12.1146827 Z" id="Path" fill-rule="nonzero"></path>
                        <path d="M14.0052367,12.5694693 C13.9709513,12.3667473 13.911504,12.1078593 13.8731247,11.9941627 L13.8033273,11.7874693 L13.9329707,11.9320933 C14.1124013,12.1322547 14.2541733,12.3883673 14.3743407,12.7295033 C14.4660493,12.9898633 14.4763687,13.0672967 14.4757092,13.490374 C14.4749733,13.9057387 14.4635193,13.9928167 14.3788333,14.2271713 C14.2453107,14.5967047 14.0795727,14.858736 13.8014873,15.1399953 C13.301774,15.64552 12.6593073,15.9253533 11.7321927,16.0414267 C11.5710393,16.0615133 11.1013333,16.0955533 10.6883913,16.1168667 C9.64773333,16.1706867 8.96280867,16.2818533 8.34735933,16.4966733 C8.258886,16.5274933 8.17987333,16.5463533 8.171854,16.53838 C8.14695267,16.5136933 8.565982,16.2654467 8.912086,16.0996933 C9.4001,15.8660133 9.885906,15.7385933 10.974358,15.5584267 C11.5120367,15.46934 12.0673027,15.3613933 12.208308,15.3184447 C13.5398393,14.9126787 14.2242887,13.8655653 14.0052367,12.5694693 Z" id="Path" fill-rule="nonzero"></path>
                        <path d="M15.259258,14.7830047 C14.8957967,14.0064327 14.8123373,13.256648 15.011456,12.557402 C15.0327847,12.4826827 15.067024,12.4215333 15.087632,12.4215333 C15.1082247,12.4215333 15.1939993,12.46761 15.2781947,12.523914 C15.4457267,12.6359853 15.78168,12.8247233 16.6765333,13.309686 C17.79326,13.9148467 18.4300533,14.3834333 18.8630667,14.9187967 C19.24226,15.3876133 19.47686,15.9216733 19.5898667,16.57288 C19.6538067,16.9416467 19.61624,17.82914 19.52102,18.2005133 C19.2207933,19.3716733 18.5229733,20.29152 17.5276867,20.82834 C17.3818667,20.907 17.25092,20.9715533 17.2368133,20.9718605 C17.2225533,20.9721667 17.27576,20.8378467 17.35488,20.6734733 C17.6896067,19.9778 17.7277867,19.30114 17.4746333,18.5479667 C17.3196133,18.08674 17.0035933,17.5240067 16.3655733,16.57288 C15.6235933,15.4671933 15.44174,15.1729313 15.259258,14.7830047 Z" id="Path" fill-rule="nonzero"></path>
                        <path d="M4.98403867,18.9730067 C5.99919733,18.1210867 7.26231133,17.51588 8.41287867,17.33004 C8.90874333,17.25 9.73478067,17.28174 10.1939527,17.39858 C10.929968,17.5858 11.588366,18.0051667 11.9307747,18.5047267 C12.2654093,18.99294 12.4089753,19.41844 12.5584447,20.36512 C12.6174167,20.73864 12.6815407,21.11354 12.7009527,21.1984867 C12.813208,21.6891533 13.0316467,22.0812267 13.3023413,22.27826 C13.7322727,22.59106 14.4725967,22.61038 15.200884,22.3280933 C15.324486,22.2801 15.4317733,22.24698 15.4392867,22.2544933 C15.4658133,22.28056 15.0990247,22.5245133 14.8403207,22.6530067 C14.4921927,22.8258133 14.21538,22.8926667 13.847564,22.8926667 C13.1805487,22.8926667 12.6267853,22.5554867 12.1647,21.8677867 C12.073758,21.7323933 11.86938,21.3271333 11.7105113,20.9669533 C11.22262,19.86096 10.981718,19.5240867 10.4152433,19.15532 C9.92226133,18.8345467 9.28649533,18.7770467 8.808218,19.0101133 C8.17995,19.31632 8.00465933,20.1142667 8.45463133,20.61996 C8.63347933,20.82098 8.96697933,20.9942467 9.23968267,21.02798 C9.74986867,21.0911533 10.18831,20.7053667 10.18831,20.1933867 C10.18831,19.86096 10.0597553,19.6712867 9.73614533,19.52608 C9.29414667,19.32782 8.81905867,19.55966 8.821328,19.97228 C8.82230933,20.1483067 8.89940533,20.2587067 9.07688867,20.3385933 C9.190754,20.3898067 9.19339133,20.3937933 9.100548,20.3746267 C8.695012,20.29106 8.60000667,19.8051467 8.92607,19.4825333 C9.31756067,19.0953667 10.1270687,19.26618 10.405062,19.7948733 C10.521856,20.0169 10.5353953,20.4591133 10.433582,20.7260667 C10.2057133,21.32376 9.54125867,21.63794 8.86722067,21.4669733 C8.40830933,21.35044 8.221442,21.2244 7.668154,20.6579867 C6.70672333,19.6735867 6.33347933,19.48284 4.94740733,19.2678667 L4.68180333,19.22662 L4.98403867,18.9730067 Z" id="Path" fill-rule="nonzero"></path>
                        <path d="M0.472853933,1.35544213 C3.68360333,5.22860533 5.89500733,6.82659933 6.14075467,7.16420867 C6.34366067,7.442984 6.26730067,7.69360733 5.919694,7.89002733 C5.72638667,7.99923133 5.328962,8.10987667 5.12998133,8.10987667 C4.904934,8.10987667 4.827654,8.023596 4.827654,8.023596 C4.69716733,7.90057667 4.62367467,7.92208933 3.95354667,6.73984333 C3.023212,5.305042 2.24463133,4.11480733 2.22339467,4.094874 C2.174282,4.04879733 2.17512533,4.050346 3.85869467,7.04433267 C4.130708,7.66835333 3.91279067,7.897418 3.91279067,7.98629 C3.91279067,8.16708533 3.863172,8.26212133 3.63876867,8.51090467 C3.26468133,8.92568667 3.097456,9.39174333 2.97673667,10.3562867 C2.84142,11.437532 2.46087733,12.2013007 1.40630587,13.508498 C0.788995067,14.2736927 0.6879852,14.4139467 0.53222,14.722346 C0.3360208,15.110724 0.282073533,15.328258 0.2602082,15.8186333 C0.2370978,16.3372067 0.282107267,16.67224 0.4414988,17.1679667 C0.5810398,17.6020533 0.726695733,17.8886333 1.0990596,18.4617933 C1.4204064,18.9564467 1.60543067,19.32414 1.60543067,19.4679667 C1.60543067,19.5823533 1.62741867,19.5825067 2.12536867,19.4707267 C3.31702933,19.2033133 4.28465467,18.7328867 4.82885,18.1563533 C5.165662,17.7995467 5.244736,17.6025133 5.24729667,17.1136867 C5.24898333,16.7938333 5.23766733,16.7268267 5.15068133,16.5428267 C5.00909333,16.2433667 4.75132467,15.9943533 4.183194,15.6084133 C3.43880667,15.1026127 3.12085467,14.695436 3.03304067,14.1354627 C2.96098933,13.6759993 3.04457133,13.351822 3.45637867,12.4939833 C3.88261467,11.6060453 3.988246,11.2276647 4.05969933,10.332658 C4.10585267,9.75442267 4.169762,9.52638533 4.33691067,9.343336 C4.51125067,9.15246667 4.66818733,9.08782133 5.09962133,9.02923267 C5.80300733,8.93373667 6.250894,8.75286467 6.61904733,8.41568467 C6.93841,8.12317067 7.07205533,7.84132867 7.092556,7.41704 L7.10813467,7.095454 L6.92965467,6.888638 C6.28333933,6.13963533 0.04002046,0.766666667 0.000246003401,0.766666667 C-0.00825094333,0.766666667 0.204431667,1.0316328 0.472853933,1.35544213 Z M1.968248,16.40544 C2.11437467,16.1481467 2.03672667,15.81756 1.792298,15.6559467 C1.56134733,15.50338 1.20256267,15.5752933 1.20256267,15.7741667 C1.20256267,15.8348867 1.23633127,15.8790467 1.31243673,15.9179933 C1.44058813,15.9834667 1.44989087,16.05722 1.34906193,16.2077933 C1.24695267,16.36036 1.2551928,16.4945267 1.37231953,16.5856067 C1.56108667,16.7325 1.82830067,16.6516933 1.968248,16.40544 Z" id="Shape"></path>
                        <path d="M7.55201933,9.19793 C7.221816,9.29873133 6.900828,9.646568 6.801468,10.0112867 C6.74085533,10.2337887 6.775248,10.6240833 6.86603667,10.7446187 C7.01271533,10.939306 7.154564,10.990596 7.53864867,10.9879127 C8.290626,10.9826993 8.94434733,10.662156 9.02035467,10.2614347 C9.082654,9.93294867 8.79553733,9.47771733 8.40006,9.27786267 C8.19598867,9.17477667 7.761994,9.13388267 7.55201933,9.19793 Z M8.43107933,9.88113733 C8.54704533,9.717362 8.49630733,9.54036933 8.29909,9.420662 C7.9235,9.19271667 7.35552267,9.38134733 7.35552267,9.73399867 C7.35552267,9.90953467 7.65171667,10.1010633 7.92320867,10.1010633 C8.103912,10.1010633 8.351208,9.99396 8.43107933,9.88113733 Z" id="Shape"></path>
                    </g>
                </g>
            </g>
        </g>
    </g>
</svg>