<?xml version="1.0" encoding="UTF-8"?>
<svg width="23px" height="18px" viewBox="0 0 23 18" version="1.1" xmlns="http://www.w3.org/2000/svg" xmlns:xlink="http://www.w3.org/1999/xlink">
    <title>170EBD49-CDB1-4ACF-835F-2F4F1AB3CFAD</title>
    <g id="Web" stroke="none" stroke-width="1" fill="none" fill-rule="evenodd" opacity="0.5">
        <g id="New---Affiliate" transform="translate(-124.000000, -527.000000)" fill="#5A6476" fill-rule="nonzero">
            <g id="folder" transform="translate(124.384925, 527.214286)">
                <path d="M20.0975743,6.8928674 C20.7507079,6.8928674 21.3395988,7.2140806 21.6728575,7.75144354 C21.9833636,8.2535065 22.0124735,8.86799405 21.7499821,9.39531907 L21.7499821,9.39531907 L18.4252581,16.0591548 C18.1298089,16.651057 17.5251919,17.0251366 16.8636935,17.0251366 L16.8636935,17.0251366 L1.39108742,17.0251366 C0.734106021,17.0251366 0.182522725,16.5839703 0.0373075865,15.9934065 L0.0373075865,15.9934065 L3.88383576,7.92844542 C4.17811392,7.2992356 4.83375689,6.8928674 5.55464631,6.8928674 L5.55464631,6.8928674 Z M6.55341866,0.0214142139 C7.00010575,0.0214142139 7.41818483,0.233046864 7.67130756,0.587552495 L7.67130756,0.587552495 L9.10053901,2.58593362 C9.10355041,2.58810853 9.11158074,2.59111989 9.12329161,2.59111989 L9.12329161,2.59111989 L17.1084513,2.59111989 C17.8571122,2.59111989 18.4662463,3.17867238 18.4662463,3.90073291 L18.4662463,3.90073291 L18.4662463,5.65234866 L4.77168912,5.65234866 C4.0506324,5.65234866 3.3948221,6.05888415 3.10087857,6.68792669 L3.10087857,6.68792669 L-4.01456646e-13,13.1891482 L-4.01456646e-13,1.33102723 C-4.01456646e-13,0.608966709 0.609133996,0.0214142139 1.35812962,0.0214142139 L1.35812962,0.0214142139 Z" id="Combined-Shape"></path>
            </g>
        </g>
    </g>
</svg>