<?xml version="1.0" encoding="UTF-8"?>
<svg width="40px" height="30px" viewBox="0 0 40 30" version="1.1" xmlns="http://www.w3.org/2000/svg" xmlns:xlink="http://www.w3.org/1999/xlink">
    <title>icon-mail</title>
    <defs>
        <linearGradient x1="100%" y1="2.56671361%" x2="-8.35398707%" y2="87.7378897%" id="linearGradient-1">
            <stop stop-color="#15B694" offset="0%"></stop>
            <stop stop-color="#4769FF" offset="100%"></stop>
        </linearGradient>
    </defs>
    <g id="Web" stroke="none" stroke-width="1" fill="none" fill-rule="evenodd">
        <g id="New---email-popup" transform="translate(-700.000000, -263.000000)" fill="url(#linearGradient-1)">
            <g id="Group-16" transform="translate(425.000000, 213.709794)">
                <g id="icon-mail" transform="translate(275.000000, 49.290206)">
                    <path d="M14.7736719,17.4225781 C15.0870313,17.16625 15.5403125,17.174375 15.8454688,17.4413281 C16.5982813,18.095625 17.228125,18.6507031 17.6732813,19.051875 C19.0485938,20.2921094 20.9528906,20.2921094 22.325,19.0535156 C22.7717969,18.6515625 23.4017188,18.098125 24.1544531,17.4414062 C24.4620313,17.1760937 24.9145313,17.1679687 25.2270313,17.4226562 C29.0632813,20.5363281 35.4899219,25.1896094 38.9786719,27.6855469 C39.1732031,27.8255469 39.2985156,28.0420312 39.3229688,28.2803906 C39.3465625,28.5188281 39.2667969,28.755625 39.1040625,28.930625 C38.4717188,29.6101562 37.5839063,30 36.6667188,30 L36.6667188,30 L3.33335938,30 C2.41617188,30 1.5275,29.6101562 0.89671875,28.9305469 C0.733125,28.7547656 0.65421875,28.5179687 0.6778125,28.2795312 C0.7021875,28.0410937 0.8275,27.8254687 1.02203125,27.6854687 C4.51648438,25.1846094 10.9503906,20.525625 14.7736719,17.4225781 Z M38.6279687,5.0740625 C38.87375,4.8640625 39.22125,4.81609375 39.5166406,4.95359375 C39.8111719,5.08953125 40.0000781,5.38492187 40.0000781,5.70960937 L40.0000781,5.70960937 L40.0000781,24.7419531 C40.0000781,25.0544531 39.8251562,25.3409375 39.5467969,25.4833594 C39.4271094,25.5452344 39.2969531,25.5753125 39.1667187,25.5753125 C38.995,25.5753125 38.8241406,25.5224219 38.6800781,25.4182812 C35.0676562,22.8189844 30.0652344,19.1617187 26.7457031,16.5030469 C26.5520312,16.3484375 26.4372656,16.1149219 26.4330903,15.8675 C26.4291406,15.6192969 26.5349219,15.3825 26.7228906,15.2213281 C30.2954687,12.1484375 35.0325781,8.12171875 38.6279687,5.0740625 Z M0.4834375,4.95359375 C0.77640625,4.81773438 1.1246875,4.8640625 1.37210938,5.0740625 C4.96742188,8.12171875 9.70539063,12.1484375 13.2780469,15.2213281 C13.4660156,15.3825 13.5717969,15.6192969 13.5678472,15.8675 C13.5636719,16.1148438 13.4489063,16.3484375 13.2552344,16.5030469 C9.9365625,19.1617969 4.93328125,22.8189844 1.32,25.4182813 C1.1759375,25.5225 1.00507813,25.5753906 0.833359375,25.5753906 C0.703125,25.5753906 0.572890625,25.5453125 0.45328125,25.4834375 C0.175,25.3410156 7.9225515e-13,25.0545313 7.9225515e-13,24.7420313 L7.9225515e-13,24.7420313 L7.9225515e-13,5.70960938 C7.9225515e-13,5.38492188 0.188828125,5.08953125 0.4834375,4.95359375 Z M36.6666406,2.18491891e-13 C37.6888281,2.18491891e-13 38.6425781,0.46796875 39.2822656,1.28414063 C39.5589844,1.63734375 39.506875,2.14515625 39.1650781,2.4340625 C33.6751562,7.08335938 24.0421875,15.2636719 21.2085156,17.8165625 C20.8292969,18.1591406 20.4223437,18.3325 20,18.3325 C19.5767969,18.3325 19.1691406,18.1575 18.7890625,17.8132813 C15.9578125,15.2628906 6.32484375,7.08335938 0.835,2.4340625 C0.493203125,2.14515625 0.44109375,1.63734375 0.7178125,1.28421875 C1.35742187,0.46796875 2.31125,2.18491891e-13 3.33335937,2.18491891e-13 L3.33335937,2.18491891e-13 Z" id="Combined-Shape"></path>
                </g>
            </g>
        </g>
    </g>
</svg>