<?xml version="1.0" encoding="UTF-8"?>
<svg width="22px" height="21px" viewBox="0 0 22 21" version="1.1" xmlns="http://www.w3.org/2000/svg" xmlns:xlink="http://www.w3.org/1999/xlink">
    <title>icon-comp</title>
    <g id="Web" stroke="none" stroke-width="1" fill="none" fill-rule="evenodd">
        <g id="Market" transform="translate(-1235.000000, -347.000000)">
            <g id="Group-5-Copy" transform="translate(100.000000, 328.000000)">
                <g id="Group-17" transform="translate(809.000000, 19.000000)">
                    <g id="Group-11-Copy-2" transform="translate(247.750000, 0.000000)">
                        <g id="icon-comp" transform="translate(79.207547, 0.000000)">
                            <circle id="Oval" fill="#070A0E" fill-rule="nonzero" cx="10.0302621" cy="10.19" r="9.96973787"></circle>
                            <path d="M5.60015424,13.713033 C5.28608831,13.5210845 5.09437228,13.179686 5.09394924,12.811608 L5.09394924,10.760328 C5.09428785,10.6025961 5.17884313,10.457055 5.31570093,10.378637 C5.45255873,10.3002189 5.62087804,10.3008656 5.75712924,10.380333 L10.3867892,13.079673 C10.6575902,13.2376143 10.8242036,13.5274288 10.8244304,13.840923 L10.8244304,15.966543 C10.8248354,16.1580913 10.7215593,16.3348637 10.5544974,16.4285718 C10.3874354,16.5222799 10.1827449,16.5182516 10.0194992,16.418043 L5.60015424,13.713033 Z M12.5012792,9.81805799 C12.7720318,9.97607115 12.9385645,10.2659244 12.9387097,10.579413 L12.9387097,14.892288 C12.9389137,15.0195473 12.8702644,15.1369621 12.7592642,15.199203 L11.7455942,15.769878 C11.7326549,15.7769475 11.7189974,15.7826146 11.7048542,15.786783 L11.7048542,13.392048 C11.7047451,13.081802 11.5418901,12.7943546 11.2758242,12.634788 L7.21022424,10.202673 L7.21022424,7.49902799 C7.21056285,7.34129615 7.29511813,7.19575504 7.43197593,7.11733699 C7.56883373,7.03891894 7.73715304,7.03956564 7.87340424,7.11903299 L12.5012792,9.81805799 Z M14.5277792,6.63256799 C14.799652,6.79030843 14.9668696,7.08096848 14.9665746,7.39528799 L14.9665746,13.695288 C14.9658909,13.8246637 14.8946129,13.9433396 14.7807242,14.004723 L13.8203942,14.523423 L13.8203942,10.137783 C13.8202351,9.82823399 13.6579636,9.54138036 13.3927292,9.38178299 L9.23672424,6.88918799 L9.23672424,4.32477299 C9.23693351,4.24708006 9.25722503,4.17076077 9.29562924,4.10322299 C9.41819981,3.89288154 9.6878735,3.82140064 9.89853924,3.94341299 L14.5277792,6.63256799 Z" id="Shape" fill="#00D395"></path>
                        </g>
                    </g>
                </g>
            </g>
        </g>
    </g>
</svg>