<?xml version="1.0" encoding="UTF-8"?>
<svg width="18px" height="11px" viewBox="0 0 18 11" version="1.1" xmlns="http://www.w3.org/2000/svg" xmlns:xlink="http://www.w3.org/1999/xlink">
    <title>B8CF7A4D-088A-4E57-BC41-486510D554EA</title>
    <g id="Web" stroke="none" stroke-width="1" fill="none" fill-rule="evenodd" opacity="0.7">
        <g id="New-pages---2fa" transform="translate(-1241.000000, -875.000000)" fill="#FFFFFF">
            <g id="Group-4" transform="translate(0.000000, 801.000000)">
                <g id="Group-8" transform="translate(100.000000, 35.000000)">
                    <g id="Group-18-Copy" transform="translate(1141.000000, 0.500000)">
                        <g id="Group-17" transform="translate(0.000000, 38.500000)">
                            <path d="M4.95393635,0.876651487 C7.68991985,0.876651487 9.9078727,3.09460434 9.9078727,5.83058784 C9.9078727,8.56657133 7.68991985,10.7845242 4.95393635,10.7845242 C2.21795285,10.7845242 0,8.56657133 0,5.83058784 C0,3.09460434 2.21795285,0.876651487 4.95393635,0.876651487 Z M12.8245394,1.14047058 C14.2249096,1.14047058 15.360134,3.2403076 15.360134,5.83058784 C15.360134,8.42086807 14.2249096,10.5207051 12.8245394,10.5207051 C11.4241691,10.5207051 10.2889447,8.42086807 10.2889447,5.83058784 C10.2889447,3.2403076 11.4241691,1.14047058 12.8245394,1.14047058 Z M16.5912898,1.60948231 C17.0931566,1.60948231 17.5,3.49933562 17.5,5.83058784 C17.5,8.16184005 17.0931566,10.0516934 16.5912898,10.0516934 C16.089423,10.0516934 15.6825796,8.16184005 15.6825796,5.83058784 C15.6825796,3.49933562 16.089423,1.60948231 16.5912898,1.60948231 Z" id="icon-medium"></path>
                        </g>
                    </g>
                </g>
            </g>
        </g>
    </g>
</svg>