<?xml version="1.0" encoding="UTF-8"?>
<svg width="22px" height="21px" viewBox="0 0 22 21" version="1.1" xmlns="http://www.w3.org/2000/svg" xmlns:xlink="http://www.w3.org/1999/xlink">
    <title>icon-snx</title>
    <g id="Web" stroke="none" stroke-width="1" fill="none" fill-rule="evenodd">
        <g id="Market" transform="translate(-1156.000000, -347.000000)" fill-rule="nonzero">
            <g id="Group-5-Copy" transform="translate(100.000000, 328.000000)">
                <g id="Group-17" transform="translate(809.000000, 19.000000)">
                    <g id="Group-11-Copy-2" transform="translate(247.750000, 0.000000)">
                        <g id="icon-snx" transform="translate(0.500000, 0.000000)">
                            <circle id="Oval" fill="#080618" cx="10.0302621" cy="10.19" r="9.96973787"></circle>
                            <g id="Group" transform="translate(5.250000, 3.690000)" fill="#FFFFFF">
                                <path d="M5.5737,5.54 C6.00376413,5.54 6.3524,5.88863587 6.3524,6.3187 C6.3524,6.74876413 6.00376413,7.0974 5.5737,7.0974 L3.5525,7.0974 C1.5949,7.0974 0.0079,5.5104 0.0079,3.5528 C0.0079,1.5952 1.5949,0.00824978222 3.5525,0.00824978222 L8.7651,0.00824978222 C9.04538756,0.00512356731 9.30575393,0.152834796 9.44682269,0.395055386 C9.58789145,0.637275976 9.58789145,0.936624024 9.44682269,1.17884461 C9.30575393,1.4210652 9.04538756,1.56877643 8.7651,1.5656 L3.5525,1.5656 C2.455,1.5656 1.5653,2.4556 1.5653,3.5528 C1.5653,4.65 2.455,5.54 3.5525,5.54 L5.5737,5.54 Z" id="Path"></path>
                                <path d="M3.978,7.097 C3.54793587,7.097 3.1993,6.74836413 3.1993,6.3183 C3.1993,5.88823587 3.54793587,5.5396 3.978,5.5396 L5.9992,5.5396 C7.9568,5.5396 9.5438,7.1266 9.5438,9.0842 C9.5438,11.0418 7.9568,12.6288 5.9992,12.6288 L0.7866,12.6288 C0.356535865,12.6288 0.0079,12.2801641 0.0079,11.8501 C0.0079,11.4200359 0.356535865,11.0714 0.7866,11.0714 L5.9992,11.0714 C7.0967,11.0714 7.9864,10.1814 7.9864,9.0842 C7.9864,7.987 7.0964,7.097 5.9992,7.097 L3.978,7.097 Z" id="Path"></path>
                                <polyline id="Path" fill-opacity="0.5" points="1.4019 12.3146 0.136 11.4076 8.0981 0.296 9.364 1.2031 1.4019 12.3146"></polyline>
                            </g>
                        </g>
                    </g>
                </g>
            </g>
        </g>
    </g>
</svg>