<?xml version="1.0" encoding="UTF-8"?>
<svg width="10px" height="14px" viewBox="0 0 10 14" version="1.1" xmlns="http://www.w3.org/2000/svg" xmlns:xlink="http://www.w3.org/1999/xlink">
    <title>icon-active</title>
    <g id="Web" stroke="none" stroke-width="1" fill="none" fill-rule="evenodd">
        <g id="My-positions" transform="translate(-132.000000, -392.000000)" fill="#15B694" fill-rule="nonzero">
            <g id="Group-7" transform="translate(99.000000, 142.709794)">
                <g id="Group-16-Copy-3" transform="translate(1.000000, 228.500000)">
                    <g id="Group-2" transform="translate(22.250000, 14.000000)">
                        <g id="Group-15-Copy-9" transform="translate(10.000000, 3.500000)">
                            <g id="lightning" transform="translate(0.550000, 3.290206)">
                                <path d="M8.33763,5.15571 C8.28791659,5.06797749 8.19486857,5.01375296 8.09403,5.01375 L4.42603,5.01375 L5.04098,0.31514 C5.05456199,0.185702614 4.97767641,0.0638193002 4.85500964,0.0203294123 C4.73234286,-0.0231604755 4.59585349,0.0230735581 4.52487,0.13216 L0.06419,7.9471 C0.0110752392,8.03349041 0.00882467412,8.14184832 0.0583065648,8.23036964 C0.107788455,8.31889096 0.201267571,8.37373763 0.30268,8.37375 L3.91587,8.37375 L3.42853,13.07943 C3.41867669,13.208374 3.49788926,13.3274627 3.6206192,13.3682181 C3.74334913,13.4089735 3.87806377,13.3609245 3.9473,13.2517 L8.33427,5.4376 C8.38606041,5.35109475 8.38734378,5.24342514 8.33763,5.15571 L8.33763,5.15571 Z" id="icon-active"></path>
                            </g>
                        </g>
                    </g>
                </g>
            </g>
        </g>
    </g>
</svg>