<?xml version="1.0" encoding="UTF-8"?>
<svg width="18px" height="17px" viewBox="0 0 18 17" version="1.1" xmlns="http://www.w3.org/2000/svg" xmlns:xlink="http://www.w3.org/1999/xlink">
    <title>icon-download</title>
    <g id="Web" stroke="none" stroke-width="1" fill="none" fill-rule="evenodd">
        <g id="New---Affiliate" transform="translate(-1177.000000, -641.000000)" fill="#5A6476" fill-rule="nonzero">
            <g id="Group-7-Copy" transform="translate(99.000000, 506.709794)">
                <g id="Group-16" transform="translate(0.500000, 122.533198)">
                    <g id="Group-6" transform="translate(1062.000000, 0.000000)">
                        <g id="icon-download" transform="translate(15.918764, 12.031250)">
                            <path d="M16.4990594,7.6835799 C16.2287012,7.6835799 16.0124147,7.89986646 16.0124147,8.17022465 L16.0124147,12.5968895 C16.0124147,13.8008847 15.0319156,14.7777789 13.8315253,14.7777789 L3.15417894,14.7777789 C1.95018378,14.7777789 0.973289502,13.7972799 0.973289502,12.5968895 L0.973289502,8.09812913 C0.973289502,7.82777094 0.757002946,7.61148438 0.486644751,7.61148438 C0.216286556,7.61148438 0,7.82777094 0,8.09812913 L0,12.5968895 C0,14.3379963 1.41667694,15.7510684 3.15417894,15.7510684 L13.8315253,15.7510684 C15.572632,15.7510684 16.9857042,14.3343915 16.9857042,12.5968895 L16.9857042,8.17022465 C16.9857042,7.90347123 16.7694176,7.6835799 16.4990594,7.6835799 Z" id="Path"></path>
                            <path d="M8.15039838,11.8867486 C8.24412256,11.9804728 8.37028972,12.0309397 8.4928521,12.0309397 C8.61541448,12.0309397 8.74158164,11.9840776 8.83530581,11.8867486 L11.9282036,8.79385089 C12.1192567,8.60279776 12.1192567,8.29639181 11.9282036,8.10533868 C11.7371504,7.91428556 11.4307445,7.91428556 11.2396914,8.10533868 L8.97949685,10.369138 L8.97949685,0.495656691 C8.97949685,0.225298496 8.76321029,0.00901193983 8.4928521,0.00901193983 C8.2224939,0.00901193983 8.00620735,0.225298496 8.00620735,0.495656691 L8.00620735,10.369138 L5.74240806,8.10533868 C5.55135494,7.91428556 5.24494898,7.91428556 5.05389586,8.10533868 C4.86284273,8.29639181 4.86284273,8.60279776 5.05389586,8.79385089 L8.15039838,11.8867486 Z" id="Path"></path>
                        </g>
                    </g>
                </g>
            </g>
        </g>
    </g>
</svg>