<?xml version="1.0" encoding="UTF-8"?>
<svg width="22px" height="20px" viewBox="0 0 22 20" version="1.1" xmlns="http://www.w3.org/2000/svg" xmlns:xlink="http://www.w3.org/1999/xlink">
    <title>512EA814-202D-4BCB-B991-84ED751EEBD9</title>
    <g id="Web" stroke="none" stroke-width="1" fill="none" fill-rule="evenodd" opacity="0.899999976">
        <g id="New---My-account-[connected]" transform="translate(-1305.000000, -23.000000)">
            <g id="Group-7" transform="translate(99.000000, 21.709794)">
                <g id="Group-16-Copy" transform="translate(1.000000, 0.500000)">
                    <g id="Group-15-Copy-5" transform="translate(1082.000000, 0.500000)">
                        <g id="Group-21" transform="translate(0.000000, 0.290206)">
                            <g id="icon-metamask" transform="translate(123.000000, 0.000000)">
                                <polygon id="Path-16" fill="#CDBDB2" points="6.1875 17.6458333 8.99479167 18.390625 8.99479167 17.4166667 9.22395833 17.1875 10.828125 17.1875 10.828125 18.3333333 10.828125 19.1354167 9.109375 19.1354167 6.98958333 18.21875"></polygon>
                                <polygon id="Path-16-Copy" fill="#CDBDB2" transform="translate(13.062500, 18.161458) scale(-1, 1) translate(-13.062500, -18.161458) " points="10.7708333 17.6458333 13.5208333 18.390625 13.5208333 17.4166667 13.75 17.1875 15.3541667 17.1875 15.3541667 18.3333333 15.3541667 19.1354167 13.6354167 19.1354167 11.515625 18.21875"></polygon>
                                <polygon id="Path-17" fill="#393939" points="9.22395833 15.5260417 8.99479167 17.4166667 9.28125 17.1875 12.2604167 17.1875 12.6041667 17.4166667 12.375 15.5260417 11.9166667 15.2395833 9.625 15.296875"></polygon>
                                <polygon id="Path-20" fill="#F89C35" points="7.67708333 2.75 9.05208333 5.95833333 9.68229167 15.296875 11.9166667 15.296875 12.6041667 5.95833333 13.8645833 2.75"></polygon>
                                <g id="face/left">
                                    <polygon id="Path-15" fill="#F89D35" points="1.66145833 9.796875 0.0572916667 14.4375 4.06770833 14.2083333 6.64583333 14.2083333 6.64583333 12.203125 6.53125 8.078125 5.95833333 8.53645833"></polygon>
                                    <polygon id="Path-8" fill="#D87C30" points="4.69791667 10.3125 9.39583333 10.4270833 8.88020833 12.8333333 6.64583333 12.2604167"></polygon>
                                    <polygon id="Path-9" fill="#EA8D3A" points="4.69791667 10.3697917 6.64583333 12.203125 6.64583333 14.0364583"></polygon>
                                    <polygon id="Path-10" fill="#F89D35" points="6.64583333 12.2604167 8.9375 12.8333333 9.68229167 15.296875 9.16666667 15.5833333 6.64583333 14.09375"></polygon>
                                    <polygon id="Path-11" fill="#EB8F35" points="6.64583333 14.09375 6.1875 17.6458333 9.22395833 15.5260417"></polygon>
                                    <polygon id="Path-12" fill="#EA8E3A" points="9.39583333 10.4270833 9.68229167 15.296875 8.82291667 12.8046875"></polygon>
                                    <polygon id="Path-13" fill="#D87C30" points="4.01041667 14.1510417 6.64583333 14.09375 6.1875 17.6458333"></polygon>
                                    <polygon id="Path-14" fill="#EB8F35" points="1.31770833 19.1927083 6.1875 17.6458333 4.01041667 14.1510417 0.0572916667 14.4375"></polygon>
                                    <polygon id="Path-7" fill="#E8821E" points="9.05208333 5.95833333 6.58854167 8.02083333 4.69791667 10.3125 9.39583333 10.484375"></polygon>
                                    <polygon id="Path-18" fill="#DFCEC3" points="6.1875 17.6458333 9.22395833 15.5260417 8.99479167 17.359375 8.99479167 18.390625 6.93229167 17.9895833"></polygon>
                                    <polygon id="Path-18-Copy" fill="#DFCEC3" transform="translate(13.864583, 16.958333) scale(-1, 1) translate(-13.864583, -16.958333) " points="12.375 17.6458333 15.3541667 15.5260417 15.125 17.359375 15.125 18.390625 13.0625 17.9895833"></polygon>
                                    <polygon id="Path-19-Copy" fill="#393939" transform="translate(7.648437, 12.117187) scale(-1, 1) translate(-7.648437, -12.117187) " points="7.16145833 11.4583333 6.53125 12.7760417 8.765625 12.203125"></polygon>
                                    <polygon id="Path-21" fill="#E88F35" points="1.26041667 0.0572916667 9.05208333 5.95833333 7.734375 2.75"></polygon>
                                    <path d="M1.26041667,0.0572916667 L0.229166667,3.20833333 L0.802083333,6.64583333 L0.401041667,6.875 L0.973958333,7.390625 L0.515625,7.79166667 L1.14583333,8.36458333 L0.744791667,8.70833333 L1.66145833,9.85416667 L5.95833333,8.53645833 C8.05902778,6.85590278 9.09027778,5.99652778 9.05208333,5.95833333 C9.01388889,5.92013889 6.41666667,3.953125 1.26041667,0.0572916667 Z" id="Path-22" fill="#8E5A30"></path>
                                </g>
                                <g id="face/left-copy" transform="translate(16.541667, 10.000000) scale(-1, 1) translate(-16.541667, -10.000000) translate(11.541667, 0.000000)">
                                    <polygon id="Path-15" fill="#F89D35" points="1.66145833 9.796875 0.0572916667 14.4375 4.06770833 14.2083333 6.64583333 14.2083333 6.64583333 12.203125 6.53125 8.078125 5.95833333 8.53645833"></polygon>
                                    <polygon id="Path-8" fill="#D87C30" points="4.69791667 10.3125 9.39583333 10.4270833 8.88020833 12.8333333 6.64583333 12.2604167"></polygon>
                                    <polygon id="Path-9" fill="#EA8D3A" points="4.69791667 10.3697917 6.64583333 12.203125 6.64583333 14.0364583"></polygon>
                                    <polygon id="Path-10" fill="#F89D35" points="6.64583333 12.2604167 8.9375 12.8333333 9.68229167 15.296875 9.16666667 15.5833333 6.64583333 14.09375"></polygon>
                                    <polygon id="Path-11" fill="#EB8F35" points="6.64583333 14.09375 6.1875 17.6458333 9.16666667 15.5833333"></polygon>
                                    <polygon id="Path-12" fill="#EA8E3A" points="9.39583333 10.4270833 9.68229167 15.296875 8.82291667 12.8046875"></polygon>
                                    <polygon id="Path-13" fill="#D87C30" points="4.01041667 14.1510417 6.64583333 14.09375 6.1875 17.6458333"></polygon>
                                    <polygon id="Path-14" fill="#EB8F35" points="1.31770833 19.1927083 6.1875 17.6458333 4.01041667 14.1510417 0.0572916667 14.4375"></polygon>
                                    <polygon id="Path-7" fill="#E8821E" points="9.05208333 5.95833333 6.58854167 8.02083333 4.69791667 10.3125 9.39583333 10.484375"></polygon>
                                    <polygon id="Path-19-Copy" fill="#393939" transform="translate(7.648438, 12.117187) scale(-1, 1) translate(-7.648438, -12.117187) " points="7.16145833 11.4583333 6.53125 12.7760417 8.765625 12.203125"></polygon>
                                    <polygon id="Path-21" fill="#E88F35" points="1.26041667 0.0572916667 9.05208333 5.95833333 7.734375 2.75"></polygon>
                                    <path d="M1.26041667,0.0572916667 L0.229166667,3.20833333 L0.802083333,6.64583333 L0.401041667,6.875 L0.973958333,7.390625 L0.515625,7.79166667 L1.14583333,8.36458333 L0.744791667,8.70833333 L1.66145833,9.85416667 L5.95833333,8.53645833 C8.05902778,6.85590278 9.09027778,5.99652778 9.05208333,5.95833333 C9.01388889,5.92013889 6.41666667,3.953125 1.26041667,0.0572916667 Z" id="Path-22" fill="#8E5A30"></path>
                                </g>
                            </g>
                        </g>
                    </g>
                </g>
            </g>
        </g>
    </g>
</svg>