<?xml version="1.0" encoding="UTF-8"?>
<svg width="13px" height="16px" viewBox="0 0 13 16" version="1.1" xmlns="http://www.w3.org/2000/svg" xmlns:xlink="http://www.w3.org/1999/xlink">
    <title>icon-notify</title>
    <g id="Web" stroke="none" stroke-width="1" fill="none" fill-rule="evenodd">
        <g id="Market-confirmation-step-1" transform="translate(-127.000000, -306.000000)" fill="#A4ABB7" fill-rule="nonzero">
            <g id="Group-7" transform="translate(100.000000, 141.000000)">
                <g id="Group-20" transform="translate(24.000000, 162.790206)">
                    <g id="alarm-(1)" transform="translate(3.000000, 2.209794)">
                        <path d="M7.97569029,13.9356493 C7.97569029,14.8156117 7.26295585,15.5283088 6.38303079,15.5283088 C5.50310573,15.5283088 4.79037129,14.8156117 4.79040862,13.9356493 L4.79040862,13.9356493 Z M6.38303079,6.92779167e-14 C7.04399176,6.92779167e-14 7.57751608,0.533524322 7.57751608,1.19448529 L7.57751608,1.19448529 L7.57751608,1.73596041 C9.858983,2.27747285 11.160972,4.3200427 11.160972,6.76873756 L11.160972,6.76873756 L11.160972,10.7503676 L12.7535941,12.3430271 L12.7535941,13.1393382 L0.0124301126,13.1393382 L0.0124301126,12.3430271 L1.60508961,10.7503676 L1.60508961,6.76877489 C1.60508961,4.32008003 2.90707858,2.27751018 5.1885455,1.73599774 L5.1885455,1.73599774 L5.1885455,1.19448529 C5.1885455,0.533524322 5.72206982,6.92779167e-14 6.38303079,6.92779167e-14 Z" id="icon-notify"></path>
                    </g>
                </g>
            </g>
        </g>
    </g>
</svg>