<?xml version="1.0" encoding="UTF-8"?>
<svg width="25px" height="25px" viewBox="0 0 25 25" version="1.1" xmlns="http://www.w3.org/2000/svg" xmlns:xlink="http://www.w3.org/1999/xlink">
    <title>icon-confirmation</title>
    <g id="Web" stroke="none" stroke-width="1" fill="none" fill-rule="evenodd">
        <g id="Market-confirmation-step-1" transform="translate(-121.000000, -158.000000)" fill="#15B694">
            <g id="Group-7" transform="translate(100.000000, 141.000000)">
                <g id="icon-confirmation" transform="translate(21.000000, 17.000000)">
                    <path d="M3.50694478,0.50694478 L21.5095711,0.50694478 C23.1664254,0.50694478 24.5095711,1.85009053 24.5095711,3.50694478 L24.5095711,21.5095711 C24.5095711,23.1664254 23.1664254,24.5095711 21.5095711,24.5095711 L3.50694478,24.5095711 C1.85009053,24.5095711 0.50694478,23.1664254 0.50694478,21.5095711 L0.50694478,3.50694478 C0.50694478,1.85009053 1.85009053,0.50694478 3.50694478,0.50694478 Z" id="Rectangle" opacity="0.281784784" transform="translate(12.508258, 12.508258) rotate(450.000000) translate(-12.508258, -12.508258) "></path>
                    <path d="M11.2664941,16.4673159 C11.1652531,16.5691519 11.0271251,16.6259698 10.8836426,16.6259698 C10.74016,16.6259698 10.602032,16.5691519 10.500791,16.4673159 L7.44323391,13.4092631 C7.12592622,13.0919554 7.12592622,12.5774211 7.44323391,12.2607084 L7.82608547,11.8777577 C8.14349234,11.56045 8.65743162,11.56045 8.97473931,11.8777577 L10.8836426,13.7867601 L16.0417766,8.62852688 C16.3591834,8.31121919 16.8736185,8.31121919 17.1904304,8.62852688 L17.573282,9.01147762 C17.8905897,9.32878531 17.8905897,9.84322038 17.573282,10.1600323 L11.2664941,16.4673159 Z" id="Path" fill-rule="nonzero"></path>
                </g>
            </g>
        </g>
    </g>
</svg>