<?xml version="1.0" encoding="UTF-8"?>
<svg width="19px" height="18px" viewBox="0 0 19 18" version="1.1" xmlns="http://www.w3.org/2000/svg" xmlns:xlink="http://www.w3.org/1999/xlink">
    <title>492C5FF7-449B-4263-B0B7-76B10260C670</title>
    <g id="Web" stroke="none" stroke-width="1" fill="none" fill-rule="evenodd">
        <g id="New-pages---quick-buy-step-1" transform="translate(-1177.000000, -323.000000)" fill-rule="nonzero">
            <g id="Group-11" transform="translate(919.000000, 118.000000)">
                <g id="Group-2-Copy-4" transform="translate(21.000000, 172.103193)">
                    <g id="Group-9-Copy-6" transform="translate(229.500000, 23.000000)">
                        <g id="Group-13" transform="translate(6.000000, 7.500000)">
                            <g id="litecoin-ltc-logo" transform="translate(2.465199, 2.465199)">
                                <circle id="Oval" fill="#FFFFFF" cx="8.95662651" cy="8.95662651" r="7.98722892"></circle>
                                <path d="M8.95662651,0 C4.01001828,0 0,4.01001828 0,8.95662651 C0,13.9032347 4.01001828,17.913253 8.95662651,17.913253 C13.9032347,17.913253 17.9132911,13.9032347 17.9132911,8.95662651 L17.9132911,8.95662651 C17.9201651,6.58808043 16.9858876,4.31379911 15.3159531,2.63410363 C13.6460185,0.954408143 11.3772208,0.0068919721 9.0086747,0 L8.95662651,0 Z M9.10843373,9.26024096 L8.17590361,12.4048193 L13.1638554,12.4048193 C13.2305857,12.4024785 13.2955091,12.4267628 13.3443227,12.4723221 C13.3931362,12.5178814 13.421835,12.5809778 13.4240964,12.6477108 L13.4240964,12.7301205 L12.9903614,14.226506 C12.9509729,14.3722549 12.8159087,14.4713021 12.6650602,14.4650602 L5.0313253,14.4650602 L6.31084337,10.1060241 L4.87951807,10.539759 L5.20481928,9.54216867 L6.63614458,9.10843373 L8.43614458,2.99277108 C8.47691722,2.84797648 8.61109152,2.74958199 8.76144578,2.75421687 L10.6915663,2.75421687 C10.7582966,2.7518761 10.82322,2.77616035 10.8720335,2.82171966 C10.9208471,2.86727897 10.9495458,2.93037539 10.9518072,2.99710843 L10.9518072,3.07951807 L9.43373494,8.24096386 L10.8650602,7.80722892 L10.5614458,8.84819277 L9.10843373,9.26024096 Z" id="Shape" fill="#345D9D"></path>
                            </g>
                        </g>
                    </g>
                </g>
            </g>
        </g>
    </g>
</svg>