<?xml version="1.0" encoding="UTF-8"?>
<svg width="120px" height="35px" viewBox="0 0 120 35" version="1.1" xmlns="http://www.w3.org/2000/svg" xmlns:xlink="http://www.w3.org/1999/xlink">
    <title>logo</title>
    <g id="Web" stroke="none" stroke-width="1" fill="none" fill-rule="evenodd">
        <g id="Market" transform="translate(-100.000000, -15.000000)" fill-rule="nonzero">
            <g id="logo" transform="translate(100.000000, 15.000000)">
                <path d="M36.1238839,24.4970829 L36.1238839,19.6935845 L39.2811129,19.6935845 C41.0251061,19.6935845 42.3368596,19.2275173 43.2163734,18.295383 C44.0958872,17.3632488 44.5356441,16.0101506 44.5356441,14.2360886 C44.5356441,10.7781711 42.7841337,9.04921234 39.2811129,9.04921234 L39.2811129,9.04921234 L33.6206523,9.04921234 L33.6206523,24.4970829 L36.1238839,24.4970829 Z M39.2585613,17.5286274 L36.1238839,17.5286274 L36.1238839,11.2141694 L39.2585613,11.2141694 C40.1906956,11.2141694 40.8747619,11.4547202 41.3107602,11.9358217 C41.7467585,12.4169233 41.9647576,13.1836789 41.9647576,14.2360886 C41.9647576,16.4311145 41.0626922,17.5286274 39.2585613,17.5286274 L39.2585613,17.5286274 Z M49.7769096,24.4970829 L49.7769096,16.626562 L50.2730456,16.4235973 C51.1901454,16.0176678 52.2951756,15.6869105 53.588136,15.4313253 L53.588136,15.4313253 L53.588136,12.973197 C52.31021,13.2137478 51.032284,13.7474698 49.7543579,14.5743631 L49.7543579,14.5743631 L49.7543579,13.221265 L47.3187813,13.221265 L47.3187813,24.4970829 L49.7769096,24.4970829 Z M60.5207742,24.7451509 C62.3700083,24.7451509 63.670486,24.2490149 64.4222072,23.2567429 C65.1739284,22.2644709 65.549789,20.7910974 65.549789,18.8366223 C65.549789,16.8821472 65.1626526,15.4162909 64.3883798,14.4390533 C63.6141069,13.4618157 62.3249051,12.973197 60.5207742,12.973197 C58.7166433,12.973197 57.4236829,13.4618157 56.6418928,14.4390533 C55.8751372,15.4162909 55.4917594,16.8821472 55.4917594,18.8366223 C55.4917594,20.7910974 55.86762,22.2644709 56.6193412,23.2567429 C57.3710624,24.2490149 58.6715401,24.7451509 60.5207742,24.7451509 Z M60.5207742,22.6704004 C59.5134678,22.6704004 58.8369187,22.3697119 58.491127,21.768335 C58.1453352,21.166958 57.9724394,20.1822032 57.9724394,18.8140707 C57.9724394,17.4459381 58.1566111,16.4762177 58.5249544,15.9049096 C58.8932978,15.3336015 59.5585711,15.0479475 60.5207742,15.0479475 C61.4829773,15.0479475 62.1482506,15.3336015 62.516594,15.9049096 C62.8849374,16.4762177 63.0691091,17.4459381 63.0691091,18.8140707 C63.0691091,20.1822032 62.8962132,21.166958 62.5504214,21.768335 C62.2046297,22.3697119 61.5280806,22.6704004 60.5207742,22.6704004 Z M72.3922206,24.7451509 C73.8505597,24.7451509 74.9593485,24.467014 75.7185869,23.9107404 C76.4778253,23.3544667 76.8574445,22.4824701 76.8574445,21.2947506 C76.8574445,20.1070311 76.5943421,19.2801378 76.0681373,18.8140707 C75.5419324,18.3480035 74.6511428,18.0059704 73.3957684,17.7879712 C72.140394,17.5699721 71.3435696,17.3782832 71.005295,17.2129045 C70.6670205,17.0475258 70.4978832,16.7618718 70.4978832,16.3559423 C70.4978832,15.9500129 70.6519861,15.653083 70.9601918,15.4651527 C71.2683974,15.2772224 71.8209125,15.1832573 72.617737,15.1832573 C73.4145615,15.1832573 74.7000047,15.3035327 76.4740667,15.5440835 L76.4740667,15.5440835 L76.51917,13.4918846 L75.8200693,13.3565748 C74.4218679,13.116024 73.2416656,12.9957486 72.2794624,12.9957486 C71.0466397,12.9957486 70.0355747,13.2814027 69.2462674,13.8527108 C68.4569602,14.4240189 68.0623065,15.2884983 68.0623065,16.4461489 C68.0623065,17.6037995 68.3479606,18.400624 68.9192687,18.8366223 C69.4905768,19.2726206 70.3888836,19.5921021 71.6141892,19.7950668 C72.8394947,19.9980315 73.6137676,20.1859618 73.9370077,20.3588577 C74.2602478,20.5317536 74.4218679,20.8437179 74.4218679,21.2947506 C74.4218679,21.7457833 74.2527306,22.0690234 73.914456,22.2644709 C73.5761815,22.4599185 73.008632,22.5576422 72.2118075,22.5576422 C71.4149831,22.5576422 70.1145054,22.4373668 68.3103745,22.196816 L68.3103745,22.196816 L68.220168,24.2490149 L68.9192687,24.3617731 C70.3174701,24.6173583 71.4751208,24.7451509 72.3922206,24.7451509 Z M85.3010423,24.4970829 L87.0600699,16.7618718 L88.8190975,24.4970829 L92.7205305,24.4970829 L95.1110039,13.221265 L92.6754272,13.221265 L90.9163996,22.3997808 L90.4653669,22.3997808 L88.3229615,13.4467813 L85.7971783,13.4467813 L83.6547729,22.3997808 L83.2037402,22.3997808 L81.4221609,13.221265 L79.0091359,13.221265 L81.3996093,24.4970829 L85.3010423,24.4970829 Z M107.140312,24.7451509 L107.207967,22.8733651 C106.877209,22.8282618 106.6329,22.7267795 106.475039,22.568918 C106.317177,22.4110566 106.230729,22.1667472 106.215695,21.8359899 L106.215695,21.8359899 L106.215695,16.6942169 C106.215695,15.4012564 105.911248,14.4578463 105.302353,13.8639866 C104.693459,13.2701268 103.701187,12.973197 102.325538,12.973197 C100.949888,12.973197 99.4426867,13.1686445 97.8039345,13.5595395 L97.8039345,13.5595395 L97.8941411,15.2960155 L98.6157934,15.2509122 C100.059098,15.1306368 101.261852,15.0704991 102.224055,15.0704991 C102.735226,15.0704991 103.122362,15.1907745 103.385464,15.4313253 C103.648567,15.6718761 103.780118,16.0928399 103.780118,16.6942169 L103.780118,16.6942169 L103.780118,17.5060758 L100.870957,17.7541438 C99.6080654,17.8593847 98.6721725,18.1675904 98.0632783,18.6787608 C97.4543842,19.1899313 97.1499371,20.0168246 97.1499371,21.1594408 C97.1499371,23.5499142 98.2700017,24.7451509 100.510131,24.7451509 C101.727919,24.7451509 102.93819,24.467014 104.140944,23.9107404 C104.847562,24.467014 105.847351,24.7451509 107.140312,24.7451509 L107.140312,24.7451509 Z M100.983715,22.7380553 C100.066615,22.7380553 99.6080654,22.2193677 99.6080654,21.1819924 C99.6080654,20.1446172 100.126753,19.5808263 101.164128,19.4906197 L101.164128,19.4906197 L103.780118,19.2425517 L103.780118,22.2419193 L103.374189,22.3772291 C102.532261,22.6177799 101.735436,22.7380553 100.983715,22.7380553 Z M112.426681,29.3456846 L112.426681,24.5421862 C113.238539,24.677496 113.952675,24.7451509 114.569086,24.7451509 C116.358182,24.7451509 117.647384,24.3091526 118.436691,23.437156 C119.225999,22.5651594 119.620652,21.0579584 119.620652,18.915553 C119.620652,16.7731476 119.274861,15.2471536 118.583277,14.3375709 C117.891694,13.4279883 116.801698,12.973197 115.31329,12.973197 C114.411224,12.973197 113.441504,13.2889199 112.404129,13.9203657 L112.404129,13.9203657 L112.404129,13.221265 L109.968552,13.221265 L109.968552,29.3456846 L112.426681,29.3456846 Z M114.411224,22.6252971 C113.689572,22.6252971 113.028057,22.5651594 112.426681,22.444884 L112.426681,22.444884 L112.426681,15.7921515 L112.764955,15.63429 C113.471573,15.3185671 114.178191,15.1607057 114.884809,15.1607057 C116.373217,15.1607057 117.117421,16.3559423 117.117421,18.7464157 C117.117421,20.1596516 116.921973,21.1594408 116.531078,21.7457833 C116.140183,22.3321258 115.433565,22.6252971 114.411224,22.6252971 Z" id="Proswap" fill="#0B1535"></path>
                <g id="Group-3">
                    <path d="M10.6173856,9.95267906 C11.7286636,8.84140107 13.5304012,8.84140107 14.6416792,9.95267906 L14.6416792,9.95267906 L24.4256063,19.7366062 C25.5368843,20.8478842 25.5368843,22.6496218 24.4256063,23.7608998 L24.4256063,23.7608998 L14.6416792,33.5448269 C13.5304012,34.6561049 11.7286636,34.6561049 10.6173856,33.5448269 L10.6173856,33.5448269 L0.833458494,23.7608998 C-0.277819498,22.6496218 -0.277819498,20.8478842 0.833458494,19.7366062 L0.833458494,19.7366062 L4.603,15.9662206 L5.828,17.1912206 L2.0582435,20.9613912 C1.65445616,21.3651785 1.6256142,22.0019271 1.97171764,22.4389946 L2.0582435,22.5361148 L11.8421706,32.3200419 C12.2770185,32.7548898 12.9820463,32.7548898 13.4168942,32.3200419 L13.4168942,32.3200419 L23.2008213,22.5361148 C23.6356692,22.1012669 23.6356692,21.3962391 23.2008213,20.9613912 L23.2008213,20.9613912 L13.4168942,11.1774641 C12.9820463,10.7426162 12.2770185,10.7426162 11.8421706,11.1774641 L11.8421706,11.1774641 L7.093,15.9262206 L5.868,14.7012206 Z" id="Combined-Shape" fill="#4769FF"></path>
                    <path d="M10.6173856,0.833458494 C11.7286636,-0.277819498 13.5304012,-0.277819498 14.6416792,0.833458494 L14.6416792,0.833458494 L24.4256063,10.6173856 C25.5368843,11.7286636 25.5368843,13.5304012 24.4256063,14.6416792 L24.4256063,14.6416792 L21.878,17.189 L20.653,15.964 L23.2008213,13.4168942 C23.6046087,13.0131069 23.6334506,12.3763583 23.2873472,11.9392908 L23.2008213,11.8421706 L13.4168942,2.0582435 C12.9820463,1.62339559 12.2770185,1.62339559 11.8421706,2.0582435 L11.8421706,2.0582435 L2.0582435,11.8421706 C1.62339559,12.2770185 1.62339559,12.9820463 2.0582435,13.4168942 L2.0582435,13.4168942 L11.8421706,23.2008213 C12.2770185,23.6356692 12.9820463,23.6356692 13.4168942,23.2008213 L13.4168942,23.2008213 L18.168,18.448 L19.393,19.673 L14.6416792,24.4256063 C13.5748523,25.4924332 11.8716979,25.5351063 10.7539648,24.5536255 L10.6173856,24.4256063 L0.833458494,14.6416792 C-0.277819498,13.5304012 -0.277819498,11.7286636 0.833458494,10.6173856 L0.833458494,10.6173856 Z" id="Combined-Shape" fill="#15B694"></path>
                </g>
            </g>
        </g>
    </g>
</svg>