<?xml version="1.0" encoding="UTF-8"?>
<svg width="10px" height="13px" viewBox="0 0 10 13" version="1.1" xmlns="http://www.w3.org/2000/svg" xmlns:xlink="http://www.w3.org/1999/xlink">
    <title>7E059E11-13FA-4CD3-88BD-9D5EC5DB43AC</title>
    <g id="Web" stroke="none" stroke-width="1" fill="none" fill-rule="evenodd">
        <g id="New-pages---my-profile" transform="translate(-1220.000000, -172.000000)" fill="#FFFFFF" fill-rule="nonzero">
            <g id="Group-14" transform="translate(1069.000000, 49.709794)">
                <g id="Group-19" transform="translate(24.000000, 108.709794)">
                    <g id="Group-8-Copy-3" transform="translate(115.000000, 0.000000)">
                        <path d="M22.2073756,19.5681557 L18.1566424,15.554157 C18.0410114,15.4395772 17.8868975,15.3766848 17.7225701,15.3766848 C17.5580604,15.3766848 17.4040377,15.4396675 17.2884066,15.554157 L16.9206307,15.9186799 C16.8050909,16.033079 16.7414391,16.1858822 16.7414391,16.348806 C16.7414391,16.5116395 16.8050909,16.6695934 16.9206307,16.7839925 L19.2837712,19.1308006 L11.7759624,19.1308006 C11.437459,19.1308006 11.1699938,19.3933944 11.1699938,19.7289109 L11.1699938,20.244249 C11.1699938,20.5797655 11.437459,20.8688356 11.7759624,20.8688356 L19.3105816,20.8688356 L16.9207219,23.2287462 C16.8051821,23.3433261 16.7415303,23.4919726 16.7415303,23.6548964 C16.7415303,23.8176395 16.8051821,23.9684548 16.9207219,24.0829443 L17.2884978,24.4462924 C17.4041289,24.5608722 17.5581516,24.6233128 17.7226613,24.6233128 C17.8869887,24.6233128 18.0411026,24.560059 18.1567336,24.4454792 L22.2074668,20.4315708 C22.3233714,20.3166295 22.3871144,20.1631937 22.3866633,20.0000892 C22.3870232,19.8364424 22.3233714,19.6829163 22.2073756,19.5681557 Z" id="Path" transform="translate(16.778329, 19.999999) scale(1, -1) rotate(90.000000) translate(-16.778329, -19.999999) "></path>
                    </g>
                </g>
            </g>
        </g>
    </g>
</svg>