<?xml version="1.0" encoding="UTF-8"?>
<svg width="526px" height="251px" viewBox="0 0 526 251" version="1.1" xmlns="http://www.w3.org/2000/svg" xmlns:xlink="http://www.w3.org/1999/xlink">
    <title>pattern-proswap</title>
    <g id="pattern-proswap" stroke="none" stroke-width="1" fill="none" fill-rule="evenodd" opacity="0.551042624">
        <g id="Group-12" transform="translate(-61.000000, 0.000000)" fill="#FFFFFF" fill-rule="nonzero">
            <g id="Group-3-Copy" opacity="0.0948428883" transform="translate(181.666667, 111.000000)">
                <path d="M43.1979701,40.4935404 C47.7193236,35.9721869 55.049886,35.9721869 59.5712395,40.4935404 L59.5712395,40.4935404 L99.3781945,80.3004954 C103.899548,84.8218489 103.899548,92.1524113 99.3781945,96.6737648 L99.3781945,96.6737648 L59.5712395,136.48072 C55.049886,141.002073 47.7193236,141.002073 43.1979701,136.48072 L43.1979701,136.48072 L3.39101512,96.6737648 C-1.13033837,92.1524113 -1.13033837,84.8218489 3.39101512,80.3004954 L3.39101512,80.3004954 L18.73,64.9615253 L23.713,69.9445253 L8.37418406,85.2836643 C6.66024707,86.9976013 6.60668654,89.743164 8.21350247,91.5215776 L8.37418406,91.6905958 L48.1811391,131.497551 C49.9503644,133.266776 52.8188453,133.266776 54.5880706,131.497551 L54.5880706,131.497551 L94.3950256,91.6905958 C96.1642509,89.9213706 96.1642509,87.0528896 94.3950256,85.2836643 L94.3950256,85.2836643 L54.5880706,45.4767093 C52.8188453,43.707484 49.9503644,43.707484 48.1811391,45.4767093 L48.1811391,45.4767093 L28.86,64.7985253 L23.876,59.8145253 Z" id="Combined-Shape"></path>
                <path d="M43.1979701,3.39101512 C47.7193236,-1.13033837 55.049886,-1.13033837 59.5712395,3.39101512 L59.5712395,3.39101512 L99.3781945,43.1979701 C103.899548,47.7193236 103.899548,55.049886 99.3781945,59.5712395 L99.3781945,59.5712395 L89.013,69.936 L84.03,64.953 L94.3950256,54.5880706 C96.1089626,52.8741336 96.1625231,50.1285709 94.5557072,48.3501573 L94.3950256,48.1811391 L54.5880706,8.37418406 C52.8188453,6.60495878 49.9503644,6.60495878 48.1811391,8.37418406 L48.1811391,8.37418406 L8.37418406,48.1811391 C6.60495878,49.9503644 6.60495878,52.8188453 8.37418406,54.5880706 L8.37418406,54.5880706 L48.1811391,94.3950256 C49.9503644,96.1642509 52.8188453,96.1642509 54.5880706,94.3950256 L54.5880706,94.3950256 L73.922,75.061 L78.905,80.044 L59.5712395,99.3781945 C55.1265191,103.822915 47.9670103,103.898249 43.4302631,99.6041973 L43.1979701,99.3781945 L3.39101512,59.5712395 C-1.13033837,55.049886 -1.13033837,47.7193236 3.39101512,43.1979701 L3.39101512,43.1979701 Z" id="Combined-Shape"></path>
            </g>
            <g id="Group-3-Copy-3" opacity="0.0948428883" transform="translate(302.333333, 111.000000)">
                <path d="M43.1979701,40.4935404 C47.7193236,35.9721869 55.049886,35.9721869 59.5712395,40.4935404 L59.5712395,40.4935404 L99.3781945,80.3004954 C103.899548,84.8218489 103.899548,92.1524113 99.3781945,96.6737648 L99.3781945,96.6737648 L59.5712395,136.48072 C55.049886,141.002073 47.7193236,141.002073 43.1979701,136.48072 L43.1979701,136.48072 L3.39101512,96.6737648 C-1.13033837,92.1524113 -1.13033837,84.8218489 3.39101512,80.3004954 L3.39101512,80.3004954 L18.73,64.9615253 L23.713,69.9445253 L8.37418406,85.2836643 C6.66024707,86.9976013 6.60668654,89.743164 8.21350247,91.5215776 L8.37418406,91.6905958 L48.1811391,131.497551 C49.9503644,133.266776 52.8188453,133.266776 54.5880706,131.497551 L54.5880706,131.497551 L94.3950256,91.6905958 C96.1642509,89.9213706 96.1642509,87.0528896 94.3950256,85.2836643 L94.3950256,85.2836643 L54.5880706,45.4767093 C52.8188453,43.707484 49.9503644,43.707484 48.1811391,45.4767093 L48.1811391,45.4767093 L28.86,64.7985253 L23.876,59.8145253 Z" id="Combined-Shape"></path>
                <path d="M43.1979701,3.39101512 C47.7193236,-1.13033837 55.049886,-1.13033837 59.5712395,3.39101512 L59.5712395,3.39101512 L99.3781945,43.1979701 C103.899548,47.7193236 103.899548,55.049886 99.3781945,59.5712395 L99.3781945,59.5712395 L89.013,69.936 L84.03,64.953 L94.3950256,54.5880706 C96.1089626,52.8741336 96.1625231,50.1285709 94.5557072,48.3501573 L94.3950256,48.1811391 L54.5880706,8.37418406 C52.8188453,6.60495878 49.9503644,6.60495878 48.1811391,8.37418406 L48.1811391,8.37418406 L8.37418406,48.1811391 C6.60495878,49.9503644 6.60495878,52.8188453 8.37418406,54.5880706 L8.37418406,54.5880706 L48.1811391,94.3950256 C49.9503644,96.1642509 52.8188453,96.1642509 54.5880706,94.3950256 L54.5880706,94.3950256 L73.922,75.061 L78.905,80.044 L59.5712395,99.3781945 C55.1265191,103.822915 47.9670103,103.898249 43.4302631,99.6041973 L43.1979701,99.3781945 L3.39101512,59.5712395 C-1.13033837,55.049886 -1.13033837,47.7193236 3.39101512,43.1979701 L3.39101512,43.1979701 Z" id="Combined-Shape"></path>
            </g>
            <g id="Group-3-Copy-5" opacity="0.0948428883" transform="translate(423.000000, 111.000000)">
                <path d="M43.1979701,40.4935404 C47.7193236,35.9721869 55.049886,35.9721869 59.5712395,40.4935404 L59.5712395,40.4935404 L99.3781945,80.3004954 C103.899548,84.8218489 103.899548,92.1524113 99.3781945,96.6737648 L99.3781945,96.6737648 L59.5712395,136.48072 C55.049886,141.002073 47.7193236,141.002073 43.1979701,136.48072 L43.1979701,136.48072 L3.39101512,96.6737648 C-1.13033837,92.1524113 -1.13033837,84.8218489 3.39101512,80.3004954 L3.39101512,80.3004954 L18.73,64.9615253 L23.713,69.9445253 L8.37418406,85.2836643 C6.66024707,86.9976013 6.60668654,89.743164 8.21350247,91.5215776 L8.37418406,91.6905958 L48.1811391,131.497551 C49.9503644,133.266776 52.8188453,133.266776 54.5880706,131.497551 L54.5880706,131.497551 L94.3950256,91.6905958 C96.1642509,89.9213706 96.1642509,87.0528896 94.3950256,85.2836643 L94.3950256,85.2836643 L54.5880706,45.4767093 C52.8188453,43.707484 49.9503644,43.707484 48.1811391,45.4767093 L48.1811391,45.4767093 L28.86,64.7985253 L23.876,59.8145253 Z" id="Combined-Shape"></path>
                <path d="M43.1979701,3.39101512 C47.7193236,-1.13033837 55.049886,-1.13033837 59.5712395,3.39101512 L59.5712395,3.39101512 L99.3781945,43.1979701 C103.899548,47.7193236 103.899548,55.049886 99.3781945,59.5712395 L99.3781945,59.5712395 L89.013,69.936 L84.03,64.953 L94.3950256,54.5880706 C96.1089626,52.8741336 96.1625231,50.1285709 94.5557072,48.3501573 L94.3950256,48.1811391 L54.5880706,8.37418406 C52.8188453,6.60495878 49.9503644,6.60495878 48.1811391,8.37418406 L48.1811391,8.37418406 L8.37418406,48.1811391 C6.60495878,49.9503644 6.60495878,52.8188453 8.37418406,54.5880706 L8.37418406,54.5880706 L48.1811391,94.3950256 C49.9503644,96.1642509 52.8188453,96.1642509 54.5880706,94.3950256 L54.5880706,94.3950256 L73.922,75.061 L78.905,80.044 L59.5712395,99.3781945 C55.1265191,103.822915 47.9670103,103.898249 43.4302631,99.6041973 L43.1979701,99.3781945 L3.39101512,59.5712395 C-1.13033837,55.049886 -1.13033837,47.7193236 3.39101512,43.1979701 L3.39101512,43.1979701 Z" id="Combined-Shape"></path>
            </g>
            <g id="Group-3-Copy-9" opacity="0.0948428883" transform="translate(543.666667, 111.000000)">
                <path d="M43.1979701,40.4935404 C47.7193236,35.9721869 55.049886,35.9721869 59.5712395,40.4935404 L59.5712395,40.4935404 L99.3781945,80.3004954 C103.899548,84.8218489 103.899548,92.1524113 99.3781945,96.6737648 L99.3781945,96.6737648 L59.5712395,136.48072 C55.049886,141.002073 47.7193236,141.002073 43.1979701,136.48072 L43.1979701,136.48072 L3.39101512,96.6737648 C-1.13033837,92.1524113 -1.13033837,84.8218489 3.39101512,80.3004954 L3.39101512,80.3004954 L18.73,64.9615253 L23.713,69.9445253 L8.37418406,85.2836643 C6.66024707,86.9976013 6.60668654,89.743164 8.21350247,91.5215776 L8.37418406,91.6905958 L48.1811391,131.497551 C49.9503644,133.266776 52.8188453,133.266776 54.5880706,131.497551 L54.5880706,131.497551 L94.3950256,91.6905958 C96.1642509,89.9213706 96.1642509,87.0528896 94.3950256,85.2836643 L94.3950256,85.2836643 L54.5880706,45.4767093 C52.8188453,43.707484 49.9503644,43.707484 48.1811391,45.4767093 L48.1811391,45.4767093 L28.86,64.7985253 L23.876,59.8145253 Z" id="Combined-Shape"></path>
                <path d="M43.1979701,3.39101512 C47.7193236,-1.13033837 55.049886,-1.13033837 59.5712395,3.39101512 L59.5712395,3.39101512 L99.3781945,43.1979701 C103.899548,47.7193236 103.899548,55.049886 99.3781945,59.5712395 L99.3781945,59.5712395 L89.013,69.936 L84.03,64.953 L94.3950256,54.5880706 C96.1089626,52.8741336 96.1625231,50.1285709 94.5557072,48.3501573 L94.3950256,48.1811391 L54.5880706,8.37418406 C52.8188453,6.60495878 49.9503644,6.60495878 48.1811391,8.37418406 L48.1811391,8.37418406 L8.37418406,48.1811391 C6.60495878,49.9503644 6.60495878,52.8188453 8.37418406,54.5880706 L8.37418406,54.5880706 L48.1811391,94.3950256 C49.9503644,96.1642509 52.8188453,96.1642509 54.5880706,94.3950256 L54.5880706,94.3950256 L73.922,75.061 L78.905,80.044 L59.5712395,99.3781945 C55.1265191,103.822915 47.9670103,103.898249 43.4302631,99.6041973 L43.1979701,99.3781945 L3.39101512,59.5712395 C-1.13033837,55.049886 -1.13033837,47.7193236 3.39101512,43.1979701 L3.39101512,43.1979701 Z" id="Combined-Shape"></path>
            </g>
            <g id="Group-3-Copy-6" opacity="0.0948428883" transform="translate(61.000000, 111.000000)">
                <path d="M43.1979701,40.4935404 C47.7193236,35.9721869 55.049886,35.9721869 59.5712395,40.4935404 L59.5712395,40.4935404 L99.3781945,80.3004954 C103.899548,84.8218489 103.899548,92.1524113 99.3781945,96.6737648 L99.3781945,96.6737648 L59.5712395,136.48072 C55.049886,141.002073 47.7193236,141.002073 43.1979701,136.48072 L43.1979701,136.48072 L3.39101512,96.6737648 C-1.13033837,92.1524113 -1.13033837,84.8218489 3.39101512,80.3004954 L3.39101512,80.3004954 L18.73,64.9615253 L23.713,69.9445253 L8.37418406,85.2836643 C6.66024707,86.9976013 6.60668654,89.743164 8.21350247,91.5215776 L8.37418406,91.6905958 L48.1811391,131.497551 C49.9503644,133.266776 52.8188453,133.266776 54.5880706,131.497551 L54.5880706,131.497551 L94.3950256,91.6905958 C96.1642509,89.9213706 96.1642509,87.0528896 94.3950256,85.2836643 L94.3950256,85.2836643 L54.5880706,45.4767093 C52.8188453,43.707484 49.9503644,43.707484 48.1811391,45.4767093 L48.1811391,45.4767093 L28.86,64.7985253 L23.876,59.8145253 Z" id="Combined-Shape"></path>
                <path d="M43.1979701,3.39101512 C47.7193236,-1.13033837 55.049886,-1.13033837 59.5712395,3.39101512 L59.5712395,3.39101512 L99.3781945,43.1979701 C103.899548,47.7193236 103.899548,55.049886 99.3781945,59.5712395 L99.3781945,59.5712395 L89.013,69.936 L84.03,64.953 L94.3950256,54.5880706 C96.1089626,52.8741336 96.1625231,50.1285709 94.5557072,48.3501573 L94.3950256,48.1811391 L54.5880706,8.37418406 C52.8188453,6.60495878 49.9503644,6.60495878 48.1811391,8.37418406 L48.1811391,8.37418406 L8.37418406,48.1811391 C6.60495878,49.9503644 6.60495878,52.8188453 8.37418406,54.5880706 L8.37418406,54.5880706 L48.1811391,94.3950256 C49.9503644,96.1642509 52.8188453,96.1642509 54.5880706,94.3950256 L54.5880706,94.3950256 L73.922,75.061 L78.905,80.044 L59.5712395,99.3781945 C55.1265191,103.822915 47.9670103,103.898249 43.4302631,99.6041973 L43.1979701,99.3781945 L3.39101512,59.5712395 C-1.13033837,55.049886 -1.13033837,47.7193236 3.39101512,43.1979701 L3.39101512,43.1979701 Z" id="Combined-Shape"></path>
            </g>
            <g id="Group-3-Copy-2" opacity="0.0544419233" transform="translate(242.000000, 0.000000)">
                <path d="M43.1979701,40.4935404 C47.7193236,35.9721869 55.049886,35.9721869 59.5712395,40.4935404 L59.5712395,40.4935404 L99.3781945,80.3004954 C103.899548,84.8218489 103.899548,92.1524113 99.3781945,96.6737648 L99.3781945,96.6737648 L59.5712395,136.48072 C55.049886,141.002073 47.7193236,141.002073 43.1979701,136.48072 L43.1979701,136.48072 L3.39101512,96.6737648 C-1.13033837,92.1524113 -1.13033837,84.8218489 3.39101512,80.3004954 L3.39101512,80.3004954 L18.73,64.9615253 L23.713,69.9445253 L8.37418406,85.2836643 C6.66024707,86.9976013 6.60668654,89.743164 8.21350247,91.5215776 L8.37418406,91.6905958 L48.1811391,131.497551 C49.9503644,133.266776 52.8188453,133.266776 54.5880706,131.497551 L54.5880706,131.497551 L94.3950256,91.6905958 C96.1642509,89.9213706 96.1642509,87.0528896 94.3950256,85.2836643 L94.3950256,85.2836643 L54.5880706,45.4767093 C52.8188453,43.707484 49.9503644,43.707484 48.1811391,45.4767093 L48.1811391,45.4767093 L28.86,64.7985253 L23.876,59.8145253 Z" id="Combined-Shape"></path>
                <path d="M43.1979701,3.39101512 C47.7193236,-1.13033837 55.049886,-1.13033837 59.5712395,3.39101512 L59.5712395,3.39101512 L99.3781945,43.1979701 C103.899548,47.7193236 103.899548,55.049886 99.3781945,59.5712395 L99.3781945,59.5712395 L89.013,69.936 L84.03,64.953 L94.3950256,54.5880706 C96.1089626,52.8741336 96.1625231,50.1285709 94.5557072,48.3501573 L94.3950256,48.1811391 L54.5880706,8.37418406 C52.8188453,6.60495878 49.9503644,6.60495878 48.1811391,8.37418406 L48.1811391,8.37418406 L8.37418406,48.1811391 C6.60495878,49.9503644 6.60495878,52.8188453 8.37418406,54.5880706 L8.37418406,54.5880706 L48.1811391,94.3950256 C49.9503644,96.1642509 52.8188453,96.1642509 54.5880706,94.3950256 L54.5880706,94.3950256 L73.922,75.061 L78.905,80.044 L59.5712395,99.3781945 C55.1265191,103.822915 47.9670103,103.898249 43.4302631,99.6041973 L43.1979701,99.3781945 L3.39101512,59.5712395 C-1.13033837,55.049886 -1.13033837,47.7193236 3.39101512,43.1979701 L3.39101512,43.1979701 Z" id="Combined-Shape"></path>
            </g>
            <g id="Group-3-Copy-4" opacity="0.0544419233" transform="translate(362.666667, 0.000000)">
                <path d="M43.1979701,40.4935404 C47.7193236,35.9721869 55.049886,35.9721869 59.5712395,40.4935404 L59.5712395,40.4935404 L99.3781945,80.3004954 C103.899548,84.8218489 103.899548,92.1524113 99.3781945,96.6737648 L99.3781945,96.6737648 L59.5712395,136.48072 C55.049886,141.002073 47.7193236,141.002073 43.1979701,136.48072 L43.1979701,136.48072 L3.39101512,96.6737648 C-1.13033837,92.1524113 -1.13033837,84.8218489 3.39101512,80.3004954 L3.39101512,80.3004954 L18.73,64.9615253 L23.713,69.9445253 L8.37418406,85.2836643 C6.66024707,86.9976013 6.60668654,89.743164 8.21350247,91.5215776 L8.37418406,91.6905958 L48.1811391,131.497551 C49.9503644,133.266776 52.8188453,133.266776 54.5880706,131.497551 L54.5880706,131.497551 L94.3950256,91.6905958 C96.1642509,89.9213706 96.1642509,87.0528896 94.3950256,85.2836643 L94.3950256,85.2836643 L54.5880706,45.4767093 C52.8188453,43.707484 49.9503644,43.707484 48.1811391,45.4767093 L48.1811391,45.4767093 L28.86,64.7985253 L23.876,59.8145253 Z" id="Combined-Shape"></path>
                <path d="M43.1979701,3.39101512 C47.7193236,-1.13033837 55.049886,-1.13033837 59.5712395,3.39101512 L59.5712395,3.39101512 L99.3781945,43.1979701 C103.899548,47.7193236 103.899548,55.049886 99.3781945,59.5712395 L99.3781945,59.5712395 L89.013,69.936 L84.03,64.953 L94.3950256,54.5880706 C96.1089626,52.8741336 96.1625231,50.1285709 94.5557072,48.3501573 L94.3950256,48.1811391 L54.5880706,8.37418406 C52.8188453,6.60495878 49.9503644,6.60495878 48.1811391,8.37418406 L48.1811391,8.37418406 L8.37418406,48.1811391 C6.60495878,49.9503644 6.60495878,52.8188453 8.37418406,54.5880706 L8.37418406,54.5880706 L48.1811391,94.3950256 C49.9503644,96.1642509 52.8188453,96.1642509 54.5880706,94.3950256 L54.5880706,94.3950256 L73.922,75.061 L78.905,80.044 L59.5712395,99.3781945 C55.1265191,103.822915 47.9670103,103.898249 43.4302631,99.6041973 L43.1979701,99.3781945 L3.39101512,59.5712395 C-1.13033837,55.049886 -1.13033837,47.7193236 3.39101512,43.1979701 L3.39101512,43.1979701 Z" id="Combined-Shape"></path>
            </g>
            <g id="Group-3-Copy-8" opacity="0.05" transform="translate(483.333333, 0.000000)">
                <path d="M43.1979701,40.4935404 C47.7193236,35.9721869 55.049886,35.9721869 59.5712395,40.4935404 L59.5712395,40.4935404 L99.3781945,80.3004954 C103.899548,84.8218489 103.899548,92.1524113 99.3781945,96.6737648 L99.3781945,96.6737648 L59.5712395,136.48072 C55.049886,141.002073 47.7193236,141.002073 43.1979701,136.48072 L43.1979701,136.48072 L3.39101512,96.6737648 C-1.13033837,92.1524113 -1.13033837,84.8218489 3.39101512,80.3004954 L3.39101512,80.3004954 L18.73,64.9615253 L23.713,69.9445253 L8.37418406,85.2836643 C6.66024707,86.9976013 6.60668654,89.743164 8.21350247,91.5215776 L8.37418406,91.6905958 L48.1811391,131.497551 C49.9503644,133.266776 52.8188453,133.266776 54.5880706,131.497551 L54.5880706,131.497551 L94.3950256,91.6905958 C96.1642509,89.9213706 96.1642509,87.0528896 94.3950256,85.2836643 L94.3950256,85.2836643 L54.5880706,45.4767093 C52.8188453,43.707484 49.9503644,43.707484 48.1811391,45.4767093 L48.1811391,45.4767093 L28.86,64.7985253 L23.876,59.8145253 Z" id="Combined-Shape"></path>
                <path d="M43.1979701,3.39101512 C47.7193236,-1.13033837 55.049886,-1.13033837 59.5712395,3.39101512 L59.5712395,3.39101512 L99.3781945,43.1979701 C103.899548,47.7193236 103.899548,55.049886 99.3781945,59.5712395 L99.3781945,59.5712395 L89.013,69.936 L84.03,64.953 L94.3950256,54.5880706 C96.1089626,52.8741336 96.1625231,50.1285709 94.5557072,48.3501573 L94.3950256,48.1811391 L54.5880706,8.37418406 C52.8188453,6.60495878 49.9503644,6.60495878 48.1811391,8.37418406 L48.1811391,8.37418406 L8.37418406,48.1811391 C6.60495878,49.9503644 6.60495878,52.8188453 8.37418406,54.5880706 L8.37418406,54.5880706 L48.1811391,94.3950256 C49.9503644,96.1642509 52.8188453,96.1642509 54.5880706,94.3950256 L54.5880706,94.3950256 L73.922,75.061 L78.905,80.044 L59.5712395,99.3781945 C55.1265191,103.822915 47.9670103,103.898249 43.4302631,99.6041973 L43.1979701,99.3781945 L3.39101512,59.5712395 C-1.13033837,55.049886 -1.13033837,47.7193236 3.39101512,43.1979701 L3.39101512,43.1979701 Z" id="Combined-Shape"></path>
            </g>
            <g id="Group-3-Copy-7" opacity="0.0544419233" transform="translate(121.333333, 0.000000)">
                <path d="M43.1979701,40.4935404 C47.7193236,35.9721869 55.049886,35.9721869 59.5712395,40.4935404 L59.5712395,40.4935404 L99.3781945,80.3004954 C103.899548,84.8218489 103.899548,92.1524113 99.3781945,96.6737648 L99.3781945,96.6737648 L59.5712395,136.48072 C55.049886,141.002073 47.7193236,141.002073 43.1979701,136.48072 L43.1979701,136.48072 L3.39101512,96.6737648 C-1.13033837,92.1524113 -1.13033837,84.8218489 3.39101512,80.3004954 L3.39101512,80.3004954 L18.73,64.9615253 L23.713,69.9445253 L8.37418406,85.2836643 C6.66024707,86.9976013 6.60668654,89.743164 8.21350247,91.5215776 L8.37418406,91.6905958 L48.1811391,131.497551 C49.9503644,133.266776 52.8188453,133.266776 54.5880706,131.497551 L54.5880706,131.497551 L94.3950256,91.6905958 C96.1642509,89.9213706 96.1642509,87.0528896 94.3950256,85.2836643 L94.3950256,85.2836643 L54.5880706,45.4767093 C52.8188453,43.707484 49.9503644,43.707484 48.1811391,45.4767093 L48.1811391,45.4767093 L28.86,64.7985253 L23.876,59.8145253 Z" id="Combined-Shape"></path>
                <path d="M43.1979701,3.39101512 C47.7193236,-1.13033837 55.049886,-1.13033837 59.5712395,3.39101512 L59.5712395,3.39101512 L99.3781945,43.1979701 C103.899548,47.7193236 103.899548,55.049886 99.3781945,59.5712395 L99.3781945,59.5712395 L89.013,69.936 L84.03,64.953 L94.3950256,54.5880706 C96.1089626,52.8741336 96.1625231,50.1285709 94.5557072,48.3501573 L94.3950256,48.1811391 L54.5880706,8.37418406 C52.8188453,6.60495878 49.9503644,6.60495878 48.1811391,8.37418406 L48.1811391,8.37418406 L8.37418406,48.1811391 C6.60495878,49.9503644 6.60495878,52.8188453 8.37418406,54.5880706 L8.37418406,54.5880706 L48.1811391,94.3950256 C49.9503644,96.1642509 52.8188453,96.1642509 54.5880706,94.3950256 L54.5880706,94.3950256 L73.922,75.061 L78.905,80.044 L59.5712395,99.3781945 C55.1265191,103.822915 47.9670103,103.898249 43.4302631,99.6041973 L43.1979701,99.3781945 L3.39101512,59.5712395 C-1.13033837,55.049886 -1.13033837,47.7193236 3.39101512,43.1979701 L3.39101512,43.1979701 Z" id="Combined-Shape"></path>
            </g>
            <g id="Group-3-Copy-10" opacity="0.0544419233" transform="translate(0.666667, 0.000000)">
                <path d="M43.1979701,40.4935404 C47.7193236,35.9721869 55.049886,35.9721869 59.5712395,40.4935404 L59.5712395,40.4935404 L99.3781945,80.3004954 C103.899548,84.8218489 103.899548,92.1524113 99.3781945,96.6737648 L99.3781945,96.6737648 L59.5712395,136.48072 C55.049886,141.002073 47.7193236,141.002073 43.1979701,136.48072 L43.1979701,136.48072 L3.39101512,96.6737648 C-1.13033837,92.1524113 -1.13033837,84.8218489 3.39101512,80.3004954 L3.39101512,80.3004954 L18.73,64.9615253 L23.713,69.9445253 L8.37418406,85.2836643 C6.66024707,86.9976013 6.60668654,89.743164 8.21350247,91.5215776 L8.37418406,91.6905958 L48.1811391,131.497551 C49.9503644,133.266776 52.8188453,133.266776 54.5880706,131.497551 L54.5880706,131.497551 L94.3950256,91.6905958 C96.1642509,89.9213706 96.1642509,87.0528896 94.3950256,85.2836643 L94.3950256,85.2836643 L54.5880706,45.4767093 C52.8188453,43.707484 49.9503644,43.707484 48.1811391,45.4767093 L48.1811391,45.4767093 L28.86,64.7985253 L23.876,59.8145253 Z" id="Combined-Shape"></path>
                <path d="M43.1979701,3.39101512 C47.7193236,-1.13033837 55.049886,-1.13033837 59.5712395,3.39101512 L59.5712395,3.39101512 L99.3781945,43.1979701 C103.899548,47.7193236 103.899548,55.049886 99.3781945,59.5712395 L99.3781945,59.5712395 L89.013,69.936 L84.03,64.953 L94.3950256,54.5880706 C96.1089626,52.8741336 96.1625231,50.1285709 94.5557072,48.3501573 L94.3950256,48.1811391 L54.5880706,8.37418406 C52.8188453,6.60495878 49.9503644,6.60495878 48.1811391,8.37418406 L48.1811391,8.37418406 L8.37418406,48.1811391 C6.60495878,49.9503644 6.60495878,52.8188453 8.37418406,54.5880706 L8.37418406,54.5880706 L48.1811391,94.3950256 C49.9503644,96.1642509 52.8188453,96.1642509 54.5880706,94.3950256 L54.5880706,94.3950256 L73.922,75.061 L78.905,80.044 L59.5712395,99.3781945 C55.1265191,103.822915 47.9670103,103.898249 43.4302631,99.6041973 L43.1979701,99.3781945 L3.39101512,59.5712395 C-1.13033837,55.049886 -1.13033837,47.7193236 3.39101512,43.1979701 L3.39101512,43.1979701 Z" id="Combined-Shape"></path>
            </g>
        </g>
    </g>
</svg>