<?xml version="1.0" encoding="UTF-8"?>
<svg width="46px" height="33px" viewBox="0 0 46 33" version="1.1" xmlns="http://www.w3.org/2000/svg" xmlns:xlink="http://www.w3.org/1999/xlink">
    <title>5F756B87-A52E-4EEC-9465-9ECB63B9A92F</title>
    <defs>
        <linearGradient x1="100%" y1="6.21385409%" x2="-8.35398707%" y2="84.8362273%" id="linearGradient-1">
            <stop stop-color="#15B694" offset="0%"></stop>
            <stop stop-color="#4769FF" offset="100%"></stop>
        </linearGradient>
    </defs>
    <g id="Web" stroke="none" stroke-width="1" fill="none" fill-rule="evenodd">
        <g id="New-pages---email-confirmed" transform="translate(-697.000000, -442.000000)" fill="url(#linearGradient-1)">
            <g id="Group-16" transform="translate(505.000000, 392.000000)">
                <path d="M223.501704,69.3447312 C221.923938,71.0059664 220.955882,73.2518595 220.955882,75.7240291 C220.955882,76.1734004 220.987867,76.6152945 221.049686,77.0475585 L193.823529,77.0475585 C193.092565,77.0475585 192.5,76.4549939 192.5,75.7240291 L192.5,75.6710019 L205.191144,64.7928786 L210.925188,68.8622003 C211.383954,69.1877758 211.998399,69.1877758 212.457165,68.8622003 L218.191209,64.7928786 L223.501704,69.3447312 L223.501704,69.3447312 Z M230.882353,66.4825885 C230.663772,66.4671654 230.443097,66.4593232 230.220588,66.4593232 C228.547921,66.4593232 226.978858,66.9024784 225.624387,67.6777916 L220.416342,63.2137525 L230.882353,55.7862606 L230.882353,66.4825885 L230.882353,66.4825885 Z M192.5,72.1846196 L192.5,55.7862606 L202.966011,63.2137525 L192.5,72.1846196 Z M230.882353,52.5403555 L211.691176,66.1599 L192.5,52.5403555 L192.5,51.9004997 C192.5,51.1695346 193.092565,50.5769703 193.823529,50.5769703 L229.558824,50.5769703 C230.289788,50.5769703 230.882353,51.1695346 230.882353,51.9004997 L230.882353,52.5403555 L230.882353,52.5403555 Z M222.941176,75.7240291 C222.941176,71.7034789 226.199765,68.4446173 230.220588,68.4446173 C234.241138,68.4446173 237.5,71.7032056 237.5,75.7240291 C237.5,79.7445792 234.241412,83.0034409 230.220588,83.0034409 C226.200038,83.0034409 222.941176,79.7448525 222.941176,75.7240291 Z M228.315229,74.5939759 C228.056988,74.3357341 227.64018,74.3338494 227.375319,74.5987101 L226.44821,75.5258187 C226.187354,75.786675 226.183599,76.2058514 226.443035,76.4652889 L228.622947,78.6452001 C229.139817,79.1620701 229.97783,79.1620701 230.4947,78.6452001 L234.657386,74.4825142 C234.916776,74.2231242 234.919591,73.8053853 234.654731,73.5405245 L233.727622,72.613416 C233.466766,72.3525596 233.04597,72.3504234 232.787139,72.6092548 L229.558824,75.83757 L228.315229,74.5939759 Z" id="Shape"></path>
            </g>
        </g>
    </g>
</svg>