<?xml version="1.0" encoding="UTF-8"?>
<svg width="14px" height="14px" viewBox="0 0 14 14" version="1.1" xmlns="http://www.w3.org/2000/svg" xmlns:xlink="http://www.w3.org/1999/xlink">
    <title>68C81F83-6231-449B-9A29-0ED6DC5F9993</title>
    <g id="Web" stroke="none" stroke-width="1" fill="none" fill-rule="evenodd" opacity="0.500926298">
        <g id="New-pages---Sticky-banner-" transform="translate(-1261.000000, -92.000000)" fill="#FFFFFF" fill-rule="nonzero">
            <g id="Group-16" transform="translate(0.000000, 66.000000)">
                <g id="Group-8-Copy-3" transform="translate(1118.000000, 12.500000)">
                    <g id="Group-17" transform="translate(126.593972, 13.590531)">
                        <path d="M24.8804849,7.34428409 L24.8804849,7.34252722 C24.8049392,7.34779784 24.4149129,7.37063722 23.5470165,7.37063722 C22.8530508,7.37063722 22.3663963,7.35131159 22.1942225,7.34252722 L22.1942225,7.34428409 C19.525529,7.22657345 17.5349893,6.76275837 17.5349893,6.2058289 C17.5349893,5.6506563 19.5272858,5.18508435 22.1942225,5.0673737 L22.1942225,6.88222589 C22.3681532,6.89452402 22.8688627,6.9243909 23.5593147,6.9243909 C24.3885598,6.9243909 24.8031824,6.88925339 24.8804849,6.88222589 L24.8804849,5.06913058 C27.5439078,5.1885981 29.5291769,5.65241318 29.5291769,6.20758577 C29.5291769,6.76275837 27.542151,7.22657345 24.8804849,7.34604097 M24.8804849,4.88114492 L24.8804849,3.25779215 L28.5962761,3.25779215 L28.5962761,0.782354853 L18.4801882,0.782354853 L18.4801882,3.25779215 L22.1959794,3.25779215 L22.1959794,4.88114492 C19.1759108,5.01993807 16.9060279,5.61727567 16.9060279,6.33408079 C16.9060279,7.05088592 19.1776677,7.64822352 22.1959794,7.78877354 L22.1959794,12.9926382 L24.8822418,12.9926382 L24.8822418,7.78877354 C27.8970398,7.64998039 30.1634089,7.05264279 30.1634089,6.33583767 C30.1634089,5.62078942 27.8970398,5.02169495 24.8822418,4.8829018" id="Shape"></path>
                    </g>
                </g>
            </g>
        </g>
    </g>
</svg>