<?xml version="1.0" encoding="UTF-8"?>
<svg width="9px" height="12px" viewBox="0 0 9 12" version="1.1" xmlns="http://www.w3.org/2000/svg" xmlns:xlink="http://www.w3.org/1999/xlink">
    <title>E53996A3-B67C-485B-BADF-9B1F27C052C5</title>
    <g id="Web" stroke="none" stroke-width="1" fill="none" fill-rule="evenodd" opacity="0.500926298">
        <g id="New-pages---Sticky-banner-" transform="translate(-1298.000000, -93.000000)" fill="#FFFFFF" fill-rule="nonzero">
            <g id="Group-16" transform="translate(0.000000, 66.000000)">
                <g id="Group-8-Copy-3" transform="translate(1118.000000, 12.500000)">
                    <g id="Group-17" transform="translate(126.593972, 13.590531)">
                        <path d="M58.0916124,7.43289624 L57.1590822,10.5774746 L62.1470341,10.5774746 C62.2137644,10.5751338 62.2786878,10.599418 62.3275013,10.6449773 C62.3763149,10.6905367 62.4050136,10.7536331 62.407275,10.8203661 L62.407275,10.9027758 L61.9735401,12.3991613 C61.9341516,12.5449102 61.7990873,12.6439574 61.6482389,12.6377155 L54.0145039,12.6377155 L55.294022,8.27867937 L53.8626967,8.71241431 L54.1879979,7.71482395 L55.6193232,7.28108901 L57.4193232,1.16542636 C57.4600958,1.02063176 57.5942702,0.922237265 57.7446244,0.926872145 L59.6747449,0.926872145 C59.7414752,0.924531379 59.8063986,0.948815626 59.8552122,0.994374937 C59.9040257,1.03993425 59.9327244,1.10303067 59.9349859,1.16976371 L59.9349859,1.25217335 L58.4169136,6.41361913 L59.8482389,5.97988419 L59.5446244,7.02084805 L58.0916124,7.43289624 Z" id="Shape"></path>
                    </g>
                </g>
            </g>
        </g>
    </g>
</svg>