<?xml version="1.0" encoding="UTF-8"?>
<svg width="14px" height="12px" viewBox="0 0 14 12" version="1.1" xmlns="http://www.w3.org/2000/svg" xmlns:xlink="http://www.w3.org/1999/xlink">
    <title>70A42736-8409-48E0-A4FE-52CDB1EB106B</title>
    <g id="Web" stroke="none" stroke-width="1" fill="none" fill-rule="evenodd" opacity="0.500926298">
        <g id="New-pages---Sticky-banner-" transform="translate(-1314.000000, -92.000000)" fill="#FFFFFF" fill-rule="nonzero">
            <g id="Group-16" transform="translate(0.000000, 66.000000)">
                <g id="Group-8-Copy-3" transform="translate(1118.000000, 12.500000)">
                    <g id="Group-17" transform="translate(126.593972, 13.590531)">
                        <g id="stellar-xlm-logo" transform="translate(69.906028, 0.782355)">
                            <path d="M11.1350211,1.48978903 L9.57392405,2.28514768 L2.03556962,6.12481013 C2.01007895,5.93039146 1.99725303,5.73452142 1.997173,5.53843882 C1.99927031,3.94653322 2.84398182,2.47470705 4.21743548,1.66985125 C5.59088914,0.864995447 7.28779826,0.847409812 8.67763713,1.62362869 L9.57118143,1.16835443 L9.70447257,1.10033755 C8.03546587,-0.111053134 5.82803319,-0.283931431 3.99078832,0.652862068 C2.15354345,1.58965557 0.997002263,3.4777918 0.99721519,5.54008439 C0.99721519,5.67977496 1.00251758,5.81891702 1.01312236,5.95751055 C1.04349231,6.35882743 0.829779257,6.73909823 0.471181435,6.92181435 L0,7.16206751 L0,8.28270042 L1.38721519,7.57565401 L1.38721519,7.57565401 L1.8364557,7.34637131 L2.27911392,7.12092827 L2.27911392,7.12092827 L10.2261181,3.07172996 L11.1191139,2.61700422 L12.9648945,1.67628692 L12.9648945,0.556202532 L11.1350211,1.48978903 Z" id="Path"></path>
                            <path d="M12.9648945,2.79746835 L2.73054852,8.00843882 L1.83755274,8.4642616 L0,9.40059072 L0,10.5201266 L1.82493671,9.59037975 L3.38603376,8.7950211 L10.9320675,4.94987342 C10.9575767,5.14557694 10.9704023,5.34272537 10.9704641,5.54008439 C10.9694763,7.1338957 10.1237897,8.60777447 8.7482976,9.41291855 C7.37280552,10.2180626 5.67361278,10.2338286 4.28341772,9.45434599 L4.2285654,9.48341772 L3.25987342,9.97708861 C4.92848777,11.1885095 7.13552428,11.3617999 8.97276008,10.4256487 C10.8099959,9.48949752 11.967011,7.60207712 11.9676793,5.54008439 C11.9676793,5.39911392 11.9621941,5.25814346 11.9517722,5.11881857 C11.9214526,4.71766025 12.1348865,4.33750136 12.4931646,4.15451477 L12.9648945,3.9142616 L12.9648945,2.79746835 Z" id="Path"></path>
                        </g>
                    </g>
                </g>
            </g>
        </g>
    </g>
</svg>