<svg xmlns="http://www.w3.org/2000/svg" xmlns:xlink="http://www.w3.org/1999/xlink" width="625px" height="131px" viewBox="0 0 625 131" version="1.1">
    <title>Group 13 Copy 2</title>
    <defs>
        <linearGradient x1="100%" y1="46.5329106%" x2="-10.5929669%" y2="51.1902134%" id="linearGradient-1">
            <stop stop-color="#15B694" offset="0%"/>
            <stop stop-color="#4769FF" stop-opacity="0" offset="100%"/>
        </linearGradient>
        <circle id="path-2" cx="46.8" cy="46.02" r="46.02"/>
        <filter x="-12.5%" y="-7.1%" width="125.0%" height="125.0%" filterUnits="objectBoundingBox" id="filter-4">
            <feOffset dx="0" dy="5" in="SourceAlpha" result="shadowOffsetOuter1"/>
            <feGaussianBlur stdDeviation="3" in="shadowOffsetOuter1" result="shadowBlurOuter1"/>
            <feColorMatrix values="0 0 0 0 0   0 0 0 0 0   0 0 0 0 0  0 0 0 0.11166958 0" type="matrix" in="shadowBlurOuter1" result="shadowMatrixOuter1"/>
            <feOffset dx="0" dy="1" in="SourceAlpha" result="shadowOffsetOuter2"/>
            <feColorMatrix values="0 0 0 0 0   0 0 0 0 0   0 0 0 0 0  0 0 0 0.173568619 0" type="matrix" in="shadowOffsetOuter2" result="shadowMatrixOuter2"/>
            <feMerge>
                <feMergeNode in="shadowMatrixOuter1"/>
                <feMergeNode in="shadowMatrixOuter2"/>
            </feMerge>
        </filter>
        <linearGradient x1="50%" y1="0%" x2="50%" y2="100%" id="linearGradient-5">
            <stop stop-color="#E9CDBA" offset="0%"/>
            <stop stop-color="#F6E8DE" offset="100%"/>
        </linearGradient>
        <polygon id="path-6" points="0.225322222 18.4678904 14.0219622 18.4678904 14.0219622 5.45696821e-13 0.225322222 5.45696821e-13"/>
        <linearGradient x1="50%" y1="0%" x2="50%" y2="100%" id="linearGradient-8">
            <stop stop-color="#F6E8DE" offset="0%"/>
            <stop stop-color="#E9CDBA" offset="100%"/>
        </linearGradient>
        <linearGradient x1="1.05824815%" y1="0%" x2="59.1216559%" y2="75.2690578%" id="linearGradient-9">
            <stop stop-color="#6A6A6A" offset="0%"/>
            <stop stop-color="#393939" offset="100%"/>
        </linearGradient>
        <linearGradient x1="50%" y1="0%" x2="50%" y2="100%" id="linearGradient-10">
            <stop stop-color="#15B694" offset="0%"/>
            <stop stop-color="#4769FF" offset="100%"/>
        </linearGradient>
        <circle id="path-11" cx="19.4419684" cy="19.4419684" r="19.4419684"/>
        <filter x="-28.3%" y="-18.0%" width="156.6%" height="156.6%" filterUnits="objectBoundingBox" id="filter-12">
            <feOffset dx="0" dy="4" in="SourceAlpha" result="shadowOffsetOuter1"/>
            <feGaussianBlur stdDeviation="3" in="shadowOffsetOuter1" result="shadowBlurOuter1"/>
            <feColorMatrix values="0 0 0 0 0   0 0 0 0 0   0 0 0 0 0  0 0 0 0.065586757 0" type="matrix" in="shadowBlurOuter1"/>
        </filter>
        <circle id="path-13" cx="26" cy="26" r="25.6708861"/>
        <filter x="-22.4%" y="-12.7%" width="144.8%" height="144.8%" filterUnits="objectBoundingBox" id="filter-14">
            <feOffset dx="0" dy="5" in="SourceAlpha" result="shadowOffsetOuter1"/>
            <feGaussianBlur stdDeviation="3" in="shadowOffsetOuter1" result="shadowBlurOuter1"/>
            <feColorMatrix values="0 0 0 0 0   0 0 0 0 0   0 0 0 0 0  0 0 0 0.11166958 0" type="matrix" in="shadowBlurOuter1" result="shadowMatrixOuter1"/>
            <feOffset dx="0" dy="1" in="SourceAlpha" result="shadowOffsetOuter2"/>
            <feColorMatrix values="0 0 0 0 0   0 0 0 0 0   0 0 0 0 0  0 0 0 0.173568619 0" type="matrix" in="shadowOffsetOuter2" result="shadowMatrixOuter2"/>
            <feMerge>
                <feMergeNode in="shadowMatrixOuter1"/>
                <feMergeNode in="shadowMatrixOuter2"/>
            </feMerge>
        </filter>
        <linearGradient x1="50%" y1="0%" x2="50%" y2="100%" id="linearGradient-15">
            <stop stop-color="#15B694" offset="0%"/>
            <stop stop-color="#4769FF" offset="100%"/>
        </linearGradient>
        <circle id="path-16" cx="10.917413" cy="10.917413" r="10.917413"/>
        <filter x="-16.0%" y="-11.4%" width="132.1%" height="132.1%" filterUnits="objectBoundingBox" id="filter-17">
            <feOffset dx="0" dy="1" in="SourceAlpha" result="shadowOffsetOuter1"/>
            <feGaussianBlur stdDeviation="1" in="shadowOffsetOuter1" result="shadowBlurOuter1"/>
            <feColorMatrix values="0 0 0 0 0   0 0 0 0 0   0 0 0 0 0  0 0 0 0.065586757 0" type="matrix" in="shadowBlurOuter1"/>
        </filter>
        <circle id="path-18" cx="26" cy="26" r="25.6708861"/>
        <filter x="-22.4%" y="-12.7%" width="144.8%" height="144.8%" filterUnits="objectBoundingBox" id="filter-19">
            <feOffset dx="0" dy="5" in="SourceAlpha" result="shadowOffsetOuter1"/>
            <feGaussianBlur stdDeviation="3" in="shadowOffsetOuter1" result="shadowBlurOuter1"/>
            <feColorMatrix values="0 0 0 0 0   0 0 0 0 0   0 0 0 0 0  0 0 0 0.11166958 0" type="matrix" in="shadowBlurOuter1" result="shadowMatrixOuter1"/>
            <feOffset dx="0" dy="1" in="SourceAlpha" result="shadowOffsetOuter2"/>
            <feColorMatrix values="0 0 0 0 0   0 0 0 0 0   0 0 0 0 0  0 0 0 0.173568619 0" type="matrix" in="shadowOffsetOuter2" result="shadowMatrixOuter2"/>
            <feMerge>
                <feMergeNode in="shadowMatrixOuter1"/>
                <feMergeNode in="shadowMatrixOuter2"/>
            </feMerge>
        </filter>
        <circle id="path-20" cx="10.917413" cy="10.917413" r="10.917413"/>
        <filter x="-16.0%" y="-11.4%" width="132.1%" height="132.1%" filterUnits="objectBoundingBox" id="filter-21">
            <feOffset dx="0" dy="1" in="SourceAlpha" result="shadowOffsetOuter1"/>
            <feGaussianBlur stdDeviation="1" in="shadowOffsetOuter1" result="shadowBlurOuter1"/>
            <feColorMatrix values="0 0 0 0 0   0 0 0 0 0   0 0 0 0 0  0 0 0 0.065586757 0" type="matrix" in="shadowBlurOuter1"/>
        </filter>
        <circle id="path-22" cx="46.8" cy="46.02" r="46.02"/>
        <filter x="-12.5%" y="-7.1%" width="125.0%" height="125.0%" filterUnits="objectBoundingBox" id="filter-24">
            <feOffset dx="0" dy="5" in="SourceAlpha" result="shadowOffsetOuter1"/>
            <feGaussianBlur stdDeviation="3" in="shadowOffsetOuter1" result="shadowBlurOuter1"/>
            <feColorMatrix values="0 0 0 0 0   0 0 0 0 0   0 0 0 0 0  0 0 0 0.11166958 0" type="matrix" in="shadowBlurOuter1" result="shadowMatrixOuter1"/>
            <feOffset dx="0" dy="1" in="SourceAlpha" result="shadowOffsetOuter2"/>
            <feColorMatrix values="0 0 0 0 0   0 0 0 0 0   0 0 0 0 0  0 0 0 0.173568619 0" type="matrix" in="shadowOffsetOuter2" result="shadowMatrixOuter2"/>
            <feMerge>
                <feMergeNode in="shadowMatrixOuter1"/>
                <feMergeNode in="shadowMatrixOuter2"/>
            </feMerge>
        </filter>
        <linearGradient x1="50%" y1="0%" x2="50%" y2="100%" id="linearGradient-25">
            <stop stop-color="#E9CDBA" offset="0%"/>
            <stop stop-color="#F6E8DE" offset="100%"/>
        </linearGradient>
        <path d="M0.41411664,14.1849772 C1.47716082,15.1283257 2.9687224,15.6 4.88880136,15.6 C6.80888032,15.6 9.74708774,15.1283257 13.7034236,14.1849772 L13.7034236,0.105512679 L0.41411664,0.105512679 L0.41411664,14.1849772 Z" id="path-26"/>
        <linearGradient x1="50%" y1="0%" x2="50%" y2="100%" id="linearGradient-28">
            <stop stop-color="#F6E8DE" offset="0%"/>
            <stop stop-color="#E9CDBA" offset="100%"/>
        </linearGradient>
        <linearGradient x1="50%" y1="0%" x2="50%" y2="100%" id="linearGradient-29">
            <stop stop-color="#6A6A6A" offset="0%"/>
            <stop stop-color="#393939" offset="100%"/>
        </linearGradient>
        <linearGradient x1="50%" y1="0%" x2="50%" y2="100%" id="linearGradient-30">
            <stop stop-color="#F6E8DE" offset="0%"/>
            <stop stop-color="#E9CDBA" offset="100%"/>
        </linearGradient>
        <linearGradient x1="50%" y1="0%" x2="50%" y2="100%" id="linearGradient-31">
            <stop stop-color="#15B694" offset="0%"/>
            <stop stop-color="#4769FF" offset="100%"/>
        </linearGradient>
        <linearGradient x1="50%" y1="0%" x2="50%" y2="100%" id="linearGradient-32">
            <stop stop-color="#F6F6F6" offset="0%"/>
            <stop stop-color="#E9E9E9" offset="100%"/>
        </linearGradient>
        <linearGradient x1="50%" y1="0%" x2="50%" y2="100%" id="linearGradient-33">
            <stop stop-color="#F6F6F6" offset="0%"/>
            <stop stop-color="#E9E9E9" offset="100%"/>
        </linearGradient>
        <circle id="path-34" cx="19.4419684" cy="19.4419684" r="19.4419684"/>
        <filter x="-28.3%" y="-18.0%" width="156.6%" height="156.6%" filterUnits="objectBoundingBox" id="filter-35">
            <feOffset dx="0" dy="4" in="SourceAlpha" result="shadowOffsetOuter1"/>
            <feGaussianBlur stdDeviation="3" in="shadowOffsetOuter1" result="shadowBlurOuter1"/>
            <feColorMatrix values="0 0 0 0 0   0 0 0 0 0   0 0 0 0 0  0 0 0 0.065586757 0" type="matrix" in="shadowBlurOuter1"/>
        </filter>
    </defs>
    <g id="Web" stroke="none" stroke-width="1" fill="none" fill-rule="evenodd">
        <g id="Group-13-Copy-2">
            <path d="M162.024701,56.192 C162.867368,56.192 163.568701,56.0426667 164.128701,55.744 C164.688701,55.4453333 165.107368,55.0586667 165.384701,54.584 C165.662034,54.1093333 165.800701,53.6053333 165.800701,53.072 C165.800701,52.4426667 165.680701,51.9253333 165.440701,51.52 C165.200701,51.1146667 164.867368,50.784 164.440701,50.528 C164.014034,50.272 163.534034,50.048 163.000701,49.856 C162.360701,49.6426667 161.795368,49.4533333 161.304701,49.288 C160.814034,49.1226667 160.432701,48.912 160.160701,48.656 C159.888701,48.4 159.752701,48.032 159.752701,47.552 C159.752701,46.9866667 159.947368,46.544 160.336701,46.224 C160.726034,45.904 161.224701,45.7493333 161.832701,45.76 C162.323368,45.76 162.731368,45.856 163.056701,46.048 C163.382034,46.24 163.624701,46.488 163.784701,46.792 C163.944701,47.096 164.024701,47.4026667 164.024701,47.712 L164.024701,47.712 L165.432701,47.712 C165.422034,47.1146667 165.270034,46.5813333 164.976701,46.112 C164.683368,45.6426667 164.272701,45.2746667 163.744701,45.008 C163.216701,44.7413333 162.595368,44.608 161.880701,44.608 C161.155368,44.608 160.528701,44.7386667 160.000701,45 C159.472701,45.2613333 159.064701,45.624 158.776701,46.088 C158.488701,46.552 158.350034,47.0826667 158.360701,47.68 C158.360701,48.3946667 158.568701,48.9733333 158.984701,49.416 C159.400701,49.8586667 160.040701,50.2293333 160.904701,50.528 C161.363368,50.688 161.803368,50.832 162.224701,50.96 C162.646034,51.088 163.019368,51.2373333 163.344701,51.408 C163.670034,51.5786667 163.928701,51.8 164.120701,52.072 C164.312701,52.344 164.408701,52.704 164.408701,53.152 C164.408701,53.696 164.200701,54.1493333 163.784701,54.512 C163.368701,54.8746667 162.782034,55.056 162.024701,55.056 C161.448701,55.056 160.966034,54.9466667 160.576701,54.728 C160.187368,54.5093333 159.891368,54.216 159.688701,53.848 C159.486034,53.48 159.384701,53.0773333 159.384701,52.64 L159.384701,52.64 L157.976701,52.64 C157.976701,53.344 158.142034,53.9626667 158.472701,54.496 C158.803368,55.0293333 159.272701,55.4453333 159.880701,55.744 C160.488701,56.0426667 161.203368,56.192 162.024701,56.192 Z M171.192701,56.192 C172.131368,56.192 172.902034,55.9493333 173.504701,55.464 C174.107368,54.9786667 174.515368,54.368 174.728701,53.632 L174.728701,53.632 L173.400701,53.632 C173.230034,54.0693333 172.958034,54.416 172.584701,54.672 C172.211368,54.928 171.747368,55.056 171.192701,55.056 C170.766034,55.056 170.363368,54.9546667 169.984701,54.752 C169.606034,54.5493333 169.291368,54.248 169.040701,53.848 C168.790034,53.448 168.648701,52.944 168.616701,52.336 L168.616701,52.336 L174.936701,52.336 C174.936701,52.1866667 174.939368,52.0533333 174.944701,51.936 C174.950034,51.8186667 174.952701,51.7013333 174.952701,51.584 C174.952701,50.9333333 174.803368,50.3253333 174.504701,49.76 C174.206034,49.1946667 173.776701,48.7386667 173.216701,48.392 C172.656701,48.0453333 171.992701,47.872 171.224701,47.872 C170.446034,47.872 169.760701,48.0453333 169.168701,48.392 C168.576701,48.7386667 168.115368,49.224 167.784701,49.848 C167.454034,50.472 167.288701,51.2 167.288701,52.032 C167.288701,52.8746667 167.456701,53.6053333 167.792701,54.224 C168.128701,54.8426667 168.590034,55.3253333 169.176701,55.672 C169.763368,56.0186667 170.435368,56.192 171.192701,56.192 Z M173.624701,51.296 L168.632701,51.296 C168.707368,50.5493333 168.992701,49.9813333 169.488701,49.592 C169.984701,49.2026667 170.552701,49.008 171.192701,49.008 C171.864701,49.008 172.430034,49.2106667 172.888701,49.616 C173.347368,50.0213333 173.592701,50.5813333 173.624701,51.296 L173.624701,51.296 Z M178.072701,56 L178.072701,44.48 L176.728701,44.48 L176.728701,56 L178.072701,56 Z M183.848701,56.192 C184.787368,56.192 185.558034,55.9493333 186.160701,55.464 C186.763368,54.9786667 187.171368,54.368 187.384701,53.632 L187.384701,53.632 L186.056701,53.632 C185.886034,54.0693333 185.614034,54.416 185.240701,54.672 C184.867368,54.928 184.403368,55.056 183.848701,55.056 C183.422034,55.056 183.019368,54.9546667 182.640701,54.752 C182.262034,54.5493333 181.947368,54.248 181.696701,53.848 C181.446034,53.448 181.304701,52.944 181.272701,52.336 L181.272701,52.336 L187.592701,52.336 C187.592701,52.1866667 187.595368,52.0533333 187.600701,51.936 C187.606034,51.8186667 187.608701,51.7013333 187.608701,51.584 C187.608701,50.9333333 187.459368,50.3253333 187.160701,49.76 C186.862034,49.1946667 186.432701,48.7386667 185.872701,48.392 C185.312701,48.0453333 184.648701,47.872 183.880701,47.872 C183.102034,47.872 182.416701,48.0453333 181.824701,48.392 C181.232701,48.7386667 180.771368,49.224 180.440701,49.848 C180.110034,50.472 179.944701,51.2 179.944701,52.032 C179.944701,52.8746667 180.112701,53.6053333 180.448701,54.224 C180.784701,54.8426667 181.246034,55.3253333 181.832701,55.672 C182.419368,56.0186667 183.091368,56.192 183.848701,56.192 Z M186.280701,51.296 L181.288701,51.296 C181.363368,50.5493333 181.648701,49.9813333 182.144701,49.592 C182.640701,49.2026667 183.208701,49.008 183.848701,49.008 C184.520701,49.008 185.086034,49.2106667 185.544701,49.616 C186.003368,50.0213333 186.248701,50.5813333 186.280701,51.296 L186.280701,51.296 Z M193.032701,56.192 C193.971368,56.192 194.766034,55.9413333 195.416701,55.44 C196.067368,54.9386667 196.472701,54.288 196.632701,53.488 L196.632701,53.488 L195.256701,53.488 C195.150034,53.9893333 194.888701,54.376 194.472701,54.648 C194.056701,54.92 193.571368,55.056 193.016701,55.056 C192.568701,55.056 192.147368,54.9413333 191.752701,54.712 C191.358034,54.4826667 191.038034,54.144 190.792701,53.696 C190.547368,53.248 190.424701,52.6933333 190.424701,52.032 C190.424701,51.3706667 190.547368,50.816 190.792701,50.368 C191.038034,49.92 191.358034,49.584 191.752701,49.36 C192.147368,49.136 192.568701,49.024 193.016701,49.024 C193.571368,49.024 194.056701,49.16 194.472701,49.432 C194.888701,49.704 195.150034,50.0853333 195.256701,50.576 L195.256701,50.576 L196.632701,50.576 C196.462034,49.7546667 196.054034,49.0986667 195.408701,48.608 C194.763368,48.1173333 193.971368,47.872 193.032701,47.872 C192.275368,47.872 191.595368,48.0453333 190.992701,48.392 C190.390034,48.7386667 189.915368,49.224 189.568701,49.848 C189.222034,50.472 189.048701,51.2 189.048701,52.032 C189.048701,52.864 189.222034,53.592 189.568701,54.216 C189.915368,54.84 190.390034,55.3253333 190.992701,55.672 C191.595368,56.0186667 192.275368,56.192 193.032701,56.192 Z M202.632701,56 L202.632701,54.848 L201.800701,54.848 C201.288701,54.848 200.931368,54.76 200.728701,54.584 C200.526034,54.408 200.424701,54.0693333 200.424701,53.568 L200.424701,53.568 L200.424701,49.2 L202.760701,49.2 L202.760701,48.064 L200.424701,48.064 L200.424701,46.16 L199.256701,46.16 L199.080701,48.064 L197.704701,48.064 L197.704701,49.2 L199.080701,49.2 L199.080701,53.568 C199.080701,54.4853333 199.288701,55.12 199.704701,55.472 C200.120701,55.824 200.691368,56 201.416701,56 L201.416701,56 L202.632701,56 Z M207.512701,56.192 C208.451368,56.192 209.195368,55.96 209.744701,55.496 C210.294034,55.032 210.563368,54.4426667 210.552701,53.728 C210.552701,53.152 210.411368,52.712 210.128701,52.408 C209.846034,52.104 209.483368,51.8746667 209.040701,51.72 C208.598034,51.5653333 208.131368,51.4346667 207.640701,51.328 C207.064701,51.2 206.608701,51.0453333 206.272701,50.864 C205.936701,50.6826667 205.768701,50.432 205.768701,50.112 C205.768701,49.7813333 205.899368,49.5146667 206.160701,49.312 C206.422034,49.1093333 206.792701,49.008 207.272701,49.008 C207.763368,49.008 208.155368,49.1226667 208.448701,49.352 C208.742034,49.5813333 208.915368,49.8986667 208.968701,50.304 L208.968701,50.304 L210.296701,50.304 C210.211368,49.5253333 209.899368,48.9253333 209.360701,48.504 C208.822034,48.0826667 208.131368,47.872 207.288701,47.872 C206.403368,47.872 205.702034,48.0933333 205.184701,48.536 C204.667368,48.9786667 204.408701,49.5466667 204.408701,50.24 C204.408701,50.72 204.552701,51.1066667 204.840701,51.4 C205.128701,51.6933333 205.486034,51.92 205.912701,52.08 C206.339368,52.24 206.766034,52.3626667 207.192701,52.448 C207.822034,52.576 208.310034,52.72 208.656701,52.88 C209.003368,53.04 209.176701,53.36 209.176701,53.84 C209.176701,54.1706667 209.043368,54.456 208.776701,54.696 C208.510034,54.936 208.094034,55.056 207.528701,55.056 C206.920701,55.056 206.438034,54.904 206.080701,54.6 C205.723368,54.296 205.502034,53.936 205.416701,53.52 L205.416701,53.52 L204.040701,53.52 C204.147368,54.3413333 204.515368,54.992 205.144701,55.472 C205.774034,55.952 206.563368,56.192 207.512701,56.192 Z M220.328701,56.192 C221.075368,56.192 221.750034,56.0213333 222.352701,55.68 C222.955368,55.3386667 223.432701,54.856 223.784701,54.232 C224.136701,53.608 224.312701,52.8746667 224.312701,52.032 C224.312701,51.1893333 224.139368,50.456 223.792701,49.832 C223.446034,49.208 222.974034,48.7253333 222.376701,48.384 C221.779368,48.0426667 221.107368,47.872 220.360701,47.872 C219.614034,47.872 218.939368,48.0426667 218.336701,48.384 C217.734034,48.7253333 217.256701,49.208 216.904701,49.832 C216.552701,50.456 216.376701,51.1893333 216.376701,52.032 C216.376701,52.8746667 216.550034,53.608 216.896701,54.232 C217.243368,54.856 217.715368,55.3386667 218.312701,55.68 C218.910034,56.0213333 219.582034,56.192 220.328701,56.192 Z M220.328701,55.04 C219.880701,55.04 219.462034,54.928 219.072701,54.704 C218.683368,54.48 218.366034,54.144 218.120701,53.696 C217.875368,53.248 217.752701,52.6933333 217.752701,52.032 C217.752701,51.3706667 217.875368,50.816 218.120701,50.368 C218.366034,49.92 218.686034,49.584 219.080701,49.36 C219.475368,49.136 219.902034,49.024 220.360701,49.024 C220.808701,49.024 221.230034,49.136 221.624701,49.36 C222.019368,49.584 222.336701,49.92 222.576701,50.368 C222.816701,50.816 222.936701,51.3706667 222.936701,52.032 C222.936701,52.6933333 222.814034,53.248 222.568701,53.696 C222.323368,54.144 222.003368,54.48 221.608701,54.704 C221.214034,54.928 220.787368,55.04 220.328701,55.04 Z M227.528701,56 L227.528701,51.888 C227.528701,50.9706667 227.755368,50.264 228.208701,49.768 C228.662034,49.272 229.230034,49.024 229.912701,49.024 C231.278034,49.024 231.960701,49.8506667 231.960701,51.504 L231.960701,51.504 L231.960701,56 L233.304701,56 L233.304701,51.36 C233.304701,50.176 233.024701,49.2986667 232.464701,48.728 C231.904701,48.1573333 231.155368,47.872 230.216701,47.872 C229.608701,47.872 229.064701,48.016 228.584701,48.304 C228.104701,48.592 227.736701,48.9866667 227.480701,49.488 L227.480701,49.488 L227.400701,48.064 L226.184701,48.064 L226.184701,56 L227.528701,56 Z M238.904701,56.192 C239.843368,56.192 240.614034,55.9493333 241.216701,55.464 C241.819368,54.9786667 242.227368,54.368 242.440701,53.632 L242.440701,53.632 L241.112701,53.632 C240.942034,54.0693333 240.670034,54.416 240.296701,54.672 C239.923368,54.928 239.459368,55.056 238.904701,55.056 C238.478034,55.056 238.075368,54.9546667 237.696701,54.752 C237.318034,54.5493333 237.003368,54.248 236.752701,53.848 C236.502034,53.448 236.360701,52.944 236.328701,52.336 L236.328701,52.336 L242.648701,52.336 C242.648701,52.1866667 242.651368,52.0533333 242.656701,51.936 C242.662034,51.8186667 242.664701,51.7013333 242.664701,51.584 C242.664701,50.9333333 242.515368,50.3253333 242.216701,49.76 C241.918034,49.1946667 241.488701,48.7386667 240.928701,48.392 C240.368701,48.0453333 239.704701,47.872 238.936701,47.872 C238.158034,47.872 237.472701,48.0453333 236.880701,48.392 C236.288701,48.7386667 235.827368,49.224 235.496701,49.848 C235.166034,50.472 235.000701,51.2 235.000701,52.032 C235.000701,52.8746667 235.168701,53.6053333 235.504701,54.224 C235.840701,54.8426667 236.302034,55.3253333 236.888701,55.672 C237.475368,56.0186667 238.147368,56.192 238.904701,56.192 Z M241.336701,51.296 L236.344701,51.296 C236.419368,50.5493333 236.704701,49.9813333 237.200701,49.592 C237.696701,49.2026667 238.264701,49.008 238.904701,49.008 C239.576701,49.008 240.142034,49.2106667 240.600701,49.616 C241.059368,50.0213333 241.304701,50.5813333 241.336701,51.296 L241.336701,51.296 Z" id="Selectsone" fill="#000000" fill-rule="nonzero"/>
            <path d="M380.832701,49.692 C381.803368,49.692 382.582034,49.516 383.168701,49.164 C383.755368,48.812 384.251368,48.3106667 384.656701,47.66 L384.656701,47.66 L384.768701,49.5 L386.000701,49.5 L386.000701,43.516 L381.392701,43.516 L381.392701,44.572 L384.624701,44.572 C384.539368,45.788 384.192701,46.7453333 383.584701,47.444 C382.976701,48.1426667 382.075368,48.492 380.880701,48.492 C380.102034,48.492 379.419368,48.308 378.832701,47.94 C378.246034,47.572 377.787368,47.0466667 377.456701,46.364 C377.126034,45.6813333 376.960701,44.8653333 376.960701,43.916 C376.960701,42.9666667 377.128701,42.1506667 377.464701,41.468 C377.800701,40.7853333 378.272701,40.26 378.880701,39.892 C379.488701,39.524 380.203368,39.34 381.024701,39.34 C381.899368,39.34 382.616701,39.5373333 383.176701,39.932 C383.736701,40.3266667 384.091368,40.86 384.240701,41.532 L384.240701,41.532 L385.792701,41.532 C385.547368,40.4653333 385.006034,39.628 384.168701,39.02 C383.331368,38.412 382.283368,38.108 381.024701,38.108 C379.915368,38.108 378.952701,38.3533333 378.136701,38.844 C377.320701,39.3346667 376.691368,40.0173333 376.248701,40.892 C375.806034,41.7666667 375.584701,42.7746667 375.584701,43.916 C375.584701,45.0573333 375.803368,46.0626667 376.240701,46.932 C376.678034,47.8013333 377.291368,48.4786667 378.080701,48.964 C378.870034,49.4493333 379.787368,49.692 380.832701,49.692 Z M391.616701,49.692 C392.555368,49.692 393.326034,49.4493333 393.928701,48.964 C394.531368,48.4786667 394.939368,47.868 395.152701,47.132 L395.152701,47.132 L393.824701,47.132 C393.654034,47.5693333 393.382034,47.916 393.008701,48.172 C392.635368,48.428 392.171368,48.556 391.616701,48.556 C391.190034,48.556 390.787368,48.4546667 390.408701,48.252 C390.030034,48.0493333 389.715368,47.748 389.464701,47.348 C389.214034,46.948 389.072701,46.444 389.040701,45.836 L389.040701,45.836 L395.360701,45.836 C395.360701,45.6866667 395.363368,45.5533333 395.368701,45.436 C395.374034,45.3186667 395.376701,45.2013333 395.376701,45.084 C395.376701,44.4333333 395.227368,43.8253333 394.928701,43.26 C394.630034,42.6946667 394.200701,42.2386667 393.640701,41.892 C393.080701,41.5453333 392.416701,41.372 391.648701,41.372 C390.870034,41.372 390.184701,41.5453333 389.592701,41.892 C389.000701,42.2386667 388.539368,42.724 388.208701,43.348 C387.878034,43.972 387.712701,44.7 387.712701,45.532 C387.712701,46.3746667 387.880701,47.1053333 388.216701,47.724 C388.552701,48.3426667 389.014034,48.8253333 389.600701,49.172 C390.187368,49.5186667 390.859368,49.692 391.616701,49.692 Z M394.048701,44.796 L389.056701,44.796 C389.131368,44.0493333 389.416701,43.4813333 389.912701,43.092 C390.408701,42.7026667 390.976701,42.508 391.616701,42.508 C392.288701,42.508 392.854034,42.7106667 393.312701,43.116 C393.771368,43.5213333 394.016701,44.0813333 394.048701,44.796 L394.048701,44.796 Z M401.232701,49.5 L401.232701,48.348 L400.400701,48.348 C399.888701,48.348 399.531368,48.26 399.328701,48.084 C399.126034,47.908 399.024701,47.5693333 399.024701,47.068 L399.024701,47.068 L399.024701,42.7 L401.360701,42.7 L401.360701,41.564 L399.024701,41.564 L399.024701,39.66 L397.856701,39.66 L397.680701,41.564 L396.304701,41.564 L396.304701,42.7 L397.680701,42.7 L397.680701,47.068 C397.680701,47.9853333 397.888701,48.62 398.304701,48.972 C398.720701,49.324 399.291368,49.5 400.016701,49.5 L400.016701,49.5 L401.232701,49.5 Z M406.112701,49.692 C407.051368,49.692 407.795368,49.46 408.344701,48.996 C408.894034,48.532 409.163368,47.9426667 409.152701,47.228 C409.152701,46.652 409.011368,46.212 408.728701,45.908 C408.446034,45.604 408.083368,45.3746667 407.640701,45.22 C407.198034,45.0653333 406.731368,44.9346667 406.240701,44.828 C405.664701,44.7 405.208701,44.5453333 404.872701,44.364 C404.536701,44.1826667 404.368701,43.932 404.368701,43.612 C404.368701,43.2813333 404.499368,43.0146667 404.760701,42.812 C405.022034,42.6093333 405.392701,42.508 405.872701,42.508 C406.363368,42.508 406.755368,42.6226667 407.048701,42.852 C407.342034,43.0813333 407.515368,43.3986667 407.568701,43.804 L407.568701,43.804 L408.896701,43.804 C408.811368,43.0253333 408.499368,42.4253333 407.960701,42.004 C407.422034,41.5826667 406.731368,41.372 405.888701,41.372 C405.003368,41.372 404.302034,41.5933333 403.784701,42.036 C403.267368,42.4786667 403.008701,43.0466667 403.008701,43.74 C403.008701,44.22 403.152701,44.6066667 403.440701,44.9 C403.728701,45.1933333 404.086034,45.42 404.512701,45.58 C404.939368,45.74 405.366034,45.8626667 405.792701,45.948 C406.422034,46.076 406.910034,46.22 407.256701,46.38 C407.603368,46.54 407.776701,46.86 407.776701,47.34 C407.776701,47.6706667 407.643368,47.956 407.376701,48.196 C407.110034,48.436 406.694034,48.556 406.128701,48.556 C405.520701,48.556 405.038034,48.404 404.680701,48.1 C404.323368,47.796 404.102034,47.436 404.016701,47.02 L404.016701,47.02 L402.640701,47.02 C402.747368,47.8413333 403.115368,48.492 403.744701,48.972 C404.374034,49.452 405.163368,49.692 406.112701,49.692 Z M416.656701,49.5 L416.656701,45.5 C416.656701,44.8066667 416.774034,44.2626667 417.008701,43.868 C417.243368,43.4733333 417.558034,43.1933333 417.952701,43.028 C418.347368,42.8626667 418.779368,42.78 419.248701,42.78 L419.248701,42.78 L419.616701,42.78 L419.616701,41.372 C418.880701,41.372 418.262034,41.5266667 417.760701,41.836 C417.259368,42.1453333 416.886034,42.5613333 416.640701,43.084 L416.640701,43.084 L416.528701,41.564 L415.312701,41.564 L415.312701,49.5 L416.656701,49.5 Z M424.384701,49.692 C425.323368,49.692 426.094034,49.4493333 426.696701,48.964 C427.299368,48.4786667 427.707368,47.868 427.920701,47.132 L427.920701,47.132 L426.592701,47.132 C426.422034,47.5693333 426.150034,47.916 425.776701,48.172 C425.403368,48.428 424.939368,48.556 424.384701,48.556 C423.958034,48.556 423.555368,48.4546667 423.176701,48.252 C422.798034,48.0493333 422.483368,47.748 422.232701,47.348 C421.982034,46.948 421.840701,46.444 421.808701,45.836 L421.808701,45.836 L428.128701,45.836 C428.128701,45.6866667 428.131368,45.5533333 428.136701,45.436 C428.142034,45.3186667 428.144701,45.2013333 428.144701,45.084 C428.144701,44.4333333 427.995368,43.8253333 427.696701,43.26 C427.398034,42.6946667 426.968701,42.2386667 426.408701,41.892 C425.848701,41.5453333 425.184701,41.372 424.416701,41.372 C423.638034,41.372 422.952701,41.5453333 422.360701,41.892 C421.768701,42.2386667 421.307368,42.724 420.976701,43.348 C420.646034,43.972 420.480701,44.7 420.480701,45.532 C420.480701,46.3746667 420.648701,47.1053333 420.984701,47.724 C421.320701,48.3426667 421.782034,48.8253333 422.368701,49.172 C422.955368,49.5186667 423.627368,49.692 424.384701,49.692 Z M426.816701,44.796 L421.824701,44.796 C421.899368,44.0493333 422.184701,43.4813333 422.680701,43.092 C423.176701,42.7026667 423.744701,42.508 424.384701,42.508 C425.056701,42.508 425.622034,42.7106667 426.080701,43.116 C426.539368,43.5213333 426.784701,44.0813333 426.816701,44.796 L426.816701,44.796 Z M431.264701,49.5 L431.264701,45.388 C431.264701,44.4706667 431.475368,43.764 431.896701,43.268 C432.318034,42.772 432.843368,42.524 433.472701,42.524 C434.091368,42.524 434.566034,42.732 434.896701,43.148 C435.227368,43.564 435.392701,44.1826667 435.392701,45.004 L435.392701,45.004 L435.392701,49.5 L436.736701,49.5 L436.736701,45.388 C436.736701,44.4706667 436.947368,43.764 437.368701,43.268 C437.790034,42.772 438.320701,42.524 438.960701,42.524 C439.579368,42.524 440.054034,42.732 440.384701,43.148 C440.715368,43.564 440.880701,44.1826667 440.880701,45.004 L440.880701,45.004 L440.880701,49.5 L442.208701,49.5 L442.208701,44.86 C442.208701,43.676 441.926034,42.7986667 441.360701,42.228 C440.795368,41.6573333 440.038034,41.372 439.088701,41.372 C438.523368,41.372 437.998034,41.5106667 437.512701,41.788 C437.027368,42.0653333 436.646034,42.444 436.368701,42.924 C436.123368,42.4013333 435.774034,42.012 435.320701,41.756 C434.867368,41.5 434.326034,41.372 433.696701,41.372 C433.163368,41.372 432.683368,41.4893333 432.256701,41.724 C431.830034,41.9586667 431.488701,42.2893333 431.232701,42.716 L431.232701,42.716 L431.136701,41.564 L429.920701,41.564 L429.920701,49.5 L431.264701,49.5 Z M446.880701,49.692 C447.606034,49.692 448.184701,49.5346667 448.616701,49.22 C449.048701,48.9053333 449.376701,48.524 449.600701,48.076 L449.600701,48.076 L449.680701,49.5 L450.880701,49.5 L450.880701,44.62 C450.880701,43.6386667 450.600701,42.852 450.040701,42.26 C449.480701,41.668 448.646034,41.372 447.536701,41.372 C446.971368,41.372 446.438034,41.476 445.936701,41.684 C445.435368,41.892 445.016701,42.1933333 444.680701,42.588 C444.344701,42.9826667 444.150034,43.468 444.096701,44.044 L444.096701,44.044 L445.472701,44.044 C445.568701,43.5426667 445.806034,43.1613333 446.184701,42.9 C446.563368,42.6386667 447.014034,42.508 447.536701,42.508 C448.144701,42.508 448.630034,42.6866667 448.992701,43.044 C449.355368,43.4013333 449.536701,43.9266667 449.536701,44.62 L449.536701,44.62 L449.536701,44.716 L447.392701,44.716 C446.326034,44.716 445.483368,44.9346667 444.864701,45.372 C444.246034,45.8093333 443.936701,46.4333333 443.936701,47.244 C443.936701,47.6813333 444.043368,48.0866667 444.256701,48.46 C444.470034,48.8333333 444.795368,49.132 445.232701,49.356 C445.670034,49.58 446.219368,49.692 446.880701,49.692 Z M447.088701,48.556 C446.534034,48.556 446.104701,48.4306667 445.800701,48.18 C445.496701,47.9293333 445.344701,47.596 445.344701,47.18 C445.344701,46.7746667 445.507368,46.436 445.832701,46.164 C446.158034,45.892 446.715368,45.756 447.504701,45.756 L447.504701,45.756 L449.536701,45.756 L449.536701,45.772 C449.536701,46.2413333 449.440701,46.6893333 449.248701,47.116 C449.056701,47.5426667 448.776701,47.8893333 448.408701,48.156 C448.040701,48.4226667 447.600701,48.556 447.088701,48.556 Z M453.712701,39.804 C453.968701,39.804 454.187368,39.716 454.368701,39.54 C454.550034,39.364 454.640701,39.1426667 454.640701,38.876 C454.640701,38.62 454.550034,38.4066667 454.368701,38.236 C454.187368,38.0653333 453.968701,37.98 453.712701,37.98 C453.446034,37.98 453.224701,38.0653333 453.048701,38.236 C452.872701,38.4066667 452.784701,38.62 452.784701,38.876 C452.784701,39.1426667 452.872701,39.364 453.048701,39.54 C453.224701,39.716 453.446034,39.804 453.712701,39.804 Z M454.384701,49.5 L454.384701,41.564 L453.040701,41.564 L453.040701,49.5 L454.384701,49.5 Z M458.064701,49.5 L458.064701,45.388 C458.064701,44.4706667 458.291368,43.764 458.744701,43.268 C459.198034,42.772 459.766034,42.524 460.448701,42.524 C461.814034,42.524 462.496701,43.3506667 462.496701,45.004 L462.496701,45.004 L462.496701,49.5 L463.840701,49.5 L463.840701,44.86 C463.840701,43.676 463.560701,42.7986667 463.000701,42.228 C462.440701,41.6573333 461.691368,41.372 460.752701,41.372 C460.144701,41.372 459.600701,41.516 459.120701,41.804 C458.640701,42.092 458.272701,42.4866667 458.016701,42.988 L458.016701,42.988 L457.936701,41.564 L456.720701,41.564 L456.720701,49.5 L458.064701,49.5 Z M466.688701,39.804 C466.944701,39.804 467.163368,39.716 467.344701,39.54 C467.526034,39.364 467.616701,39.1426667 467.616701,38.876 C467.616701,38.62 467.526034,38.4066667 467.344701,38.236 C467.163368,38.0653333 466.944701,37.98 466.688701,37.98 C466.422034,37.98 466.200701,38.0653333 466.024701,38.236 C465.848701,38.4066667 465.760701,38.62 465.760701,38.876 C465.760701,39.1426667 465.848701,39.364 466.024701,39.54 C466.200701,39.716 466.422034,39.804 466.688701,39.804 Z M467.360701,49.5 L467.360701,41.564 L466.016701,41.564 L466.016701,49.5 L467.360701,49.5 Z M471.040701,49.5 L471.040701,45.388 C471.040701,44.4706667 471.267368,43.764 471.720701,43.268 C472.174034,42.772 472.742034,42.524 473.424701,42.524 C474.790034,42.524 475.472701,43.3506667 475.472701,45.004 L475.472701,45.004 L475.472701,49.5 L476.816701,49.5 L476.816701,44.86 C476.816701,43.676 476.536701,42.7986667 475.976701,42.228 C475.416701,41.6573333 474.667368,41.372 473.728701,41.372 C473.120701,41.372 472.576701,41.516 472.096701,41.804 C471.616701,42.092 471.248701,42.4866667 470.992701,42.988 L470.992701,42.988 L470.912701,41.564 L469.696701,41.564 L469.696701,49.5 L471.040701,49.5 Z M482.000701,53.212 C482.811368,53.212 483.475368,53.0786667 483.992701,52.812 C484.510034,52.5453333 484.894034,52.204 485.144701,51.788 C485.395368,51.372 485.520701,50.9346667 485.520701,50.476 C485.520701,49.804 485.291368,49.26 484.832701,48.844 C484.374034,48.428 483.611368,48.1826667 482.544701,48.108 C481.947368,48.0546667 481.483368,48.004 481.152701,47.956 C480.822034,47.908 480.568701,47.8546667 480.392701,47.796 C480.216701,47.7373333 480.070034,47.6653333 479.952701,47.58 L479.952701,47.58 L480.752701,46.828 C481.126034,46.9453333 481.536701,47.004 481.984701,47.004 C482.656701,47.004 483.224701,46.8786667 483.688701,46.628 C484.152701,46.3773333 484.510034,46.0386667 484.760701,45.612 C485.011368,45.1853333 485.136701,44.7106667 485.136701,44.188 C485.136701,43.6013333 484.982034,43.084 484.672701,42.636 L484.672701,42.636 L486.160701,42.572 L486.160701,41.564 L483.232701,41.564 C482.859368,41.436 482.443368,41.372 481.984701,41.372 C481.312701,41.372 480.742034,41.4973333 480.272701,41.748 C479.803368,41.9986667 479.446034,42.3373333 479.200701,42.764 C478.955368,43.1906667 478.832701,43.6653333 478.832701,44.188 C478.832701,45.0626667 479.147368,45.7666667 479.776701,46.3 L479.776701,46.3 L478.416701,47.644 L478.416701,48.012 C478.555368,48.1506667 478.707368,48.276 478.872701,48.388 C479.038034,48.5 479.238034,48.604 479.472701,48.7 C479.035368,49.0093333 478.736701,49.3373333 478.576701,49.684 C478.416701,50.0306667 478.336701,50.3533333 478.336701,50.652 C478.336701,51.228 478.491368,51.7053333 478.800701,52.084 C479.110034,52.4626667 479.542034,52.7453333 480.096701,52.932 C480.651368,53.1186667 481.286034,53.212 482.000701,53.212 Z M481.984701,45.9 C481.408701,45.9 480.952701,45.7533333 480.616701,45.46 C480.280701,45.1666667 480.112701,44.7426667 480.112701,44.188 C480.112701,43.644 480.280701,43.2253333 480.616701,42.932 C480.952701,42.6386667 481.408701,42.492 481.984701,42.492 C482.550034,42.492 483.000701,42.6386667 483.336701,42.932 C483.672701,43.2253333 483.840701,43.644 483.840701,44.188 C483.840701,44.7426667 483.672701,45.1666667 483.336701,45.46 C483.000701,45.7533333 482.550034,45.9 481.984701,45.9 Z M482.000701,52.108 C481.328701,52.108 480.768701,51.9773333 480.320701,51.716 C479.872701,51.4546667 479.648701,51.0573333 479.648701,50.524 C479.648701,50.3106667 479.718034,50.068 479.856701,49.796 C479.995368,49.524 480.283368,49.2706667 480.720701,49.036 C481.147368,49.1 481.654034,49.1533333 482.240701,49.196 C482.987368,49.2386667 483.499368,49.3853333 483.776701,49.636 C484.054034,49.8866667 484.192701,50.1826667 484.192701,50.524 C484.192701,51.004 483.992701,51.388 483.592701,51.676 C483.192701,51.964 482.662034,52.108 482.000701,52.108 Z M421.560701,63.692 C422.307368,63.692 422.982034,63.5213333 423.584701,63.18 C424.187368,62.8386667 424.664701,62.356 425.016701,61.732 C425.368701,61.108 425.544701,60.3746667 425.544701,59.532 C425.544701,58.6893333 425.371368,57.956 425.024701,57.332 C424.678034,56.708 424.206034,56.2253333 423.608701,55.884 C423.011368,55.5426667 422.339368,55.372 421.592701,55.372 C420.846034,55.372 420.171368,55.5426667 419.568701,55.884 C418.966034,56.2253333 418.488701,56.708 418.136701,57.332 C417.784701,57.956 417.608701,58.6893333 417.608701,59.532 C417.608701,60.3746667 417.782034,61.108 418.128701,61.732 C418.475368,62.356 418.947368,62.8386667 419.544701,63.18 C420.142034,63.5213333 420.814034,63.692 421.560701,63.692 Z M421.560701,62.54 C421.112701,62.54 420.694034,62.428 420.304701,62.204 C419.915368,61.98 419.598034,61.644 419.352701,61.196 C419.107368,60.748 418.984701,60.1933333 418.984701,59.532 C418.984701,58.8706667 419.107368,58.316 419.352701,57.868 C419.598034,57.42 419.918034,57.084 420.312701,56.86 C420.707368,56.636 421.134034,56.524 421.592701,56.524 C422.040701,56.524 422.462034,56.636 422.856701,56.86 C423.251368,57.084 423.568701,57.42 423.808701,57.868 C424.048701,58.316 424.168701,58.8706667 424.168701,59.532 C424.168701,60.1933333 424.046034,60.748 423.800701,61.196 C423.555368,61.644 423.235368,61.98 422.840701,62.204 C422.446034,62.428 422.019368,62.54 421.560701,62.54 Z M428.760701,63.5 L428.760701,59.388 C428.760701,58.4706667 428.987368,57.764 429.440701,57.268 C429.894034,56.772 430.462034,56.524 431.144701,56.524 C432.510034,56.524 433.192701,57.3506667 433.192701,59.004 L433.192701,59.004 L433.192701,63.5 L434.536701,63.5 L434.536701,58.86 C434.536701,57.676 434.256701,56.7986667 433.696701,56.228 C433.136701,55.6573333 432.387368,55.372 431.448701,55.372 C430.840701,55.372 430.296701,55.516 429.816701,55.804 C429.336701,56.092 428.968701,56.4866667 428.712701,56.988 L428.712701,56.988 L428.632701,55.564 L427.416701,55.564 L427.416701,63.5 L428.760701,63.5 Z M440.136701,63.692 C441.075368,63.692 441.846034,63.4493333 442.448701,62.964 C443.051368,62.4786667 443.459368,61.868 443.672701,61.132 L443.672701,61.132 L442.344701,61.132 C442.174034,61.5693333 441.902034,61.916 441.528701,62.172 C441.155368,62.428 440.691368,62.556 440.136701,62.556 C439.710034,62.556 439.307368,62.4546667 438.928701,62.252 C438.550034,62.0493333 438.235368,61.748 437.984701,61.348 C437.734034,60.948 437.592701,60.444 437.560701,59.836 L437.560701,59.836 L443.880701,59.836 C443.880701,59.6866667 443.883368,59.5533333 443.888701,59.436 C443.894034,59.3186667 443.896701,59.2013333 443.896701,59.084 C443.896701,58.4333333 443.747368,57.8253333 443.448701,57.26 C443.150034,56.6946667 442.720701,56.2386667 442.160701,55.892 C441.600701,55.5453333 440.936701,55.372 440.168701,55.372 C439.390034,55.372 438.704701,55.5453333 438.112701,55.892 C437.520701,56.2386667 437.059368,56.724 436.728701,57.348 C436.398034,57.972 436.232701,58.7 436.232701,59.532 C436.232701,60.3746667 436.400701,61.1053333 436.736701,61.724 C437.072701,62.3426667 437.534034,62.8253333 438.120701,63.172 C438.707368,63.5186667 439.379368,63.692 440.136701,63.692 Z M442.568701,58.796 L437.576701,58.796 C437.651368,58.0493333 437.936701,57.4813333 438.432701,57.092 C438.928701,56.7026667 439.496701,56.508 440.136701,56.508 C440.808701,56.508 441.374034,56.7106667 441.832701,57.116 C442.291368,57.5213333 442.536701,58.0813333 442.568701,58.796 L442.568701,58.796 Z" id="Getsremainingone" fill="#000000" fill-rule="nonzero"/>
            <line x1="120.804701" y1="73.05" x2="313.5" y2="73.05" id="Path-19" stroke="#C6C8CC" stroke-width="1.2" stroke-dasharray="5"/>
            <path d="M203.863599,68.1198148 L208.284795,72.5409425 C208.425359,72.6815746 208.495561,72.8656934 208.495561,73.0499033 C208.495561,73.2342042 208.425222,73.4184595 208.284681,73.5590234 L203.863485,77.9800828 C203.582244,78.2614608 203.126259,78.2614608 202.845154,77.9800828 C202.564026,77.6989551 202.564026,77.242993 202.845154,76.9618881 L205.936,73.8708837 L181,73.8711006 L181,72.4036296 L206.11,72.4028837 L202.845268,69.1381005 C202.56414,68.856859 202.56414,68.4009425 202.845268,68.1198148 C203.126396,67.8385733 203.582358,67.8385733 203.863599,68.1198148 Z" id="Combined-Shape" fill="url(#linearGradient-1)" fill-rule="nonzero"/>
            <path d="M203.863599,68.1198148 L208.284795,72.5409425 C208.425359,72.6815746 208.495561,72.8656934 208.495561,73.0499033 C208.495561,73.2342042 208.425222,73.4184595 208.284681,73.5590234 L203.863485,77.9800828 C203.582244,78.2614608 203.126259,78.2614608 202.845154,77.9800828 C202.564026,77.6989551 202.564026,77.242993 202.845154,76.9618881 L205.936,73.8708837 L181,73.8711006 L181,72.4036296 L206.11,72.4028837 L202.845268,69.1381005 C202.56414,68.856859 202.56414,68.4009425 202.845268,68.1198148 C203.126396,67.8385733 203.582358,67.8385733 203.863599,68.1198148 Z" id="Combined-Shape-Copy-3" fill="url(#linearGradient-1)" fill-rule="nonzero"/>
            <line x1="341.304701" y1="73.05" x2="513.304701" y2="73.05" id="Path-19-Copy" stroke="#C6C8CC" stroke-width="1.2" stroke-dasharray="5"/>
            <path d="M432.863599,68.1198148 L437.284795,72.5409425 C437.425359,72.6815746 437.495561,72.8656934 437.495561,73.0499033 C437.495561,73.2342042 437.425222,73.4184595 437.284681,73.5590234 L432.863485,77.9800828 C432.582244,78.2614608 432.126259,78.2614608 431.845154,77.9800828 C431.564026,77.6989551 431.564026,77.242993 431.845154,76.9618881 L434.936,73.8708837 L410,73.8711006 L410,72.4036296 L435.11,72.4028837 L431.845268,69.1381005 C431.56414,68.856859 431.56414,68.4009425 431.845268,68.1198148 C432.126396,67.8385733 432.582358,67.8385733 432.863599,68.1198148 Z" id="Combined-Shape-Copy-4" fill="url(#linearGradient-1)" fill-rule="nonzero"/>
            <g xmlns="http://www.w3.org/2000/svg" id="Group-12" transform="translate(0.204701, 0.000000)">
                    <g id="Group-10" transform="translate(20.280000, 26.703529)">
                        <mask id="mask-3" fill="white">
                            <use xmlns:xlink="http://www.w3.org/1999/xlink" xlink:href="#path-2"/>
                        </mask>
                        <g id="Mask">
                            <use xmlns:xlink="http://www.w3.org/1999/xlink" fill="black" fill-opacity="1" filter="url(#filter-4)" xlink:href="#path-2"/>
                            <use xmlns:xlink="http://www.w3.org/1999/xlink" fill="#5A6476" fill-rule="evenodd" xlink:href="#path-2"/>
                        </g>
                    </g>
                    <g id="Group-10" transform="translate(31.080000, 14.223529)">
                        <g id="Group" transform="translate(37.620000, 40.500000) scale(-1, 1) translate(-37.620000, -40.500000) translate(6.120000, 0.000000)">
                            <g id="Path-9" transform="translate(24.379791, 54.488567)">
                                <mask id="mask-7" fill="white">
                                    <use xmlns:xlink="http://www.w3.org/1999/xlink" xlink:href="#path-6"/>
                                </mask>
                                <use xmlns:xlink="http://www.w3.org/1999/xlink" id="Mask" fill="url(#linearGradient-5)" xlink:href="#path-6"/>
                                <path d="M14.5167432,4.86503033 C5.46453837,7.77764025 0.322029968,9.23394522 -0.910782019,9.23394522 C-2.14359401,9.23394522 -2.76,7.77764025 -2.76,4.86503033 L12.7321564,0 L17.8322916,0 L14.5167432,4.86503033 Z" fill="#C39F87" opacity="0.532203311" mask="url(#mask-7)"/>
                            </g>
                            <path d="M62.7249339,80.9436917 C58.8874357,75.0044665 52.8575609,73.396276 52.8575609,73.396276 L38.401753,68.0389986 L24.605113,68.0389986 L10.15602,73.396276 C10.15602,73.396276 4.12278783,75.0044665 0.281932174,80.9436917 L62.7249339,80.9436917" id="Fill-5" fill="#F2E0D3"/>
                            <path d="M8.28483391,28.2438395 C7.96588174,25.7302725 7.6961713,24.8629465 7.63126174,18.904696 C7.60104522,16.0934404 8.15277652,11.8552934 11.6455826,11.4960525 C16.4847026,11.0002778 17.9776226,19.3635395 18.2630009,22.9828073 C18.6569348,27.9774865 17.4180574,33.3672186 16.4556052,38.2555804 C16.1086748,40.0215682 16.1467252,43.5468291 14.1613878,44.3973682 C12.4591904,45.1292795 12.7479261,45.3978708 11.8828383,44.1220621 C9.79006435,41.0444534 8.73136696,31.8026743 8.28483391,28.2438395" id="Fill-8" fill="#393939"/>
                            <path d="M16.1870139,61.4730604 C16.1870139,61.4730604 18.1052035,62.6929125 20.7083009,62.3582925 C23.3113983,62.0236725 27.7979922,60.9660943 27.7979922,60.9660943 C38.1275661,57.4553821 41.5554626,57.6668978 43.6874061,52.2973099 C43.7545539,52.1327978 50.8666278,24.3839586 50.8666278,24.3839586 C52.1872017,9.9538908 37.0878939,6.95462123 34.805987,6.57859341 C32.5509391,6.06043602 18.170113,2.0629021 13.9241322,15.909903 C13.9241322,15.909903 7.64916783,31.9582334 10.8991226,51.9190438 C12.8150739,59.4093838 16.1870139,61.4730604 16.1870139,61.4730604 Z" id="Fill-9" fill="url(#linearGradient-8)"/>
                            <path d="M31.451953,1.82228906 C35.7482948,1.24929428 40.7373783,0.161499495 44.9766443,1.54474471 C50.6237765,3.39354819 50.6036322,9.82854819 53.1574878,14.2222543 C55.8758557,18.9002195 57.5903635,22.8563456 57.354227,27.9517465 C57.1729278,31.8966812 55.6341235,29.9617047 55.0644861,34.0017656 C54.4310583,38.4950743 53.5715661,38.8431238 51.4373843,42.602283 L43.6874061,52.2973099 C44.9285217,47.3787317 43.9895713,46.4711169 45.1221313,42.6940517 C46.4829939,38.1615734 46.0845835,32.0936482 44.0634339,27.4380656 C42.2773017,23.3196656 41.035067,23.4069578 37.2289043,22.4098125 C32.3371852,21.1295273 28.1158252,20.6527778 23.034973,20.5699621 C18.3917009,20.4972186 13.338827,20.3618038 9.57071478,17.2606934 C6.10141043,14.4013151 4.81776783,8.07598993 6.15289043,3.72145341 C6.15289043,3.72145341 8.28483391,-1.07849703 14.2632287,0.2241708 C17.9261426,1.02658732 21.6506087,2.09983341 25.4176017,2.22181863 C27.5025417,2.28784732 29.4968322,2.08192732 31.451953,1.82228906" id="Fill-11" fill="url(#linearGradient-9)"/>
                            <path d="M44.1708704,39.951063 C44.1708704,39.951063 46.7224878,34.3867465 50.739047,37.6825856 C50.739047,37.6825856 52.5643487,39.1094769 50.3126583,42.8294665 C50.3126583,42.8294665 47.0470357,48.1833865 43.1300791,45.2188099 L44.1708704,39.951063" id="Fill-12" fill="#E9CDBA"/>
                            <path d="M44.5726383,26.978103 C44.5726383,26.978103 44.5524939,36.9372447 42.7215965,42.216183 L44.6666452,42.602283 C44.6666452,42.602283 45.6850539,35.7744682 49.1991235,35.6916525 L44.5726383,26.978103" id="Fill-13" fill="#393939"/>
                        </g>
                        <g id="Group-9" transform="translate(0.000000, 69.311450)" fill="url(#linearGradient-10)" fill-rule="nonzero">
                            <path d="M48.8390348,0.15773043 L60.6610532,4.53714456 L60.6769663,4.54150292 C60.9132205,4.60716588 63.7446264,5.42647782 66.7900122,7.78899436 C69.7246175,9.28416458 71.5321549,11.8376517 71.8059766,12.2419012 L71.8423574,12.2965065 L71.8423574,12.2965065 C72.2458787,13.021375 72.8226561,14.2144908 73.5279497,15.8285249 C65.1885326,27.5577856 51.4877322,35.2085501 36,35.2085501 C21.4756208,35.2085501 8.52278889,28.479956 0.0885644046,17.9698278 C1.6443003,14.1862328 3.93630883,11.685019 6.30386351,10.0311699 C10.0936491,5.91882362 14.564473,4.62473347 14.8640582,4.54150292 L14.8799778,4.53714456 L26.3444441,0.286113255 C31.300532,3.13887311 35.4202515,4.55588354 38.7036025,4.53714456 C41.9869535,4.51840557 45.3654309,3.05860086 48.8390348,0.15773043 Z" id="Combined-Shape"/>
                        </g>
                    </g>
                </g>
<g xmlns="http://www.w3.org/2000/svg" id="Group-11" transform="translate(94.584701, 53.223529)">
                    <g id="Oval">
                        <use xmlns:xlink="http://www.w3.org/1999/xlink" fill="black" fill-opacity="1" filter="url(#filter-12)" xlink:href="#path-11"/>
                        <use xmlns:xlink="http://www.w3.org/1999/xlink" fill="#FFFFFF" fill-rule="evenodd" xlink:href="#path-11"/>
                    </g>
                    <circle id="Oval" fill="#15B694" opacity="0.281784784" cx="19.4419684" cy="19.4419684" r="16.848"/>
                    <path d="M16.1428599,25.3939684 L17.1121856,22.6390427 L21.7547456,22.6390427 L22.7070656,25.3939684 L25.0198427,25.3939684 L20.6663799,13.4899684 L18.217557,13.4899684 L13.8640942,25.3939684 L16.1428599,25.3939684 Z M21.1595456,20.9384713 L17.7073856,20.9384713 L19.4249627,15.9898084 L21.1595456,20.9384713 Z" id="A" fill="#15B694" fill-rule="nonzero"/>
                </g>
            <g id="Group-31" transform="translate(255.500000, 46.050000)">
                <g id="Group-20">
                    <g id="Group-8">
                        <g id="Oval">
                            <use fill="black" fill-opacity="1" filter="url(#filter-14)" xlink:href="#path-13"/>
                            <use fill="#FFFFFF" fill-rule="evenodd" xlink:href="#path-13"/>
                        </g>
                        <g id="Ethereum_logo_2014" transform="translate(19.277778, 15.000000)" fill-rule="nonzero">
                            <polygon id="Path" fill="#343434" points="6.69950182 0 6.55316745 0.497379808 6.55316745 14.93019 6.69950182 15.0762626 13.3990508 11.1161769"/>
                            <polygon id="Path" fill="#8C8C8C" points="6.69954894 0 0 11.1161769 6.69954894 15.076315 6.69954894 8.07106067"/>
                            <polygon id="Path" fill="#3C3C3B" points="6.69950182 16.3447696 6.61704149 16.4452927 6.61704149 21.5865768 6.69950182 21.8274657 13.4030298 12.3866734"/>
                            <polygon id="Path" fill="#8C8C8C" points="6.69954894 21.8273924 6.69954894 16.3446963 0 12.3866001"/>
                            <polygon id="Path" fill="#141414" points="6.69950182 15.0762469 13.3989461 11.1162136 6.69950182 8.07109732"/>
                            <polygon id="Path" fill="#393939" points="4.71201923e-05 11.1162188 6.69949135 15.0762521 6.69949135 8.07110256"/>
                        </g>
                        <path d="M26,2.59419211 C38.9266708,2.59419211 49.4058079,13.0733292 49.4058079,26 C49.4058079,38.9266708 38.9266708,49.4058079 26,49.4058079 C13.0733292,49.4058079 2.59419211,38.9266708 2.59419211,26 C2.59419211,13.0733292 13.0733292,2.59419211 26,2.59419211 Z M26,3.51810558 C13.5835926,3.51810558 3.51810558,13.5835926 3.51810558,26 C3.51810558,38.4164074 13.5835926,48.4818944 26,48.4818944 C38.4164074,48.4818944 48.4818944,38.4164074 48.4818944,26 C48.4818944,13.5835926 38.4164074,3.51810558 26,3.51810558 Z" id="Combined-Shape" fill="url(#linearGradient-15)" fill-rule="nonzero"/>
                        <path d="M26,4.85927029 C37.6757026,4.85927029 47.1407297,14.3242974 47.1407297,26 C47.1407297,37.6757026 37.6757026,47.1407297 26,47.1407297 C14.3242974,47.1407297 4.85927029,37.6757026 4.85927029,26 C4.85927029,14.3242974 14.3242974,4.85927029 26,4.85927029 Z M26,5.22558984 C14.5266101,5.22558984 5.22558984,14.5266101 5.22558984,26 C5.22558984,37.4733899 14.5266101,46.7744102 26,46.7744102 C37.4733899,46.7744102 46.7744102,37.4733899 46.7744102,26 C46.7744102,14.5266101 37.4733899,5.22558984 26,5.22558984 Z" id="Combined-Shape-Copy" fill="url(#linearGradient-15)" fill-rule="nonzero"/>
                    </g>
                    <g id="Group-18" transform="translate(15.000000, 38.908884)">
                        <g id="Oval">
                            <use fill="black" fill-opacity="1" filter="url(#filter-17)" xlink:href="#path-16"/>
                            <use fill="#FFFFFF" fill-rule="evenodd" xlink:href="#path-16"/>
                        </g>
                        <polygon id="1" fill="#5A6476" fill-rule="nonzero" points="11.0912702 15.067413 11.0912702 6.76741305 10.415413 6.76741305 8.74355591 7.49069876 8.74355591 8.17841305 10.083413 7.88198448 10.083413 15.067413"/>
                    </g>
                </g>
                <g id="Group-30" transform="translate(59.000000, 0.000000)">
                    <g id="Group-8-Copy-2">
                        <g id="Oval">
                            <use fill="black" fill-opacity="1" filter="url(#filter-19)" xlink:href="#path-18"/>
                            <use fill="#FFFFFF" fill-rule="evenodd" xlink:href="#path-18"/>
                        </g>
                        <g id="Tether_Logo" transform="translate(16.647743, 16.647743)" fill="#26A17B" fill-rule="nonzero">
                            <g id="Group" transform="translate(0.106199, 0.534442)">
                                <path d="M11.0095119,9.41637681 L11.0095119,9.41407465 C10.9105191,9.42098113 10.39944,9.45090918 9.26217377,9.45090918 C8.35282125,9.45090918 7.71512341,9.42558544 7.4895119,9.41407465 L7.4895119,9.41637681 C3.99253348,9.26213221 1.38418816,8.65436242 1.38418816,7.92457825 C1.38418816,7.19709623 3.99483564,6.58702429 7.4895119,6.43277969 L7.4895119,8.81090918 C7.71742557,8.82702429 8.37354067,8.86616098 9.27828887,8.86616098 C10.3649076,8.86616098 10.9082169,8.82011782 11.0095119,8.81090918 L11.0095119,6.43508185 C14.4995838,6.59162861 17.1010227,7.19939839 17.1010227,7.92688041 C17.1010227,8.65436242 14.4972817,9.26213221 11.0095119,9.41867897 M11.0095119,6.18875091 L11.0095119,4.06155667 L15.8785766,4.06155667 L15.8785766,0.817815659 L2.62274931,0.817815659 L2.62274931,4.06155667 L7.49181405,4.06155667 L7.49181405,6.18875091 C3.53440398,6.37062141 0.560015493,7.15335523 0.560015493,8.0926358 C0.560015493,9.03191638 3.53670614,9.81465019 7.49181405,9.99882285 L7.49181405,16.8178157 L11.0118141,16.8178157 L11.0118141,9.99882285 C14.9623177,9.81695235 17.9321018,9.03421854 17.9321018,8.09493796 C17.9321018,7.15795954 14.9623177,6.37292357 11.0118141,6.19105307" id="Shape"/>
                            </g>
                        </g>
                        <path d="M26,2.59419211 C38.9266708,2.59419211 49.4058079,13.0733292 49.4058079,26 C49.4058079,38.9266708 38.9266708,49.4058079 26,49.4058079 C13.0733292,49.4058079 2.59419211,38.9266708 2.59419211,26 C2.59419211,13.0733292 13.0733292,2.59419211 26,2.59419211 Z M26,3.51810558 C13.5835926,3.51810558 3.51810558,13.5835926 3.51810558,26 C3.51810558,38.4164074 13.5835926,48.4818944 26,48.4818944 C38.4164074,48.4818944 48.4818944,38.4164074 48.4818944,26 C48.4818944,13.5835926 38.4164074,3.51810558 26,3.51810558 Z" id="Combined-Shape" fill="url(#linearGradient-15)" fill-rule="nonzero"/>
                        <path d="M26,4.85927029 C37.6757026,4.85927029 47.1407297,14.3242974 47.1407297,26 C47.1407297,37.6757026 37.6757026,47.1407297 26,47.1407297 C14.3242974,47.1407297 4.85927029,37.6757026 4.85927029,26 C4.85927029,14.3242974 14.3242974,4.85927029 26,4.85927029 Z M26,5.22558984 C14.5266101,5.22558984 5.22558984,14.5266101 5.22558984,26 C5.22558984,37.4733899 14.5266101,46.7744102 26,46.7744102 C37.4733899,46.7744102 46.7744102,37.4733899 46.7744102,26 C46.7744102,14.5266101 37.4733899,5.22558984 26,5.22558984 Z" id="Combined-Shape-Copy" fill="url(#linearGradient-15)" fill-rule="nonzero"/>
                    </g>
                    <g id="Group-18" transform="translate(15.000000, 38.908884)">
                        <g id="Oval">
                            <use fill="black" fill-opacity="1" filter="url(#filter-21)" xlink:href="#path-20"/>
                            <use fill="#FFFFFF" fill-rule="evenodd" xlink:href="#path-20"/>
                        </g>
                        <path d="M13.5889021,15.0345131 L13.5889021,14.2249709 L9.67997006,14.2249709 C10.0423365,13.9242839 10.4336152,13.5850472 10.8538062,13.2072608 C11.2739971,12.8294745 11.6691308,12.4227759 12.0392072,11.9871652 C12.4092836,11.5515544 12.7138256,11.1005238 12.9528333,10.6340733 C13.191841,10.1676228 13.3113448,9.69538991 13.3113448,9.21737455 C13.3113448,8.41554234 13.0819745,7.81224069 12.623234,7.40746962 C12.1644934,7.00269855 11.5766116,6.80031302 10.8595886,6.80031302 C10.3738633,6.80031302 9.93825255,6.90054204 9.5527563,7.1010001 C9.16726004,7.30145815 8.86271799,7.59250783 8.63913017,7.97414912 C8.41554234,8.35579042 8.30374842,8.81260348 8.30374842,9.34458832 L8.30374842,9.34458832 L9.24050433,9.34458832 C9.24050433,9.04390124 9.30025625,8.76248897 9.41976009,8.50035151 C9.53926393,8.23821406 9.71851969,8.0281186 9.95752737,7.87006513 C10.196535,7.71201167 10.4933672,7.63298493 10.8480237,7.63298493 C11.2181001,7.63298493 11.5110773,7.7081567 11.7269552,7.85850024 C11.9428331,8.00884378 12.0989591,8.20737436 12.1953331,8.45409196 C12.2917072,8.70080957 12.3398942,8.96680198 12.3398942,9.25206922 C12.3398942,9.63756547 12.2300278,10.0384816 12.0102949,10.4548175 C11.7905621,10.8711535 11.489875,11.2951994 11.1082337,11.7269552 C10.7265924,12.158711 10.2909816,12.5962493 9.80140138,13.0395699 C9.31182114,13.4828906 8.79332867,13.9204289 8.24592398,14.3521847 L8.24592398,14.3521847 L8.24592398,15.0345131 L13.5889021,15.0345131 Z" id="2" fill="#5A6476" fill-rule="nonzero"/>
                    </g>
                </g>
            </g>
            <g xmlns="http://www.w3.org/2000/svg" id="Group-12-Copy" transform="translate(499.304701, 11.000000)">
                    <g id="Group-10" transform="translate(20.280000, 15.703529)">
                        <mask id="mask-23" fill="white">
                            <use xmlns:xlink="http://www.w3.org/1999/xlink" xlink:href="#path-22"/>
                        </mask>
                        <g id="Mask">
                            <use xmlns:xlink="http://www.w3.org/1999/xlink" fill="black" fill-opacity="1" filter="url(#filter-24)" xlink:href="#path-22"/>
                            <use xmlns:xlink="http://www.w3.org/1999/xlink" fill="#5A6476" fill-rule="evenodd" xlink:href="#path-22"/>
                        </g>
                    </g>
                    <g id="Group-10" transform="translate(28.000000, 0.000000)">
                        <g id="Group-2" transform="translate(6.177108, 0.103529)">
                            <g id="Fill-139" transform="translate(26.255047, 61.083726)">
                                <mask id="mask-27" fill="white">
                                    <use xmlns:xlink="http://www.w3.org/1999/xlink" xlink:href="#path-26"/>
                                </mask>
                                <use xmlns:xlink="http://www.w3.org/1999/xlink" id="Mask" fill="url(#linearGradient-25)" xlink:href="#path-26"/>
                                <path d="M-3.24561707,6.63932899 C-3.24561707,6.63932899 -1.26645033,7.5599218 1.18055866,6.91744719 C3.62756765,6.27497258 7.78101507,4.70220337 7.78101507,4.70220337 C17.2057726,0.0582761795 20.5033059,-0.167021124 21.8712593,-5.56337663 C21.9154564,-5.72938517 25.2345492,-33.1218721 25.2345492,-33.1218721 C24.6934045,-47.0676674 9.89708495,-48.046471 7.66998338,-48.1186955 C5.45366158,-48.3310571 -8.78103167,-50.3544209 -11.1040732,-36.5951157 C-11.1040732,-36.5951157 -15.0915121,-20.4825856 -9.49034089,-1.82602854 C-6.72425055,5.09027528 -3.24561707,6.63932899 -3.24561707,6.63932899 Z" fill="#C39F87" opacity="0.532203311" mask="url(#mask-27)"/>
                            </g>
                            <path d="M39.958471,70.5320697 L53.8816288,75.6901921 L53.8816288,75.6901921 L53.8979557,75.6946782 C54.3572651,75.8228712 64.3673888,78.7444866 66.1199076,90.3517645 L66.1199076,90.3517645 L65.6732335,93.8793659 C57.3215744,102.394137 45.6861941,107.676502 32.8170515,107.676502 C20.4359198,107.676502 9.19675376,102.787167 0.925033978,94.833976 L0.514195281,90.3517645 C2.20486054,79.1541552 11.5795695,76.0399224 12.6515381,75.7189497 L12.7149254,75.7003722 C12.7389783,75.6934991 12.7513962,75.6901921 12.7513962,75.6901921 L12.7513962,75.6901921 L26.669164,70.5320697 L31.1438488,75.8712924 L39.958471,70.5320697 Z" id="Combined-Shape" fill="#F8F8FC"/>
                            <path d="M23.0094303,66.1457791 C23.0094303,66.1457791 24.9885971,67.0663719 27.4356061,66.4238973 C29.8826151,65.7814227 34.0360625,64.2086535 34.0360625,64.2086535 C43.46082,59.5647263 46.7583533,59.339429 48.1263067,53.9430735 C48.1705038,53.7770649 51.4895966,26.384578 51.4895966,26.384578 C50.9484519,12.4387827 36.1521324,11.4599791 33.9250308,11.3877546 C31.708709,11.175393 17.4740157,9.15202921 15.1509742,22.9113344 C15.1509742,22.9113344 11.1635353,39.0238645 16.7647065,57.6804216 C19.5307969,64.5967254 23.0094303,66.1457791 23.0094303,66.1457791 Z" id="Fill-139" fill="url(#linearGradient-28)"/>
                            <path d="M13.0596978,16.0521634 C11.846973,22.8100045 13.8832726,40.7001196 13.8832726,40.7001196 C13.8832726,40.7001196 14.4470548,22.7744312 19.2731602,18.9357533 C19.2731602,18.9357533 24.1089674,16.6622987 27.5229222,19.5070813 C27.5229222,19.5070813 43.6580899,13.2602016 45.8032652,29.6508499 L47.8816058,43.9297402 L48.1263067,53.9430735 C58.3369099,41.5064467 57.5909494,23.9914679 57.5909494,23.9914679 C57.5909494,23.9914679 59.389016,12.666236 51.2761571,11.1624573 C51.2761571,11.1624573 51.9833103,1.69889258 36.0540364,0.275962247 C36.0540364,0.275962247 38.3468946,3.32879461 39.193107,5.35862629 C39.193107,5.35862629 36.3526362,-1.4293982 21.1294375,0.275962247 C21.1294375,0.275962247 24.9627256,1.43155416 26.669164,4.12434202 C26.669164,4.12434202 23.3640849,5.69926719 13.7819427,0 C13.7819427,0 3.14985034,9.93140697 13.0596978,16.0521634" id="Fill-142" fill="url(#linearGradient-29)"/>
                            <path d="M47.0440173,42.0917885 C47.0440173,42.0917885 48.7881849,36.4572 53.0332604,39.1036348 C53.0332604,39.1036348 54.9542164,40.2387452 53.2693375,44.0752672 C53.2693375,44.0752672 50.8212506,49.5934342 46.7076883,47.252067 L47.0440173,42.0917885" id="Fill-143" fill="url(#linearGradient-30)"/>
                            <path d="M39.958471,70.5320697 L53.8816288,75.6901921 L53.8979557,75.6946782 C54.1309979,75.7597202 56.8227038,76.5438721 59.6470533,78.8167401 C63.8533186,80.9352374 65.1950029,85.5730901 65.1950029,85.5730901 C65.4591413,86.0757785 66.2965516,88.3475828 67.4705689,91.936952 C60.5186655,99.8884239 50.873861,105.42498 39.9591007,107.125624 L39.958471,70.5320697 Z" id="Combined-Shape" fill="#29303E"/>
                            <path d="M21.9831957,72.2708474 L21.5099221,106.277128 C13.6473256,104.290866 6.59021299,100.280999 0.925033978,94.833976 L0.514195281,90.3517645 C2.30794989,78.4713742 12.7513962,75.6901921 12.7513962,75.6901921 L12.7513962,75.6901921 L21.9831957,72.2708474 Z" id="Combined-Shape" fill="#29303E"/>
                            <path d="M32.8686128,83.5238548 L32.900164,107.675715 L32.8170515,107.676502 C30.8308906,107.676502 28.8741172,107.55068 26.9542671,107.306571 L28.5189735,83.5238548 L32.8686128,83.5238548 Z M36.0540364,75.7527148 L36.0540364,80.3384312 L32.8686128,83.5195429 L28.5189735,83.5195429 L26.669164,79.6377458 L26.669164,75.7527148 L36.0540364,75.7527148 Z" id="Combined-Shape" fill="url(#linearGradient-31)"/>
                            <polyline id="Fill-149" fill="url(#linearGradient-32)" points="31.1438488 75.7808314 39.958471 67.5903582 47.2423652 72.1739186 37.6160258 81.6698226 31.1438488 75.7808314"/>
                            <polyline id="Fill-150" fill="url(#linearGradient-33)" points="31.1438488 75.8039892 26.5247151 68.5739939 19.2731602 72.4115939 24.7115569 81.1583036 31.1438488 75.8039892"/>
                        </g>
                    </g>
                    <g id="Group-11" transform="translate(0.000000, 42.223529)">
                        <g id="Oval">
                            <use xmlns:xlink="http://www.w3.org/1999/xlink" fill="black" fill-opacity="1" filter="url(#filter-35)" xlink:href="#path-34"/>
                            <use xmlns:xlink="http://www.w3.org/1999/xlink" fill="#FFFFFF" fill-rule="evenodd" xlink:href="#path-34"/>
                        </g>
                        <circle id="Oval" fill="#4769FF" opacity="0.281784784" cx="19.4419684" cy="19.4419684" r="16.848"/>
                        <path d="M19.9610828,25.4643445 C21.2092265,25.4643445 22.1737012,25.157982 22.8545069,24.5452569 C23.5353125,23.9325318 23.8757154,23.1552786 23.8757154,22.2134974 C23.8757154,21.4986515 23.6544535,20.8717429 23.2119298,20.3327718 C22.7694062,19.7938006 22.2077415,19.4562345 21.5269358,19.3200733 C22.1056206,19.1612187 22.5963681,18.8576928 22.9991781,18.4094957 C23.4019881,17.9612987 23.6033931,17.362757 23.6033931,16.6138708 C23.6033931,15.7174767 23.2771737,14.9827739 22.624735,14.4097624 C21.9722962,13.836751 21.0276783,13.5502453 19.7908813,13.5502453 L19.7908813,13.5502453 L15.0082215,13.5502453 L15.0082215,25.4643445 L19.9610828,25.4643445 Z M19.4674987,18.554167 L17.1867997,18.554167 L17.1867997,15.3033199 L19.4334584,15.3033199 C20.0802238,15.3033199 20.5652978,15.4479911 20.8886805,15.7373335 C21.2120632,16.0266759 21.3737545,16.4209758 21.3737545,16.9202333 C21.3737545,17.4421844 21.2092265,17.8449944 20.8801704,18.1286634 C20.5511143,18.4123324 20.0802238,18.554167 19.4674987,18.554167 L19.4674987,18.554167 Z M19.6206799,23.6942498 L17.1867997,23.6942498 L17.1867997,20.1881006 L19.5866396,20.1881006 C20.2220583,20.1881006 20.7269891,20.3469552 21.1014323,20.6646645 C21.4758754,20.9823738 21.6630969,21.4192242 21.6630969,21.9752155 C21.6630969,22.51986 21.4843855,22.9425268 21.1269625,23.243216 C20.7695395,23.5439052 20.2674453,23.6942498 19.6206799,23.6942498 L19.6206799,23.6942498 Z" id="B" fill="#4769FF" fill-rule="nonzero"/>
                    </g>
                </g>
        </g>
    </g>
</svg>