<?xml version="1.0" encoding="UTF-8"?>
<svg width="620px" height="158px" viewBox="0 0 620 158" version="1.1" xmlns="http://www.w3.org/2000/svg" xmlns:xlink="http://www.w3.org/1999/xlink">
    <title>Group 13</title>
    <defs>
        <circle id="path-1" cx="46.8" cy="46.02" r="46.02"></circle>
        <filter x="-12.5%" y="-7.1%" width="125.0%" height="125.0%" filterUnits="objectBoundingBox" id="filter-3">
            <feOffset dx="0" dy="5" in="SourceAlpha" result="shadowOffsetOuter1"></feOffset>
            <feGaussianBlur stdDeviation="3" in="shadowOffsetOuter1" result="shadowBlurOuter1"></feGaussianBlur>
            <feColorMatrix values="0 0 0 0 0   0 0 0 0 0   0 0 0 0 0  0 0 0 0.11166958 0" type="matrix" in="shadowBlurOuter1" result="shadowMatrixOuter1"></feColorMatrix>
            <feOffset dx="0" dy="1" in="SourceAlpha" result="shadowOffsetOuter2"></feOffset>
            <feColorMatrix values="0 0 0 0 0   0 0 0 0 0   0 0 0 0 0  0 0 0 0.173568619 0" type="matrix" in="shadowOffsetOuter2" result="shadowMatrixOuter2"></feColorMatrix>
            <feMerge>
                <feMergeNode in="shadowMatrixOuter1"></feMergeNode>
                <feMergeNode in="shadowMatrixOuter2"></feMergeNode>
            </feMerge>
        </filter>
        <linearGradient x1="50%" y1="0%" x2="50%" y2="100%" id="linearGradient-4">
            <stop stop-color="#E9CDBA" offset="0%"></stop>
            <stop stop-color="#F6E8DE" offset="100%"></stop>
        </linearGradient>
        <polygon id="path-5" points="0.225322222 18.4678904 14.0219622 18.4678904 14.0219622 5.45696821e-13 0.225322222 5.45696821e-13"></polygon>
        <linearGradient x1="50%" y1="0%" x2="50%" y2="100%" id="linearGradient-7">
            <stop stop-color="#F6E8DE" offset="0%"></stop>
            <stop stop-color="#E9CDBA" offset="100%"></stop>
        </linearGradient>
        <linearGradient x1="1.05824815%" y1="0%" x2="59.1216559%" y2="75.2690578%" id="linearGradient-8">
            <stop stop-color="#6A6A6A" offset="0%"></stop>
            <stop stop-color="#393939" offset="100%"></stop>
        </linearGradient>
        <linearGradient x1="50%" y1="0%" x2="50%" y2="100%" id="linearGradient-9">
            <stop stop-color="#15B694" offset="0%"></stop>
            <stop stop-color="#4769FF" offset="100%"></stop>
        </linearGradient>
        <circle id="path-10" cx="19.4419684" cy="19.4419684" r="19.4419684"></circle>
        <filter x="-28.3%" y="-18.0%" width="156.6%" height="156.6%" filterUnits="objectBoundingBox" id="filter-11">
            <feOffset dx="0" dy="4" in="SourceAlpha" result="shadowOffsetOuter1"></feOffset>
            <feGaussianBlur stdDeviation="3" in="shadowOffsetOuter1" result="shadowBlurOuter1"></feGaussianBlur>
            <feColorMatrix values="0 0 0 0 0   0 0 0 0 0   0 0 0 0 0  0 0 0 0.065586757 0" type="matrix" in="shadowBlurOuter1"></feColorMatrix>
        </filter>
        <circle id="path-12" cx="39.5" cy="39.5" r="39"></circle>
        <filter x="-14.7%" y="-8.3%" width="129.5%" height="129.5%" filterUnits="objectBoundingBox" id="filter-13">
            <feOffset dx="0" dy="5" in="SourceAlpha" result="shadowOffsetOuter1"></feOffset>
            <feGaussianBlur stdDeviation="3" in="shadowOffsetOuter1" result="shadowBlurOuter1"></feGaussianBlur>
            <feColorMatrix values="0 0 0 0 0   0 0 0 0 0   0 0 0 0 0  0 0 0 0.11166958 0" type="matrix" in="shadowBlurOuter1" result="shadowMatrixOuter1"></feColorMatrix>
            <feOffset dx="0" dy="1" in="SourceAlpha" result="shadowOffsetOuter2"></feOffset>
            <feColorMatrix values="0 0 0 0 0   0 0 0 0 0   0 0 0 0 0  0 0 0 0.173568619 0" type="matrix" in="shadowOffsetOuter2" result="shadowMatrixOuter2"></feColorMatrix>
            <feMerge>
                <feMergeNode in="shadowMatrixOuter1"></feMergeNode>
                <feMergeNode in="shadowMatrixOuter2"></feMergeNode>
            </feMerge>
        </filter>
        <circle id="path-14" cx="39.5" cy="39.5" r="31.5441176"></circle>
        <filter x="-1.6%" y="-1.6%" width="103.2%" height="103.2%" filterUnits="objectBoundingBox" id="filter-15">
            <feOffset dx="0" dy="-2" in="SourceAlpha" result="shadowOffsetInner1"></feOffset>
            <feComposite in="shadowOffsetInner1" in2="SourceAlpha" operator="arithmetic" k2="-1" k3="1" result="shadowInnerInner1"></feComposite>
            <feColorMatrix values="0 0 0 0 1   0 0 0 0 1   0 0 0 0 1  0 0 0 0.5 0" type="matrix" in="shadowInnerInner1"></feColorMatrix>
        </filter>
        <circle id="path-16" cx="39.5" cy="39.5" r="31.5441176"></circle>
        <filter x="-1.6%" y="-1.6%" width="103.2%" height="103.2%" filterUnits="objectBoundingBox" id="filter-17">
            <feOffset dx="0" dy="-2" in="SourceAlpha" result="shadowOffsetInner1"></feOffset>
            <feComposite in="shadowOffsetInner1" in2="SourceAlpha" operator="arithmetic" k2="-1" k3="1" result="shadowInnerInner1"></feComposite>
            <feColorMatrix values="0 0 0 0 1   0 0 0 0 1   0 0 0 0 1  0 0 0 0.5 0" type="matrix" in="shadowInnerInner1"></feColorMatrix>
        </filter>
        <linearGradient x1="50%" y1="0%" x2="50%" y2="100%" id="linearGradient-18">
            <stop stop-color="#15B694" offset="0%"></stop>
            <stop stop-color="#4769FF" offset="100%"></stop>
        </linearGradient>
        <linearGradient x1="50%" y1="0%" x2="50%" y2="100%" id="linearGradient-19">
            <stop stop-color="#15B694" offset="0%"></stop>
            <stop stop-color="#4769FF" offset="100%"></stop>
        </linearGradient>
        <linearGradient x1="100%" y1="46.5329106%" x2="-10.5929669%" y2="51.1902134%" id="linearGradient-20">
            <stop stop-color="#15B694" offset="0%"></stop>
            <stop stop-color="#4769FF" stop-opacity="0" offset="100%"></stop>
        </linearGradient>
        <circle id="path-21" cx="46.8" cy="46.02" r="46.02"></circle>
        <filter x="-12.5%" y="-7.1%" width="125.0%" height="125.0%" filterUnits="objectBoundingBox" id="filter-23">
            <feOffset dx="0" dy="5" in="SourceAlpha" result="shadowOffsetOuter1"></feOffset>
            <feGaussianBlur stdDeviation="3" in="shadowOffsetOuter1" result="shadowBlurOuter1"></feGaussianBlur>
            <feColorMatrix values="0 0 0 0 0   0 0 0 0 0   0 0 0 0 0  0 0 0 0.11166958 0" type="matrix" in="shadowBlurOuter1" result="shadowMatrixOuter1"></feColorMatrix>
            <feOffset dx="0" dy="1" in="SourceAlpha" result="shadowOffsetOuter2"></feOffset>
            <feColorMatrix values="0 0 0 0 0   0 0 0 0 0   0 0 0 0 0  0 0 0 0.173568619 0" type="matrix" in="shadowOffsetOuter2" result="shadowMatrixOuter2"></feColorMatrix>
            <feMerge>
                <feMergeNode in="shadowMatrixOuter1"></feMergeNode>
                <feMergeNode in="shadowMatrixOuter2"></feMergeNode>
            </feMerge>
        </filter>
        <linearGradient x1="50%" y1="0%" x2="50%" y2="100%" id="linearGradient-24">
            <stop stop-color="#E9CDBA" offset="0%"></stop>
            <stop stop-color="#F6E8DE" offset="100%"></stop>
        </linearGradient>
        <path d="M0.41411664,14.1849772 C1.47716082,15.1283257 2.9687224,15.6 4.88880136,15.6 C6.80888032,15.6 9.74708774,15.1283257 13.7034236,14.1849772 L13.7034236,0.105512679 L0.41411664,0.105512679 L0.41411664,14.1849772 Z" id="path-25"></path>
        <linearGradient x1="50%" y1="0%" x2="50%" y2="100%" id="linearGradient-27">
            <stop stop-color="#F6E8DE" offset="0%"></stop>
            <stop stop-color="#E9CDBA" offset="100%"></stop>
        </linearGradient>
        <linearGradient x1="50%" y1="0%" x2="50%" y2="100%" id="linearGradient-28">
            <stop stop-color="#6A6A6A" offset="0%"></stop>
            <stop stop-color="#393939" offset="100%"></stop>
        </linearGradient>
        <linearGradient x1="50%" y1="0%" x2="50%" y2="100%" id="linearGradient-29">
            <stop stop-color="#F6E8DE" offset="0%"></stop>
            <stop stop-color="#E9CDBA" offset="100%"></stop>
        </linearGradient>
        <linearGradient x1="50%" y1="0%" x2="50%" y2="100%" id="linearGradient-30">
            <stop stop-color="#15B694" offset="0%"></stop>
            <stop stop-color="#4769FF" offset="100%"></stop>
        </linearGradient>
        <linearGradient x1="50%" y1="0%" x2="50%" y2="100%" id="linearGradient-31">
            <stop stop-color="#F6F6F6" offset="0%"></stop>
            <stop stop-color="#E9E9E9" offset="100%"></stop>
        </linearGradient>
        <linearGradient x1="50%" y1="0%" x2="50%" y2="100%" id="linearGradient-32">
            <stop stop-color="#F6F6F6" offset="0%"></stop>
            <stop stop-color="#E9E9E9" offset="100%"></stop>
        </linearGradient>
        <circle id="path-33" cx="19.4419684" cy="19.4419684" r="19.4419684"></circle>
        <filter x="-28.3%" y="-18.0%" width="156.6%" height="156.6%" filterUnits="objectBoundingBox" id="filter-34">
            <feOffset dx="0" dy="4" in="SourceAlpha" result="shadowOffsetOuter1"></feOffset>
            <feGaussianBlur stdDeviation="3" in="shadowOffsetOuter1" result="shadowBlurOuter1"></feGaussianBlur>
            <feColorMatrix values="0 0 0 0 0   0 0 0 0 0   0 0 0 0 0  0 0 0 0.065586757 0" type="matrix" in="shadowBlurOuter1"></feColorMatrix>
        </filter>
    </defs>
    <g id="Web" stroke="none" stroke-width="1" fill="none" fill-rule="evenodd">
        <g id="proswap-landing-v1" transform="translate(-407.000000, -1712.000000)">
            <g id="Group-13" transform="translate(407.000000, 1712.950000)">
                <text id="ETH-+-Fee" font-family="DM Sans" font-size="16" font-weight="normal" fill="#000000">
                    <tspan x="163.768701" y="82">ETH + Fee</tspan>
                </text>
                <text id="Gets-Fee" font-family="DM Sans" font-size="16" font-weight="normal" fill="#000000">
                    <tspan x="400.808701" y="75">Gets Fee</tspan>
                </text>
                <text id="USDT" font-family="DM Sans" font-size="16" font-weight="normal" fill="#000000">
                    <tspan x="417.072701" y="136.55">USDT</tspan>
                </text>
                <g id="Group-12" transform="translate(0.204701, 26.000000)">
                    <g id="Group-10" transform="translate(20.280000, 26.703529)">
                        <mask id="mask-2" fill="white">
                            <use xlink:href="#path-1"></use>
                        </mask>
                        <g id="Mask">
                            <use fill="black" fill-opacity="1" filter="url(#filter-3)" xlink:href="#path-1"></use>
                            <use fill="#5A6476" fill-rule="evenodd" xlink:href="#path-1"></use>
                        </g>
                    </g>
                    <g id="Group-10" transform="translate(31.080000, 14.223529)">
                        <g id="Group" transform="translate(37.620000, 40.500000) scale(-1, 1) translate(-37.620000, -40.500000) translate(6.120000, 0.000000)">
                            <g id="Path-9" transform="translate(24.379791, 54.488567)">
                                <mask id="mask-6" fill="white">
                                    <use xlink:href="#path-5"></use>
                                </mask>
                                <use id="Mask" fill="url(#linearGradient-4)" xlink:href="#path-5"></use>
                                <path d="M14.5167432,4.86503033 C5.46453837,7.77764025 0.322029968,9.23394522 -0.910782019,9.23394522 C-2.14359401,9.23394522 -2.76,7.77764025 -2.76,4.86503033 L12.7321564,0 L17.8322916,0 L14.5167432,4.86503033 Z" fill="#C39F87" opacity="0.532203311" mask="url(#mask-6)"></path>
                            </g>
                            <path d="M62.7249339,80.9436917 C58.8874357,75.0044665 52.8575609,73.396276 52.8575609,73.396276 L38.401753,68.0389986 L24.605113,68.0389986 L10.15602,73.396276 C10.15602,73.396276 4.12278783,75.0044665 0.281932174,80.9436917 L62.7249339,80.9436917" id="Fill-5" fill="#F2E0D3"></path>
                            <path d="M8.28483391,28.2438395 C7.96588174,25.7302725 7.6961713,24.8629465 7.63126174,18.904696 C7.60104522,16.0934404 8.15277652,11.8552934 11.6455826,11.4960525 C16.4847026,11.0002778 17.9776226,19.3635395 18.2630009,22.9828073 C18.6569348,27.9774865 17.4180574,33.3672186 16.4556052,38.2555804 C16.1086748,40.0215682 16.1467252,43.5468291 14.1613878,44.3973682 C12.4591904,45.1292795 12.7479261,45.3978708 11.8828383,44.1220621 C9.79006435,41.0444534 8.73136696,31.8026743 8.28483391,28.2438395" id="Fill-8" fill="#393939"></path>
                            <path d="M16.1870139,61.4730604 C16.1870139,61.4730604 18.1052035,62.6929125 20.7083009,62.3582925 C23.3113983,62.0236725 27.7979922,60.9660943 27.7979922,60.9660943 C38.1275661,57.4553821 41.5554626,57.6668978 43.6874061,52.2973099 C43.7545539,52.1327978 50.8666278,24.3839586 50.8666278,24.3839586 C52.1872017,9.9538908 37.0878939,6.95462123 34.805987,6.57859341 C32.5509391,6.06043602 18.170113,2.0629021 13.9241322,15.909903 C13.9241322,15.909903 7.64916783,31.9582334 10.8991226,51.9190438 C12.8150739,59.4093838 16.1870139,61.4730604 16.1870139,61.4730604 Z" id="Fill-9" fill="url(#linearGradient-7)"></path>
                            <path d="M31.451953,1.82228906 C35.7482948,1.24929428 40.7373783,0.161499495 44.9766443,1.54474471 C50.6237765,3.39354819 50.6036322,9.82854819 53.1574878,14.2222543 C55.8758557,18.9002195 57.5903635,22.8563456 57.354227,27.9517465 C57.1729278,31.8966812 55.6341235,29.9617047 55.0644861,34.0017656 C54.4310583,38.4950743 53.5715661,38.8431238 51.4373843,42.602283 L43.6874061,52.2973099 C44.9285217,47.3787317 43.9895713,46.4711169 45.1221313,42.6940517 C46.4829939,38.1615734 46.0845835,32.0936482 44.0634339,27.4380656 C42.2773017,23.3196656 41.035067,23.4069578 37.2289043,22.4098125 C32.3371852,21.1295273 28.1158252,20.6527778 23.034973,20.5699621 C18.3917009,20.4972186 13.338827,20.3618038 9.57071478,17.2606934 C6.10141043,14.4013151 4.81776783,8.07598993 6.15289043,3.72145341 C6.15289043,3.72145341 8.28483391,-1.07849703 14.2632287,0.2241708 C17.9261426,1.02658732 21.6506087,2.09983341 25.4176017,2.22181863 C27.5025417,2.28784732 29.4968322,2.08192732 31.451953,1.82228906" id="Fill-11" fill="url(#linearGradient-8)"></path>
                            <path d="M44.1708704,39.951063 C44.1708704,39.951063 46.7224878,34.3867465 50.739047,37.6825856 C50.739047,37.6825856 52.5643487,39.1094769 50.3126583,42.8294665 C50.3126583,42.8294665 47.0470357,48.1833865 43.1300791,45.2188099 L44.1708704,39.951063" id="Fill-12" fill="#E9CDBA"></path>
                            <path d="M44.5726383,26.978103 C44.5726383,26.978103 44.5524939,36.9372447 42.7215965,42.216183 L44.6666452,42.602283 C44.6666452,42.602283 45.6850539,35.7744682 49.1991235,35.6916525 L44.5726383,26.978103" id="Fill-13" fill="#393939"></path>
                        </g>
                        <g id="Group-9" transform="translate(0.000000, 69.311450)" fill="url(#linearGradient-9)" fill-rule="nonzero">
                            <path d="M48.8390348,0.15773043 L60.6610532,4.53714456 L60.6769663,4.54150292 C60.9132205,4.60716588 63.7446264,5.42647782 66.7900122,7.78899436 C69.7246175,9.28416458 71.5321549,11.8376517 71.8059766,12.2419012 L71.8423574,12.2965065 L71.8423574,12.2965065 C72.2458787,13.021375 72.8226561,14.2144908 73.5279497,15.8285249 C65.1885326,27.5577856 51.4877322,35.2085501 36,35.2085501 C21.4756208,35.2085501 8.52278889,28.479956 0.0885644046,17.9698278 C1.6443003,14.1862328 3.93630883,11.685019 6.30386351,10.0311699 C10.0936491,5.91882362 14.564473,4.62473347 14.8640582,4.54150292 L14.8799778,4.53714456 L26.3444441,0.286113255 C31.300532,3.13887311 35.4202515,4.55588354 38.7036025,4.53714456 C41.9869535,4.51840557 45.3654309,3.05860086 48.8390348,0.15773043 Z" id="Combined-Shape"></path>
                        </g>
                    </g>
                </g>
                <g id="Group-15" transform="translate(94.584701, 79.223529)">
                    <g id="Oval">
                        <use fill="black" fill-opacity="1" filter="url(#filter-11)" xlink:href="#path-10"></use>
                        <use fill="#FFFFFF" fill-rule="evenodd" xlink:href="#path-10"></use>
                    </g>
                    <circle id="Oval" fill="#15B694" opacity="0.281784784" cx="19.4419684" cy="19.4419684" r="16.848"></circle>
                    <path d="M16.1428599,25.3939684 L17.1121856,22.6390427 L21.7547456,22.6390427 L22.7070656,25.3939684 L25.0198427,25.3939684 L20.6663799,13.4899684 L18.217557,13.4899684 L13.8640942,25.3939684 L16.1428599,25.3939684 Z M21.1595456,20.9384713 L17.7073856,20.9384713 L19.4249627,15.9898084 L21.1595456,20.9384713 Z" id="A" fill="#15B694" fill-rule="nonzero"></path>
                </g>
                <line x1="120.804701" y1="99.05" x2="313.5" y2="99.05" id="Path-19" stroke="#C6C8CC" stroke-width="1.2" stroke-dasharray="5"></line>
                <line x1="341.304701" y1="88.089744" x2="513.304701" y2="88.089744" id="Path-19-Copy" stroke="#C6C8CC" stroke-width="1.2" stroke-dasharray="5"></line>
                <line x1="341.304701" y1="109.089744" x2="513.304701" y2="109.089744" id="Path-19-Copy-2" stroke="#C6C8CC" stroke-width="1.2" stroke-dasharray="5"></line>
                <g id="Group-8" transform="translate(274.304701, 59.550000)">
                    <g id="Oval">
                        <use fill="black" fill-opacity="1" filter="url(#filter-13)" xlink:href="#path-12"></use>
                        <use fill="#FFFFFF" fill-rule="evenodd" xlink:href="#path-12"></use>
                    </g>
                    <g id="Oval-Copy-7" opacity="0.564429874">
                        <use fill="#FAFAFB" fill-rule="evenodd" xlink:href="#path-14"></use>
                        <use fill="black" fill-opacity="1" filter="url(#filter-15)" xlink:href="#path-14"></use>
                    </g>
                    <g id="Oval-Copy-7" opacity="0.564429874">
                        <use fill="#FAFAFB" fill-rule="evenodd" xlink:href="#path-16"></use>
                        <use fill="black" fill-opacity="1" filter="url(#filter-17)" xlink:href="#path-16"></use>
                    </g>
                    <g id="Group-6" transform="translate(3.636476, 3.941176)" fill="url(#linearGradient-18)" fill-rule="nonzero">
                        <path d="M35.5588235,2.60810981e-13 C55.1974195,2.60810981e-13 71.1176471,15.9202276 71.1176471,35.5588235 C71.1176471,55.1974195 55.1974195,71.1176471 35.5588235,71.1176471 C15.9202276,71.1176471 0,55.1974195 0,35.5588235 C0,15.9202276 15.9202276,2.60810981e-13 35.5588235,2.60810981e-13 Z M35.5588235,1.40363777 C16.6954353,1.40363777 1.40363777,16.6954353 1.40363777,35.5588235 C1.40363777,54.4222118 16.6954353,69.7140093 35.5588235,69.7140093 C54.4222118,69.7140093 69.7140093,54.4222118 69.7140093,35.5588235 C69.7140093,16.6954353 54.4222118,1.40363777 35.5588235,1.40363777 Z" id="Combined-Shape"></path>
                        <path d="M35.5588235,3.44117647 C53.2969102,3.44117647 67.6764706,17.8207369 67.6764706,35.5588235 C67.6764706,53.2969102 53.2969102,67.6764706 35.5588235,67.6764706 C17.8207369,67.6764706 3.44117647,53.2969102 3.44117647,35.5588235 C3.44117647,17.8207369 17.8207369,3.44117647 35.5588235,3.44117647 Z M35.5588235,3.9977004 C18.1280965,3.9977004 3.9977004,18.1280965 3.9977004,35.5588235 C3.9977004,52.9895505 18.1280965,67.1199467 35.5588235,67.1199467 C52.9895505,67.1199467 67.1199467,52.9895505 67.1199467,35.5588235 C67.1199467,18.1280965 52.9895505,3.9977004 35.5588235,3.9977004 Z" id="Combined-Shape-Copy"></path>
                    </g>
                    <g id="noun_Science_1788342" transform="translate(23.727941, 22.294118)" fill="url(#linearGradient-19)" fill-rule="nonzero">
                        <g id="Group">
                            <path d="M15.7720691,0 C16.8025964,0 17.7746867,0.456572721 18.630973,1.2329482 C19.0198049,0.986677498 19.4765077,0.83952106 19.9686253,0.83952106 C21.3542694,0.83952106 22.486559,1.97181486 22.486559,3.35745476 C22.486559,4.24043955 22.0246566,5.03217442 21.332506,5.48196131 C21.4984882,5.89221664 21.6437436,6.33450009 21.7915044,6.78027087 C23.0421914,6.52191829 24.2210628,6.36792566 25.2930059,6.36061526 C27.7804474,6.3436192 29.7743488,7.02939523 30.6829577,8.60314996 C31.242216,9.57181164 31.3005901,10.7358776 30.971471,11.9735091 C30.6423518,13.2111407 29.9290506,14.5326236 28.9125356,15.881552 C28.5828877,16.3189843 28.2039051,16.7649523 27.8109396,17.2060943 C28.2039051,17.6472363 28.5828877,18.0800691 28.9125356,18.5175181 C29.9290506,19.8664591 30.6423518,21.1879127 30.971471,22.425561 C31.3005901,23.6631674 31.242216,24.8403853 30.6829577,25.8090344 C30.6749003,25.822883 30.6648706,25.8224634 30.6567292,25.8350531 C30.7992737,26.1501725 30.8796713,26.4909328 30.8796713,26.8579636 C30.8796713,28.2435825 29.7473859,29.3758973 28.3617376,29.3758973 C27.3884975,29.3758973 26.5379185,28.8246377 26.1192029,28.0120166 C24.8334536,28.0928003 23.3741936,27.9708903 21.7915044,27.6448179 C21.6070112,28.2001062 21.4138269,28.7317259 21.2013637,29.2316197 C20.5408215,30.7858563 19.7484991,32.0658478 18.8408008,32.9691985 C17.9331025,33.8725492 16.8905017,34.4117647 15.7720691,34.4117647 C14.6536365,34.4117647 13.6110357,33.8725492 12.7033374,32.9691985 C11.7956391,32.0658478 11.0033167,30.7858563 10.3427746,29.2316197 C10.1303113,28.7317259 9.93712708,28.2001062 9.75263388,27.6448179 C9.07348421,27.7852766 8.41613146,27.8793634 7.78549818,27.9464244 C7.6678771,29.2245695 6.58836339,30.2283018 5.28067872,30.2283018 C3.89503043,30.2283018 2.76274502,29.096029 2.76274502,27.7103681 C2.76274502,27.6193448 2.76652192,27.5367146 2.77583828,27.4480833 C1.9513241,27.0835705 1.28043746,26.5350386 0.861159531,25.8088246 C0.301901697,24.8401755 0.243527601,23.6629576 0.572646715,22.4253512 C0.901765408,21.1877028 1.61506665,19.8662493 2.63158166,18.5173083 C2.96122954,18.0798592 3.34021213,17.6470264 3.73317765,17.2058845 C3.34021213,16.7647425 2.96122954,16.3187744 2.63158166,15.8813422 C1.61506665,14.5324138 0.901765408,13.2109308 0.572646715,11.9732993 C0.243527601,10.7356677 0.301901697,9.57160181 0.861159531,8.60294013 C1.76976849,7.02918541 3.76367403,6.34344295 6.25111135,6.36040543 C7.32305447,6.36770744 8.50192585,6.52170846 9.75261289,6.78006105 C9.938193,6.21991732 10.1288048,5.67041606 10.3427536,5.16700977 C11.0032957,3.61279422 11.7956181,2.34591686 12.7033164,1.44256618 C13.6110357,0.539215501 14.6536365,0 15.7720691,0 L15.7720691,0 Z M15.7720691,0.83952106 C14.920462,0.83952106 14.092813,1.23740914 13.2934781,2.03291672 C12.4941433,2.8284243 11.747001,4.01158036 11.1165146,5.49507555 C10.9231583,5.9500326 10.7492069,6.44258659 10.5788309,6.95075597 C12.2224792,7.35044017 13.9763627,7.95578501 15.7720691,8.74740657 C17.5723288,7.95377485 19.3311642,7.35043178 20.9784216,6.95075597 C20.8464231,6.55632165 20.7050957,6.17246266 20.558766,5.80981726 C20.3704833,5.8551065 20.1703579,5.87538845 19.9686253,5.87538845 C18.582977,5.87538845 17.4506916,4.74309465 17.4506916,3.35745476 C17.4506916,2.76800648 17.6593444,2.22695288 18.0014896,1.79686043 C17.2809954,1.16060377 16.532078,0.83952106 15.7720691,0.83952106 Z M19.9686253,1.67883229 C19.0365785,1.67883229 18.2900028,2.42541222 18.2900028,3.35745476 C18.2900028,4.2894889 19.0365827,5.03607722 19.9686253,5.03607722 C20.9006678,5.03607722 21.6472477,4.2894889 21.6472477,3.35745476 C21.6472477,2.42541222 20.900672,1.67883229 19.9686253,1.67883229 L19.9686253,1.67883229 Z M25.2930059,7.19992649 C24.3126736,7.20659901 23.2243681,7.34245832 22.0537891,7.58023939 C22.5292128,9.20339178 22.8773045,11.0314704 23.0898139,12.9833054 C24.6773921,14.1458019 26.0902634,15.3639152 27.2601416,16.5897041 C27.6142932,16.1892771 27.9468157,15.7771921 28.2437095,15.383211 C29.214012,14.0956111 29.8685698,12.8535228 30.1583882,11.7636813 C30.4482066,10.6738399 30.374322,9.7602496 29.9485604,9.02280557 C29.2565105,7.82413904 27.6235969,7.18401315 25.2930059,7.19992649 Z M6.25113233,7.19992649 C3.9205371,7.18402154 2.28762772,7.82413904 1.59557784,9.02280557 C1.16981624,9.7602496 1.09593167,10.6738399 1.38575003,11.7636813 C1.6755684,12.8535228 2.33012625,14.0956111 3.30042878,15.383211 C3.59732254,15.7771921 3.92984506,16.1892771 4.28399663,16.5897041 C5.45387479,15.3639152 6.86674614,14.1458019 8.45432432,12.9833054 C8.66764366,11.0301569 9.01405678,9.20405903 9.49034912,7.58023939 C8.31977014,7.34245832 7.23146464,7.2066116 6.25113233,7.19992649 Z M21.2407064,7.75072449 C19.8410458,8.08698614 18.3480832,8.58186083 16.8080939,9.21951914 C17.7190488,9.65465585 18.6315815,10.1324296 19.5489697,10.6620853 C20.4720945,11.1950521 21.3481928,11.7524975 22.1849315,12.3275935 C21.970605,10.6705456 21.6478437,9.13441718 21.2407064,7.75072449 Z M10.3165461,7.75072449 C9.90849817,9.13150057 9.58900176,10.6749142 9.37232098,12.3275935 C10.2064033,11.7546713 11.0753338,11.1931511 11.9951686,10.6620853 C12.9125567,10.1324296 13.8250895,9.65465585 14.7360443,9.21951914 C13.2006083,8.58374088 11.7126396,8.08689801 10.3165461,7.75072449 Z M15.7720691,9.66540323 C14.6643545,10.1659391 13.5370295,10.7354621 12.4148242,11.3833684 C11.2901513,12.0326973 10.231079,12.7325738 9.2411786,13.4423038 C9.12094726,14.6543699 9.05757926,15.9078686 9.05757926,17.2060943 C9.05757926,18.4996407 9.12178657,19.7633077 9.2411786,20.9698596 C10.231079,21.6796231 11.2901513,22.3663476 12.4148242,23.0156807 C13.5395684,23.6650558 14.6620548,24.2454815 15.7720691,24.7467601 C16.8796662,24.2450619 18.0075242,23.6633772 19.129314,23.0156807 C20.2539869,22.3663476 21.3130592,21.6796231 22.3029596,20.9698596 C22.4223517,19.7633077 22.486559,18.4996407 22.486559,17.2060943 C22.486559,15.9088884 22.4213655,14.6535474 22.3029596,13.4423038 C21.3130592,12.7325738 20.2539869,12.0326973 19.129314,11.3833684 C18.0071088,10.7354621 16.8797837,10.1659391 15.7720691,9.66540323 Z M23.2078421,14.0980157 C23.287329,15.1093857 23.3258702,16.1411552 23.3258702,17.2060943 C23.3258702,18.2670676 23.2869681,19.307226 23.2078421,20.3141477 C24.5334502,19.2995044 25.7027199,18.2508269 26.6962294,17.2060943 C25.7027199,16.161349 24.5334502,15.1127052 23.2078421,14.0980157 Z M8.34941041,14.0980157 C7.02041143,15.1146734 5.84348726,16.1591752 4.84790887,17.2060943 C5.84141836,18.2508269 7.01068801,19.2995044 8.33629617,20.3141477 C8.25716171,19.307226 8.21826803,18.2670676 8.21826803,17.2060943 C8.21826803,16.1402655 8.26956673,15.1103383 8.34941041,14.0980157 Z M15.7720691,14.6881564 C17.1577174,14.6881564 18.2900028,15.8204502 18.2900028,17.2060943 C18.2900028,18.5917552 17.1577174,19.724028 15.7720691,19.724028 C14.3864208,19.724028 13.2541354,18.5917552 13.2541354,17.2060943 C13.2541354,15.8204502 14.3864208,14.6881564 15.7720691,14.6881564 Z M15.7720691,15.5274676 C14.8400266,15.5274676 14.0934467,16.2740392 14.0934467,17.2060943 C14.0934467,18.1381494 14.8400266,18.8847167 15.7720691,18.8847167 C16.7041117,18.8847167 17.4506916,18.1381494 17.4506916,17.2060943 C17.4506916,16.2740392 16.7041117,15.5274676 15.7720691,15.5274676 Z M27.2601416,17.8224844 C26.0894913,19.0490958 24.6786888,20.2656775 23.0898139,21.4288789 C22.8766666,23.3843902 22.5311348,25.2066607 22.0537891,26.831945 C23.4618974,27.1183599 24.7481796,27.2341429 25.8700324,27.1860084 C25.8563138,27.0800873 25.8438039,26.9677036 25.8438039,26.8581734 C25.8438039,25.4725126 26.9760935,24.3402398 28.3617376,24.3402398 C29.0417476,24.3402398 29.6649529,24.6199822 30.1190455,25.0615019 C30.3930512,24.3858563 30.4053807,23.5641706 30.1583672,22.6353888 C29.8685489,21.5455432 29.213991,20.3034465 28.2436885,19.0158591 C27.9467947,18.6218864 27.6142722,18.2229198 27.2601206,17.8224844 L27.2601416,17.8224844 Z M4.28399663,17.8224844 C3.92984506,18.2229198 3.59732254,18.6218864 3.30042878,19.0158591 C2.33012625,20.3034465 1.6755684,21.5455432 1.38575003,22.6353888 C1.09593167,23.7252344 1.16981624,24.651918 1.59557784,25.3893788 C1.89726826,25.911934 2.37387534,26.3202589 3.01191555,26.6221172 C3.42078182,25.7814211 4.2868335,25.1926442 5.28067872,25.1926442 C6.46103568,25.1926442 7.45056264,26.0204989 7.71992699,27.1204582 C8.28465755,27.0591885 8.87781139,26.9698018 9.49034912,26.8450382 C9.01121571,25.2166905 8.66800456,23.3892582 8.45432432,21.4288789 C6.8654494,20.2656775 5.45464696,19.0490958 4.28399663,17.8224844 Z M22.1849315,22.0714556 C21.3478822,22.6468034 20.4724806,23.2037704 19.5489697,23.7369848 C18.6263484,24.2696537 17.6975372,24.7425636 16.7818654,25.179551 C18.3250818,25.8198615 19.8252667,26.3100612 21.2275921,26.6483456 C21.6363745,25.2646571 21.9687795,23.7276684 22.1849315,22.0714556 L22.1849315,22.0714556 Z M9.35920674,22.0714556 C9.57535876,23.7276684 9.90776377,25.2646571 10.3165461,26.6483456 C11.7158374,26.3095996 13.2104577,25.8324092 14.7491586,25.1926442 C13.8363656,24.7564962 12.9152635,24.2681849 11.9951686,23.7369848 C11.0716576,23.2037704 10.196256,22.6468034 9.35920674,22.0714556 L9.35920674,22.0714556 Z M28.3617376,25.179551 C27.4296909,25.179551 26.6831151,25.9261183 26.6831151,26.8581734 C26.6831151,27.7901866 27.4296951,28.5367959 28.3617376,28.5367959 C29.2937801,28.5367959 30.0403601,27.7901866 30.0403601,26.8581734 C30.0403601,25.9261183 29.2937843,25.179551 28.3617376,25.179551 L28.3617376,25.179551 Z M15.7589549,25.6516636 C13.9644487,26.4425465 12.2204733,27.0621261 10.5788309,27.4614284 C10.748334,27.9657705 10.9243082,28.4517317 11.1165146,28.9039946 C11.747001,30.3874772 12.4941433,31.5706542 13.2934781,32.3661534 C14.092813,33.1616526 14.920462,33.5726633 15.7720691,33.5726633 C16.6236763,33.5726633 17.4513253,33.1616526 18.2506601,32.3661534 C19.0499949,31.5706542 19.7971372,30.3874772 20.4276236,28.9039946 C20.6198301,28.4517317 20.7958043,27.9657705 20.9653074,27.4614284 C19.3163294,27.0613287 17.5613716,26.448044 15.7589549,25.6516636 L15.7589549,25.6516636 Z M5.28067872,26.0319555 C4.34863199,26.0319555 3.60205626,26.7785648 3.60205626,27.7105779 C3.60205626,28.6426331 4.34863619,29.3892004 5.28067872,29.3892004 C6.21272125,29.3892004 6.95930118,28.6426331 6.95930118,27.7105779 C6.95930118,26.7785648 6.21272545,26.0319555 5.28067872,26.0319555 Z" id="Shape"></path>
                        </g>
                    </g>
                </g>
                <g id="arrow-(4)" transform="translate(178.500000, 82.580672)" fill="url(#linearGradient-20)" fill-rule="nonzero">
                    <path d="M23.2324425,11.4824497 L27.6536384,15.9035774 C27.7942023,16.0442095 27.8644046,16.2283283 27.8644046,16.4125382 C27.8644046,16.5968391 27.7940657,16.7810944 27.6535247,16.9216583 L23.2323287,21.3427177 C22.9510872,21.6240957 22.4951024,21.6240957 22.2139975,21.3427177 C21.9328698,21.06159 21.9328698,20.6056279 22.2139975,20.324523 L25.3048434,17.2335186 L0.368843367,17.2337355 L0.368843367,15.7662645 L25.4788434,15.7655186 L22.2141113,12.5007354 C21.9329836,12.2194939 21.9329836,11.7635774 22.2141113,11.4824497 C22.4952389,11.2012082 22.951201,11.2012082 23.2324425,11.4824497 Z" id="Combined-Shape"></path>
                    <path d="M255.363599,0.680258831 L259.784795,5.10138652 C259.925359,5.24201863 259.995561,5.42613747 259.995561,5.61034733 C259.995561,5.79464821 259.925222,5.97890358 259.784681,6.11946743 L255.363485,10.5405268 C255.082244,10.8219048 254.626259,10.8219048 254.345154,10.5405268 C254.064026,10.2593992 254.064026,9.80343709 254.345154,9.52233216 L257.436,6.43132773 L232.5,6.43154459 L232.5,4.96407369 L257.61,4.96332773 L254.345268,1.69854455 C254.06414,1.41730308 254.06414,0.961386517 254.345268,0.680258831 C254.626396,0.399017364 255.082358,0.399017364 255.363599,0.680258831 Z" id="Combined-Shape"></path>
                    <path d="M255.363599,21.6802588 L259.784795,26.1013865 C259.925359,26.2420186 259.995561,26.4261375 259.995561,26.6103473 C259.995561,26.7946482 259.925222,26.9789036 259.784681,27.1194674 L255.363485,31.5405268 C255.082244,31.8219048 254.626259,31.8219048 254.345154,31.5405268 C254.064026,31.2593992 254.064026,30.8034371 254.345154,30.5223322 L257.436,27.4313277 L232.5,27.4315446 L232.5,25.9640737 L257.61,25.9633277 L254.345268,22.6985445 C254.06414,22.4173031 254.06414,21.9613865 254.345268,21.6802588 C254.626396,21.3990174 255.082358,21.3990174 255.363599,21.6802588 Z" id="Combined-Shape-Copy-2" transform="translate(246.247781, 26.610444) scale(-1, 1) translate(-246.247781, -26.610444) "></path>
                </g>
                <g id="Group-12-Copy" transform="translate(499.304701, 37.000000)">
                    <g id="Group-10" transform="translate(20.280000, 15.703529)">
                        <mask id="mask-22" fill="white">
                            <use xlink:href="#path-21"></use>
                        </mask>
                        <g id="Mask">
                            <use fill="black" fill-opacity="1" filter="url(#filter-23)" xlink:href="#path-21"></use>
                            <use fill="#5A6476" fill-rule="evenodd" xlink:href="#path-21"></use>
                        </g>
                    </g>
                    <g id="Group-10" transform="translate(28.000000, 0.000000)">
                        <g id="Group-2" transform="translate(6.177108, 0.103529)">
                            <g id="Fill-139" transform="translate(26.255047, 61.083726)">
                                <mask id="mask-26" fill="white">
                                    <use xlink:href="#path-25"></use>
                                </mask>
                                <use id="Mask" fill="url(#linearGradient-24)" xlink:href="#path-25"></use>
                                <path d="M-3.24561707,6.63932899 C-3.24561707,6.63932899 -1.26645033,7.5599218 1.18055866,6.91744719 C3.62756765,6.27497258 7.78101507,4.70220337 7.78101507,4.70220337 C17.2057726,0.0582761795 20.5033059,-0.167021124 21.8712593,-5.56337663 C21.9154564,-5.72938517 25.2345492,-33.1218721 25.2345492,-33.1218721 C24.6934045,-47.0676674 9.89708495,-48.046471 7.66998338,-48.1186955 C5.45366158,-48.3310571 -8.78103167,-50.3544209 -11.1040732,-36.5951157 C-11.1040732,-36.5951157 -15.0915121,-20.4825856 -9.49034089,-1.82602854 C-6.72425055,5.09027528 -3.24561707,6.63932899 -3.24561707,6.63932899 Z" fill="#C39F87" opacity="0.532203311" mask="url(#mask-26)"></path>
                            </g>
                            <path d="M39.958471,70.5320697 L53.8816288,75.6901921 L53.8816288,75.6901921 L53.8979557,75.6946782 C54.3572651,75.8228712 64.3673888,78.7444866 66.1199076,90.3517645 L66.1199076,90.3517645 L65.6732335,93.8793659 C57.3215744,102.394137 45.6861941,107.676502 32.8170515,107.676502 C20.4359198,107.676502 9.19675376,102.787167 0.925033978,94.833976 L0.514195281,90.3517645 C2.20486054,79.1541552 11.5795695,76.0399224 12.6515381,75.7189497 L12.7149254,75.7003722 C12.7389783,75.6934991 12.7513962,75.6901921 12.7513962,75.6901921 L12.7513962,75.6901921 L26.669164,70.5320697 L31.1438488,75.8712924 L39.958471,70.5320697 Z" id="Combined-Shape" fill="#F8F8FC"></path>
                            <path d="M23.0094303,66.1457791 C23.0094303,66.1457791 24.9885971,67.0663719 27.4356061,66.4238973 C29.8826151,65.7814227 34.0360625,64.2086535 34.0360625,64.2086535 C43.46082,59.5647263 46.7583533,59.339429 48.1263067,53.9430735 C48.1705038,53.7770649 51.4895966,26.384578 51.4895966,26.384578 C50.9484519,12.4387827 36.1521324,11.4599791 33.9250308,11.3877546 C31.708709,11.175393 17.4740157,9.15202921 15.1509742,22.9113344 C15.1509742,22.9113344 11.1635353,39.0238645 16.7647065,57.6804216 C19.5307969,64.5967254 23.0094303,66.1457791 23.0094303,66.1457791 Z" id="Fill-139" fill="url(#linearGradient-27)"></path>
                            <path d="M13.0596978,16.0521634 C11.846973,22.8100045 13.8832726,40.7001196 13.8832726,40.7001196 C13.8832726,40.7001196 14.4470548,22.7744312 19.2731602,18.9357533 C19.2731602,18.9357533 24.1089674,16.6622987 27.5229222,19.5070813 C27.5229222,19.5070813 43.6580899,13.2602016 45.8032652,29.6508499 L47.8816058,43.9297402 L48.1263067,53.9430735 C58.3369099,41.5064467 57.5909494,23.9914679 57.5909494,23.9914679 C57.5909494,23.9914679 59.389016,12.666236 51.2761571,11.1624573 C51.2761571,11.1624573 51.9833103,1.69889258 36.0540364,0.275962247 C36.0540364,0.275962247 38.3468946,3.32879461 39.193107,5.35862629 C39.193107,5.35862629 36.3526362,-1.4293982 21.1294375,0.275962247 C21.1294375,0.275962247 24.9627256,1.43155416 26.669164,4.12434202 C26.669164,4.12434202 23.3640849,5.69926719 13.7819427,0 C13.7819427,0 3.14985034,9.93140697 13.0596978,16.0521634" id="Fill-142" fill="url(#linearGradient-28)"></path>
                            <path d="M47.0440173,42.0917885 C47.0440173,42.0917885 48.7881849,36.4572 53.0332604,39.1036348 C53.0332604,39.1036348 54.9542164,40.2387452 53.2693375,44.0752672 C53.2693375,44.0752672 50.8212506,49.5934342 46.7076883,47.252067 L47.0440173,42.0917885" id="Fill-143" fill="url(#linearGradient-29)"></path>
                            <path d="M39.958471,70.5320697 L53.8816288,75.6901921 L53.8979557,75.6946782 C54.1309979,75.7597202 56.8227038,76.5438721 59.6470533,78.8167401 C63.8533186,80.9352374 65.1950029,85.5730901 65.1950029,85.5730901 C65.4591413,86.0757785 66.2965516,88.3475828 67.4705689,91.936952 C60.5186655,99.8884239 50.873861,105.42498 39.9591007,107.125624 L39.958471,70.5320697 Z" id="Combined-Shape" fill="#29303E"></path>
                            <path d="M21.9831957,72.2708474 L21.5099221,106.277128 C13.6473256,104.290866 6.59021299,100.280999 0.925033978,94.833976 L0.514195281,90.3517645 C2.30794989,78.4713742 12.7513962,75.6901921 12.7513962,75.6901921 L12.7513962,75.6901921 L21.9831957,72.2708474 Z" id="Combined-Shape" fill="#29303E"></path>
                            <path d="M32.8686128,83.5238548 L32.900164,107.675715 L32.8170515,107.676502 C30.8308906,107.676502 28.8741172,107.55068 26.9542671,107.306571 L28.5189735,83.5238548 L32.8686128,83.5238548 Z M36.0540364,75.7527148 L36.0540364,80.3384312 L32.8686128,83.5195429 L28.5189735,83.5195429 L26.669164,79.6377458 L26.669164,75.7527148 L36.0540364,75.7527148 Z" id="Combined-Shape" fill="url(#linearGradient-30)"></path>
                            <polyline id="Fill-149" fill="url(#linearGradient-31)" points="31.1438488 75.7808314 39.958471 67.5903582 47.2423652 72.1739186 37.6160258 81.6698226 31.1438488 75.7808314"></polyline>
                            <polyline id="Fill-150" fill="url(#linearGradient-32)" points="31.1438488 75.8039892 26.5247151 68.5739939 19.2731602 72.4115939 24.7115569 81.1583036 31.1438488 75.8039892"></polyline>
                        </g>
                    </g>
                    <g id="Group-11" transform="translate(0.000000, 42.223529)">
                        <g id="Oval">
                            <use fill="black" fill-opacity="1" filter="url(#filter-34)" xlink:href="#path-33"></use>
                            <use fill="#FFFFFF" fill-rule="evenodd" xlink:href="#path-33"></use>
                        </g>
                        <circle id="Oval" fill="#4769FF" opacity="0.281784784" cx="19.4419684" cy="19.4419684" r="16.848"></circle>
                        <path d="M19.9610828,25.4643445 C21.2092265,25.4643445 22.1737012,25.157982 22.8545069,24.5452569 C23.5353125,23.9325318 23.8757154,23.1552786 23.8757154,22.2134974 C23.8757154,21.4986515 23.6544535,20.8717429 23.2119298,20.3327718 C22.7694062,19.7938006 22.2077415,19.4562345 21.5269358,19.3200733 C22.1056206,19.1612187 22.5963681,18.8576928 22.9991781,18.4094957 C23.4019881,17.9612987 23.6033931,17.362757 23.6033931,16.6138708 C23.6033931,15.7174767 23.2771737,14.9827739 22.624735,14.4097624 C21.9722962,13.836751 21.0276783,13.5502453 19.7908813,13.5502453 L19.7908813,13.5502453 L15.0082215,13.5502453 L15.0082215,25.4643445 L19.9610828,25.4643445 Z M19.4674987,18.554167 L17.1867997,18.554167 L17.1867997,15.3033199 L19.4334584,15.3033199 C20.0802238,15.3033199 20.5652978,15.4479911 20.8886805,15.7373335 C21.2120632,16.0266759 21.3737545,16.4209758 21.3737545,16.9202333 C21.3737545,17.4421844 21.2092265,17.8449944 20.8801704,18.1286634 C20.5511143,18.4123324 20.0802238,18.554167 19.4674987,18.554167 L19.4674987,18.554167 Z M19.6206799,23.6942498 L17.1867997,23.6942498 L17.1867997,20.1881006 L19.5866396,20.1881006 C20.2220583,20.1881006 20.7269891,20.3469552 21.1014323,20.6646645 C21.4758754,20.9823738 21.6630969,21.4192242 21.6630969,21.9752155 C21.6630969,22.51986 21.4843855,22.9425268 21.1269625,23.243216 C20.7695395,23.5439052 20.2674453,23.6942498 19.6206799,23.6942498 L19.6206799,23.6942498 Z" id="B" fill="#4769FF" fill-rule="nonzero"></path>
                    </g>
                </g>
                <text id="Buyer" font-family="DMSans-Bold, DM Sans" font-size="18" font-weight="bold" fill="#000000" fill-opacity="0.87">
                    <tspan x="45.2217009" y="18">Buyer</tspan>
                </text>
                <text id="Smart-contract" font-family="DMSans-Bold, DM Sans" font-size="18" font-weight="bold" fill="#000000" fill-opacity="0.87">
                    <tspan x="247.312701" y="18">Smart contract</tspan>
                </text>
                <text id="Seller" font-family="DMSans-Bold, DM Sans" font-size="18" font-weight="bold" fill="#000000" fill-opacity="0.87">
                    <tspan x="537.441701" y="18">Seller</tspan>
                </text>
            </g>
        </g>
    </g>
</svg>