<?xml version="1.0" encoding="UTF-8"?>
<svg width="827px" height="206px" viewBox="0 0 827 206" version="1.1" xmlns="http://www.w3.org/2000/svg" xmlns:xlink="http://www.w3.org/1999/xlink">
    <title>what-is</title>
    <defs>
        <linearGradient x1="100%" y1="47.177771%" x2="26.3398844%" y2="53.8422608%" id="linearGradient-1">
            <stop stop-color="#CFD1DA" offset="0%"></stop>
            <stop stop-color="#CFD1DA" offset="18.5441882%"></stop>
            <stop stop-color="#F6F6F9" offset="100%"></stop>
        </linearGradient>
        <path d="M48.2165395,0.499420622 L91.0662989,23.7402933 C92.2940241,24.4061874 92.2940241,25.4858152 91.0662989,26.1517093 L48.2165395,49.392582 C46.9888143,50.0584761 44.9982785,50.0584761 43.7705533,49.392582 L0.920793888,26.1517093 C-0.306931296,25.4858152 -0.306931296,24.4061874 0.920793888,23.7402933 L43.7705533,0.499420622 C44.9982785,-0.166473541 46.9888143,-0.166473541 48.2165395,0.499420622 Z" id="path-2"></path>
        <filter x="-1.1%" y="-2.0%" width="102.2%" height="104.0%" filterUnits="objectBoundingBox" id="filter-3">
            <feOffset dx="0" dy="-2" in="SourceAlpha" result="shadowOffsetInner1"></feOffset>
            <feComposite in="shadowOffsetInner1" in2="SourceAlpha" operator="arithmetic" k2="-1" k3="1" result="shadowInnerInner1"></feComposite>
            <feColorMatrix values="0 0 0 0 1   0 0 0 0 1   0 0 0 0 1  0 0 0 0.5 0" type="matrix" in="shadowInnerInner1"></feColorMatrix>
        </filter>
        <linearGradient x1="50%" y1="116.496896%" x2="50%" y2="0%" id="linearGradient-4">
            <stop stop-color="#CFD1DA" offset="0%"></stop>
            <stop stop-color="#F6F6F9" offset="100%"></stop>
        </linearGradient>
        <circle id="path-5" cx="102" cy="102" r="55"></circle>
        <filter x="-0.9%" y="-0.9%" width="101.8%" height="101.8%" filterUnits="objectBoundingBox" id="filter-6">
            <feOffset dx="0" dy="-2" in="SourceAlpha" result="shadowOffsetInner1"></feOffset>
            <feComposite in="shadowOffsetInner1" in2="SourceAlpha" operator="arithmetic" k2="-1" k3="1" result="shadowInnerInner1"></feComposite>
            <feColorMatrix values="0 0 0 0 1   0 0 0 0 1   0 0 0 0 1  0 0 0 0.5 0" type="matrix" in="shadowInnerInner1"></feColorMatrix>
        </filter>
        <circle id="path-7" cx="102" cy="102" r="55"></circle>
        <filter x="-0.9%" y="-0.9%" width="101.8%" height="101.8%" filterUnits="objectBoundingBox" id="filter-8">
            <feOffset dx="0" dy="-2" in="SourceAlpha" result="shadowOffsetInner1"></feOffset>
            <feComposite in="shadowOffsetInner1" in2="SourceAlpha" operator="arithmetic" k2="-1" k3="1" result="shadowInnerInner1"></feComposite>
            <feColorMatrix values="0 0 0 0 1   0 0 0 0 1   0 0 0 0 1  0 0 0 0.5 0" type="matrix" in="shadowInnerInner1"></feColorMatrix>
        </filter>
        <linearGradient x1="50%" y1="0%" x2="50%" y2="100%" id="linearGradient-9">
            <stop stop-color="#15B694" offset="0%"></stop>
            <stop stop-color="#4769FF" offset="100%"></stop>
        </linearGradient>
        <linearGradient x1="50%" y1="0%" x2="50%" y2="100%" id="linearGradient-10">
            <stop stop-color="#15B694" offset="0%"></stop>
            <stop stop-color="#4769FF" offset="100%"></stop>
        </linearGradient>
        <path d="M48.2165395,0.499420622 L91.0662989,23.7402933 C92.2940241,24.4061874 92.2940241,25.4858152 91.0662989,26.1517093 L48.2165395,49.392582 C46.9888143,50.0584761 44.9982785,50.0584761 43.7705533,49.392582 L0.920793888,26.1517093 C-0.306931296,25.4858152 -0.306931296,24.4061874 0.920793888,23.7402933 L43.7705533,0.499420622 C44.9982785,-0.166473541 46.9888143,-0.166473541 48.2165395,0.499420622 Z" id="path-11"></path>
        <filter x="-1.1%" y="-2.0%" width="102.2%" height="104.0%" filterUnits="objectBoundingBox" id="filter-12">
            <feOffset dx="0" dy="-2" in="SourceAlpha" result="shadowOffsetInner1"></feOffset>
            <feComposite in="shadowOffsetInner1" in2="SourceAlpha" operator="arithmetic" k2="-1" k3="1" result="shadowInnerInner1"></feComposite>
            <feColorMatrix values="0 0 0 0 1   0 0 0 0 1   0 0 0 0 1  0 0 0 0.5 0" type="matrix" in="shadowInnerInner1"></feColorMatrix>
        </filter>
    </defs>
    <g id="Web" stroke="none" stroke-width="1" fill="none" fill-rule="evenodd">
        <g id="proswap-landing-v1" transform="translate(-307.000000, -1103.000000)">
            <g id="what-is" transform="translate(307.300000, 1103.805000)">
                <line x1="85.2" y1="101.874201" x2="751.7" y2="101.874201" id="Path-3" stroke="#E0E0E0" stroke-dasharray="5"></line>
                <g id="Group-7">
                    <g id="Group-4" transform="translate(0.500000, 71.658989)">
                        <path d="M5.14870198e-14,24.9460013 L19.564,24.9456331 L43.7705533,11.8170538 C44.9982785,11.1511596 46.9888143,11.1511596 48.2165395,11.8170538 L72.422,24.9456331 L91.9870928,24.9460013 L91.9870928,36.2636344 C91.9870928,36.7000149 91.6801615,37.1363954 91.0662989,37.4693425 L48.2165395,60.7102151 C46.9888143,61.3761093 44.9982785,61.3761093 43.7705533,60.7102151 L0.920793888,37.4693425 C0.306931296,37.1363954 2.12334424e-14,36.7000149 2.12334424e-14,36.2636344 L5.14870198e-14,24.9460013 Z" id="Combined-Shape" fill="url(#linearGradient-1)"></path>
                        <g id="Rectangle">
                            <use fill="#FAFAFB" fill-rule="evenodd" xlink:href="#path-2"></use>
                            <use fill="black" fill-opacity="1" filter="url(#filter-3)" xlink:href="#path-2"></use>
                        </g>
                        <ellipse id="Oval" fill="#E2E3EB" cx="46.8817528" cy="25.9362426" rx="11.6320118" ry="2.67221893"></ellipse>
                    </g>
                    <g id="Ethereum_logo_2014" transform="translate(18.500000, 0.000000)" fill-rule="nonzero">
                        <polygon id="Path" fill="#343434" points="27.7115757 0 27.1062835 2.05734375 27.1062835 61.756695 27.7115757 62.3609044 55.4233463 45.98055"></polygon>
                        <polygon id="Path" fill="#8C8C8C" points="27.7117706 0 0 45.98055 27.7117706 62.3611209 27.7117706 33.3848419"></polygon>
                        <polygon id="Path" fill="#3C3C3B" points="27.7115757 67.6079106 27.3704898 68.0237106 27.3704898 89.2899315 27.7115757 90.2863356 55.4398051 51.2357856"></polygon>
                        <polygon id="Path" fill="#8C8C8C" points="27.7117706 90.2860324 27.7117706 67.6076074 0 51.2354824"></polygon>
                        <polygon id="Path" fill="#141414" points="27.7115757 62.3608394 55.4229132 45.9807016 27.7115757 33.3849935"></polygon>
                        <polygon id="Path" fill="#393939" points="0.00019490625 45.9807233 27.7115324 62.3608611 27.7115324 33.3850151"></polygon>
                    </g>
                </g>
                <g id="Group-5" transform="translate(270.137453, 96.049283)">
                    <circle id="Oval" fill="#4769FF" cx="5.38352778" cy="5.70414502" r="5.275287"></circle>
                    <circle id="Oval-Copy-4" fill="#CED7FF" cx="5.38352778" cy="5.70414502" r="2.13091288"></circle>
                </g>
                <g id="Group-5-Copy" transform="translate(514.700000, 96.049283)">
                    <circle id="Oval" fill="#15B694" cx="5.38352778" cy="5.70414502" r="5.275287"></circle>
                    <circle id="Oval-Copy-4" fill="#FFFFFF" cx="5.38352778" cy="5.70414502" r="2.13091288"></circle>
                </g>
                <g id="Group-8" transform="translate(309.200000, 0.195000)">
                    <circle id="Oval" fill="url(#linearGradient-4)" cx="102" cy="102" r="68"></circle>
                    <g id="Oval-Copy-7" opacity="0.564429874">
                        <use fill="#FAFAFB" fill-rule="evenodd" xlink:href="#path-5"></use>
                        <use fill="black" fill-opacity="1" filter="url(#filter-6)" xlink:href="#path-5"></use>
                    </g>
                    <g id="Oval-Copy-7" opacity="0.564429874">
                        <use fill="#FAFAFB" fill-rule="evenodd" xlink:href="#path-7"></use>
                        <use fill="black" fill-opacity="1" filter="url(#filter-8)" xlink:href="#path-7"></use>
                    </g>
                    <g id="Group-6" transform="translate(39.468727, 40.000000)" fill="url(#linearGradient-9)" fill-rule="nonzero">
                        <path d="M62,4.54747351e-13 C96.2416545,4.54747351e-13 124,27.7583455 124,62 C124,96.2416545 96.2416545,124 62,124 C27.7583455,124 0,96.2416545 0,62 C0,27.7583455 27.7583455,4.54747351e-13 62,4.54747351e-13 Z M62,2.44736842 C29.1099898,2.44736842 2.44736842,29.1099898 2.44736842,62 C2.44736842,94.8900102 29.1099898,121.552632 62,121.552632 C94.8900102,121.552632 121.552632,94.8900102 121.552632,62 C121.552632,29.1099898 94.8900102,2.44736842 62,2.44736842 Z" id="Combined-Shape"></path>
                        <path d="M62,6 C92.927946,6 118,31.072054 118,62 C118,92.927946 92.927946,118 62,118 C31.072054,118 6,92.927946 6,62 C6,31.072054 31.072054,6 62,6 Z M62,6.97034942 C31.6079632,6.97034942 6.97034942,31.6079632 6.97034942,62 C6.97034942,92.3920368 31.6079632,117.029651 62,117.029651 C92.3920368,117.029651 117.029651,92.3920368 117.029651,62 C117.029651,31.6079632 92.3920368,6.97034942 62,6.97034942 Z" id="Combined-Shape-Copy"></path>
                    </g>
                    <g id="noun_Science_1788342" transform="translate(74.500000, 72.000000)" fill="url(#linearGradient-10)" fill-rule="nonzero">
                        <g id="Group">
                            <path d="M27.500018,0 C29.2968348,0 30.9917614,0.796075513 32.4847734,2.14975584 C33.1627368,1.72036077 33.9590391,1.46378031 34.8170902,1.46378031 C37.2330851,1.46378031 39.2073336,3.43803617 39.2073336,5.85402368 C39.2073336,7.3935869 38.4019654,8.77404771 37.1951387,9.55829152 C37.4845436,10.2736085 37.7378094,11.0447694 37.9954435,11.8220108 C40.1761286,11.3715498 42.2315966,11.1030499 44.1006257,11.0903035 C48.4377032,11.0606694 51.9142491,12.2563814 53.4984904,15.000364 C54.4736073,16.6893126 54.5753878,18.718966 54.0015391,20.8768877 C53.4276904,23.0348094 52.1839857,25.3389335 50.4116005,27.6909113 C49.8368299,28.4536136 49.1760397,29.2311989 48.490869,30.0003695 C49.1760397,30.7695402 49.8368299,31.524223 50.4116005,32.2869546 C52.1839857,34.6389543 53.4276904,36.9430272 54.0015391,39.1009782 C54.5753878,41.2588559 54.4736073,43.3114411 53.4984904,45.0003677 C53.4844416,45.024514 53.4669538,45.0237823 53.4527587,45.0457335 C53.7012977,45.5951725 53.8414782,46.1893188 53.8414782,46.8292699 C53.8414782,49.2452208 51.8672369,51.2195133 49.4512348,51.2195133 C47.7543033,51.2195133 46.2712425,50.2583427 45.5411743,48.8414648 C43.299355,48.9823184 40.7550041,48.7697575 37.9954435,48.201221 C37.6737631,49.169416 37.3369289,50.0963427 36.9664802,50.9679523 C35.8147657,53.6779032 34.4332805,55.9096834 32.8506271,57.4847564 C31.2679736,59.0598294 29.4501055,60 27.500018,60 C25.5499304,60 23.7320623,59.0598294 22.1494088,57.4847564 C20.5667554,55.9096834 19.1852702,53.6779032 18.0335557,50.9679523 C17.663107,50.0963427 17.3262728,49.169416 17.0045924,48.201221 C15.820434,48.4461234 14.6742805,48.6101721 13.5747148,48.7270989 C13.3696319,50.9556596 11.4874028,52.705757 9.20733725,52.705757 C6.79133511,52.705757 4.81709389,50.7315377 4.81709389,48.3155136 C4.81709389,48.1568063 4.82367925,48.0127332 4.83992315,47.8581966 C3.40230869,47.2226357 2.23255762,46.2662212 1.50150893,45 C0.526392703,43.3110752 0.424612228,41.2584901 0.998460938,39.1006123 C1.57230892,36.9426613 2.81601364,34.6385885 4.58839879,32.2865887 C5.16316945,31.5238571 5.82395962,30.7691743 6.50913027,30 C5.82395962,29.230833 5.16316945,28.4532477 4.58839879,27.6905454 C2.81601364,25.3385676 1.57230892,23.0344435 0.998460938,20.8765218 C0.424612228,18.7186002 0.526392703,16.6889467 1.50150893,15 C3.0857502,12.2560156 6.56230343,11.0603621 10.8993736,11.0899377 C12.7684027,11.1026694 14.8238707,11.371184 17.0045558,11.8216449 C17.3281314,10.844984 17.6604801,9.88687928 18.0335191,9.00914524 C19.1852336,6.29923094 20.5667188,4.09031657 22.1493723,2.5152436 C23.7320623,0.940170617 25.5499304,0 27.500018,0 L27.500018,0 Z M27.500018,1.46378031 C26.0151645,1.46378031 24.5720842,2.15753388 23.1783721,3.54457274 C21.7846601,4.93161159 20.4819505,6.99455037 19.3826409,9.58115737 C19.0455068,10.3744158 18.7422068,11.2332279 18.445141,12.1192668 C21.3109894,12.8161521 24.3690427,13.8716251 27.500018,15.2518884 C30.6389322,13.8681203 33.7056196,12.8161375 36.5777607,12.1192668 C36.3476096,11.4315352 36.1011925,10.7622426 35.8460535,10.1299378 C35.5177658,10.2089036 35.1688292,10.244267 34.8170902,10.244267 C32.4010881,10.244267 30.4268469,8.27001119 30.4268469,5.85402368 C30.4268469,4.8262677 30.7906517,3.88289221 31.3872126,3.13298742 C30.1309664,2.02361683 28.8251617,1.46378031 27.500018,1.46378031 Z M34.8170902,2.92719476 C33.1919831,2.92719476 31.8902613,4.22892387 31.8902613,5.85402368 C31.8902613,7.47910884 33.1919904,8.78085259 34.8170902,8.78085259 C36.44219,8.78085259 37.7439191,7.47910884 37.7439191,5.85402368 C37.7439191,4.22892387 36.4421973,2.92719476 34.8170902,2.92719476 L34.8170902,2.92719476 Z M44.1006257,12.553718 C42.3913283,12.5653521 40.49377,12.802235 38.4527605,13.2168277 C39.2817043,16.0469395 39.8886335,19.2343586 40.2591627,22.6375582 C43.0272478,24.664475 45.4907158,26.788365 47.5305033,28.9256379 C48.1479984,28.2274575 48.7277812,27.5089503 49.2454421,26.8220089 C50.9372517,24.5769629 52.078532,22.4112704 52.5838564,20.5110341 C53.0891807,18.6107977 52.9603563,17.0178711 52.2180027,15.7320713 C51.0113517,13.6420886 48.1642203,12.5259716 44.1006257,12.553718 Z M10.8994102,12.553718 C6.83580828,12.5259863 3.98868423,13.6420886 2.78203316,15.7320713 C2.03967959,17.0178711 1.91085522,18.6107977 2.41617955,20.5110341 C2.92150387,22.4112704 4.06278422,24.5769629 5.75459377,26.8220089 C6.27225469,27.5089503 6.85203754,28.2274575 7.46953259,28.9256379 C9.50932014,26.788365 11.9727881,24.664475 14.7408732,22.6375582 C15.1128146,19.2320684 15.7168169,16.0481029 16.5472754,13.2168277 C14.5062659,12.802235 12.6087076,12.5653741 10.8994102,12.553718 Z M37.0350778,13.5140837 C34.5946439,14.1003861 31.9915296,14.9632445 29.3064202,16.075059 C30.8947517,16.8337589 32.4858344,17.6668003 34.085383,18.5903026 C35.694934,19.5195781 37.2224899,20.4915341 38.681419,21.4942657 C38.3077215,18.6050538 37.7449582,15.9266761 37.0350778,13.5140837 Z M17.987824,13.5140837 C17.2763558,15.9215907 16.7192851,18.6126709 16.3414827,21.4942657 C17.7957801,20.4953243 19.3108385,19.5162635 20.9146529,18.5903026 C22.5142015,17.6668003 24.1052842,16.8337589 25.6936157,16.075059 C23.0164453,14.9665226 20.4220383,14.1002324 17.987824,13.5140837 Z M27.500018,16.8524979 C25.5686182,17.7252271 23.6030257,18.7182416 21.6463601,19.8479244 C19.6853921,20.9800877 17.8388045,22.2003851 16.1128242,23.437863 C15.9031901,25.5512091 15.7927023,27.7367966 15.7927023,30.0003695 C15.7927023,32.2557839 15.9046535,34.4591007 16.1128242,36.5628321 C17.8388045,37.8003686 19.6853921,38.9977343 21.6463601,40.1299049 C23.6074526,41.2621486 25.5646084,42.2741729 27.500018,43.1481972 C29.4312128,42.2734412 31.3977345,41.2592218 33.3536758,40.1299049 C35.3146438,38.9977343 37.1612314,37.8003686 38.8872117,36.5628321 C39.0953824,34.4591007 39.2073336,32.2557839 39.2073336,30.0003695 C39.2073336,27.7385747 39.0936629,25.5497749 38.8872117,23.437863 C37.1612314,22.2003851 35.3146438,20.9800877 33.3536758,19.8479244 C31.3970102,18.7182416 29.4314177,17.7252271 27.500018,16.8524979 Z M40.4649554,24.5811555 C40.6035481,26.34457 40.6707481,28.1435527 40.6707481,30.0003695 C40.6707481,31.8502717 40.6029188,33.6638813 40.4649554,35.4195396 C42.7762722,33.6504178 44.8149988,31.8219547 46.5472717,30.0003695 C44.8149988,28.1787624 42.7762722,26.3503578 40.4649554,24.5811555 Z M14.5579464,24.5811555 C12.2407174,26.3537895 10.1886445,28.1749722 8.45276418,30.0003695 C10.1850371,31.8219547 12.2237637,33.6504178 14.5350805,35.4195396 C14.3971025,33.6638813 14.3292878,31.8502717 14.3292878,30.0003695 C14.3292878,28.1420014 14.4187317,26.3462309 14.5579464,24.5811555 Z M27.500018,25.6101188 C29.9160201,25.6101188 31.8902613,27.5843747 31.8902613,30.0003695 C31.8902613,32.4163936 29.9160201,34.3906129 27.500018,34.3906129 C25.0840158,34.3906129 23.1097746,32.4163936 23.1097746,30.0003695 C23.1097746,27.5843747 25.0840158,25.6101188 27.500018,25.6101188 Z M27.500018,27.0735333 C25.8749181,27.0735333 24.573189,28.3752478 24.573189,30.0003695 C24.573189,31.6254913 25.8749181,32.9271984 27.500018,32.9271984 C29.1251178,32.9271984 30.4268469,31.6254913 30.4268469,30.0003695 C30.4268469,28.3752478 29.1251178,27.0735333 27.500018,27.0735333 Z M47.5305033,31.0751011 C45.4893694,33.2138081 43.0295087,35.3350274 40.2591627,37.3631735 C39.8875213,40.7727828 39.2850555,43.9500751 38.4527605,46.7839041 C40.9079236,47.2832942 43.1506721,47.4851723 45.1067231,47.4012454 C45.0828036,47.2165625 45.0609914,47.0206113 45.0609914,46.8296358 C45.0609914,44.4136117 47.03524,42.4393924 49.4512348,42.4393924 C50.6368932,42.4393924 51.7235077,42.9271484 52.5152588,43.6969776 C52.9930124,42.518929 53.01451,41.0862462 52.5838198,39.4668318 C52.0784954,37.5665881 50.9372151,35.400881 49.2454055,33.1558569 C48.7277446,32.4689302 48.1479618,31.7732961 47.5304667,31.0751011 L47.5305033,31.0751011 Z M7.46953259,31.0751011 C6.85203754,31.7732961 6.27225469,32.4689302 5.75459377,33.1558569 C4.06278422,35.400881 2.92150387,37.5665881 2.41617955,39.4668318 C1.91085522,41.3670754 2.03967959,42.9828313 2.78203316,44.2686605 C3.30805749,45.1797823 4.1390647,45.8917334 5.25154505,46.4180504 C5.96444009,44.9522213 7.47447893,43.9256361 9.20733725,43.9256361 C11.2653955,43.9256361 12.9907246,45.369075 13.4603855,47.2869528 C14.4450439,47.1801235 15.4792609,47.0242699 16.5472754,46.8067333 C15.7118633,43.9675629 15.1134439,40.7812706 14.7408732,37.3631735 C11.9705272,35.3350274 9.51066649,33.2138081 7.46953259,31.0751011 Z M38.681419,38.4835636 C37.2219485,39.4867342 35.6956072,40.457856 34.085383,41.3875632 C32.47671,42.3163192 30.8572444,43.1408801 29.2606885,43.9028068 C31.9514247,45.0192457 34.5671317,45.8739529 37.0122119,46.4637821 C37.7249606,44.0511971 38.3045386,41.3713193 38.681419,38.4835636 L38.681419,38.4835636 Z M16.3186169,38.4835636 C16.6954973,41.3713193 17.2750753,44.0511971 17.987824,46.4637821 C20.4276139,45.8731481 23.0336185,45.0411238 25.7164816,43.9256361 C24.1249452,43.1651728 22.518921,42.3137583 20.9146529,41.3875632 C19.3044287,40.457856 17.7780874,39.4867342 16.3186169,38.4835636 L16.3186169,38.4835636 Z M49.4512348,43.9028068 C47.8261277,43.9028068 46.5244059,45.204514 46.5244059,46.8296358 C46.5244059,48.4546843 47.826135,49.7564647 49.4512348,49.7564647 C51.0763346,49.7564647 52.3780637,48.4546843 52.3780637,46.8296358 C52.3780637,45.204514 51.0763419,43.9028068 49.4512348,43.9028068 L49.4512348,43.9028068 Z M27.4771521,44.7259775 C24.3482696,46.1049529 21.3074919,47.1852455 18.445141,47.8814649 C18.7406849,48.7608306 19.0475117,49.6081476 19.3826409,50.3967085 C20.4819505,52.9832935 21.7846601,55.0462689 23.1783721,56.4332931 C24.5720842,57.8203173 26.0151645,58.5369514 27.500018,58.5369514 C28.9848714,58.5369514 30.4279517,57.8203173 31.8216638,56.4332931 C33.2153758,55.0462689 34.5180854,52.9832935 35.617395,50.3967085 C35.9525242,49.6081476 36.259351,48.7608306 36.5548949,47.8814649 C33.6797538,47.1838552 30.6198273,46.1145383 27.4771521,44.7259775 L27.4771521,44.7259775 Z M9.20733725,45.3890506 C7.58223014,45.3890506 6.28050834,46.6908309 6.28050834,48.3158795 C6.28050834,49.9410012 7.58223745,51.2427084 9.20733725,51.2427084 C10.8324371,51.2427084 12.1341662,49.9410012 12.1341662,48.3158795 C12.1341662,46.6908309 10.8324444,45.3890506 9.20733725,45.3890506 Z" id="Shape"></path>
                        </g>
                    </g>
                    <circle id="Oval-Copy" stroke="#979797" stroke-width="1.5" opacity="0.20405506" cx="102" cy="102" r="78.277027"></circle>
                    <circle id="Oval-Copy-2" stroke="#979797" stroke-width="1.5" opacity="0.107445126" cx="102" cy="102" r="89.3040541"></circle>
                    <circle id="Oval-Copy-3" stroke="#979797" stroke-width="1.5" opacity="0.061500186" cx="102" cy="102" r="101.25"></circle>
                </g>
                <g id="Group-29" transform="translate(733.000000, 12.321176)">
                    <g id="Group-4-Copy-2" transform="translate(0.700000, 59.269756)">
                        <path d="M1.12593695e-14,24.9460013 L19.564,24.9456331 L43.7705533,11.8170538 C44.9982785,11.1511596 46.9888143,11.1511596 48.2165395,11.8170538 L72.422,24.9456331 L91.9870928,24.9460013 L91.9870928,36.2636344 C91.9870928,36.7000149 91.6801615,37.1363954 91.0662989,37.4693425 L48.2165395,60.7102151 C46.9888143,61.3761093 44.9982785,61.3761093 43.7705533,60.7102151 L0.920793888,37.4693425 C0.306931296,37.1363954 -1.89942079e-14,36.7000149 -1.89942079e-14,36.2636344 L1.12593695e-14,24.9460013 Z" id="Combined-Shape" fill="url(#linearGradient-1)"></path>
                        <g id="Rectangle">
                            <use fill="#FAFAFB" fill-rule="evenodd" xlink:href="#path-11"></use>
                            <use fill="black" fill-opacity="1" filter="url(#filter-12)" xlink:href="#path-11"></use>
                        </g>
                        <ellipse id="Oval" fill="#E2E3EB" cx="46.0225264" cy="25.8705083" rx="16.1011048" ry="2.67221893"></ellipse>
                    </g>
                    <g id="Tether_Logo" transform="translate(6.700000, 0.000000)" fill-rule="nonzero">
                        <circle id="Oval" fill="#26A17B" cx="39.9526974" cy="40.0980611" r="39.656232"></circle>
                        <g id="Group" transform="translate(14.663880, 19.764360)" fill="#FFFFFF">
                            <path d="M29.5158402,23.9932955 L29.5158402,23.9869199 C29.2416894,24.0060467 27.8263062,24.0889295 24.6767598,24.0889295 C22.1583978,24.0889295 20.3923566,24.0187979 19.7675478,23.9869199 L19.7675478,23.9932955 C10.0830114,23.5661303 2.8594566,21.8829719 2.8594566,19.8619067 C2.8594566,17.8472171 10.089387,16.1576831 19.7675478,15.7305179 L19.7675478,22.3165127 C20.3987322,22.3611419 22.2157782,22.4695271 24.721389,22.4695271 C27.7306722,22.4695271 29.2353138,22.3420151 29.5158402,22.3165127 L29.5158402,15.7368935 C39.1812498,16.1704343 46.3856778,17.8535927 46.3856778,19.8682823 C46.3856778,21.8829719 39.1748742,23.5661303 29.5158402,23.9996711 M29.5158402,15.0547043 L29.5158402,9.16364988 L43.0002342,9.16364988 L43.0002342,0.18042948 L6.2895294,0.18042948 L6.2895294,9.16364988 L19.7739234,9.16364988 L19.7739234,15.0547043 C8.814267,15.5583767 0.5769918,17.7260807 0.5769918,20.3273255 C0.5769918,22.9285703 8.8206426,25.0962743 19.7739234,25.6063223 L19.7739234,44.4908495 L29.5222158,44.4908495 L29.5222158,25.6063223 C40.4627454,25.1026499 48.6872694,22.9349459 48.6872694,20.3337011 C48.6872694,17.7388319 40.4627454,15.5647523 29.5222158,15.0610799" id="Shape"></path>
                        </g>
                    </g>
                </g>
            </g>
        </g>
    </g>
</svg>